<svg width="24" height="24" viewBox="0 0 24 24" fill="none" xmlns="http://www.w3.org/2000/svg">
<g clip-path="url(#clip0_13995_65437)">
<path fill-rule="evenodd" clip-rule="evenodd" d="M21 1.5H3C2.60218 1.5 2.22064 1.65804 1.93934 1.93934C1.65804 2.22064 1.5 2.60218 1.5 3V21C1.5 21.3978 1.65804 21.7794 1.93934 22.0607C2.22064 22.342 2.60218 22.5 3 22.5H21C21.3978 22.5 21.7794 22.342 22.0607 22.0607C22.342 21.7794 22.5 21.3978 22.5 21V3C22.5 2.60218 22.342 2.22064 22.0607 1.93934C21.7794 1.65804 21.3978 1.5 21 1.5ZM3 0C2.20435 0 1.44129 0.316071 0.87868 0.87868C0.316071 1.44129 0 2.20435 0 3L0 21C0 21.7956 0.316071 22.5587 0.87868 23.1213C1.44129 23.6839 2.20435 24 3 24H21C21.7956 24 22.5587 23.6839 23.1213 23.1213C23.6839 22.5587 24 21.7956 24 21V3C24 2.20435 23.6839 1.44129 23.1213 0.87868C22.5587 0.316071 21.7956 0 21 0L3 0Z" fill="#856404"/>
<path d="M10.5039 16.5002C10.5039 16.3032 10.5427 16.1081 10.6181 15.9262C10.6935 15.7442 10.804 15.5788 10.9432 15.4395C11.0825 15.3002 11.2479 15.1897 11.4299 15.1144C11.6119 15.039 11.8069 15.0002 12.0039 15.0002C12.2009 15.0002 12.3959 15.039 12.5779 15.1144C12.7599 15.1897 12.9253 15.3002 13.0646 15.4395C13.2039 15.5788 13.3143 15.7442 13.3897 15.9262C13.4651 16.1081 13.5039 16.3032 13.5039 16.5002C13.5039 16.898 13.3459 17.2795 13.0646 17.5608C12.7833 17.8421 12.4017 18.0002 12.0039 18.0002C11.6061 18.0002 11.2246 17.8421 10.9432 17.5608C10.6619 17.2795 10.5039 16.898 10.5039 16.5002ZM10.6509 7.49268C10.6309 7.30344 10.651 7.11211 10.7097 6.93112C10.7684 6.75012 10.8646 6.5835 10.9919 6.44206C11.1192 6.30062 11.2748 6.18752 11.4486 6.1101C11.6225 6.03268 11.8106 5.99268 12.0009 5.99268C12.1912 5.99268 12.3794 6.03268 12.5532 6.1101C12.727 6.18752 12.8826 6.30062 13.0099 6.44206C13.1372 6.5835 13.2334 6.75012 13.2921 6.93112C13.3508 7.11211 13.3709 7.30344 13.3509 7.49268L12.8259 12.7532C12.8083 12.9598 12.7137 13.1523 12.5609 13.2926C12.4082 13.4329 12.2083 13.5108 12.0009 13.5108C11.7935 13.5108 11.5936 13.4329 11.4409 13.2926C11.2881 13.1523 11.1935 12.9598 11.1759 12.7532L10.6509 7.49268Z" fill="#856404"/>
</g>
<defs>
<clipPath id="clip0_13995_65437">
<rect width="24" height="24" fill="white"/>
</clipPath>
</defs>
</svg>
