<svg width="52" height="48" viewBox="0 0 52 48" fill="none" xmlns="http://www.w3.org/2000/svg">
<path d="M8.47059 19.7646H0V47.9999H8.47059V19.7646Z" fill="#0C364C"/>
<mask id="path-2-inside-1_705_18202" fill="white">
<path fill-rule="evenodd" clip-rule="evenodd" d="M51.6466 26.8235L47.5295 43.277C47.0188 44.3122 45.2377 45.2279 43.7911 45.9717C43.2566 46.2465 42.7677 46.4978 42.4055 46.723C41.0631 47.5577 39.5138 48 37.933 48H19.7642C18.2666 48 16.8302 47.405 15.7712 46.346C15.4191 45.994 15.1184 45.6002 14.8737 45.1764H5.64648V19.7646H14.2809C14.7179 18.7555 15.9572 17.7735 17.1045 16.8644C17.8588 16.2667 18.5734 15.7004 18.9941 15.1787L21.3902 3.95601C21.8828 1.64892 23.9209 0 26.28 0H31.0584C31.8072 0 32.5254 0.297478 33.0549 0.826993C33.5844 1.35651 33.8819 2.07468 33.8819 2.82353V16.9412H45.9995C47.4972 16.9412 48.9336 17.5361 49.9926 18.5952C51.0516 19.6542 51.6466 21.0905 51.6466 22.5882V26.8235Z"/>
</mask>
<path fill-rule="evenodd" clip-rule="evenodd" d="M51.6466 26.8235L47.5295 43.277C47.0188 44.3122 45.2377 45.2279 43.7911 45.9717C43.2566 46.2465 42.7677 46.4978 42.4055 46.723C41.0631 47.5577 39.5138 48 37.933 48H19.7642C18.2666 48 16.8302 47.405 15.7712 46.346C15.4191 45.994 15.1184 45.6002 14.8737 45.1764H5.64648V19.7646H14.2809C14.7179 18.7555 15.9572 17.7735 17.1045 16.8644C17.8588 16.2667 18.5734 15.7004 18.9941 15.1787L21.3902 3.95601C21.8828 1.64892 23.9209 0 26.28 0H31.0584C31.8072 0 32.5254 0.297478 33.0549 0.826993C33.5844 1.35651 33.8819 2.07468 33.8819 2.82353V16.9412H45.9995C47.4972 16.9412 48.9336 17.5361 49.9926 18.5952C51.0516 19.6542 51.6466 21.0905 51.6466 22.5882V26.8235Z" fill="#E1AB4D"/>
<path d="M47.5295 43.277L51.1167 45.0467L51.306 44.663L51.4099 44.248L47.5295 43.277ZM51.6466 26.8235L55.527 27.7945L55.6466 27.3164V26.8235H51.6466ZM43.7911 45.9717L45.62 49.5291L45.62 49.5291L43.7911 45.9717ZM42.4055 46.723L40.2935 43.326L40.2935 43.326L42.4055 46.723ZM37.933 48L37.933 44H37.933V48ZM15.7712 46.346L12.9427 49.1744L12.9427 49.1744L15.7712 46.346ZM14.8737 45.1764L18.3379 43.1766L17.1832 41.1764H14.8737V45.1764ZM5.64648 45.1764H1.64648V49.1764H5.64648V45.1764ZM5.64648 19.7646V15.7646H1.64648V19.7646H5.64648ZM14.2809 19.7646V23.7646H16.9076L17.9514 21.3543L14.2809 19.7646ZM17.1045 16.8644L14.6203 13.7293L14.6203 13.7293L17.1045 16.8644ZM18.9941 15.1787L22.1078 17.6897L22.7067 16.947L22.906 16.0139L18.9941 15.1787ZM21.3902 3.95601L25.302 4.7912L25.302 4.7912L21.3902 3.95601ZM33.0549 0.826993L35.8833 -2.00143L35.8833 -2.00143L33.0549 0.826993ZM33.8819 16.9412H29.8819V20.9412H33.8819V16.9412ZM51.4099 44.248L55.527 27.7945L47.7662 25.8526L43.6492 42.3061L51.4099 44.248ZM45.62 49.5291C46.3037 49.1775 47.3044 48.6675 48.2009 48.0811C48.9625 47.5829 50.3504 46.6001 51.1167 45.0467L43.9423 41.5073C44.1046 41.1784 44.2649 41.0494 44.2097 41.1008C44.1696 41.138 44.0532 41.2347 43.8217 41.3862C43.3383 41.7024 42.725 42.0221 41.9621 42.4143L45.62 49.5291ZM44.5175 50.12C44.7102 50.0002 45.0317 49.8315 45.62 49.5291L41.9621 42.4143C41.4814 42.6614 40.8253 42.9954 40.2935 43.326L44.5175 50.12ZM37.933 52C40.2603 52 42.5411 51.3488 44.5175 50.12L40.2935 43.326C39.585 43.7665 38.7673 44 37.933 44L37.933 52ZM19.7642 52H37.933V44H19.7642V52ZM12.9427 49.1744C14.7519 50.9836 17.2057 52 19.7642 52V44C19.3274 44 18.9085 43.8265 18.5996 43.5176L12.9427 49.1744ZM11.4095 47.1763C11.8276 47.9004 12.3415 48.5732 12.9427 49.1744L18.5996 43.5176C18.4968 43.4148 18.4092 43.3001 18.3379 43.1766L11.4095 47.1763ZM5.64648 49.1764H14.8737V41.1764H5.64648V49.1764ZM1.64648 19.7646V45.1764H9.64648V19.7646H1.64648ZM14.2809 15.7646H5.64648V23.7646H14.2809V15.7646ZM14.6203 13.7293C14.0782 14.1588 13.3292 14.7483 12.6629 15.385C12.0344 15.9856 11.1501 16.9287 10.6103 18.175L17.9514 21.3543C17.8861 21.5052 17.8379 21.5515 17.8869 21.4893C17.9325 21.4314 18.0255 21.3259 18.1897 21.169C18.5391 20.8351 18.9834 20.4791 19.5887 19.9994L14.6203 13.7293ZM15.8805 12.6677C15.8925 12.6527 15.8182 12.7424 15.558 12.9674C15.3096 13.1822 15.0133 13.4178 14.6203 13.7293L19.5887 19.9994C20.2014 19.5139 21.3417 18.6396 22.1078 17.6897L15.8805 12.6677ZM17.4784 3.12082L15.0823 14.3435L22.906 16.0139L25.302 4.7912L17.4784 3.12082ZM26.28 -4C22.0336 -4 18.365 -1.03195 17.4784 3.12082L25.302 4.7912C25.4006 4.32979 25.8082 4 26.28 4V-4ZM31.0584 -4H26.28V4H31.0584V-4ZM35.8833 -2.00143C34.6037 -3.28109 32.8681 -4 31.0584 -4V4C30.7463 4 30.4471 3.87605 30.2265 3.65542L35.8833 -2.00143ZM37.8819 2.82353C37.8819 1.01382 37.163 -0.721773 35.8833 -2.00143L30.2265 3.65542C30.0058 3.43479 29.8819 3.13555 29.8819 2.82353H37.8819ZM37.8819 16.9412V2.82353H29.8819V16.9412H37.8819ZM45.9995 12.9412H33.8819V20.9412H45.9995V12.9412ZM52.821 15.7667C51.0119 13.9576 48.5581 12.9412 45.9995 12.9412V20.9412C46.4364 20.9412 46.8553 21.1147 47.1642 21.4236L52.821 15.7667ZM55.6466 22.5882C55.6466 20.0297 54.6302 17.5759 52.821 15.7667L47.1642 21.4236C47.4731 21.7325 47.6466 22.1514 47.6466 22.5882H55.6466ZM55.6466 26.8235V22.5882H47.6466V26.8235H55.6466Z" fill="#0C364C" mask="url(#path-2-inside-1_705_18202)"/>
<path d="M15 24H10V41H15V24Z" fill="#E6BB6E"/>
<path d="M17.2 41.15L44 41L43.95 41.35L39.6634 43.6448C39.2279 43.878 38.7415 44 38.2475 44H19.9467C19.0655 44 18.2653 43.4855 17.8996 42.6837L17.2 41.15Z" fill="#DB9B2B" fill-opacity="0.85"/>
</svg>
