<svg width="24" height="24" viewBox="0 0 24 24" fill="none" xmlns="http://www.w3.org/2000/svg">
<g clip-path="url(#clip0_2320_33392)">
<path fill-rule="evenodd" clip-rule="evenodd" d="M15.117 1.30053C14.7132 0.887343 14.231 0.559023 13.6985 0.334867C13.1661 0.11071 12.5942 -0.00476074 12.0165 -0.00476074C11.4388 -0.00476074 10.8669 0.11071 10.3345 0.334867C9.80202 0.559023 9.31975 0.887343 8.91599 1.30053L7.98299 2.25753L6.64799 2.24103C6.07012 2.23419 5.49671 2.34297 4.96149 2.56096C4.42626 2.77896 3.94003 3.10177 3.53138 3.51042C3.12273 3.91907 2.79992 4.4053 2.58193 4.94052C2.36393 5.47575 2.25515 6.04916 2.26199 6.62703L2.27699 7.96203L1.32299 8.89503C0.909804 9.29879 0.581484 9.78106 0.357328 10.3135C0.133171 10.8459 0.0177002 11.4178 0.0177002 11.9955C0.0177002 12.5732 0.133171 13.1451 0.357328 13.6776C0.581484 14.21 0.909804 14.6923 1.32299 15.096L2.27849 16.029L2.26199 17.364C2.25515 17.9419 2.36393 18.5153 2.58193 19.0505C2.79992 19.5858 3.12273 20.072 3.53138 20.4806C3.94003 20.8893 4.42626 21.2121 4.96149 21.4301C5.49671 21.6481 6.07012 21.7569 6.64799 21.75L7.98299 21.735L8.91599 22.689C9.31975 23.1022 9.80202 23.4305 10.3345 23.6547C10.8669 23.8789 11.4388 23.9943 12.0165 23.9943C12.5942 23.9943 13.1661 23.8789 13.6985 23.6547C14.231 23.4305 14.7132 23.1022 15.117 22.689L16.05 21.7335L17.385 21.75C17.9629 21.7569 18.5363 21.6481 19.0715 21.4301C19.6067 21.2121 20.093 20.8893 20.5016 20.4806C20.9103 20.072 21.2331 19.5858 21.4511 19.0505C21.6691 18.5153 21.7778 17.9419 21.771 17.364L21.756 16.029L22.71 15.096C23.1232 14.6923 23.4515 14.21 23.6757 13.6776C23.8998 13.1451 24.0153 12.5732 24.0153 11.9955C24.0153 11.4178 23.8998 10.8459 23.6757 10.3135C23.4515 9.78106 23.1232 9.29879 22.71 8.89503L21.7545 7.96203L21.771 6.62703C21.7778 6.04916 21.6691 5.47575 21.4511 4.94052C21.2331 4.4053 20.9103 3.91907 20.5016 3.51042C20.093 3.10177 19.6067 2.77896 19.0715 2.56096C18.5363 2.34297 17.9629 2.23419 17.385 2.24103L16.05 2.25603L15.117 1.30203V1.30053ZM12.0165 5.99553C11.8269 5.99564 11.6394 6.03546 11.4662 6.11242C11.2929 6.18939 11.1377 6.3018 11.0105 6.4424C10.8833 6.583 10.787 6.74869 10.7278 6.92878C10.6685 7.10888 10.6476 7.29938 10.6665 7.48803L11.1915 12.7485C11.2128 12.9525 11.3089 13.1413 11.4613 13.2785C11.6136 13.4158 11.8114 13.4917 12.0165 13.4917C12.2216 13.4917 12.4193 13.4158 12.5717 13.2785C12.724 13.1413 12.8202 12.9525 12.8415 12.7485L13.3665 7.48803C13.3853 7.29938 13.3645 7.10888 13.3052 6.92878C13.246 6.74869 13.1497 6.583 13.0225 6.4424C12.8953 6.3018 12.7401 6.18939 12.5668 6.11242C12.3935 6.03546 12.2061 5.99564 12.0165 5.99553ZM12.0195 14.9955C11.6217 14.9955 11.2401 15.1536 10.9588 15.4349C10.6775 15.7162 10.5195 16.0977 10.5195 16.4955C10.5195 16.8934 10.6775 17.2749 10.9588 17.5562C11.2401 17.8375 11.6217 17.9955 12.0195 17.9955C12.4173 17.9955 12.7988 17.8375 13.0802 17.5562C13.3615 17.2749 13.5195 16.8934 13.5195 16.4955C13.5195 16.0977 13.3615 15.7162 13.0802 15.4349C12.7988 15.1536 12.4173 14.9955 12.0195 14.9955Z" fill="#C51315"/>
</g>
<defs>
<clipPath id="clip0_2320_33392">
<rect width="24" height="24" fill="white"/>
</clipPath>
</defs>
</svg>
