<svg width="43" height="56" viewBox="0 0 43 56" fill="none" xmlns="http://www.w3.org/2000/svg">
<rect x="2.66797" y="21.3335" width="37.3333" height="32" fill="#E6BB6E"/>
<path d="M37.3333 18.6667H34.6667V13.3333C34.6667 5.97333 28.6933 0 21.3333 0C13.9733 0 8 5.97333 8 13.3333V18.6667H13.0667V13.3333C13.0667 8.77333 16.7733 5.06667 21.3333 5.06667C25.8933 5.06667 29.6 8.77333 29.6 13.3333V18.6667H5.33333C2.4 18.6667 0 21.0667 0 24V50.6667C0 53.6 2.4 56 5.33333 56H37.3333C40.2667 56 42.6667 53.6 42.6667 50.6667V24C42.6667 21.0667 40.2667 18.6667 37.3333 18.6667ZM38.6667 52H4V22.6667H38.6667V52Z" fill="#122D3C"/>
<path d="M18.6662 34.673C18.6662 32.0063 18.3995 32.0063 21.3329 32.0063C24.2662 32.0063 23.9995 31.7397 23.9995 34.673C23.9995 37.6063 24.2662 40.0063 21.3329 40.0063C18.3995 40.0063 18.6662 37.6063 18.6662 34.673Z" fill="#122D3C"/>
<rect x="33.334" y="22.667" width="5.33333" height="29.3333" fill="#E1AB4D" fill-opacity="0.5"/>
<rect x="4" y="22.667" width="5.33333" height="29.3333" fill="#FED48A"/>
</svg>
