<svg width="46" height="53" viewBox="0 0 46 53" fill="none" xmlns="http://www.w3.org/2000/svg">
<path d="M1.5 2.5H37.5C38.3295 2.5 39 3.172 39 4V47.5C39 48.3295 38.3295 49 37.5 49H1.5C0.6705 49 0 48.3295 0 47.5V4C0 3.172 0.6705 2.5 1.5 2.5Z" fill="#9A9DA0"/>
<path d="M4.5 7H34.5V44.5H4.5V7Z" fill="white"/>
<path d="M7.45312 4H12.9381V1C12.9381 0.447715 13.3858 0 13.9381 0H25.0045C25.5537 0 26.0001 0.442931 26.0044 0.992126L26.0281 4H31.4966V8.5H7.45312V4Z" fill="#9A9DA0"/>
<path d="M7.5 23.9999C7.5 24.5522 7.94772 24.9999 8.5 24.9999H11C11.5523 24.9999 12 24.5522 12 23.9999V21.4849C12 20.9326 11.5523 20.4849 11 20.4849H8.5C7.94772 20.4849 7.5 20.9326 7.5 21.4849V23.9999ZM16 20.4834C15.4477 20.4834 15 20.9311 15 21.4834V23.9804C15 24.5327 15.4477 24.9804 16 24.9804H30.5C31.0523 24.9804 31.5 24.5327 31.5 23.9804V21.4834C31.5 20.9311 31.0523 20.4834 30.5 20.4834H16Z" fill="#9A9DA0"/>
<path d="M7.5 16.515C7.5 17.0673 7.94772 17.515 8.5 17.515H11C11.5523 17.515 12 17.0673 12 16.515V14C12 13.4477 11.5523 13 11 13H8.5C7.94772 13 7.5 13.4477 7.5 14V16.515ZM16 13C15.4477 13 15 13.4477 15 14V16.4985C15 17.0508 15.4477 17.4985 16 17.4985H30.5C31.0523 17.4985 31.5 17.0508 31.5 16.4985V14C31.5 13.4477 31.0523 13 30.5 13H16ZM7.5 31.485C7.5 32.0373 7.94772 32.485 8.5 32.485H11C11.5523 32.485 12 32.0373 12 31.485V29.0165C12 28.4642 11.5523 28.0165 11 28.0165H8.5C7.94772 28.0165 7.5 28.4642 7.5 29.0165V31.485ZM15 31.518C15 32.0703 15.4477 32.518 16 32.518H30.5C31.0523 32.518 31.5 32.0703 31.5 31.518V29.021C31.5 28.4687 31.0523 28.021 30.5 28.021H16C15.4477 28.021 15 28.4687 15 29.021V31.518ZM7.5 38.9865C7.5 39.5388 7.94772 39.9865 8.5 39.9865H11C11.5523 39.9865 12 39.5388 12 38.9865V36.518C12 35.9657 11.5523 35.518 11 35.518H8.5C7.94772 35.518 7.5 35.9657 7.5 36.518V38.9865ZM15 39.018C15 39.5703 15.4477 40.018 16 40.018H30.5C31.0523 40.018 31.5 39.5703 31.5 39.018V36.521C31.5 35.9687 31.0523 35.521 30.5 35.521H16C15.4477 35.521 15 35.9687 15 36.521V39.018Z" fill="#9A9DA0"/>
<circle cx="31" cy="38" r="15" fill="#9A9DA0"/>
<path d="M24.3332 28.0224C26.3066 26.7038 28.6266 26 31 26C34.1815 26.0036 37.2316 27.2691 39.4813 29.5187C41.7309 31.7684 42.9964 34.8185 43 38C43 40.3734 42.2962 42.6935 40.9776 44.6668C39.6591 46.6402 37.7849 48.1783 35.5922 49.0866C33.3995 49.9948 30.9867 50.2324 28.6589 49.7694C26.3312 49.3064 24.193 48.1635 22.5147 46.4853C20.8365 44.8071 19.6936 42.6689 19.2306 40.3411C18.7676 38.0133 19.0052 35.6005 19.9135 33.4078C20.8217 31.2151 22.3598 29.3409 24.3332 28.0224Z" fill="#E6E8ED"/>
<path d="M24.3332 28.0224C26.3066 26.7038 28.6266 26 31 26C34.1815 26.0036 37.2316 27.2691 39.4813 29.5187C41.7309 31.7684 42.9964 34.8185 43 38C43 40.3734 42.2962 42.6935 40.9776 44.6668C39.6591 46.6402 37.7849 48.1783 35.5922 49.0866C33.3995 49.9948 30.9867 50.2324 28.6589 49.7694C26.3312 49.3064 24.193 48.1635 22.5147 46.4853C20.8365 44.8071 19.6936 42.6689 19.2306 40.3411C18.7676 38.0133 19.0052 35.6005 19.9135 33.4078C20.8217 31.2151 22.3598 29.3409 24.3332 28.0224Z" stroke="white"/>
<path d="M36.8838 35.8715L36.8838 35.8715L36.8868 35.8684C37.1145 35.6326 37.2405 35.3169 37.2377 34.9891C37.2348 34.6614 37.1034 34.3479 36.8716 34.1161C36.6398 33.8844 36.3263 33.7529 35.9986 33.75C35.6708 33.7472 35.3551 33.8732 35.1193 34.1009L35.1193 34.1009L35.1162 34.1039L30.1356 39.0847L28 36.2377C28 36.2377 28 36.2377 28 36.2377C27.9015 36.1064 27.7781 35.9957 27.6369 35.9121C27.4956 35.8285 27.3393 35.7735 27.1768 35.7503C27.0143 35.7271 26.8488 35.7361 26.6898 35.7768C26.5308 35.8176 26.3813 35.8892 26.25 35.9877C26.1187 36.0862 26.008 36.2096 25.9244 36.3508C25.8408 36.4921 25.7858 36.6484 25.7626 36.8109C25.7393 36.9734 25.7484 37.1389 25.7891 37.2979C25.8298 37.457 25.9015 37.6064 26 37.7377C26 37.7377 26 37.7377 26 37.7377L29.6916 42.6602L29.8645 42.8908L30.0684 42.687L36.8838 35.8715Z" fill="#9A9DA0" stroke="#9A9DA0" stroke-width="0.5"/>
</svg>
