<svg width="47" height="48" viewBox="0 0 47 48" fill="none" xmlns="http://www.w3.org/2000/svg">
<mask id="path-1-inside-1_705_18254" fill="white">
<path fill-rule="evenodd" clip-rule="evenodd" d="M46.6466 26.8235L42.5295 43.277C42.0188 44.3122 40.2377 45.2279 38.7911 45.9717C38.2566 46.2465 37.7677 46.4978 37.4055 46.723C36.0631 47.5577 34.5138 48 32.933 48H14.7642C13.2666 48 11.8302 47.405 10.7712 46.346C10.4191 45.994 10.1184 45.6002 9.8737 45.1764H0.646484V19.7646H9.28087C9.71791 18.7555 10.9572 17.7735 12.1045 16.8644C12.8588 16.2667 13.5734 15.7004 13.9941 15.1787L16.3902 3.95601C16.8828 1.64892 18.9209 0 21.28 0H26.0584C26.8072 0 27.5254 0.297478 28.0549 0.826993C28.5844 1.35651 28.8819 2.07468 28.8819 2.82353V16.9412H40.9995C42.4972 16.9412 43.9336 17.5361 44.9926 18.5952C46.0516 19.6542 46.6466 21.0905 46.6466 22.5882V26.8235Z"/>
</mask>
<path fill-rule="evenodd" clip-rule="evenodd" d="M46.6466 26.8235L42.5295 43.277C42.0188 44.3122 40.2377 45.2279 38.7911 45.9717C38.2566 46.2465 37.7677 46.4978 37.4055 46.723C36.0631 47.5577 34.5138 48 32.933 48H14.7642C13.2666 48 11.8302 47.405 10.7712 46.346C10.4191 45.994 10.1184 45.6002 9.8737 45.1764H0.646484V19.7646H9.28087C9.71791 18.7555 10.9572 17.7735 12.1045 16.8644C12.8588 16.2667 13.5734 15.7004 13.9941 15.1787L16.3902 3.95601C16.8828 1.64892 18.9209 0 21.28 0H26.0584C26.8072 0 27.5254 0.297478 28.0549 0.826993C28.5844 1.35651 28.8819 2.07468 28.8819 2.82353V16.9412H40.9995C42.4972 16.9412 43.9336 17.5361 44.9926 18.5952C46.0516 19.6542 46.6466 21.0905 46.6466 22.5882V26.8235Z" fill="#E9ECEF"/>
<path d="M42.5295 43.277L46.1167 45.0467L46.306 44.663L46.4099 44.248L42.5295 43.277ZM46.6466 26.8235L50.527 27.7945L50.6466 27.3164V26.8235H46.6466ZM38.7911 45.9717L40.62 49.5291L40.62 49.5291L38.7911 45.9717ZM37.4055 46.723L35.2935 43.326L35.2935 43.326L37.4055 46.723ZM32.933 48L32.933 44H32.933V48ZM10.7712 46.346L7.94274 49.1744L7.94275 49.1744L10.7712 46.346ZM9.8737 45.1764L13.3379 43.1766L12.1832 41.1764H9.8737V45.1764ZM0.646484 45.1764H-3.35352V49.1764H0.646484V45.1764ZM0.646484 19.7646V15.7646H-3.35352V19.7646H0.646484ZM9.28087 19.7646V23.7646H11.9076L12.9514 21.3543L9.28087 19.7646ZM12.1045 16.8644L9.62028 13.7293L9.62027 13.7293L12.1045 16.8644ZM13.9941 15.1787L17.1078 17.6897L17.7067 16.947L17.906 16.0139L13.9941 15.1787ZM16.3902 3.95601L20.302 4.7912L20.302 4.7912L16.3902 3.95601ZM28.0549 0.826993L30.8833 -2.00143L30.8833 -2.00143L28.0549 0.826993ZM28.8819 16.9412H24.8819V20.9412H28.8819V16.9412ZM46.4099 44.248L50.527 27.7945L42.7662 25.8526L38.6492 42.3061L46.4099 44.248ZM40.62 49.5291C41.3037 49.1775 42.3044 48.6675 43.2009 48.0811C43.9625 47.5829 45.3504 46.6001 46.1167 45.0467L38.9423 41.5073C39.1046 41.1784 39.2649 41.0494 39.2097 41.1008C39.1696 41.138 39.0532 41.2347 38.8217 41.3862C38.3383 41.7024 37.725 42.0221 36.9621 42.4143L40.62 49.5291ZM39.5175 50.12C39.7102 50.0002 40.0317 49.8315 40.62 49.5291L36.9621 42.4143C36.4814 42.6614 35.8253 42.9954 35.2935 43.326L39.5175 50.12ZM32.933 52C35.2603 52 37.5411 51.3488 39.5175 50.12L35.2935 43.326C34.585 43.7665 33.7673 44 32.933 44L32.933 52ZM14.7642 52H32.933V44H14.7642V52ZM7.94275 49.1744C9.75192 50.9836 12.2057 52 14.7642 52V44C14.3274 44 13.9085 43.8265 13.5996 43.5176L7.94275 49.1744ZM6.40951 47.1763C6.82756 47.9004 7.34148 48.5732 7.94274 49.1744L13.5996 43.5176C13.4968 43.4148 13.4092 43.3001 13.3379 43.1766L6.40951 47.1763ZM0.646484 49.1764H9.8737V41.1764H0.646484V49.1764ZM-3.35352 19.7646V45.1764H4.64648V19.7646H-3.35352ZM9.28087 15.7646H0.646484V23.7646H9.28087V15.7646ZM9.62027 13.7293C9.07825 14.1588 8.32924 14.7483 7.66291 15.385C7.03438 15.9856 6.15007 16.9287 5.61031 18.175L12.9514 21.3543C12.8861 21.5052 12.8379 21.5515 12.8869 21.4893C12.9325 21.4314 13.0255 21.3259 13.1897 21.169C13.5391 20.8351 13.9834 20.4791 14.5887 19.9994L9.62027 13.7293ZM10.8805 12.6677C10.8925 12.6527 10.8182 12.7424 10.558 12.9674C10.3096 13.1822 10.0133 13.4178 9.62028 13.7293L14.5887 19.9994C15.2014 19.5139 16.3417 18.6396 17.1078 17.6897L10.8805 12.6677ZM12.4784 3.12082L10.0823 14.3435L17.906 16.0139L20.302 4.7912L12.4784 3.12082ZM21.28 -4C17.0336 -4 13.365 -1.03195 12.4784 3.12082L20.302 4.7912C20.4006 4.32979 20.8082 4 21.28 4V-4ZM26.0584 -4H21.28V4H26.0584V-4ZM30.8833 -2.00143C29.6037 -3.28109 27.8681 -4 26.0584 -4V4C25.7463 4 25.4471 3.87605 25.2265 3.65542L30.8833 -2.00143ZM32.8819 2.82353C32.8819 1.01382 32.163 -0.721773 30.8833 -2.00143L25.2265 3.65542C25.0058 3.43479 24.8819 3.13555 24.8819 2.82353H32.8819ZM32.8819 16.9412V2.82353H24.8819V16.9412H32.8819ZM40.9995 12.9412H28.8819V20.9412H40.9995V12.9412ZM47.821 15.7667C46.0119 13.9576 43.5581 12.9412 40.9995 12.9412V20.9412C41.4364 20.9412 41.8553 21.1147 42.1642 21.4236L47.821 15.7667ZM50.6466 22.5882C50.6466 20.0297 49.6302 17.5759 47.821 15.7667L42.1642 21.4236C42.4731 21.7325 42.6466 22.1514 42.6466 22.5882H50.6466ZM50.6466 26.8235V22.5882H42.6466V26.8235H50.6466Z" fill="#9A9DA0" mask="url(#path-1-inside-1_705_18254)"/>
<path d="M10 24H5V41H10V24Z" fill="#CED4DA"/>
</svg>
