<svg width="52" height="52" viewBox="0 0 52 52" fill="none" xmlns="http://www.w3.org/2000/svg">
<path d="M25.9993 47.273C37.7479 47.273 47.272 37.7489 47.272 26.0003C47.272 14.2517 37.7479 4.72754 25.9993 4.72754C14.2507 4.72754 4.72656 14.2517 4.72656 26.0003C4.72656 37.7489 14.2507 47.273 25.9993 47.273Z" fill="#ECF0F9"/>
<path d="M26 26V3L19 4L10.5 8.5L3.5 19V35L15 47.5L30.5 50L42.5 43L26 26Z" fill="#A6B0C7" fill-opacity="0.6"/>
<path d="M26 0C11.5818 0 0 11.5818 0 26C0 40.4182 11.5818 52 26 52C40.4182 52 52 40.4182 52 26C52 11.5818 40.4182 0 26 0ZM26 47.2727C14.3 47.2727 4.72727 37.7 4.72727 26C4.72727 14.3 14.3 4.72727 26 4.72727C37.7 4.72727 47.2727 14.3 47.2727 26C47.2727 37.7 37.7 47.2727 26 47.2727Z" fill="#0C364C"/>
<path d="M6.49929 27.773C6.49929 16.073 16.072 6.50027 27.772 6.50027C33.2084 6.50027 38.172 8.50936 41.8357 11.9366C37.9357 7.44572 32.3811 4.72754 25.9993 4.72754C14.2993 4.72754 4.72656 14.3003 4.72656 26.0003C4.72656 32.3821 7.44474 37.9366 11.9357 41.8366C8.50838 38.173 6.49929 33.2094 6.49929 27.773Z" fill="#63798C"/>
<path d="M7.09268 27.182H2.36541C1.65632 27.182 1.18359 26.7093 1.18359 26.0002C1.18359 25.2911 1.65632 24.8184 2.36541 24.8184H7.09268C7.80178 24.8184 8.2745 25.2911 8.2745 26.0002C8.2745 26.7093 7.80178 27.182 7.09268 27.182Z" fill="#0C364C"/>
<path d="M49.6357 27.182H44.9084C44.1993 27.182 43.7266 26.7093 43.7266 26.0002C43.7266 25.2911 44.1993 24.8184 44.9084 24.8184H49.6357C50.3447 24.8184 50.8175 25.2911 50.8175 26.0002C50.8175 26.7093 50.3447 27.182 49.6357 27.182Z" fill="#0C364C"/>
<path d="M24.8164 7.09073V2.36346C24.8164 1.65437 25.2891 1.18164 25.9982 1.18164C26.7073 1.18164 27.18 1.65437 27.18 2.36346V7.09073C27.18 7.79982 26.7073 8.27255 25.9982 8.27255C25.2891 8.27255 24.8164 7.79982 24.8164 7.09073Z" fill="#0C364C"/>
<path d="M24.8164 49.6366V44.9094C24.8164 44.2003 25.2891 43.7275 25.9982 43.7275C26.7073 43.7275 27.18 44.2003 27.18 44.9094V49.6366C27.18 50.3457 26.7073 50.8184 25.9982 50.8184C25.2891 50.8184 24.8164 50.3457 24.8164 49.6366Z" fill="#0C364C"/>
<path d="M26.0002 24.8182C25.2911 24.8182 24.8184 24.3455 24.8184 23.6364V14.1818C24.8184 13.4727 25.2911 13 26.0002 13C26.7093 13 27.182 13.4727 27.182 14.1818V23.6364C27.182 24.3455 26.7093 24.8182 26.0002 24.8182Z" fill="#122D3C"/>
<path d="M36.6364 37.8182C36.2818 37.8182 36.0455 37.7 35.8091 37.4636L26.3545 28.0091C25.8818 27.5364 25.8818 26.8273 26.3545 26.3545C26.8273 25.8818 27.5364 25.8818 28.0091 26.3545L37.4636 35.8091C37.9364 36.2818 37.9364 36.9909 37.4636 37.4636C37.2273 37.7 36.9909 37.8182 36.6364 37.8182Z" fill="#122D3C"/>
<path d="M17.7209 11.6616C18.2861 11.3352 18.4798 10.6124 18.1534 10.0472C17.8271 9.48196 17.1043 9.28831 16.5391 9.61466C15.9738 9.94101 15.7802 10.6638 16.1065 11.229C16.4329 11.7943 17.1557 11.9879 17.7209 11.6616Z" fill="#E1AB4D"/>
<path d="M35.4611 42.3847C36.0264 42.0584 36.22 41.3356 35.8937 40.7703C35.5673 40.2051 34.8446 40.0115 34.2793 40.3378C33.7141 40.6642 33.5204 41.3869 33.8468 41.9522C34.1731 42.5174 34.8959 42.7111 35.4611 42.3847Z" fill="#E1AB4D"/>
<path d="M11.6671 17.737C11.9935 17.1717 11.7998 16.449 11.2346 16.1226C10.6693 15.7963 9.94656 15.9899 9.62021 16.5552C9.29386 17.1204 9.48751 17.8432 10.0528 18.1695C10.618 18.4959 11.3408 18.3022 11.6671 17.737Z" fill="#E1AB4D"/>
<path d="M42.38 35.4455C42.7064 34.8802 42.5127 34.1575 41.9475 33.8311C41.3822 33.5048 40.6594 33.6984 40.3331 34.2637C40.0067 34.8289 40.2004 35.5517 40.7656 35.878C41.3309 36.2044 42.0537 36.0107 42.38 35.4455Z" fill="#E1AB4D"/>
<path d="M35.8761 11.234C36.2024 10.6688 36.0088 9.94603 35.4436 9.61968C34.8783 9.29333 34.1555 9.48699 33.8292 10.0522C33.5028 10.6175 33.6965 11.3402 34.2617 11.6666C34.827 11.9929 35.5497 11.7993 35.8761 11.234Z" fill="#E1AB4D"/>
<path d="M18.1691 41.9499C18.4954 41.3846 18.3018 40.6619 17.7365 40.3355C17.1713 40.0092 16.4485 40.2028 16.1222 40.768C15.7958 41.3333 15.9895 42.0561 16.5547 42.3824C17.1199 42.7088 17.8427 42.5151 18.1691 41.9499Z" fill="#E1AB4D"/>
<path d="M41.9494 18.1542C42.5147 17.8279 42.7083 17.1051 42.382 16.5399C42.0556 15.9746 41.3328 15.781 40.7676 16.1073C40.2024 16.4337 40.0087 17.1565 40.335 17.7217C40.6614 18.2869 41.3842 18.4806 41.9494 18.1542Z" fill="#E1AB4D"/>
<path d="M11.2268 35.892C11.792 35.5657 11.9857 34.8429 11.6593 34.2777C11.333 33.7124 10.6102 33.5188 10.0449 33.8451C9.4797 34.1715 9.28604 34.8943 9.61239 35.4595C9.93874 36.0247 10.6615 36.2184 11.2268 35.892Z" fill="#E1AB4D"/>
<path d="M35.6931 37.3451L27.5386 29.1906C27.3022 28.9542 27.3022 28.5997 27.5386 28.3633C27.775 28.1269 28.1295 28.1269 28.3659 28.3633L36.5204 36.5179C36.7568 36.7542 36.7568 37.1088 36.5204 37.3451C36.2841 37.5815 35.9295 37.5815 35.6931 37.3451Z" fill="#0A2331"/>
<path d="M25.7728 28.5456C27.3042 28.5456 28.5456 27.3042 28.5456 25.7728C28.5456 24.2414 27.3042 23 25.7728 23C24.2414 23 23 24.2414 23 25.7728C23 27.3042 24.2414 28.5456 25.7728 28.5456Z" fill="#E1AB4D"/>
<path d="M27.253 23.3701C27.5303 23.8322 27.6227 24.2944 27.6227 24.8489C27.6227 26.4202 26.4212 27.6217 24.8499 27.6217C24.2954 27.6217 23.8332 27.4369 23.3711 27.252C23.9257 27.9914 24.7575 28.546 25.7742 28.546C27.3454 28.546 28.547 27.3444 28.547 25.7732C28.547 24.7565 27.9924 23.9247 27.253 23.3701Z" fill="#DB9B2B"/>
</svg>
