<?xml version="1.0" encoding="UTF-8"?>
<svg width="176px" height="101px" viewBox="0 0 176 101" version="1.1" xmlns="http://www.w3.org/2000/svg" xmlns:xlink="http://www.w3.org/1999/xlink">
    <title>img-upload-batch</title>
    <g id="Not-a-Case" stroke="none" stroke-width="1" fill="none" fill-rule="evenodd">
        <g id="not-a-case/-finder/-add-batch-step-1" transform="translate(-635.000000, -299.000000)">
            <g id="Uploader-Modal-Static" transform="translate(408.000000, 211.000000)">
                <g id="File-Uploader" transform="translate(48.000000, 88.000000)">
                    <g id="Content" transform="translate(0.000000, 0.029338)">
                        <g id="img-upload-batch" transform="translate(179.550519, 0.970662)">
                            <g id="right" transform="translate(118.895675, 19.748031)">
                                <path d="M3.86944594,3.49843415 L44.2638552,3.49843415 L55.1926711,3.49843415 L55.1926711,3.49843415 L55.1926711,14.6831664 L55.1926711,77.711792 C55.1926711,77.9436985 55.0046737,78.131696 54.7727671,78.131696 L3.86944594,78.131696 C3.63753937,78.131696 3.44954194,77.9436985 3.44954194,77.711792 L3.44954194,3.91833815 C3.44954194,3.68643157 3.63753937,3.49843415 3.86944594,3.49843415 Z" id="Rectangle-3" stroke="#002E53" stroke-width="0.8748" fill="#F9F9F9" stroke-linecap="round" stroke-linejoin="round"></path>
                                <path d="M2.14467497,1.74921707 L42.5390842,1.74921707 L53.4679001,1.74921707 L53.4679001,1.74921707 L53.4679001,12.9339494 L53.4679001,75.9625749 C53.4679001,76.1944815 53.2799027,76.3824789 53.0479961,76.3824789 L2.14467497,76.3824789 C1.9127684,76.3824789 1.72477097,76.1944815 1.72477097,75.9625749 L1.72477097,2.16912107 C1.72477097,1.9372145 1.9127684,1.74921707 2.14467497,1.74921707 Z" id="Rectangle-3" stroke="#002E53" stroke-width="0.8748" fill="#F9F9F9" stroke-linecap="round" stroke-linejoin="round"></path>
                                <path d="M0.419904,0 L40.8143133,0 L51.7431292,0 L51.7431292,0 L51.7431292,11.1847323 L51.7431292,74.2133578 C51.7431292,74.4452644 51.5551317,74.6332618 51.3232252,74.6332618 L0.419904,74.6332618 C0.187997424,74.6332618 2.41537987e-15,74.4452644 0,74.2133578 L0,0.419904 C-8.39115158e-17,0.187997424 0.187997424,-4.73135846e-15 0.419904,0 Z" id="Rectangle-3" stroke="#002E53" stroke-width="0.8748" fill="#FFFFFF" stroke-linecap="round" stroke-linejoin="round"></path>
                                <path d="M21.7078702,32.9649123 L21.7078702,31 L19.5717556,31 C19.3811302,31 19.1652783,31.0497071 18.9241933,31.1491228 C18.6831082,31.2485385 18.4588465,31.3947359 18.2514013,31.5877193 C18.043956,31.7807027 17.8673499,32.0263143 17.7215775,32.3245614 C17.5758052,32.6228085 17.5029201,32.9707582 17.5029201,33.3684211 L17.5029201,36.6666667 C17.5029201,36.9590658 17.4468547,37.2076013 17.3347221,37.4122807 C17.2225896,37.6169601 17.0880325,37.7807011 16.9310469,37.9035088 C16.7740614,38.0263164 16.605865,38.1140348 16.4264529,38.1666667 C16.2470408,38.2192985 16.0956642,38.245614 15.9723183,38.245614 L15.9723183,39.7719298 C16.0956642,39.7719298 16.2470408,39.7982454 16.4264529,39.8508772 C16.605865,39.903509 16.7740614,39.9853796 16.9310469,40.0964912 C17.0880325,40.2076029 17.2225896,40.3567242 17.3347221,40.5438596 C17.4468547,40.7309951 17.5029201,40.959063 17.5029201,41.2280702 L17.5029201,44.6315789 C17.5029201,45.0292418 17.5758052,45.3771915 17.7215775,45.6754386 C17.8673499,45.9736857 18.043956,46.2192973 18.2514013,46.4122807 C18.4588465,46.6052641 18.6831082,46.7514615 18.9241933,46.8508772 C19.1652783,46.9502929 19.3811302,47 19.5717556,47 L21.7078702,47 L21.7078702,45.0350877 L20.799601,45.0350877 C20.5977624,45.0350877 20.4379759,44.9941525 20.3202367,44.9122807 C20.2024975,44.8304089 20.1099895,44.7280708 20.04271,44.6052632 C19.9754304,44.4824555 19.9333813,44.34503 19.9165615,44.1929825 C19.8997416,44.0409349 19.8913318,43.9005854 19.8913318,43.7719298 L19.8913318,40.9649123 C19.8913318,40.5906414 19.8268565,40.2836269 19.6979041,40.0438596 C19.5689516,39.8040924 19.4175749,39.6111118 19.2437695,39.4649123 C19.069964,39.3187127 18.8877513,39.2134506 18.697126,39.1491228 C18.5065006,39.084795 18.3495174,39.0467837 18.2261716,39.0350877 L18.2261716,38.9824561 C18.3495174,38.9707602 18.5065006,38.9356728 18.697126,38.877193 C18.8877513,38.8187132 19.069964,38.716375 19.2437695,38.5701754 C19.4175749,38.4239759 19.5689516,38.2192996 19.6979041,37.9561404 C19.8268565,37.6929811 19.8913318,37.3450314 19.8913318,36.9122807 L19.8913318,34.245614 C19.8913318,34.1052625 19.8997416,33.9590651 19.9165615,33.8070175 C19.9333813,33.65497 19.9754304,33.5175445 20.04271,33.3947368 C20.1099895,33.2719292 20.2024975,33.1695911 20.3202367,33.0877193 C20.4379759,33.0058475 20.5977624,32.9649123 20.799601,32.9649123 L21.7078702,32.9649123 Z M29.1870747,45.0350877 L29.1870747,47 L31.3231893,47 C31.5138147,47 31.7296666,46.9502929 31.9707517,46.8508772 C32.2118367,46.7514615 32.4360984,46.6052641 32.6435437,46.4122807 C32.8509889,46.2192973 33.027595,45.9736857 33.1733674,45.6754386 C33.3191397,45.3771915 33.3920248,45.0292418 33.3920248,44.6315789 L33.3920248,41.2280702 C33.3920248,40.959063 33.4480902,40.7309951 33.5602228,40.5438596 C33.6723553,40.3567242 33.8069124,40.2076029 33.963898,40.0964912 C34.1208835,39.9853796 34.2890799,39.903509 34.468492,39.8508772 C34.6479041,39.7982454 34.8048873,39.7719298 34.9394464,39.7719298 L34.9394464,38.245614 C34.8048873,38.245614 34.6479041,38.2192985 34.468492,38.1666667 C34.2890799,38.1140348 34.1208835,38.0263164 33.963898,37.9035088 C33.8069124,37.7807011 33.6723553,37.6169601 33.5602228,37.4122807 C33.4480902,37.2076013 33.3920248,36.9590658 33.3920248,36.6666667 L33.3920248,33.3684211 C33.3920248,32.9707582 33.3191397,32.6228085 33.1733674,32.3245614 C33.027595,32.0263143 32.8509889,31.7807027 32.6435437,31.5877193 C32.4360984,31.3947359 32.2118367,31.2485385 31.9707517,31.1491228 C31.7296666,31.0497071 31.5138147,31 31.3231893,31 L29.1870747,31 L29.1870747,32.9649123 L30.0953439,32.9649123 C30.2971826,32.9649123 30.4569691,33.0058475 30.5747082,33.0877193 C30.6924474,33.1695911 30.7849554,33.2719292 30.8522349,33.3947368 C30.9195145,33.5175445 30.9615636,33.65497 30.9783834,33.8070175 C30.9952033,33.9590651 31.0036131,34.1052625 31.0036131,34.245614 L31.0036131,36.9122807 C31.0036131,37.3450314 31.0680884,37.6929811 31.1970408,37.9561404 C31.3259933,38.2192996 31.47737,38.4239759 31.6511754,38.5701754 C31.8249809,38.716375 32.0071936,38.8187132 32.197819,38.877193 C32.3884443,38.9356728 32.5454275,38.9707602 32.6687734,38.9824561 L32.6687734,39.0350877 C32.5454275,39.0467837 32.3884443,39.084795 32.197819,39.1491228 C32.0071936,39.2134506 31.8249809,39.3187127 31.6511754,39.4649123 C31.47737,39.6111118 31.3259933,39.8040924 31.1970408,40.0438596 C31.0680884,40.2836269 31.0036131,40.5906414 31.0036131,40.9649123 L31.0036131,43.7719298 C31.0036131,43.9005854 30.9952033,44.0409349 30.9783834,44.1929825 C30.9615636,44.34503 30.9195145,44.4824555 30.8522349,44.6052632 C30.7849554,44.7280708 30.6924474,44.8304089 30.5747082,44.9122807 C30.4569691,44.9941525 30.2971826,45.0350877 30.0953439,45.0350877 L29.1870747,45.0350877 Z" id="{-}" fill="#117899"></path>
                            </g>
                            <g id="left" transform="translate(28.903114, 59.248031) scale(-1, 1) translate(-28.903114, -59.248031) translate(0.903114, 19.748031)">
                                <path d="M3.86944594,3.49843415 L44.2638552,3.49843415 L55.1926711,3.49843415 L55.1926711,3.49843415 L55.1926711,14.6831664 L55.1926711,77.711792 C55.1926711,77.9436985 55.0046737,78.131696 54.7727671,78.131696 L3.86944594,78.131696 C3.63753937,78.131696 3.44954194,77.9436985 3.44954194,77.711792 L3.44954194,3.91833815 C3.44954194,3.68643157 3.63753937,3.49843415 3.86944594,3.49843415 Z" id="Rectangle-3" stroke="#002E53" stroke-width="0.8748" fill="#F9F9F9" stroke-linecap="round" stroke-linejoin="round"></path>
                                <path d="M2.14467497,1.74921707 L42.5390842,1.74921707 L53.4679001,1.74921707 L53.4679001,1.74921707 L53.4679001,12.9339494 L53.4679001,75.9625749 C53.4679001,76.1944815 53.2799027,76.3824789 53.0479961,76.3824789 L2.14467497,76.3824789 C1.9127684,76.3824789 1.72477097,76.1944815 1.72477097,75.9625749 L1.72477097,2.16912107 C1.72477097,1.9372145 1.9127684,1.74921707 2.14467497,1.74921707 Z" id="Rectangle-3" stroke="#002E53" stroke-width="0.8748" fill="#F9F9F9" stroke-linecap="round" stroke-linejoin="round"></path>
                                <path d="M0.419904,0 L40.8143133,0 L51.7431292,0 L51.7431292,0 L51.7431292,11.1847323 L51.7431292,74.2133578 C51.7431292,74.4452644 51.5551317,74.6332618 51.3232252,74.6332618 L0.419904,74.6332618 C0.187997424,74.6332618 1.01868965e-14,74.4452644 0,74.2133578 L0,0.419904 C-1.39422667e-16,0.187997424 0.187997424,-4.67584731e-15 0.419904,0 Z" id="Rectangle-3" stroke="#002E53" stroke-width="0.8748" fill="#FFFFFF" stroke-linecap="round" stroke-linejoin="round"></path>
                                <g id="hl7-message-format" transform="translate(8.717552, 23.366489)" stroke-width="2.066715">
                                    <line x1="5.15143483e-14" y1="5.18654401" x2="9.04445258" y2="5.18654401" id="Path-2" stroke="#002E53"></line>
                                    <line x1="11.7783042" y1="0.20746176" x2="11.7783042" y2="8.92085569" id="Path-2" stroke="#367F6A"></line>
                                    <line x1="14.4246852" y1="5.18654401" x2="23.4691378" y2="5.18654401" id="Path-2" stroke="#002E53"></line>
                                    <line x1="28.7701997" y1="5.18654401" x2="35.9153987" y2="5.18654401" id="Path-2" stroke="#002E53"></line>
                                    <line x1="26.3190866" y1="0.20746176" x2="26.3190866" y2="8.92085569" id="Path-2" stroke="#367F6A"></line>
                                    <line x1="5.15143483e-14" y1="28.0484855" x2="9.04445258" y2="28.0484855" id="Path-2" stroke="#002E53" transform="translate(4.682059, 28.048486) scale(1, -1) translate(-4.682059, -28.048486) "></line>
                                    <line x1="11.7783042" y1="23.8992503" x2="11.7783042" y2="32.6126442" id="Path-2" stroke="#367F6A" transform="translate(11.894401, 28.255947) scale(1, -1) translate(-11.894401, -28.255947) "></line>
                                    <line x1="14.4246852" y1="28.0484855" x2="23.4691378" y2="28.0484855" id="Path-2" stroke="#002E53" transform="translate(19.106744, 28.048486) scale(1, -1) translate(-19.106744, -28.048486) "></line>
                                    <line x1="28.7701997" y1="28.0484855" x2="35.9153987" y2="28.0484855" id="Path-2" stroke="#002E53" transform="translate(32.434420, 28.048486) scale(1, -1) translate(-32.434420, -28.048486) "></line>
                                    <line x1="26.3190866" y1="23.8992503" x2="26.3190866" y2="32.6126442" id="Path-2" stroke="#367F6A" transform="translate(26.435184, 28.255947) scale(1, -1) translate(-26.435184, -28.255947) "></line>
                                    <line x1="0.60069069" y1="16.6868461" x2="24.7091585" y2="16.6868461" id="Path-2" stroke="#002E53"></line>
                                    <line x1="29.2722081" y1="16.6868461" x2="36.4174072" y2="16.6868461" id="Path-2" stroke="#002E53"></line>
                                    <line x1="26.8996625" y1="11.890706" x2="26.8996625" y2="20.6040999" id="Path-2" stroke="#367F6A"></line>
                                </g>
                            </g>
                            <g id="center" transform="translate(55.106228, 0.000000)">
                                <path d="M0.5103,7.6741055 L49.0866793,7.6741055 C49.2249559,7.6741055 49.3573129,7.73022056 49.4534535,7.8296058 L62.3613368,21.1731281 C62.4533971,21.2682954 62.5048626,21.3955196 62.5048626,21.5279278 L62.5048626,98.2298575 C62.5048626,98.5116884 62.2763935,98.7401575 61.9945626,98.7401575 L0.5103,98.7401575 C0.228469092,98.7401575 -2.63002093e-15,98.5116884 0,98.2298575 L0,8.1844055 C-3.45143319e-17,7.9025746 0.228469092,7.6741055 0.5103,7.6741055 Z" id="last-page" stroke="#002E53" stroke-width="1.5309" fill="#FFFFFF" stroke-linecap="round" stroke-linejoin="round"></path>
                                <path d="M4.01057231,4.09285627 L52.5869516,4.09285627 C52.7252283,4.09285627 52.8575853,4.14897133 52.9537258,4.24835657 L65.8616091,17.5918788 C65.9536694,17.6870462 66.0051349,17.8142704 66.0051349,17.9466785 L66.0051349,94.6486082 C66.0051349,94.9304392 65.7766659,95.1589082 65.4948349,95.1589082 L4.01057231,95.1589082 C3.7287414,95.1589082 3.50027231,94.9304392 3.50027231,94.6486082 L3.50027231,4.60315627 C3.50027231,4.32132536 3.7287414,4.09285627 4.01057231,4.09285627 Z" id="middle-page" stroke="#002E53" stroke-width="1.5309" fill="#FFFFFF" stroke-linecap="round" stroke-linejoin="round"></path>
                                <path d="M7.51084462,0 L56.0872239,0 C56.2255006,7.3797208e-15 56.3578576,0.0561150611 56.4539981,0.155500301 L69.3618814,13.4990226 C69.4539417,13.5941899 69.5054073,13.7214141 69.5054073,13.8538223 L69.5054073,90.555752 C69.5054073,90.8375829 69.2769382,91.066052 68.9951073,91.066052 L7.51084462,91.066052 C7.22901371,91.066052 7.00054462,90.8375829 7.00054462,90.555752 L7.00054462,0.5103 C7.00054462,0.228469092 7.22901371,8.28927615e-16 7.51084462,0 Z" id="front-page" stroke="#002E53" stroke-width="1.5309" fill="#FFFFFF" stroke-linecap="round" stroke-linejoin="round"></path>
                                <polygon id="Path" stroke="#002E53" stroke-width="1.5309" fill="#F3F3F3" stroke-linecap="round" stroke-linejoin="round" points="56.5043958 0.439662294 56.5043958 13.5859396 69.4554766 13.5859396"></polygon>
                                <polygon id="+" fill="#367F6A" points="34.9667203 39.6843344 38.639006 39.6843344 38.639006 47.1251471 45.8755689 47.1251471 45.8755689 50.8823891 38.639006 50.8823891 38.639006 58.3232018 34.9667203 58.3232018 34.9667203 50.8823891 27.7301573 50.8823891 27.7301573 47.1251471 34.9667203 47.1251471"></polygon>
                            </g>
                        </g>
                    </g>
                </g>
            </g>
        </g>
    </g>
</svg>