<svg width="244" height="222" viewBox="0 0 244 222" fill="none" xmlns="http://www.w3.org/2000/svg">
<g filter="url(#filter0_i)">
<path d="M122 218.182C182.249 218.182 231.091 169.34 231.091 109.091C231.091 48.8417 182.249 0 122 0C61.7506 0 12.9089 48.8417 12.9089 109.091C12.9089 169.34 61.7506 218.182 122 218.182Z" fill="black" fill-opacity="0.04"/>
</g>
<path d="M230.591 109.091C230.591 169.064 181.973 217.682 122 217.682C62.0267 217.682 13.4089 169.064 13.4089 109.091C13.4089 49.1178 62.0267 0.5 122 0.5C181.973 0.5 230.591 49.1178 230.591 109.091Z" stroke="#CED4DA"/>
<g filter="url(#filter1_d)">
<path d="M235.056 27.2727H8.94444C5.10913 27.2727 2 30.377 2 34.2064V183.975C2 187.805 5.10913 190.909 8.94444 190.909H235.056C238.891 190.909 242 187.805 242 183.975V34.2064C242 30.377 238.891 27.2727 235.056 27.2727Z" fill="black"/>
</g>
<path d="M235.056 26.7727H8.94444C4.83372 26.7727 1.5 30.1002 1.5 34.2064V183.975C1.5 188.082 4.83372 191.409 8.94444 191.409H235.056C239.166 191.409 242.5 188.082 242.5 183.975V34.2064C242.5 30.1002 239.166 26.7727 235.056 26.7727Z" fill="white" stroke="#0C364C"/>
<path d="M235.874 165.259H8.80688V174.621H235.874V165.259Z" fill="white"/>
<path d="M235.874 174.454H8.80688V175.441H235.874V174.454Z" fill="#D2D2D2"/>
<path d="M235.874 175.608H8.80713V184.971H235.874V175.608Z" fill="white"/>
<path d="M235.874 155.896H8.80688V165.259H235.874V155.896Z" fill="white"/>
<path d="M235.874 165.092H8.80688V166.079H235.874V165.092Z" fill="#D2D2D2"/>
<path d="M235.874 146.534H8.80688V155.896H235.874V146.534Z" fill="white"/>
<path d="M235.874 155.729H8.80688V156.716H235.874V155.729Z" fill="#D2D2D2"/>
<path d="M235.874 137.172H8.80688V146.534H235.874V137.172Z" fill="white"/>
<path d="M235.874 146.367H8.80688V147.354H235.874V146.367Z" fill="#D2D2D2"/>
<path d="M235.874 127.809H8.80688V137.171H235.874V127.809Z" fill="white"/>
<path d="M235.874 137.004H8.80688V137.992H235.874V137.004Z" fill="#D2D2D2"/>
<path d="M235.874 118.447H8.80688V127.809H235.874V118.447Z" fill="white"/>
<path d="M235.874 127.642H8.80688V128.629H235.874V127.642Z" fill="#D2D2D2"/>
<path d="M235.874 109.084H8.80688V118.447H235.874V109.084Z" fill="white"/>
<path d="M235.874 118.28H8.80688V119.267H235.874V118.28Z" fill="#D2D2D2"/>
<path d="M235.874 99.7222H8.80688V109.085H235.874V99.7222Z" fill="white"/>
<path d="M235.874 108.917H8.80688V109.905H235.874V108.917Z" fill="#D2D2D2"/>
<path d="M235.874 90.3601H8.80688V99.7224H235.874V90.3601Z" fill="white"/>
<path d="M235.874 99.5552H8.80688V100.542H235.874V99.5552Z" fill="#D2D2D2"/>
<path d="M235.874 80.9976H8.77368V90.3599H235.874V80.9976Z" fill="white"/>
<path d="M235.874 90.1926H8.77368V91.1799H235.874V90.1926Z" fill="#D2D2D2"/>
<path d="M235.874 80.9976H8.80688V90.3599H235.874V80.9976Z" fill="white"/>
<path d="M235.874 90.1926H8.80688V91.1799H235.874V90.1926Z" fill="#D2D2D2"/>
<path d="M235.874 71.6353H8.80688V80.9976H235.874V71.6353Z" fill="white"/>
<path d="M235.874 80.8306H8.80688V81.8178H235.874V80.8306Z" fill="#D2D2D2"/>
<path d="M235.874 62.2729H8.80688V71.6353H235.874V62.2729Z" fill="white"/>
<path d="M235.874 71.4683H8.80688V72.4555H235.874V71.4683Z" fill="#D2D2D2"/>
<path d="M33.7867 65.1582H20.3555C19.9751 65.1582 19.6667 65.4897 19.6667 65.8986V67.3795C19.6667 67.7884 19.9751 68.1199 20.3555 68.1199H33.7867C34.1671 68.1199 34.4755 67.7884 34.4755 67.3795V65.8986C34.4755 65.4897 34.1671 65.1582 33.7867 65.1582Z" fill="#EDEDED"/>
<path d="M89.059 65.1582H61.8339C61.4459 65.1582 61.1313 65.4897 61.1313 65.8986V67.3795C61.1313 67.7884 61.4459 68.1199 61.8339 68.1199H89.059C89.447 68.1199 89.7615 67.7884 89.7615 67.3795V65.8986C89.7615 65.4897 89.447 65.1582 89.059 65.1582Z" fill="#EDEDED"/>
<path d="M121.627 65.1582H107.258C106.864 65.1582 106.544 65.4897 106.544 65.8986V67.3795C106.544 67.7884 106.864 68.1199 107.258 68.1199H121.627C122.021 68.1199 122.34 67.7884 122.34 67.3795V65.8986C122.34 65.4897 122.021 65.1582 121.627 65.1582Z" fill="#EDEDED"/>
<path fill-rule="evenodd" clip-rule="evenodd" d="M149.685 65.1582H178.02C178.348 65.1582 178.614 65.4437 178.614 65.7958V66.4334V67.3795C178.614 67.7884 178.305 68.1199 177.925 68.1199H149.685C149.304 68.1199 148.996 67.7884 148.996 67.3795V65.8986C148.996 65.4897 149.304 65.1582 149.685 65.1582Z" fill="#EDEDED"/>
<path d="M209.471 65.1582H195.144C194.739 65.1582 194.41 65.4897 194.41 65.8986V67.3795C194.41 67.7884 194.739 68.1199 195.144 68.1199H209.471C209.877 68.1199 210.206 67.7884 210.206 67.3795V65.8986C210.206 65.4897 209.877 65.1582 209.471 65.1582Z" fill="#EDEDED"/>
<path d="M235.612 52.3638H8.54541V61.7261H235.612V52.3638Z" fill="white"/>
<path d="M235.612 61.5588H8.54541V62.5461H235.612V61.5588Z" fill="#D2D2D2"/>
<path d="M33.525 55.249H20.0938C19.7134 55.249 19.405 55.5805 19.405 55.9895V57.4703C19.405 57.8793 19.7134 58.2108 20.0938 58.2108H33.525C33.9054 58.2108 34.2137 57.8793 34.2137 57.4703V55.9895C34.2137 55.5805 33.9054 55.249 33.525 55.249Z" fill="#EDEDED"/>
<path d="M88.7972 55.249H61.5722C61.1842 55.249 60.8696 55.5805 60.8696 55.9895V57.4703C60.8696 57.8793 61.1842 58.2108 61.5722 58.2108H88.7972C89.1853 58.2108 89.4998 57.8793 89.4998 57.4703V55.9895C89.4998 55.5805 89.1853 55.249 88.7972 55.249Z" fill="#EDEDED"/>
<path d="M121.366 55.249H106.996C106.602 55.249 106.283 55.5805 106.283 55.9895V57.4703C106.283 57.8793 106.602 58.2108 106.996 58.2108H121.366C121.76 58.2108 122.079 57.8793 122.079 57.4703V55.9895C122.079 55.5805 121.76 55.249 121.366 55.249Z" fill="#EDEDED"/>
<path fill-rule="evenodd" clip-rule="evenodd" d="M149.423 55.249H177.759C178.087 55.249 178.352 55.5345 178.352 55.8866V56.5242V57.4703C178.352 57.8793 178.044 58.2108 177.663 58.2108H149.423C149.043 58.2108 148.735 57.8793 148.735 57.4703V55.9895C148.735 55.5805 149.043 55.249 149.423 55.249Z" fill="#EDEDED"/>
<path d="M209.209 55.249H194.883C194.477 55.249 194.148 55.5805 194.148 55.9895V57.4703C194.148 57.8793 194.477 58.2108 194.883 58.2108H209.209C209.615 58.2108 209.944 57.8793 209.944 57.4703V55.9895C209.944 55.5805 209.615 55.249 209.209 55.249Z" fill="#EDEDED"/>
<path d="M33.7867 75.0308H20.3555C19.9751 75.0308 19.6667 75.3623 19.6667 75.7712V77.2521C19.6667 77.661 19.9751 77.9925 20.3555 77.9925H33.7867C34.1671 77.9925 34.4755 77.661 34.4755 77.2521V75.7712C34.4755 75.3623 34.1671 75.0308 33.7867 75.0308Z" fill="#EDEDED"/>
<path d="M88.0609 75.0308H61.8447C61.4507 75.0308 61.1313 75.3623 61.1313 75.7712V77.2521C61.1313 77.661 61.4507 77.9925 61.8447 77.9925H88.0609C88.4549 77.9925 88.7743 77.661 88.7743 77.2521V75.7712C88.7743 75.3623 88.4549 75.0308 88.0609 75.0308Z" fill="#EDEDED"/>
<path d="M121.627 75.0308H107.258C106.864 75.0308 106.544 75.3623 106.544 75.7712V77.2521C106.544 77.661 106.864 77.9925 107.258 77.9925H121.627C122.021 77.9925 122.34 77.661 122.34 77.2521V75.7712C122.34 75.3623 122.021 75.0308 121.627 75.0308Z" fill="#EDEDED"/>
<path d="M177.917 75.0308H149.693C149.308 75.0308 148.996 75.3623 148.996 75.7712V77.2521C148.996 77.661 149.308 77.9925 149.693 77.9925H177.917C178.302 77.9925 178.614 77.661 178.614 77.2521V75.7712C178.614 75.3623 178.302 75.0308 177.917 75.0308Z" fill="#EDEDED"/>
<path d="M209.471 75.0308H195.144C194.739 75.0308 194.41 75.3623 194.41 75.7712V77.2521C194.41 77.661 194.739 77.9925 195.144 77.9925H209.471C209.877 77.9925 210.206 77.661 210.206 77.2521V75.7712C210.206 75.3623 209.877 75.0308 209.471 75.0308Z" fill="#EDEDED"/>
<path d="M33.7867 83.916H20.3555C19.9751 83.916 19.6667 84.2475 19.6667 84.6565V86.1373C19.6667 86.5463 19.9751 86.8778 20.3555 86.8778H33.7867C34.1671 86.8778 34.4755 86.5463 34.4755 86.1373V84.6565C34.4755 84.2475 34.1671 83.916 33.7867 83.916Z" fill="#EDEDED"/>
<path d="M84.1284 83.916H61.8282C61.4434 83.916 61.1313 84.2475 61.1313 84.6565V86.1373C61.1313 86.5463 61.4434 86.8778 61.8282 86.8778H84.1284C84.5133 86.8778 84.8253 86.5463 84.8253 86.1373V84.6565C84.8253 84.2475 84.5133 83.916 84.1284 83.916Z" fill="#EDEDED"/>
<path d="M121.627 83.916H107.258C106.864 83.916 106.544 84.2475 106.544 84.6565V86.1373C106.544 86.5463 106.864 86.8778 107.258 86.8778H121.627C122.021 86.8778 122.34 86.5463 122.34 86.1373V84.6565C122.34 84.2475 122.021 83.916 121.627 83.916Z" fill="#EDEDED"/>
<path d="M176.924 83.916H149.699C149.311 83.916 148.996 84.2475 148.996 84.6565V86.1373C148.996 86.5463 149.311 86.8778 149.699 86.8778H176.924C177.312 86.8778 177.626 86.5463 177.626 86.1373V84.6565C177.626 84.2475 177.312 83.916 176.924 83.916Z" fill="#EDEDED"/>
<path d="M209.471 83.916H195.144C194.739 83.916 194.41 84.2475 194.41 84.6565V86.1373C194.41 86.5463 194.739 86.8778 195.144 86.8778H209.471C209.877 86.8778 210.206 86.5463 210.206 86.1373V84.6565C210.206 84.2475 209.877 83.916 209.471 83.916Z" fill="#EDEDED"/>
<path d="M33.7867 93.7883H20.3555C19.9751 93.7883 19.6667 94.1198 19.6667 94.5288V96.0096C19.6667 96.4186 19.9751 96.7501 20.3555 96.7501H33.7867C34.1671 96.7501 34.4755 96.4186 34.4755 96.0096V94.5288C34.4755 94.1198 34.1671 93.7883 33.7867 93.7883Z" fill="#EDEDED"/>
<path d="M79.2119 93.7883H62.7954C62.4215 93.7883 62.1184 94.1198 62.1184 94.5288V96.0096C62.1184 96.4186 62.4215 96.7501 62.7954 96.7501H79.2119C79.5858 96.7501 79.8889 96.4186 79.8889 96.0096V94.5288C79.8889 94.1198 79.5858 93.7883 79.2119 93.7883Z" fill="#EDEDED"/>
<path d="M121.627 93.7883H107.258C106.864 93.7883 106.544 94.1198 106.544 94.5288V96.0096C106.544 96.4186 106.864 96.7501 107.258 96.7501H121.627C122.021 96.7501 122.34 96.4186 122.34 96.0096V94.5288C122.34 94.1198 122.021 93.7883 121.627 93.7883Z" fill="#EDEDED"/>
<path d="M173.952 93.7883H149.709C149.315 93.7883 148.996 94.1198 148.996 94.5288V96.0096C148.996 96.4186 149.315 96.7501 149.709 96.7501H173.952C174.345 96.7501 174.665 96.4186 174.665 96.0096V94.5288C174.665 94.1198 174.345 93.7883 173.952 93.7883Z" fill="#EDEDED"/>
<path d="M209.517 93.7883H196.085C195.705 93.7883 195.397 94.1198 195.397 94.5288V96.0096C195.397 96.4186 195.705 96.7501 196.085 96.7501H209.517C209.897 96.7501 210.205 96.4186 210.205 96.0096V94.5288C210.205 94.1198 209.897 93.7883 209.517 93.7883Z" fill="#EDEDED"/>
<path d="M33.7867 102.674H20.3555C19.9751 102.674 19.6667 103.005 19.6667 103.414V104.895C19.6667 105.304 19.9751 105.635 20.3555 105.635H33.7867C34.1671 105.635 34.4755 105.304 34.4755 104.895V103.414C34.4755 103.005 34.1671 102.674 33.7867 102.674Z" fill="#EDEDED"/>
<path d="M79.2119 102.674H62.7954C62.4215 102.674 62.1184 103.005 62.1184 103.414V104.895C62.1184 105.304 62.4215 105.635 62.7954 105.635H79.2119C79.5858 105.635 79.8889 105.304 79.8889 104.895V103.414C79.8889 103.005 79.5858 102.674 79.2119 102.674Z" fill="#EDEDED"/>
<path d="M121.627 102.674H107.258C106.864 102.674 106.544 103.005 106.544 103.414V104.895C106.544 105.304 106.864 105.635 107.258 105.635H121.627C122.021 105.635 122.34 105.304 122.34 104.895V103.414C122.34 103.005 122.021 102.674 121.627 102.674Z" fill="#EDEDED"/>
<path d="M175.939 102.674H149.696C149.309 102.674 148.996 103.005 148.996 103.414V104.895C148.996 105.304 149.309 105.635 149.696 105.635H175.939C176.326 105.635 176.639 105.304 176.639 104.895V103.414C176.639 103.005 176.326 102.674 175.939 102.674Z" fill="#EDEDED"/>
<path d="M209.517 102.674H196.085C195.705 102.674 195.397 103.005 195.397 103.414V104.895C195.397 105.304 195.705 105.635 196.085 105.635H209.517C209.897 105.635 210.205 105.304 210.205 104.895V103.414C210.205 103.005 209.897 102.674 209.517 102.674Z" fill="#EDEDED"/>
<path d="M33.7867 112.546H20.3555C19.9751 112.546 19.6667 112.878 19.6667 113.287V114.767C19.6667 115.176 19.9751 115.508 20.3555 115.508H33.7867C34.1671 115.508 34.4755 115.176 34.4755 114.767V113.287C34.4755 112.878 34.1671 112.546 33.7867 112.546Z" fill="#EDEDED"/>
<path d="M94.9963 112.546H62.807C62.4267 112.546 62.1184 112.878 62.1184 113.287V114.767C62.1184 115.176 62.4267 115.508 62.807 115.508H94.9963C95.3766 115.508 95.6848 115.176 95.6848 114.767V113.287C95.6848 112.878 95.3766 112.546 94.9963 112.546Z" fill="#EDEDED"/>
<path d="M123.465 112.546H107.394C106.925 112.546 106.544 112.905 106.544 113.349V114.705C106.544 115.149 106.925 115.508 107.394 115.508H123.465C123.934 115.508 124.315 115.149 124.315 114.705V113.349C124.315 112.905 123.934 112.546 123.465 112.546Z" fill="#EDEDED"/>
<path d="M172.972 112.546H149.701C149.312 112.546 148.996 112.878 148.996 113.287V114.767C148.996 115.176 149.312 115.508 149.701 115.508H172.972C173.362 115.508 173.677 115.176 173.677 114.767V113.287C173.677 112.878 173.362 112.546 172.972 112.546Z" fill="#EDEDED"/>
<path d="M209.517 112.546H196.085C195.705 112.546 195.397 112.878 195.397 113.287V114.767C195.397 115.176 195.705 115.508 196.085 115.508H209.517C209.897 115.508 210.205 115.176 210.205 114.767V113.287C210.205 112.878 209.897 112.546 209.517 112.546Z" fill="#EDEDED"/>
<path d="M33.7867 121.431H20.3555C19.9751 121.431 19.6667 121.763 19.6667 122.172V123.653C19.6667 124.062 19.9751 124.393 20.3555 124.393H33.7867C34.1671 124.393 34.4755 124.062 34.4755 123.653V122.172C34.4755 121.763 34.1671 121.431 33.7867 121.431Z" fill="#EDEDED"/>
<path d="M86.1092 121.431H62.8088C62.4275 121.431 62.1184 121.763 62.1184 122.172V123.653C62.1184 124.062 62.4275 124.393 62.8088 124.393H86.1092C86.4905 124.393 86.7996 124.062 86.7996 123.653V122.172C86.7996 121.763 86.4905 121.431 86.1092 121.431Z" fill="#EDEDED"/>
<path d="M123.465 121.431H107.394C106.925 121.431 106.544 121.791 106.544 122.234V123.591C106.544 124.034 106.925 124.393 107.394 124.393H123.465C123.934 124.393 124.315 124.034 124.315 123.591V122.234C124.315 121.791 123.934 121.431 123.465 121.431Z" fill="#EDEDED"/>
<path d="M173.947 121.431H149.714C149.318 121.431 148.996 121.763 148.996 122.172V123.653C148.996 124.062 149.318 124.393 149.714 124.393H173.947C174.343 124.393 174.665 124.062 174.665 123.653V122.172C174.665 121.763 174.343 121.431 173.947 121.431Z" fill="#EDEDED"/>
<path d="M209.517 121.431H196.085C195.705 121.431 195.397 121.763 195.397 122.172V123.653C195.397 124.062 195.705 124.393 196.085 124.393H209.517C209.897 124.393 210.205 124.062 210.205 123.653V122.172C210.205 121.763 209.897 121.431 209.517 121.431Z" fill="#EDEDED"/>
<path d="M33.7867 131.304H20.3555C19.9751 131.304 19.6667 131.635 19.6667 132.044V133.525C19.6667 133.934 19.9751 134.266 20.3555 134.266H33.7867C34.1671 134.266 34.4755 133.934 34.4755 133.525V132.044C34.4755 131.635 34.1671 131.304 33.7867 131.304Z" fill="#EDEDED"/>
<path d="M90.0478 131.304H61.8324C61.4452 131.304 61.1313 131.635 61.1313 132.044V133.525C61.1313 133.934 61.4452 134.266 61.8324 134.266H90.0478C90.4349 134.266 90.7488 133.934 90.7488 133.525V132.044C90.7488 131.635 90.4349 131.304 90.0478 131.304Z" fill="#EDEDED"/>
<path d="M123.465 132.291H107.394C106.925 132.291 106.544 132.651 106.544 133.094V134.451C106.544 134.894 106.925 135.253 107.394 135.253H123.465C123.934 135.253 124.315 134.894 124.315 134.451V133.094C124.315 132.651 123.934 132.291 123.465 132.291Z" fill="#EDEDED"/>
<path d="M173.975 131.304H149.685C149.305 131.304 148.996 131.635 148.996 132.044V133.525C148.996 133.934 149.305 134.266 149.685 134.266H173.975C174.356 134.266 174.665 133.934 174.665 133.525V132.044C174.665 131.635 174.356 131.304 173.975 131.304Z" fill="#EDEDED"/>
<path d="M209.471 131.304H195.144C194.739 131.304 194.41 131.635 194.41 132.044V133.525C194.41 133.934 194.739 134.266 195.144 134.266H209.471C209.877 134.266 210.206 133.934 210.206 133.525V132.044C210.206 131.635 209.877 131.304 209.471 131.304Z" fill="#EDEDED"/>
<path d="M33.7867 140.189H20.3555C19.9751 140.189 19.6667 140.521 19.6667 140.93V142.411C19.6667 142.819 19.9751 143.151 20.3555 143.151H33.7867C34.1671 143.151 34.4755 142.819 34.4755 142.411V140.93C34.4755 140.521 34.1671 140.189 33.7867 140.189Z" fill="#EDEDED"/>
<path d="M79.1745 140.189H61.8459C61.4513 140.189 61.1313 140.521 61.1313 140.93V142.411C61.1313 142.819 61.4513 143.151 61.8459 143.151H79.1745C79.5691 143.151 79.8891 142.819 79.8891 142.411V140.93C79.8891 140.521 79.5691 140.189 79.1745 140.189Z" fill="#EDEDED"/>
<path d="M123.465 141.176H107.394C106.925 141.176 106.544 141.536 106.544 141.979V143.336C106.544 143.779 106.925 144.138 107.394 144.138H123.465C123.934 144.138 124.315 143.779 124.315 143.336V141.979C124.315 141.536 123.934 141.176 123.465 141.176Z" fill="#EDEDED"/>
<path d="M181.856 140.189H149.703C149.312 140.189 148.996 140.521 148.996 140.93V142.411C148.996 142.819 149.312 143.151 149.703 143.151H181.856C182.246 143.151 182.563 142.819 182.563 142.411V140.93C182.563 140.521 182.246 140.189 181.856 140.189Z" fill="#EDEDED"/>
<path d="M209.471 140.189H195.144C194.739 140.189 194.41 140.521 194.41 140.93V142.411C194.41 142.819 194.739 143.151 195.144 143.151H209.471C209.877 143.151 210.206 142.819 210.206 142.411V140.93C210.206 140.521 209.877 140.189 209.471 140.189Z" fill="#EDEDED"/>
<path d="M33.7867 150.062H20.3555C19.9751 150.062 19.6667 150.393 19.6667 150.802V152.283C19.6667 152.692 19.9751 153.023 20.3555 153.023H33.7867C34.1671 153.023 34.4755 152.692 34.4755 152.283V150.802C34.4755 150.393 34.1671 150.062 33.7867 150.062Z" fill="#EDEDED"/>
<path d="M90.0394 150.062H61.8407C61.449 150.062 61.1313 150.393 61.1313 150.802V152.283C61.1313 152.692 61.449 153.023 61.8407 153.023H90.0394C90.4312 153.023 90.7488 152.692 90.7488 152.283V150.802C90.7488 150.393 90.4312 150.062 90.0394 150.062Z" fill="#EDEDED"/>
<path d="M123.465 151.049H107.394C106.925 151.049 106.544 151.408 106.544 151.851V153.208C106.544 153.651 106.925 154.011 107.394 154.011H123.465C123.934 154.011 124.315 153.651 124.315 153.208V151.851C124.315 151.408 123.934 151.049 123.465 151.049Z" fill="#EDEDED"/>
<path d="M172.977 150.062H149.696C149.31 150.062 148.996 150.393 148.996 150.802V152.283C148.996 152.692 149.31 153.023 149.696 153.023H172.977C173.364 153.023 173.677 152.692 173.677 152.283V150.802C173.677 150.393 173.364 150.062 172.977 150.062Z" fill="#EDEDED"/>
<path d="M209.471 150.062H195.144C194.739 150.062 194.41 150.393 194.41 150.802V152.283C194.41 152.692 194.739 153.023 195.144 153.023H209.471C209.877 153.023 210.206 152.692 210.206 152.283V150.802C210.206 150.393 209.877 150.062 209.471 150.062Z" fill="#EDEDED"/>
<path d="M33.7867 158.947H20.3555C19.9751 158.947 19.6667 159.278 19.6667 159.687V161.168C19.6667 161.577 19.9751 161.909 20.3555 161.909H33.7867C34.1671 161.909 34.4755 161.577 34.4755 161.168V159.687C34.4755 159.278 34.1671 158.947 33.7867 158.947Z" fill="#EDEDED"/>
<path d="M89.059 158.947H61.8339C61.4459 158.947 61.1313 159.278 61.1313 159.687V161.168C61.1313 161.577 61.4459 161.909 61.8339 161.909H89.059C89.447 161.909 89.7615 161.577 89.7615 161.168V159.687C89.7615 159.278 89.447 158.947 89.059 158.947Z" fill="#EDEDED"/>
<path d="M123.465 158.947H107.394C106.925 158.947 106.544 159.306 106.544 159.749V161.106C106.544 161.549 106.925 161.909 107.394 161.909H123.465C123.934 161.909 124.315 161.549 124.315 161.106V159.749C124.315 159.306 123.934 158.947 123.465 158.947Z" fill="#EDEDED"/>
<path d="M172.977 158.947H149.696C149.31 158.947 148.996 159.278 148.996 159.687V161.168C148.996 161.577 149.31 161.909 149.696 161.909H172.977C173.364 161.909 173.677 161.577 173.677 161.168V159.687C173.677 159.278 173.364 158.947 172.977 158.947Z" fill="#EDEDED"/>
<path d="M209.471 158.947H195.144C194.739 158.947 194.41 159.278 194.41 159.687V161.168C194.41 161.577 194.739 161.909 195.144 161.909H209.471C209.877 161.909 210.206 161.577 210.206 161.168V159.687C210.206 159.278 209.877 158.947 209.471 158.947Z" fill="#EDEDED"/>
<path d="M33.7867 168.819H20.3555C19.9751 168.819 19.6667 169.04 19.6667 169.313V170.3C19.6667 170.573 19.9751 170.794 20.3555 170.794H33.7867C34.1671 170.794 34.4755 170.573 34.4755 170.3V169.313C34.4755 169.04 34.1671 168.819 33.7867 168.819Z" fill="#EDEDED"/>
<path d="M93.9948 168.819H61.8343C61.4461 168.819 61.1313 169.04 61.1313 169.313V170.3C61.1313 170.573 61.4461 170.794 61.8343 170.794H93.9948C94.3831 170.794 94.6978 170.573 94.6978 170.3V169.313C94.6978 169.04 94.3831 168.819 93.9948 168.819Z" fill="#EDEDED"/>
<path d="M123.607 168.819H107.253C106.861 168.819 106.544 169.118 106.544 169.488V171.112C106.544 171.481 106.861 171.781 107.253 171.781H123.607C123.998 171.781 124.315 171.481 124.315 171.112V169.488C124.315 169.118 123.998 168.819 123.607 168.819Z" fill="#EDEDED"/>
<path d="M173.961 168.819H149.699C149.311 168.819 148.996 169.04 148.996 169.313V170.3C148.996 170.573 149.311 170.794 149.699 170.794H173.961C174.35 170.794 174.665 170.573 174.665 170.3V169.313C174.665 169.04 174.35 168.819 173.961 168.819Z" fill="#EDEDED"/>
<path d="M209.471 168.819H195.144C194.739 168.819 194.41 169.04 194.41 169.313V170.3C194.41 170.573 194.739 170.794 195.144 170.794H209.471C209.877 170.794 210.206 170.573 210.206 170.3V169.313C210.206 169.04 209.877 168.819 209.471 168.819Z" fill="#EDEDED"/>
<path d="M33.7867 177.705H20.3555C19.9751 177.705 19.6667 178.036 19.6667 178.445V179.926C19.6667 180.335 19.9751 180.666 20.3555 180.666H33.7867C34.1671 180.666 34.4755 180.335 34.4755 179.926V178.445C34.4755 178.036 34.1671 177.705 33.7867 177.705Z" fill="#EDEDED"/>
<path d="M86.1061 177.705H61.8251C61.4419 177.705 61.1313 178.036 61.1313 178.445V179.926C61.1313 180.335 61.4419 180.666 61.8251 180.666H86.1061C86.4892 180.666 86.7998 180.335 86.7998 179.926V178.445C86.7998 178.036 86.4892 177.705 86.1061 177.705Z" fill="#EDEDED"/>
<path d="M121.627 177.705H107.258C106.864 177.705 106.544 178.036 106.544 178.445V179.926C106.544 180.335 106.864 180.666 107.258 180.666H121.627C122.021 180.666 122.34 180.335 122.34 179.926V178.445C122.34 178.036 122.021 177.705 121.627 177.705Z" fill="#EDEDED"/>
<path d="M173.956 177.705H149.704C149.313 177.705 148.996 178.036 148.996 178.445V179.926C148.996 180.335 149.313 180.666 149.704 180.666H173.956C174.348 180.666 174.665 180.335 174.665 179.926V178.445C174.665 178.036 174.348 177.705 173.956 177.705Z" fill="#EDEDED"/>
<path d="M209.471 177.705H195.144C194.739 177.705 194.41 178.036 194.41 178.445V179.926C194.41 180.335 194.739 180.666 195.144 180.666H209.471C209.877 180.666 210.206 180.335 210.206 179.926V178.445C210.206 178.036 209.877 177.705 209.471 177.705Z" fill="#EDEDED"/>
<rect x="10.7273" y="36" width="29.4545" height="7.63636" rx="0.5" fill="black" fill-opacity="0.075"/>
<rect x="10.9773" y="36.25" width="28.9545" height="7.13636" rx="0.25" stroke="black" stroke-opacity="0.075" stroke-width="0.5"/>
<rect x="41.2727" y="36" width="43.6364" height="7.63636" rx="0.5" fill="black" fill-opacity="0.075"/>
<rect x="41.5227" y="36.25" width="43.1364" height="7.13636" rx="0.25" stroke="black" stroke-opacity="0.075" stroke-width="0.5"/>
<rect x="86" y="36" width="25.0909" height="7.63636" rx="0.5" fill="#1594BC" fill-opacity="0.2"/>
<rect x="86.25" y="36.25" width="24.5909" height="7.13636" rx="0.25" stroke="black" stroke-opacity="0.075" stroke-width="0.5"/>
<rect x="112.182" y="36" width="25.0909" height="7.63636" rx="0.5" fill="#DB9B2B" fill-opacity="0.2"/>
<rect x="112.432" y="36.25" width="24.5909" height="7.13636" rx="0.25" stroke="black" stroke-opacity="0.075" stroke-width="0.5"/>
<rect x="138.364" y="36" width="63.2727" height="7.63636" rx="0.5" fill="#429B81" fill-opacity="0.2"/>
<rect x="138.614" y="36.25" width="62.7727" height="7.13636" rx="0.25" stroke="black" stroke-opacity="0.075" stroke-width="0.5"/>
<rect x="202.727" y="36" width="31.6364" height="7.63636" rx="0.5" fill="#117899" fill-opacity="0.2"/>
<rect x="202.977" y="36.25" width="31.1364" height="7.13636" rx="0.25" stroke="black" stroke-opacity="0.075" stroke-width="0.5"/>
<path d="M235.454 33.8184H8.54541V34.9093H235.454V33.8184Z" fill="#D2D2D2"/>
<path d="M235.454 44.7273H8.54541V45.8182H235.454V44.7273Z" fill="#D2D2D2"/>
<path d="M235.454 184.364H8.54541V185.455H235.454V184.364Z" fill="#D2D2D2"/>
<path d="M9.63632 33.8184H8.54541V185.455H9.63632V33.8184Z" fill="#D2D2D2"/>
<path d="M236.545 33.8184H235.455V185.455H236.545V33.8184Z" fill="#D2D2D2"/>
<path fill-rule="evenodd" clip-rule="evenodd" d="M96.8964 183.997L88.9709 191.826L94.3621 196.519C99.7708 191.197 102.475 188.536 102.475 188.536C102.475 188.536 100.616 187.023 96.8964 183.997Z" fill="#00223D"/>
<path fill-rule="evenodd" clip-rule="evenodd" d="M88.971 191.826L94.3622 196.519L94.7862 199.617C82.7274 213.071 76.3217 220.193 75.5736 220.988L75.5324 221.031C75.5214 221.043 75.5132 221.051 75.5077 221.056C75.115 221.431 70.7096 221.431 68.1858 219.343C65.6621 217.255 65.5664 212.9 65.9415 212.489C65.9441 212.486 65.9475 212.482 65.9516 212.478L65.9846 212.442C66.6141 211.77 73.121 204.918 85.5051 191.886L88.971 191.826Z" fill="url(#paint0_linear)"/>
<path d="M121.281 194.587C138.865 194.587 153.12 180.332 153.12 162.748C153.12 145.164 138.865 130.909 121.281 130.909C103.697 130.909 89.4424 145.164 89.4424 162.748C89.4424 180.332 103.697 194.587 121.281 194.587Z" fill="#1FA7D2" fill-opacity="0.284583" stroke="#00223D" stroke-width="1.5"/>
<path opacity="0.800525" d="M121.841 136.833C116.149 136.919 111.024 138.703 106.467 142.185C101.91 145.667 98.7031 150.248 96.8469 155.928" stroke="white" stroke-width="4.5" stroke-linecap="round" stroke-linejoin="round"/>
<defs>
<filter id="filter0_i" x="12.9089" y="0" width="218.182" height="219.182" filterUnits="userSpaceOnUse" color-interpolation-filters="sRGB">
<feFlood flood-opacity="0" result="BackgroundImageFix"/>
<feBlend mode="normal" in="SourceGraphic" in2="BackgroundImageFix" result="shape"/>
<feColorMatrix in="SourceAlpha" type="matrix" values="0 0 0 0 0 0 0 0 0 0 0 0 0 0 0 0 0 0 127 0" result="hardAlpha"/>
<feOffset dy="1"/>
<feGaussianBlur stdDeviation="2"/>
<feComposite in2="hardAlpha" operator="arithmetic" k2="-1" k3="1"/>
<feColorMatrix type="matrix" values="0 0 0 0 0 0 0 0 0 0 0 0 0 0 0 0 0 0 0.12 0"/>
<feBlend mode="normal" in2="shape" result="effect1_innerShadow"/>
</filter>
<filter id="filter1_d" x="0" y="26.2727" width="244" height="167.636" filterUnits="userSpaceOnUse" color-interpolation-filters="sRGB">
<feFlood flood-opacity="0" result="BackgroundImageFix"/>
<feColorMatrix in="SourceAlpha" type="matrix" values="0 0 0 0 0 0 0 0 0 0 0 0 0 0 0 0 0 0 127 0" result="hardAlpha"/>
<feOffset dy="1"/>
<feGaussianBlur stdDeviation="1"/>
<feColorMatrix type="matrix" values="0 0 0 0 0 0 0 0 0 0 0 0 0 0 0 0 0 0 0.3 0"/>
<feBlend mode="normal" in2="BackgroundImageFix" result="effect1_dropShadow"/>
<feBlend mode="normal" in="SourceGraphic" in2="effect1_dropShadow" result="shape"/>
</filter>
<linearGradient id="paint0_linear" x1="78.6239" y1="200.468" x2="84.8073" y2="209.877" gradientUnits="userSpaceOnUse">
<stop stop-color="#ECC961"/>
<stop offset="1" stop-color="#D49932"/>
</linearGradient>
</defs>
</svg>
