<svg width="251" height="221" viewBox="0 0 251 221" fill="none" xmlns="http://www.w3.org/2000/svg">
<path d="M78.5319 153.392V161H79.6719V153.392H82.5279V152.432H75.6759V153.392H78.5319ZM84.4105 161.828C84.2905 162.132 84.1705 162.388 84.0505 162.596C83.9385 162.804 83.8105 162.972 83.6665 163.1C83.5305 163.236 83.3745 163.332 83.1985 163.388C83.0305 163.452 82.8345 163.484 82.6105 163.484C82.4905 163.484 82.3705 163.476 82.2505 163.46C82.1305 163.444 82.0145 163.416 81.9025 163.376V162.44C81.9905 162.48 82.0905 162.512 82.2025 162.536C82.3225 162.568 82.4225 162.584 82.5025 162.584C82.7105 162.584 82.8825 162.532 83.0185 162.428C83.1625 162.332 83.2705 162.192 83.3425 162.008L83.7625 160.964L81.3025 154.796H82.4545L84.2665 159.872H84.2905L86.0305 154.796H87.1105L84.4105 161.828ZM88.0105 154.796V163.364H89.0305V160.172H89.0545C89.1665 160.356 89.3025 160.512 89.4625 160.64C89.6305 160.76 89.8065 160.856 89.9905 160.928C90.1745 161 90.3585 161.052 90.5425 161.084C90.7345 161.116 90.9065 161.132 91.0585 161.132C91.5305 161.132 91.9425 161.048 92.2945 160.88C92.6545 160.712 92.9505 160.484 93.1825 160.196C93.4225 159.9 93.5985 159.556 93.7105 159.164C93.8305 158.772 93.8905 158.356 93.8905 157.916C93.8905 157.476 93.8305 157.06 93.7105 156.668C93.5905 156.276 93.4105 155.932 93.1705 155.636C92.9385 155.332 92.6425 155.092 92.2825 154.916C91.9305 154.74 91.5145 154.652 91.0345 154.652C90.6025 154.652 90.2065 154.732 89.8465 154.892C89.4865 155.044 89.2225 155.292 89.0545 155.636H89.0305V154.796H88.0105ZM92.8105 157.844C92.8105 158.148 92.7785 158.444 92.7145 158.732C92.6505 159.02 92.5465 159.276 92.4025 159.5C92.2585 159.724 92.0665 159.904 91.8265 160.04C91.5945 160.176 91.3025 160.244 90.9505 160.244C90.5985 160.244 90.2985 160.18 90.0505 160.052C89.8025 159.916 89.5985 159.74 89.4385 159.524C89.2865 159.308 89.1745 159.06 89.1025 158.78C89.0305 158.492 88.9945 158.196 88.9945 157.892C88.9945 157.604 89.0265 157.32 89.0905 157.04C89.1625 156.76 89.2745 156.512 89.4265 156.296C89.5785 156.072 89.7745 155.892 90.0145 155.756C90.2545 155.62 90.5465 155.552 90.8905 155.552C91.2185 155.552 91.5025 155.616 91.7425 155.744C91.9905 155.872 92.1905 156.044 92.3425 156.26C92.5025 156.476 92.6185 156.724 92.6905 157.004C92.7705 157.276 92.8105 157.556 92.8105 157.844ZM99.3958 157.304H95.8318C95.8478 157.064 95.8998 156.84 95.9878 156.632C96.0758 156.416 96.1958 156.228 96.3478 156.068C96.4998 155.908 96.6798 155.784 96.8878 155.696C97.1038 155.6 97.3438 155.552 97.6078 155.552C97.8638 155.552 98.0958 155.6 98.3038 155.696C98.5198 155.784 98.7038 155.908 98.8558 156.068C99.0158 156.22 99.1398 156.404 99.2278 156.62C99.3238 156.836 99.3798 157.064 99.3958 157.304ZM100.38 159.032H99.3718C99.2838 159.44 99.0998 159.744 98.8198 159.944C98.5478 160.144 98.1958 160.244 97.7638 160.244C97.4278 160.244 97.1358 160.188 96.8878 160.076C96.6398 159.964 96.4358 159.816 96.2758 159.632C96.1158 159.44 95.9998 159.224 95.9278 158.984C95.8558 158.736 95.8238 158.476 95.8318 158.204H100.476C100.492 157.828 100.456 157.432 100.368 157.016C100.288 156.6 100.136 156.216 99.9118 155.864C99.6958 155.512 99.4038 155.224 99.0358 155C98.6758 154.768 98.2198 154.652 97.6678 154.652C97.2438 154.652 96.8518 154.732 96.4918 154.892C96.1398 155.052 95.8318 155.276 95.5678 155.564C95.3118 155.852 95.1118 156.192 94.9678 156.584C94.8238 156.976 94.7518 157.408 94.7518 157.88C94.7678 158.352 94.8358 158.788 94.9558 159.188C95.0838 159.588 95.2718 159.932 95.5198 160.22C95.7678 160.508 96.0718 160.732 96.4318 160.892C96.7998 161.052 97.2318 161.132 97.7278 161.132C98.4318 161.132 99.0158 160.956 99.4798 160.604C99.9438 160.252 100.244 159.728 100.38 159.032ZM105.497 159.044H104.477C104.493 159.428 104.573 159.756 104.717 160.028C104.861 160.292 105.053 160.508 105.293 160.676C105.533 160.836 105.809 160.952 106.121 161.024C106.433 161.096 106.761 161.132 107.105 161.132C107.417 161.132 107.729 161.1 108.041 161.036C108.361 160.98 108.645 160.876 108.893 160.724C109.149 160.572 109.353 160.372 109.505 160.124C109.665 159.876 109.745 159.564 109.745 159.188C109.745 158.892 109.685 158.644 109.565 158.444C109.453 158.244 109.301 158.08 109.109 157.952C108.925 157.816 108.709 157.708 108.461 157.628C108.221 157.548 107.973 157.48 107.717 157.424C107.477 157.368 107.237 157.316 106.997 157.268C106.757 157.212 106.541 157.148 106.349 157.076C106.157 156.996 105.997 156.9 105.869 156.788C105.749 156.668 105.689 156.52 105.689 156.344C105.689 156.184 105.729 156.056 105.809 155.96C105.889 155.856 105.993 155.776 106.121 155.72C106.249 155.656 106.389 155.612 106.541 155.588C106.701 155.564 106.857 155.552 107.009 155.552C107.177 155.552 107.341 155.572 107.501 155.612C107.669 155.644 107.821 155.7 107.957 155.78C108.093 155.86 108.205 155.968 108.293 156.104C108.381 156.232 108.433 156.396 108.449 156.596H109.469C109.445 156.22 109.365 155.908 109.229 155.66C109.093 155.404 108.909 155.204 108.677 155.06C108.453 154.908 108.193 154.804 107.897 154.748C107.601 154.684 107.277 154.652 106.925 154.652C106.653 154.652 106.377 154.688 106.097 154.76C105.825 154.824 105.577 154.928 105.353 155.072C105.137 155.208 104.957 155.388 104.813 155.612C104.677 155.836 104.609 156.104 104.609 156.416C104.609 156.816 104.709 157.128 104.909 157.352C105.109 157.576 105.357 157.752 105.653 157.88C105.957 158 106.285 158.096 106.637 158.168C106.989 158.232 107.313 158.308 107.609 158.396C107.913 158.476 108.165 158.584 108.365 158.72C108.565 158.856 108.665 159.056 108.665 159.32C108.665 159.512 108.617 159.672 108.521 159.8C108.425 159.92 108.301 160.012 108.149 160.076C108.005 160.14 107.845 160.184 107.669 160.208C107.493 160.232 107.325 160.244 107.165 160.244C106.957 160.244 106.753 160.224 106.553 160.184C106.361 160.144 106.185 160.08 106.025 159.992C105.873 159.896 105.749 159.772 105.653 159.62C105.557 159.46 105.505 159.268 105.497 159.044ZM111.617 157.904C111.617 157.528 111.665 157.196 111.761 156.908C111.865 156.612 112.005 156.364 112.181 156.164C112.357 155.964 112.561 155.812 112.793 155.708C113.033 155.604 113.285 155.552 113.549 155.552C113.813 155.552 114.061 155.604 114.293 155.708C114.533 155.812 114.741 155.964 114.917 156.164C115.093 156.364 115.229 156.612 115.325 156.908C115.429 157.196 115.481 157.528 115.481 157.904C115.481 158.28 115.429 158.616 115.325 158.912C115.229 159.2 115.093 159.444 114.917 159.644C114.741 159.836 114.533 159.984 114.293 160.088C114.061 160.192 113.813 160.244 113.549 160.244C113.285 160.244 113.033 160.192 112.793 160.088C112.561 159.984 112.357 159.836 112.181 159.644C112.005 159.444 111.865 159.2 111.761 158.912C111.665 158.616 111.617 158.28 111.617 157.904ZM110.537 157.904C110.537 158.36 110.601 158.784 110.729 159.176C110.857 159.568 111.049 159.912 111.305 160.208C111.561 160.496 111.877 160.724 112.253 160.892C112.629 161.052 113.061 161.132 113.549 161.132C114.045 161.132 114.477 161.052 114.845 160.892C115.221 160.724 115.537 160.496 115.793 160.208C116.049 159.912 116.241 159.568 116.369 159.176C116.497 158.784 116.561 158.36 116.561 157.904C116.561 157.448 116.497 157.024 116.369 156.632C116.241 156.232 116.049 155.888 115.793 155.6C115.537 155.304 115.221 155.072 114.845 154.904C114.477 154.736 114.045 154.652 113.549 154.652C113.061 154.652 112.629 154.736 112.253 154.904C111.877 155.072 111.561 155.304 111.305 155.6C111.049 155.888 110.857 156.232 110.729 156.632C110.601 157.024 110.537 157.448 110.537 157.904ZM117.764 154.796V161H118.784V157.136C118.784 157.016 118.812 156.868 118.868 156.692C118.932 156.508 119.028 156.332 119.156 156.164C119.292 155.996 119.464 155.852 119.672 155.732C119.888 155.612 120.144 155.552 120.44 155.552C120.672 155.552 120.86 155.588 121.004 155.66C121.156 155.724 121.276 155.82 121.364 155.948C121.452 156.068 121.512 156.212 121.544 156.38C121.584 156.548 121.604 156.732 121.604 156.932V161H122.624V157.136C122.624 156.656 122.768 156.272 123.056 155.984C123.344 155.696 123.74 155.552 124.244 155.552C124.492 155.552 124.692 155.588 124.844 155.66C125.004 155.732 125.128 155.832 125.216 155.96C125.304 156.08 125.364 156.224 125.396 156.392C125.428 156.56 125.444 156.74 125.444 156.932V161H126.464V156.452C126.464 156.132 126.412 155.86 126.308 155.636C126.212 155.404 126.072 155.216 125.888 155.072C125.712 154.928 125.496 154.824 125.24 154.76C124.992 154.688 124.712 154.652 124.4 154.652C123.992 154.652 123.616 154.744 123.272 154.928C122.936 155.112 122.664 155.372 122.456 155.708C122.328 155.324 122.108 155.052 121.796 154.892C121.484 154.732 121.136 154.652 120.752 154.652C119.88 154.652 119.212 155.004 118.748 155.708H118.724V154.796H117.764ZM132.302 157.304H128.738C128.754 157.064 128.806 156.84 128.894 156.632C128.982 156.416 129.102 156.228 129.254 156.068C129.406 155.908 129.586 155.784 129.794 155.696C130.01 155.6 130.25 155.552 130.514 155.552C130.77 155.552 131.002 155.6 131.21 155.696C131.426 155.784 131.61 155.908 131.762 156.068C131.922 156.22 132.046 156.404 132.134 156.62C132.23 156.836 132.286 157.064 132.302 157.304ZM133.286 159.032H132.278C132.19 159.44 132.006 159.744 131.726 159.944C131.454 160.144 131.102 160.244 130.67 160.244C130.334 160.244 130.042 160.188 129.794 160.076C129.546 159.964 129.342 159.816 129.182 159.632C129.022 159.44 128.906 159.224 128.834 158.984C128.762 158.736 128.73 158.476 128.738 158.204H133.382C133.398 157.828 133.362 157.432 133.274 157.016C133.194 156.6 133.042 156.216 132.818 155.864C132.602 155.512 132.31 155.224 131.942 155C131.582 154.768 131.126 154.652 130.574 154.652C130.15 154.652 129.758 154.732 129.398 154.892C129.046 155.052 128.738 155.276 128.474 155.564C128.218 155.852 128.018 156.192 127.874 156.584C127.73 156.976 127.658 157.408 127.658 157.88C127.674 158.352 127.742 158.788 127.862 159.188C127.99 159.588 128.178 159.932 128.426 160.22C128.674 160.508 128.978 160.732 129.338 160.892C129.706 161.052 130.138 161.132 130.634 161.132C131.338 161.132 131.922 160.956 132.386 160.604C132.85 160.252 133.15 159.728 133.286 159.032ZM135.855 154.796V152.936H134.835V154.796H133.779V155.696H134.835V159.644C134.835 159.932 134.863 160.164 134.919 160.34C134.975 160.516 135.059 160.652 135.171 160.748C135.291 160.844 135.443 160.912 135.627 160.952C135.819 160.984 136.047 161 136.311 161H137.091V160.1H136.623C136.463 160.1 136.331 160.096 136.227 160.088C136.131 160.072 136.055 160.044 135.999 160.004C135.943 159.964 135.903 159.908 135.879 159.836C135.863 159.764 135.855 159.668 135.855 159.548V155.696H137.091V154.796H135.855ZM138.225 152.432V161H139.245V157.496C139.245 157.216 139.281 156.96 139.353 156.728C139.433 156.488 139.549 156.28 139.701 156.104C139.853 155.928 140.041 155.792 140.265 155.696C140.497 155.6 140.769 155.552 141.081 155.552C141.473 155.552 141.781 155.664 142.005 155.888C142.229 156.112 142.341 156.416 142.341 156.8V161H143.361V156.92C143.361 156.584 143.325 156.28 143.253 156.008C143.189 155.728 143.073 155.488 142.905 155.288C142.737 155.088 142.517 154.932 142.245 154.82C141.973 154.708 141.633 154.652 141.225 154.652C141.041 154.652 140.849 154.672 140.649 154.712C140.457 154.752 140.269 154.816 140.085 154.904C139.909 154.984 139.749 155.092 139.605 155.228C139.461 155.356 139.349 155.516 139.269 155.708H139.245V152.432H138.225ZM145.973 153.68V152.432H144.953V153.68H145.973ZM144.953 154.796V161H145.973V154.796H144.953ZM147.553 154.796V161H148.573V157.496C148.573 157.216 148.609 156.96 148.681 156.728C148.761 156.488 148.877 156.28 149.029 156.104C149.181 155.928 149.369 155.792 149.593 155.696C149.825 155.6 150.097 155.552 150.409 155.552C150.801 155.552 151.109 155.664 151.333 155.888C151.557 156.112 151.669 156.416 151.669 156.8V161H152.689V156.92C152.689 156.584 152.653 156.28 152.581 156.008C152.517 155.728 152.401 155.488 152.233 155.288C152.065 155.088 151.845 154.932 151.573 154.82C151.301 154.708 150.961 154.652 150.553 154.652C149.633 154.652 148.961 155.028 148.537 155.78H148.513V154.796H147.553ZM159.573 160.472V154.796H158.613V155.684H158.601C158.417 155.34 158.161 155.084 157.833 154.916C157.505 154.74 157.145 154.652 156.753 154.652C156.217 154.652 155.765 154.756 155.397 154.964C155.029 155.164 154.733 155.424 154.509 155.744C154.285 156.056 154.125 156.408 154.029 156.8C153.933 157.184 153.885 157.56 153.885 157.928C153.885 158.352 153.941 158.756 154.053 159.14C154.173 159.516 154.349 159.848 154.581 160.136C154.813 160.416 155.101 160.64 155.445 160.808C155.789 160.976 156.193 161.06 156.657 161.06C157.057 161.06 157.433 160.972 157.785 160.796C158.145 160.612 158.413 160.328 158.589 159.944H158.613V160.352C158.613 160.696 158.577 161.012 158.505 161.3C158.441 161.588 158.333 161.832 158.181 162.032C158.029 162.24 157.837 162.4 157.605 162.512C157.373 162.632 157.089 162.692 156.753 162.692C156.585 162.692 156.409 162.672 156.225 162.632C156.041 162.6 155.869 162.544 155.709 162.464C155.557 162.384 155.425 162.28 155.313 162.152C155.209 162.024 155.153 161.868 155.145 161.684H154.125C154.141 162.02 154.229 162.304 154.389 162.536C154.549 162.768 154.749 162.956 154.989 163.1C155.237 163.244 155.509 163.348 155.805 163.412C156.109 163.476 156.405 163.508 156.693 163.508C157.685 163.508 158.413 163.256 158.877 162.752C159.341 162.248 159.573 161.488 159.573 160.472ZM156.717 160.172C156.381 160.172 156.101 160.104 155.877 159.968C155.653 159.824 155.473 159.64 155.337 159.416C155.201 159.184 155.105 158.928 155.049 158.648C154.993 158.368 154.965 158.088 154.965 157.808C154.965 157.512 154.997 157.228 155.061 156.956C155.133 156.684 155.241 156.444 155.385 156.236C155.537 156.028 155.729 155.864 155.961 155.744C156.193 155.616 156.473 155.552 156.801 155.552C157.121 155.552 157.393 155.616 157.617 155.744C157.841 155.872 158.021 156.044 158.157 156.26C158.301 156.468 158.405 156.704 158.469 156.968C158.533 157.232 158.565 157.5 158.565 157.772C158.565 158.06 158.529 158.348 158.457 158.636C158.393 158.924 158.289 159.184 158.145 159.416C158.001 159.64 157.809 159.824 157.569 159.968C157.337 160.104 157.053 160.172 156.717 160.172Z" fill="#373A3C"/>
<path d="M235.5 110.5C235.5 171.251 186.251 220.5 125.5 220.5C64.7487 220.5 15.5 171.251 15.5 110.5C15.5 49.7487 64.7487 0.5 125.5 0.5C186.251 0.5 235.5 49.7487 235.5 110.5Z" fill="#E6E8ED" stroke="#CED4DA"/>
<g filter="url(#filter0_d)">
<path d="M239.976 29.1765H10.2323C6.33535 29.1765 3.17627 32.3356 3.17627 36.2325V188.642C3.17627 192.539 6.33535 195.698 10.2323 195.698H239.976C243.873 195.698 247.032 192.539 247.032 188.642V36.2325C247.032 32.3356 243.873 29.1765 239.976 29.1765Z" fill="black"/>
</g>
<path d="M10.2323 29.6765H239.976C243.596 29.6765 246.532 32.6117 246.532 36.2325V188.642C246.532 192.263 243.596 195.198 239.976 195.198H10.2323C6.61149 195.198 3.67627 192.263 3.67627 188.642V36.2325C3.67627 32.6117 6.61149 29.6765 10.2323 29.6765Z" fill="white" stroke="#0C364C"/>
<path d="M43.0945 42.8071H23.288C22.9588 42.8071 22.6919 43.074 22.6919 43.4032C22.6919 43.7324 22.9588 43.9993 23.288 43.9993H43.0945C43.4237 43.9993 43.6906 43.7324 43.6906 43.4032C43.6906 43.074 43.4237 42.8071 43.0945 42.8071Z" fill="#CCCCCC"/>
<path d="M38.5222 45.1917H23.288C22.9588 45.1917 22.6919 45.4585 22.6919 45.7877C22.6919 46.117 22.9588 46.3838 23.288 46.3838H38.5222C38.8514 46.3838 39.1183 46.117 39.1183 45.7877C39.1183 45.4585 38.8514 45.1917 38.5222 45.1917Z" fill="#CCCCCC"/>
<path d="M17.9502 47.305C19.4466 47.305 20.6597 46.0919 20.6597 44.5955C20.6597 43.0991 19.4466 41.886 17.9502 41.886C16.4538 41.886 15.2407 43.0991 15.2407 44.5955C15.2407 46.0919 16.4538 47.305 17.9502 47.305Z" fill="#CCCCCC"/>
<g opacity="0.6">
<path opacity="0.8" d="M238 55.8394H14V56.8394H238V55.8394Z" fill="#CED4DA"/>
<path opacity="0.49514" d="M238 176H14V177H238V176Z" fill="#CED4DA"/>
<path opacity="0.49514" d="M238 186H14V187H238V186Z" fill="#CED4DA"/>
<path opacity="0.49514" d="M238 166H14V167H238V166Z" fill="#CED4DA"/>
<path opacity="0.49514" d="M238 156H14V157H238V156Z" fill="#CED4DA"/>
<path opacity="0.49514" d="M238 146H14V147H238V146Z" fill="#CED4DA"/>
<path opacity="0.49514" d="M238 136H14V137H238V136Z" fill="#CED4DA"/>
<path opacity="0.49514" d="M238 126H14V127H238V126Z" fill="#CED4DA"/>
<path opacity="0.49514" d="M238 116H14V117H238V116Z" fill="#CED4DA"/>
<path opacity="0.49514" d="M238 106H14V107H238V106Z" fill="#CED4DA"/>
<path opacity="0.49514" d="M238 96H14V97H238V96Z" fill="#CED4DA"/>
<path opacity="0.49514" d="M238 86H14V87H238V86Z" fill="#CED4DA"/>
<path opacity="0.49514" d="M238 75.8394H14V76.8394H238V75.8394Z" fill="#CED4DA"/>
<path opacity="0.49514" d="M238 65.8394H14V66.8394H238V65.8394Z" fill="#CED4DA"/>
</g>
<mask id="mask0" mask-type="alpha" maskUnits="userSpaceOnUse" x="58" y="53" width="136" height="136">
<path opacity="0.399042" d="M159.92 137.96L142.96 121L159.92 104.04C164.584 99.3761 164.584 91.7441 159.92 87.0801C155.256 82.4161 147.624 82.4161 142.96 87.0801L126 104.04L109.04 87.0801C104.376 82.4161 96.7441 82.4161 92.0801 87.0801C87.4161 91.7441 87.4161 99.3761 92.0801 104.04L109.04 121L92.0801 137.96C87.4161 142.624 87.4161 150.256 92.0801 154.92C96.7441 159.584 104.376 159.584 109.04 154.92L126 137.96L142.96 154.92C147.624 159.584 155.256 159.584 159.92 154.92C164.584 150.256 164.584 142.624 159.92 137.96Z" fill="white"/>
</mask>
<g mask="url(#mask0)">
<path d="M159.92 137.96L142.96 121L159.92 104.04C164.584 99.3761 164.584 91.7441 159.92 87.0801C155.256 82.4161 147.624 82.4161 142.96 87.0801L126 104.04L109.04 87.0801C104.376 82.4161 96.7441 82.4161 92.0801 87.0801C87.4161 91.7441 87.4161 99.3761 92.0801 104.04L109.04 121L92.0801 137.96C87.4161 142.624 87.4161 150.256 92.0801 154.92C96.7441 159.584 104.376 159.584 109.04 154.92L126 137.96L142.96 154.92C147.624 159.584 155.256 159.584 159.92 154.92C164.584 150.256 164.584 142.624 159.92 137.96Z" fill="#CED4DA"/>
</g>
<mask id="mask1" mask-type="alpha" maskUnits="userSpaceOnUse" x="92" y="103" width="84" height="85">
<g opacity="0.399042">
<path opacity="0.399042" d="M163.468 137.721L144.947 119.2C146.988 117.159 148.008 116.138 148.008 116.138C134.331 113.044 122.982 116.045 113.961 125.14C108.321 131.042 104.972 137.273 103.913 143.832C102.854 150.391 103.123 155.486 104.719 159.116L126.391 137.756L144.913 156.277C150.006 161.37 158.348 161.363 163.451 156.26C168.554 151.157 168.561 142.815 163.468 137.721Z" fill="white"/>
</g>
</mask>
<g mask="url(#mask1)">
<path opacity="0.802851" d="M163.468 137.721L144.947 119.2C146.988 117.159 148.008 116.138 148.008 116.138C134.331 113.044 122.982 116.045 113.961 125.14C108.321 131.042 104.972 137.273 103.913 143.832C102.854 150.391 103.123 155.486 104.719 159.116L126.391 137.756L144.913 156.277C150.006 161.37 158.348 161.363 163.451 156.26C168.554 151.157 168.561 142.815 163.468 137.721Z" fill="#CED4DA"/>
</g>
<path fill-rule="evenodd" clip-rule="evenodd" d="M112.55 170.774L104.522 178.703L109.983 183.457C115.462 178.067 118.201 175.372 118.201 175.372C118.201 175.372 116.317 173.839 112.55 170.774Z" fill="#00223D"/>
<path fill-rule="evenodd" clip-rule="evenodd" d="M104.522 178.703L109.983 183.457L110.412 186.595C97.7948 200.672 91.2877 207.906 90.8952 208.301L90.8847 208.312C90.487 208.691 86.0247 208.691 83.4683 206.576C80.9119 204.462 80.815 200.049 81.1949 199.633C81.4482 199.356 88.0536 192.4 101.011 178.765L104.522 178.703Z" fill="url(#paint0_linear)"/>
<path d="M137.25 181.5C155.061 181.5 169.5 167.061 169.5 149.25C169.5 131.439 155.061 117 137.25 117C119.438 117 105 131.439 105 149.25C105 167.061 119.438 181.5 137.25 181.5Z" fill="#1FA7D2" fill-opacity="0.284583" stroke="#00223D" stroke-width="1.5"/>
<path opacity="0.800525" d="M137.816 123C132.05 123.088 126.86 124.895 122.244 128.421C117.628 131.948 114.38 136.588 112.5 142.342" stroke="white" stroke-width="4.5" stroke-linecap="round" stroke-linejoin="round"/>
<defs>
<filter id="filter0_d" x="0.17627" y="27.1765" width="249.855" height="172.522" filterUnits="userSpaceOnUse" color-interpolation-filters="sRGB">
<feFlood flood-opacity="0" result="BackgroundImageFix"/>
<feColorMatrix in="SourceAlpha" type="matrix" values="0 0 0 0 0 0 0 0 0 0 0 0 0 0 0 0 0 0 127 0" result="hardAlpha"/>
<feOffset dy="1"/>
<feGaussianBlur stdDeviation="1.5"/>
<feColorMatrix type="matrix" values="0 0 0 0 0.465734 0 0 0 0 0.464665 0 0 0 0 0.485451 0 0 0 0.496176 0"/>
<feBlend mode="normal" in2="BackgroundImageFix" result="effect1_dropShadow"/>
<feBlend mode="normal" in="SourceGraphic" in2="effect1_dropShadow" result="shape"/>
</filter>
<linearGradient id="paint0_linear" x1="94.0412" y1="187.457" x2="100.304" y2="196.988" gradientUnits="userSpaceOnUse">
<stop stop-color="#ECC961"/>
<stop offset="1" stop-color="#D49932"/>
</linearGradient>
</defs>
</svg>
