<svg width="264" height="240" viewBox="0 0 264 240" fill="none" xmlns="http://www.w3.org/2000/svg">
<g filter="url(#filter0_i)">
<path d="M132 236.364C197.27 236.364 250.182 183.452 250.182 118.182C250.182 52.9118 197.27 0 132 0C66.7302 0 13.8184 52.9118 13.8184 118.182C13.8184 183.452 66.7302 236.364 132 236.364Z" fill="black" fill-opacity="0.04"/>
</g>
<g filter="url(#filter1_d)">
<path d="M254.477 29.5455H9.52315C5.36823 29.5455 2 32.9085 2 37.057V199.307C2 203.455 5.36823 206.818 9.52315 206.818H254.477C258.632 206.818 262 203.455 262 199.307V37.057C262 32.9085 258.632 29.5455 254.477 29.5455Z" fill="black"/>
</g>
<path d="M254.477 29.2955H9.52315C5.23052 29.2955 1.75 32.7701 1.75 37.057V199.307C1.75 203.594 5.23052 207.068 9.52315 207.068H254.477C258.769 207.068 262.25 203.594 262.25 199.307V37.057C262.25 32.7701 258.769 29.2955 254.477 29.2955Z" fill="white" stroke="#E6E8ED" stroke-width="0.5"/>
<path d="M255.363 179.03H9.37402V189.173H255.363V179.03Z" fill="white"/>
<path d="M255.363 188.992H9.37402V190.061H255.363V188.992Z" fill="#D2D2D2"/>
<path d="M255.363 190.242H9.37402V200.385H255.363V190.242Z" fill="white"/>
<path d="M255.363 168.888H9.37402V179.03H255.363V168.888Z" fill="white"/>
<path d="M255.363 178.849H9.37402V179.919H255.363V178.849Z" fill="#D2D2D2"/>
<path d="M255.363 158.745H9.37402V168.888H255.363V158.745Z" fill="white"/>
<path d="M255.363 168.707H9.37402V169.776H255.363V168.707Z" fill="#D2D2D2"/>
<path d="M255.363 148.603H9.37402V158.745H255.363V148.603Z" fill="white"/>
<path d="M255.363 158.564H9.37402V159.634H255.363V158.564Z" fill="#D2D2D2"/>
<path d="M255.363 138.46H9.37402V148.603H255.363V138.46Z" fill="white"/>
<path d="M255.363 148.421H9.37402V149.491H255.363V148.421Z" fill="#D2D2D2"/>
<path d="M255.363 128.318H9.37402V138.46H255.363V128.318Z" fill="white"/>
<path d="M255.363 138.279H9.37402V139.349H255.363V138.279Z" fill="#D2D2D2"/>
<path d="M255.363 118.175H9.37402V128.317H255.363V118.175Z" fill="white"/>
<path d="M255.363 128.136H9.37402V129.206H255.363V128.136Z" fill="#D2D2D2"/>
<path d="M255.363 108.032H9.37402V118.175H255.363V108.032Z" fill="white"/>
<path d="M255.363 117.994H9.37402V119.063H255.363V117.994Z" fill="#D2D2D2"/>
<path d="M255.363 97.8901H9.37402V108.033H255.363V97.8901Z" fill="white"/>
<path d="M255.363 107.852H9.37402V108.921H255.363V107.852Z" fill="#D2D2D2"/>
<path d="M255.363 87.7474H9.33789V97.8899H255.363V87.7474Z" fill="white"/>
<path d="M255.363 97.7088H9.33789V98.7783H255.363V97.7088Z" fill="#D2D2D2"/>
<path d="M255.363 87.7474H9.37402V97.8899H255.363V87.7474Z" fill="white"/>
<path d="M255.363 97.7088H9.37402V98.7783H255.363V97.7088Z" fill="#D2D2D2"/>
<path d="M255.363 77.605H9.37402V87.7475H255.363V77.605Z" fill="white"/>
<path d="M255.363 87.5664H9.37402V88.6359H255.363V87.5664Z" fill="#D2D2D2"/>
<path d="M255.363 67.4623H9.37402V77.6049H255.363V67.4623Z" fill="white"/>
<path d="M255.363 77.4238H9.37402V78.4933H255.363V77.4238Z" fill="#D2D2D2"/>
<path d="M36.4353 70.5881H21.8848C21.4727 70.5881 21.1387 70.9472 21.1387 71.3902V72.9945C21.1387 73.4375 21.4727 73.7966 21.8848 73.7966H36.4353C36.8474 73.7966 37.1815 73.4375 37.1815 72.9945V71.3902C37.1815 70.9472 36.8474 70.5881 36.4353 70.5881Z" fill="#EDEDED"/>
<path d="M96.3135 70.5881H66.8197C66.3994 70.5881 66.0586 70.9472 66.0586 71.3902V72.9945C66.0586 73.4375 66.3994 73.7966 66.8197 73.7966H96.3135C96.7339 73.7966 97.0746 73.4375 97.0746 72.9945V71.3902C97.0746 70.9472 96.7339 70.5881 96.3135 70.5881Z" fill="#EDEDED"/>
<path d="M131.596 70.5881H116.03C115.603 70.5881 115.257 70.9472 115.257 71.3902V72.9945C115.257 73.4375 115.603 73.7966 116.03 73.7966H131.596C132.023 73.7966 132.369 73.4375 132.369 72.9945V71.3902C132.369 70.9472 132.023 70.5881 131.596 70.5881Z" fill="#EDEDED"/>
<path fill-rule="evenodd" clip-rule="evenodd" d="M161.992 70.5881H192.689C193.044 70.5881 193.332 70.8973 193.332 71.2788V71.9695V72.9945C193.332 73.4375 192.998 73.7966 192.585 73.7966H161.992C161.58 73.7966 161.246 73.4375 161.246 72.9945V71.3902C161.246 70.9472 161.58 70.5881 161.992 70.5881Z" fill="#EDEDED"/>
<path d="M226.76 70.5881H211.239C210.8 70.5881 210.443 70.9472 210.443 71.3902V72.9945C210.443 73.4375 210.8 73.7966 211.239 73.7966H226.76C227.199 73.7966 227.556 73.4375 227.556 72.9945V71.3902C227.556 70.9472 227.199 70.5881 226.76 70.5881Z" fill="#EDEDED"/>
<path d="M255.08 56.7273H9.09082V66.8698H255.08V56.7273Z" fill="white"/>
<path d="M255.08 66.6888H9.09082V67.7583H255.08V66.6888Z" fill="#D2D2D2"/>
<path d="M36.1521 59.8531H21.6016C21.1895 59.8531 20.8555 60.2122 20.8555 60.6552V62.2595C20.8555 62.7025 21.1895 63.0616 21.6016 63.0616H36.1521C36.5642 63.0616 36.8982 62.7025 36.8982 62.2595V60.6552C36.8982 60.2122 36.5642 59.8531 36.1521 59.8531Z" fill="#EDEDED"/>
<path d="M96.0303 59.8531H66.5365C66.1162 59.8531 65.7754 60.2122 65.7754 60.6552V62.2595C65.7754 62.7025 66.1162 63.0616 66.5365 63.0616H96.0303C96.4507 63.0616 96.7914 62.7025 96.7914 62.2595V60.6552C96.7914 60.2122 96.4507 59.8531 96.0303 59.8531Z" fill="#EDEDED"/>
<path d="M131.313 59.8531H115.746C115.32 59.8531 114.974 60.2122 114.974 60.6552V62.2595C114.974 62.7025 115.32 63.0616 115.746 63.0616H131.313C131.74 63.0616 132.086 62.7025 132.086 62.2595V60.6552C132.086 60.2122 131.74 59.8531 131.313 59.8531Z" fill="#EDEDED"/>
<path fill-rule="evenodd" clip-rule="evenodd" d="M161.709 59.8531H192.406C192.761 59.8531 193.048 60.1623 193.048 60.5438V61.2345V62.2595C193.048 62.7025 192.714 63.0616 192.302 63.0616H161.709C161.297 63.0616 160.963 62.7025 160.963 62.2595V60.6552C160.963 60.2122 161.297 59.8531 161.709 59.8531Z" fill="#EDEDED"/>
<path d="M226.477 59.8531H210.956C210.516 59.8531 210.16 60.2122 210.16 60.6552V62.2595C210.16 62.7025 210.516 63.0616 210.956 63.0616H226.477C226.916 63.0616 227.272 62.7025 227.272 62.2595V60.6552C227.272 60.2122 226.916 59.8531 226.477 59.8531Z" fill="#EDEDED"/>
<path d="M36.4353 81.2833H21.8848C21.4727 81.2833 21.1387 81.6424 21.1387 82.0854V83.6897C21.1387 84.1327 21.4727 84.4918 21.8848 84.4918H36.4353C36.8474 84.4918 37.1815 84.1327 37.1815 83.6897V82.0854C37.1815 81.6424 36.8474 81.2833 36.4353 81.2833Z" fill="#EDEDED"/>
<path d="M95.2323 81.2833H66.8314C66.4046 81.2833 66.0586 81.6424 66.0586 82.0854V83.6897C66.0586 84.1327 66.4046 84.4918 66.8314 84.4918H95.2323C95.6591 84.4918 96.0051 84.1327 96.0051 83.6897V82.0854C96.0051 81.6424 95.6591 81.2833 95.2323 81.2833Z" fill="#EDEDED"/>
<path d="M131.596 81.2833H116.03C115.603 81.2833 115.257 81.6424 115.257 82.0854V83.6897C115.257 84.1327 115.603 84.4918 116.03 84.4918H131.596C132.023 84.4918 132.369 84.1327 132.369 83.6897V82.0854C132.369 81.6424 132.023 81.2833 131.596 81.2833Z" fill="#EDEDED"/>
<path d="M192.577 81.2833H162.001C161.584 81.2833 161.246 81.6424 161.246 82.0854V83.6897C161.246 84.1327 161.584 84.4918 162.001 84.4918H192.577C192.994 84.4918 193.332 84.1327 193.332 83.6897V82.0854C193.332 81.6424 192.994 81.2833 192.577 81.2833Z" fill="#EDEDED"/>
<path d="M226.76 81.2833H211.239C210.8 81.2833 210.443 81.6424 210.443 82.0854V83.6897C210.443 84.1327 210.8 84.4918 211.239 84.4918H226.76C227.199 84.4918 227.556 84.1327 227.556 83.6897V82.0854C227.556 81.6424 227.199 81.2833 226.76 81.2833Z" fill="#EDEDED"/>
<path d="M36.4353 90.909H21.8848C21.4727 90.909 21.1387 91.2681 21.1387 91.7111V93.3154C21.1387 93.7584 21.4727 94.1176 21.8848 94.1176H36.4353C36.8474 94.1176 37.1815 93.7584 37.1815 93.3154V91.7111C37.1815 91.2681 36.8474 90.909 36.4353 90.909Z" fill="#EDEDED"/>
<path d="M90.9721 90.909H66.8135C66.3966 90.909 66.0586 91.2681 66.0586 91.7111V93.3154C66.0586 93.7584 66.3966 94.1176 66.8135 94.1176H90.9721C91.389 94.1176 91.727 93.7584 91.727 93.3154V91.7111C91.727 91.2681 91.389 90.909 90.9721 90.909Z" fill="#EDEDED"/>
<path d="M131.596 90.909H116.03C115.603 90.909 115.257 91.2681 115.257 91.7111V93.3154C115.257 93.7584 115.603 94.1176 116.03 94.1176H131.596C132.023 94.1176 132.369 93.7584 132.369 93.3154V91.7111C132.369 91.2681 132.023 90.909 131.596 90.909Z" fill="#EDEDED"/>
<path d="M191.501 90.909H162.007C161.587 90.909 161.246 91.2681 161.246 91.7111V93.3154C161.246 93.7584 161.587 94.1176 162.007 94.1176H191.501C191.921 94.1176 192.262 93.7584 192.262 93.3154V91.7111C192.262 91.2681 191.921 90.909 191.501 90.909Z" fill="#EDEDED"/>
<path d="M226.76 90.909H211.239C210.8 90.909 210.443 91.2681 210.443 91.7111V93.3154C210.443 93.7584 210.8 94.1176 211.239 94.1176H226.76C227.199 94.1176 227.556 93.7584 227.556 93.3154V91.7111C227.556 91.2681 227.199 90.909 226.76 90.909Z" fill="#EDEDED"/>
<path d="M36.4353 101.604H21.8848C21.4727 101.604 21.1387 101.963 21.1387 102.406V104.011C21.1387 104.454 21.4727 104.813 21.8848 104.813H36.4353C36.8474 104.813 37.1815 104.454 37.1815 104.011V102.406C37.1815 101.963 36.8474 101.604 36.4353 101.604Z" fill="#EDEDED"/>
<path d="M85.6459 101.604H67.8613C67.4563 101.604 67.1279 101.963 67.1279 102.406V104.011C67.1279 104.454 67.4563 104.813 67.8613 104.813H85.6459C86.0509 104.813 86.3793 104.454 86.3793 104.011V102.406C86.3793 101.963 86.0509 101.604 85.6459 101.604Z" fill="#EDEDED"/>
<path d="M131.596 101.604H116.03C115.603 101.604 115.257 101.963 115.257 102.406V104.011C115.257 104.454 115.603 104.813 116.03 104.813H131.596C132.023 104.813 132.369 104.454 132.369 104.011V102.406C132.369 101.963 132.023 101.604 131.596 101.604Z" fill="#EDEDED"/>
<path d="M188.281 101.604H162.019C161.592 101.604 161.246 101.963 161.246 102.406V104.011C161.246 104.454 161.592 104.813 162.019 104.813H188.281C188.708 104.813 189.054 104.454 189.054 104.011V102.406C189.054 101.963 188.708 101.604 188.281 101.604Z" fill="#EDEDED"/>
<path d="M226.81 101.604H212.26C211.848 101.604 211.514 101.963 211.514 102.406V104.011C211.514 104.454 211.848 104.813 212.26 104.813H226.81C227.222 104.813 227.556 104.454 227.556 104.011V102.406C227.556 101.963 227.222 101.604 226.81 101.604Z" fill="#EDEDED"/>
<path d="M36.4353 111.23H21.8848C21.4727 111.23 21.1387 111.589 21.1387 112.032V113.636C21.1387 114.079 21.4727 114.438 21.8848 114.438H36.4353C36.8474 114.438 37.1815 114.079 37.1815 113.636V112.032C37.1815 111.589 36.8474 111.23 36.4353 111.23Z" fill="#EDEDED"/>
<path d="M85.6459 111.23H67.8613C67.4563 111.23 67.1279 111.589 67.1279 112.032V113.636C67.1279 114.079 67.4563 114.438 67.8613 114.438H85.6459C86.0509 114.438 86.3793 114.079 86.3793 113.636V112.032C86.3793 111.589 86.0509 111.23 85.6459 111.23Z" fill="#EDEDED"/>
<path d="M131.596 111.23H116.03C115.603 111.23 115.257 111.589 115.257 112.032V113.636C115.257 114.079 115.603 114.438 116.03 114.438H131.596C132.023 114.438 132.369 114.079 132.369 113.636V112.032C132.369 111.589 132.023 111.23 131.596 111.23Z" fill="#EDEDED"/>
<path d="M190.434 111.23H162.004C161.586 111.23 161.246 111.589 161.246 112.032V113.636C161.246 114.079 161.586 114.438 162.004 114.438H190.434C190.853 114.438 191.193 114.079 191.193 113.636V112.032C191.193 111.589 190.853 111.23 190.434 111.23Z" fill="#EDEDED"/>
<path d="M226.81 111.23H212.26C211.848 111.23 211.514 111.589 211.514 112.032V113.636C211.514 114.079 211.848 114.438 212.26 114.438H226.81C227.222 114.438 227.556 114.079 227.556 113.636V112.032C227.556 111.589 227.222 111.23 226.81 111.23Z" fill="#EDEDED"/>
<path d="M36.4353 121.925H21.8848C21.4727 121.925 21.1387 122.284 21.1387 122.727V124.331C21.1387 124.774 21.4727 125.134 21.8848 125.134H36.4353C36.8474 125.134 37.1815 124.774 37.1815 124.331V122.727C37.1815 122.284 36.8474 121.925 36.4353 121.925Z" fill="#EDEDED"/>
<path d="M102.746 121.925H67.8739C67.4619 121.925 67.1279 122.284 67.1279 122.727V124.331C67.1279 124.774 67.4619 125.134 67.8739 125.134H102.746C103.158 125.134 103.492 124.774 103.492 124.331V122.727C103.492 122.284 103.158 121.925 102.746 121.925Z" fill="#EDEDED"/>
<path d="M133.588 121.925H116.177C115.669 121.925 115.257 122.314 115.257 122.794V124.264C115.257 124.744 115.669 125.134 116.177 125.134H133.588C134.096 125.134 134.508 124.744 134.508 124.264V122.794C134.508 122.314 134.096 121.925 133.588 121.925Z" fill="#EDEDED"/>
<path d="M187.22 121.925H162.01C161.588 121.925 161.246 122.284 161.246 122.727V124.331C161.246 124.774 161.588 125.134 162.01 125.134H187.22C187.642 125.134 187.984 124.774 187.984 124.331V122.727C187.984 122.284 187.642 121.925 187.22 121.925Z" fill="#EDEDED"/>
<path d="M226.81 121.925H212.26C211.848 121.925 211.514 122.284 211.514 122.727V124.331C211.514 124.774 211.848 125.134 212.26 125.134H226.81C227.222 125.134 227.556 124.774 227.556 124.331V122.727C227.556 122.284 227.222 121.925 226.81 121.925Z" fill="#EDEDED"/>
<path d="M36.4353 131.551H21.8848C21.4727 131.551 21.1387 131.91 21.1387 132.353V133.957C21.1387 134.4 21.4727 134.759 21.8848 134.759H36.4353C36.8474 134.759 37.1815 134.4 37.1815 133.957V132.353C37.1815 131.91 36.8474 131.551 36.4353 131.551Z" fill="#EDEDED"/>
<path d="M93.118 131.551H67.8758C67.4628 131.551 67.1279 131.91 67.1279 132.353V133.957C67.1279 134.4 67.4628 134.759 67.8758 134.759H93.118C93.531 134.759 93.8659 134.4 93.8659 133.957V132.353C93.8659 131.91 93.531 131.551 93.118 131.551Z" fill="#EDEDED"/>
<path d="M133.588 131.551H116.177C115.669 131.551 115.257 131.94 115.257 132.42V133.89C115.257 134.37 115.669 134.759 116.177 134.759H133.588C134.096 134.759 134.508 134.37 134.508 133.89V132.42C134.508 131.94 134.096 131.551 133.588 131.551Z" fill="#EDEDED"/>
<path d="M188.276 131.551H162.024C161.594 131.551 161.246 131.91 161.246 132.353V133.957C161.246 134.4 161.594 134.759 162.024 134.759H188.276C188.705 134.759 189.054 134.4 189.054 133.957V132.353C189.054 131.91 188.705 131.551 188.276 131.551Z" fill="#EDEDED"/>
<path d="M226.81 131.551H212.26C211.848 131.551 211.514 131.91 211.514 132.353V133.957C211.514 134.4 211.848 134.759 212.26 134.759H226.81C227.222 134.759 227.556 134.4 227.556 133.957V132.353C227.556 131.91 227.222 131.551 226.81 131.551Z" fill="#EDEDED"/>
<path d="M36.4353 142.246H21.8848C21.4727 142.246 21.1387 142.605 21.1387 143.048V144.652C21.1387 145.095 21.4727 145.454 21.8848 145.454H36.4353C36.8474 145.454 37.1815 145.095 37.1815 144.652V143.048C37.1815 142.605 36.8474 142.246 36.4353 142.246Z" fill="#EDEDED"/>
<path d="M97.3847 142.246H66.818C66.3986 142.246 66.0586 142.605 66.0586 143.048V144.652C66.0586 145.095 66.3986 145.454 66.818 145.454H97.3847C97.8041 145.454 98.1442 145.095 98.1442 144.652V143.048C98.1442 142.605 97.8041 142.246 97.3847 142.246Z" fill="#EDEDED"/>
<path d="M133.588 143.315H116.177C115.669 143.315 115.257 143.705 115.257 144.185V145.655C115.257 146.135 115.669 146.524 116.177 146.524H133.588C134.096 146.524 134.508 146.135 134.508 145.655V144.185C134.508 143.705 134.096 143.315 133.588 143.315Z" fill="#EDEDED"/>
<path d="M188.307 142.246H161.993C161.58 142.246 161.246 142.605 161.246 143.048V144.652C161.246 145.095 161.58 145.454 161.993 145.454H188.307C188.719 145.454 189.054 145.095 189.054 144.652V143.048C189.054 142.605 188.719 142.246 188.307 142.246Z" fill="#EDEDED"/>
<path d="M226.76 142.246H211.239C210.8 142.246 210.443 142.605 210.443 143.048V144.652C210.443 145.095 210.8 145.454 211.239 145.454H226.76C227.199 145.454 227.556 145.095 227.556 144.652V143.048C227.556 142.605 227.199 142.246 226.76 142.246Z" fill="#EDEDED"/>
<path d="M36.4353 151.871H21.8848C21.4727 151.871 21.1387 152.231 21.1387 152.674V154.278C21.1387 154.721 21.4727 155.08 21.8848 155.08H36.4353C36.8474 155.08 37.1815 154.721 37.1815 154.278V152.674C37.1815 152.231 36.8474 151.871 36.4353 151.871Z" fill="#EDEDED"/>
<path d="M85.6053 151.871H66.8327C66.4052 151.871 66.0586 152.231 66.0586 152.674V154.278C66.0586 154.721 66.4052 155.08 66.8327 155.08H85.6053C86.0329 155.08 86.3794 154.721 86.3794 154.278V152.674C86.3794 152.231 86.0329 151.871 85.6053 151.871Z" fill="#EDEDED"/>
<path d="M133.588 152.941H116.177C115.669 152.941 115.257 153.33 115.257 153.81V155.28C115.257 155.76 115.669 156.15 116.177 156.15H133.588C134.096 156.15 134.508 155.76 134.508 155.28V153.81C134.508 153.33 134.096 152.941 133.588 152.941Z" fill="#EDEDED"/>
<path d="M196.844 151.871H162.012C161.589 151.871 161.246 152.231 161.246 152.674V154.278C161.246 154.721 161.589 155.08 162.012 155.08H196.844C197.267 155.08 197.61 154.721 197.61 154.278V152.674C197.61 152.231 197.267 151.871 196.844 151.871Z" fill="#EDEDED"/>
<path d="M226.76 151.871H211.239C210.8 151.871 210.443 152.231 210.443 152.674V154.278C210.443 154.721 210.8 155.08 211.239 155.08H226.76C227.199 155.08 227.556 154.721 227.556 154.278V152.674C227.556 152.231 227.199 151.871 226.76 151.871Z" fill="#EDEDED"/>
<path d="M36.4353 162.567H21.8848C21.4727 162.567 21.1387 162.926 21.1387 163.369V164.973C21.1387 165.416 21.4727 165.775 21.8848 165.775H36.4353C36.8474 165.775 37.1815 165.416 37.1815 164.973V163.369C37.1815 162.926 36.8474 162.567 36.4353 162.567Z" fill="#EDEDED"/>
<path d="M97.3756 162.567H66.8271C66.4027 162.567 66.0586 162.926 66.0586 163.369V164.973C66.0586 165.416 66.4027 165.775 66.8271 165.775H97.3756C97.8001 165.775 98.1442 165.416 98.1442 164.973V163.369C98.1442 162.926 97.8001 162.567 97.3756 162.567Z" fill="#EDEDED"/>
<path d="M133.588 163.636H116.177C115.669 163.636 115.257 164.025 115.257 164.506V165.975C115.257 166.456 115.669 166.845 116.177 166.845H133.588C134.096 166.845 134.508 166.456 134.508 165.975V164.506C134.508 164.025 134.096 163.636 133.588 163.636Z" fill="#EDEDED"/>
<path d="M187.226 162.567H162.005C161.586 162.567 161.246 162.926 161.246 163.369V164.973C161.246 165.416 161.586 165.775 162.005 165.775H187.226C187.644 165.775 187.984 165.416 187.984 164.973V163.369C187.984 162.926 187.644 162.567 187.226 162.567Z" fill="#EDEDED"/>
<path d="M226.76 162.567H211.239C210.8 162.567 210.443 162.926 210.443 163.369V164.973C210.443 165.416 210.8 165.775 211.239 165.775H226.76C227.199 165.775 227.556 165.416 227.556 164.973V163.369C227.556 162.926 227.199 162.567 226.76 162.567Z" fill="#EDEDED"/>
<path d="M36.4353 172.192H21.8848C21.4727 172.192 21.1387 172.552 21.1387 172.995V174.599C21.1387 175.042 21.4727 175.401 21.8848 175.401H36.4353C36.8474 175.401 37.1815 175.042 37.1815 174.599V172.995C37.1815 172.552 36.8474 172.192 36.4353 172.192Z" fill="#EDEDED"/>
<path d="M96.3135 172.192H66.8197C66.3994 172.192 66.0586 172.552 66.0586 172.995V174.599C66.0586 175.042 66.3994 175.401 66.8197 175.401H96.3135C96.7339 175.401 97.0746 175.042 97.0746 174.599V172.995C97.0746 172.552 96.7339 172.192 96.3135 172.192Z" fill="#EDEDED"/>
<path d="M133.588 172.192H116.177C115.669 172.192 115.257 172.582 115.257 173.062V174.532C115.257 175.012 115.669 175.401 116.177 175.401H133.588C134.096 175.401 134.508 175.012 134.508 174.532V173.062C134.508 172.582 134.096 172.192 133.588 172.192Z" fill="#EDEDED"/>
<path d="M187.226 172.192H162.005C161.586 172.192 161.246 172.552 161.246 172.995V174.599C161.246 175.042 161.586 175.401 162.005 175.401H187.226C187.644 175.401 187.984 175.042 187.984 174.599V172.995C187.984 172.552 187.644 172.192 187.226 172.192Z" fill="#EDEDED"/>
<path d="M226.76 172.192H211.239C210.8 172.192 210.443 172.552 210.443 172.995V174.599C210.443 175.042 210.8 175.401 211.239 175.401H226.76C227.199 175.401 227.556 175.042 227.556 174.599V172.995C227.556 172.552 227.199 172.192 226.76 172.192Z" fill="#EDEDED"/>
<path d="M36.4353 182.888H21.8848C21.4727 182.888 21.1387 183.127 21.1387 183.422V184.492C21.1387 184.787 21.4727 185.027 21.8848 185.027H36.4353C36.8474 185.027 37.1815 184.787 37.1815 184.492V183.422C37.1815 183.127 36.8474 182.888 36.4353 182.888Z" fill="#EDEDED"/>
<path d="M101.661 182.888H66.8201C66.3995 182.888 66.0586 183.127 66.0586 183.422V184.492C66.0586 184.787 66.3995 185.027 66.8201 185.027H101.661C102.081 185.027 102.422 184.787 102.422 184.492V183.422C102.422 183.127 102.081 182.888 101.661 182.888Z" fill="#EDEDED"/>
<path d="M133.741 182.888H116.024C115.6 182.888 115.257 183.212 115.257 183.612V185.372C115.257 185.772 115.6 186.096 116.024 186.096H133.741C134.165 186.096 134.508 185.772 134.508 185.372V183.612C134.508 183.212 134.165 182.888 133.741 182.888Z" fill="#EDEDED"/>
<path d="M188.292 182.888H162.008C161.587 182.888 161.246 183.127 161.246 183.422V184.492C161.246 184.787 161.587 185.027 162.008 185.027H188.292C188.712 185.027 189.054 184.787 189.054 184.492V183.422C189.054 183.127 188.712 182.888 188.292 182.888Z" fill="#EDEDED"/>
<path d="M226.76 182.888H211.239C210.8 182.888 210.443 183.127 210.443 183.422V184.492C210.443 184.787 210.8 185.027 211.239 185.027H226.76C227.199 185.027 227.556 184.787 227.556 184.492V183.422C227.556 183.127 227.199 182.888 226.76 182.888Z" fill="#EDEDED"/>
<path d="M36.4353 192.513H21.8848C21.4727 192.513 21.1387 192.872 21.1387 193.315V194.92C21.1387 195.363 21.4727 195.722 21.8848 195.722H36.4353C36.8474 195.722 37.1815 195.363 37.1815 194.92V193.315C37.1815 192.872 36.8474 192.513 36.4353 192.513Z" fill="#EDEDED"/>
<path d="M93.1145 192.513H66.8101C66.3951 192.513 66.0586 192.872 66.0586 193.315V194.92C66.0586 195.363 66.3951 195.722 66.8101 195.722H93.1145C93.5296 195.722 93.8661 195.363 93.8661 194.92V193.315C93.8661 192.872 93.5296 192.513 93.1145 192.513Z" fill="#EDEDED"/>
<path d="M131.596 192.513H116.03C115.603 192.513 115.257 192.872 115.257 193.315V194.92C115.257 195.363 115.603 195.722 116.03 195.722H131.596C132.023 195.722 132.369 195.363 132.369 194.92V193.315C132.369 192.872 132.023 192.513 131.596 192.513Z" fill="#EDEDED"/>
<path d="M188.286 192.513H162.013C161.59 192.513 161.246 192.872 161.246 193.315V194.92C161.246 195.363 161.59 195.722 162.013 195.722H188.286C188.71 195.722 189.054 195.363 189.054 194.92V193.315C189.054 192.872 188.71 192.513 188.286 192.513Z" fill="#EDEDED"/>
<path d="M226.76 192.513H211.239C210.8 192.513 210.443 192.872 210.443 193.315V194.92C210.443 195.363 210.8 195.722 211.239 195.722H226.76C227.199 195.722 227.556 195.363 227.556 194.92V193.315C227.556 192.872 227.199 192.513 226.76 192.513Z" fill="#EDEDED"/>
<rect x="11.4541" y="39" width="31.9091" height="8.27273" rx="0.5" fill="black" fill-opacity="0.075"/>
<rect x="11.7041" y="39.25" width="31.4091" height="7.77273" rx="0.25" stroke="black" stroke-opacity="0.075" stroke-width="0.5"/>
<rect x="44.5459" y="39" width="47.2727" height="8.27273" rx="0.5" fill="black" fill-opacity="0.075"/>
<rect x="44.7959" y="39.25" width="46.7727" height="7.77273" rx="0.25" stroke="black" stroke-opacity="0.075" stroke-width="0.5"/>
<rect x="93" y="39" width="27.1818" height="8.27273" rx="0.5" fill="#1594BC" fill-opacity="0.2"/>
<rect x="93.25" y="39.25" width="26.6818" height="7.77273" rx="0.25" stroke="black" stroke-opacity="0.075" stroke-width="0.5"/>
<rect x="121.363" y="39" width="27.1818" height="8.27273" rx="0.5" fill="#DB9B2B" fill-opacity="0.2"/>
<rect x="121.613" y="39.25" width="26.6818" height="7.77273" rx="0.25" stroke="black" stroke-opacity="0.075" stroke-width="0.5"/>
<rect x="149.728" y="39" width="68.5455" height="8.27273" rx="0.5" fill="#429B81" fill-opacity="0.2"/>
<rect x="149.978" y="39.25" width="68.0455" height="7.77273" rx="0.25" stroke="black" stroke-opacity="0.075" stroke-width="0.5"/>
<rect x="219.454" y="39" width="34.2727" height="8.27273" rx="0.5" fill="#117899" fill-opacity="0.2"/>
<rect x="219.704" y="39.25" width="33.7727" height="7.77273" rx="0.25" stroke="black" stroke-opacity="0.075" stroke-width="0.5"/>
<path d="M254.909 36.6364H9.09082V37.8182H254.909V36.6364Z" fill="#D2D2D2"/>
<path d="M254.909 48.4545H9.09082V49.6363H254.909V48.4545Z" fill="#D2D2D2"/>
<path d="M254.909 199.727H9.09082V200.909H254.909V199.727Z" fill="#D2D2D2"/>
<path d="M10.2726 36.6364H9.09082V200.909H10.2726V36.6364Z" fill="#D2D2D2"/>
<path d="M256.091 36.6364H254.909V200.909H256.091V36.6364Z" fill="#D2D2D2"/>
<path fill-rule="evenodd" clip-rule="evenodd" d="M104.806 199.33L96.2196 207.811L102.06 212.895C107.919 207.13 110.849 204.248 110.849 204.248C110.849 204.248 108.835 202.609 104.806 199.33Z" fill="#00223D"/>
<path fill-rule="evenodd" clip-rule="evenodd" d="M96.2193 207.811L102.06 212.895L102.519 216.251C89.4554 230.827 82.5159 238.542 81.7055 239.404L81.6609 239.451C81.649 239.463 81.6401 239.472 81.6341 239.478C81.2087 239.883 76.4362 239.883 73.7021 237.622C70.968 235.36 70.8644 230.641 71.2707 230.196C71.2736 230.193 71.2772 230.189 71.2816 230.184L71.3174 230.146C71.9994 229.417 79.0485 221.994 92.4646 207.877L96.2193 207.811Z" fill="url(#paint0_linear)"/>
<path d="M131.221 210.802C150.271 210.802 165.713 195.36 165.713 176.31C165.713 157.261 150.271 141.818 131.221 141.818C112.172 141.818 96.7295 157.261 96.7295 176.31C96.7295 195.36 112.172 210.802 131.221 210.802Z" fill="#1FA7D2" fill-opacity="0.284583" stroke="#00223D" stroke-width="1.5"/>
<path opacity="0.800525" d="M131.828 148.235C125.661 148.329 120.109 150.262 115.173 154.034C110.236 157.805 106.762 162.768 104.751 168.922" stroke="white" stroke-width="4.5" stroke-linecap="round" stroke-linejoin="round"/>
<defs>
<filter id="filter0_i" x="13.8184" y="0" width="236.364" height="237.364" filterUnits="userSpaceOnUse" color-interpolation-filters="sRGB">
<feFlood flood-opacity="0" result="BackgroundImageFix"/>
<feBlend mode="normal" in="SourceGraphic" in2="BackgroundImageFix" result="shape"/>
<feColorMatrix in="SourceAlpha" type="matrix" values="0 0 0 0 0 0 0 0 0 0 0 0 0 0 0 0 0 0 127 0" result="hardAlpha"/>
<feOffset dy="1"/>
<feGaussianBlur stdDeviation="2"/>
<feComposite in2="hardAlpha" operator="arithmetic" k2="-1" k3="1"/>
<feColorMatrix type="matrix" values="0 0 0 0 0 0 0 0 0 0 0 0 0 0 0 0 0 0 0.12 0"/>
<feBlend mode="normal" in2="shape" result="effect1_innerShadow"/>
</filter>
<filter id="filter1_d" x="0" y="28.5455" width="264" height="181.273" filterUnits="userSpaceOnUse" color-interpolation-filters="sRGB">
<feFlood flood-opacity="0" result="BackgroundImageFix"/>
<feColorMatrix in="SourceAlpha" type="matrix" values="0 0 0 0 0 0 0 0 0 0 0 0 0 0 0 0 0 0 127 0" result="hardAlpha"/>
<feOffset dy="1"/>
<feGaussianBlur stdDeviation="1"/>
<feColorMatrix type="matrix" values="0 0 0 0 0 0 0 0 0 0 0 0 0 0 0 0 0 0 0.3 0"/>
<feBlend mode="normal" in2="BackgroundImageFix" result="effect1_dropShadow"/>
<feBlend mode="normal" in="SourceGraphic" in2="effect1_dropShadow" result="shape"/>
</filter>
<linearGradient id="paint0_linear" x1="85.01" y1="217.174" x2="91.7087" y2="227.367" gradientUnits="userSpaceOnUse">
<stop stop-color="#ECC961"/>
<stop offset="1" stop-color="#D49932"/>
</linearGradient>
</defs>
</svg>
