<svg width="264" height="240" viewBox="0 0 264 240" fill="none" xmlns="http://www.w3.org/2000/svg">
<g filter="url(#filter0_i)">
<path d="M132 236.364C197.27 236.364 250.182 183.452 250.182 118.182C250.182 52.9118 197.27 0 132 0C66.7299 0 13.8181 52.9118 13.8181 118.182C13.8181 183.452 66.7299 236.364 132 236.364Z" fill="black" fill-opacity="0.04"/>
</g>
<path d="M249.682 118.182C249.682 183.176 196.994 235.864 132 235.864C67.0061 235.864 14.3181 183.176 14.3181 118.182C14.3181 53.1879 67.0061 0.5 132 0.5C196.994 0.5 249.682 53.1879 249.682 118.182Z" stroke="#CED4DA"/>
<g filter="url(#filter1_d)">
<path d="M254.477 29.5454H9.52315C5.36823 29.5454 2 32.9084 2 37.057V199.307C2 203.455 5.36823 206.818 9.52315 206.818H254.477C258.632 206.818 262 203.455 262 199.307V37.057C262 32.9084 258.632 29.5454 254.477 29.5454Z" fill="black"/>
</g>
<path d="M254.477 29.0454H9.52315C5.09281 29.0454 1.5 32.6316 1.5 37.057V199.307C1.5 203.732 5.09281 207.318 9.52315 207.318H254.477C258.907 207.318 262.5 203.732 262.5 199.307V37.057C262.5 32.6316 258.907 29.0454 254.477 29.0454Z" fill="white" stroke="#0C364C"/>
<path d="M255.364 179.03H9.37427V189.173H255.364V179.03Z" fill="white"/>
<path d="M255.364 188.991H9.37427V190.061H255.364V188.991Z" fill="#D2D2D2"/>
<path d="M255.364 190.242H9.37427V200.385H255.364V190.242Z" fill="white"/>
<path d="M255.364 168.888H9.37427V179.03H255.364V168.888Z" fill="white"/>
<path d="M255.364 178.849H9.37427V179.919H255.364V178.849Z" fill="#D2D2D2"/>
<path d="M255.364 158.745H9.37427V168.888H255.364V158.745Z" fill="white"/>
<path d="M255.364 168.707H9.37427V169.776H255.364V168.707Z" fill="#D2D2D2"/>
<path d="M255.364 148.603H9.37427V158.745H255.364V148.603Z" fill="white"/>
<path d="M255.364 158.564H9.37427V159.633H255.364V158.564Z" fill="#D2D2D2"/>
<path d="M255.364 138.46H9.37427V148.602H255.364V138.46Z" fill="white"/>
<path d="M255.364 148.421H9.37427V149.491H255.364V148.421Z" fill="#D2D2D2"/>
<path d="M255.364 128.318H9.37427V138.46H255.364V128.318Z" fill="white"/>
<path d="M255.364 138.279H9.37427V139.349H255.364V138.279Z" fill="#D2D2D2"/>
<path d="M255.364 118.175H9.37427V128.317H255.364V118.175Z" fill="white"/>
<path d="M255.364 128.136H9.37427V129.206H255.364V128.136Z" fill="#D2D2D2"/>
<path d="M255.364 108.032H9.37427V118.175H255.364V108.032Z" fill="white"/>
<path d="M255.364 117.994H9.37427V119.063H255.364V117.994Z" fill="#D2D2D2"/>
<path d="M255.364 97.8901H9.37427V108.033H255.364V97.8901Z" fill="white"/>
<path d="M255.364 107.852H9.37427V108.921H255.364V107.852Z" fill="#D2D2D2"/>
<path d="M255.363 87.7473H9.33813V97.8898H255.363V87.7473Z" fill="white"/>
<path d="M255.363 97.7087H9.33813V98.7783H255.363V97.7087Z" fill="#D2D2D2"/>
<path d="M255.364 87.7473H9.37427V97.8898H255.364V87.7473Z" fill="white"/>
<path d="M255.364 97.7087H9.37427V98.7783H255.364V97.7087Z" fill="#D2D2D2"/>
<path d="M255.364 77.605H9.37427V87.7475H255.364V77.605Z" fill="white"/>
<path d="M255.364 87.5664H9.37427V88.6359H255.364V87.5664Z" fill="#D2D2D2"/>
<path d="M255.364 67.4624H9.37427V77.6049H255.364V67.4624Z" fill="white"/>
<path d="M255.364 77.4238H9.37427V78.4933H255.364V77.4238Z" fill="#D2D2D2"/>
<path d="M36.4355 70.5881H21.8851C21.473 70.5881 21.1389 70.9473 21.1389 71.3903V72.9946C21.1389 73.4376 21.473 73.7967 21.8851 73.7967H36.4355C36.8476 73.7967 37.1817 73.4376 37.1817 72.9946V71.3903C37.1817 70.9473 36.8476 70.5881 36.4355 70.5881Z" fill="#EDEDED"/>
<path d="M96.3138 70.5881H66.82C66.3996 70.5881 66.0588 70.9473 66.0588 71.3903V72.9946C66.0588 73.4376 66.3996 73.7967 66.82 73.7967H96.3138C96.7341 73.7967 97.0749 73.4376 97.0749 72.9946V71.3903C97.0749 70.9473 96.7341 70.5881 96.3138 70.5881Z" fill="#EDEDED"/>
<path d="M131.596 70.5881H116.029C115.603 70.5881 115.257 70.9473 115.257 71.3903V72.9946C115.257 73.4376 115.603 73.7967 116.029 73.7967H131.596C132.023 73.7967 132.369 73.4376 132.369 72.9946V71.3903C132.369 70.9473 132.023 70.5881 131.596 70.5881Z" fill="#EDEDED"/>
<path fill-rule="evenodd" clip-rule="evenodd" d="M161.992 70.5881H192.689C193.044 70.5881 193.331 70.8974 193.331 71.2788V71.9696V72.9946C193.331 73.4376 192.997 73.7967 192.585 73.7967H161.992C161.58 73.7967 161.246 73.4376 161.246 72.9946V71.3903C161.246 70.9473 161.58 70.5881 161.992 70.5881Z" fill="#EDEDED"/>
<path d="M226.76 70.5881H211.24C210.8 70.5881 210.444 70.9473 210.444 71.3903V72.9946C210.444 73.4376 210.8 73.7967 211.24 73.7967H226.76C227.2 73.7967 227.556 73.4376 227.556 72.9946V71.3903C227.556 70.9473 227.2 70.5881 226.76 70.5881Z" fill="#EDEDED"/>
<path d="M255.08 56.7273H9.09082V66.8698H255.08V56.7273Z" fill="white"/>
<path d="M255.08 66.6887H9.09082V67.7582H255.08V66.6887Z" fill="#D2D2D2"/>
<path d="M36.1521 59.853H21.6016C21.1895 59.853 20.8555 60.2122 20.8555 60.6552V62.2594C20.8555 62.7025 21.1895 63.0616 21.6016 63.0616H36.1521C36.5642 63.0616 36.8982 62.7025 36.8982 62.2594V60.6552C36.8982 60.2122 36.5642 59.853 36.1521 59.853Z" fill="#EDEDED"/>
<path d="M96.0303 59.853H66.5365C66.1162 59.853 65.7754 60.2122 65.7754 60.6552V62.2594C65.7754 62.7025 66.1162 63.0616 66.5365 63.0616H96.0303C96.4507 63.0616 96.7914 62.7025 96.7914 62.2594V60.6552C96.7914 60.2122 96.4507 59.853 96.0303 59.853Z" fill="#EDEDED"/>
<path d="M131.313 59.853H115.746C115.319 59.853 114.973 60.2122 114.973 60.6552V62.2594C114.973 62.7025 115.319 63.0616 115.746 63.0616H131.313C131.739 63.0616 132.085 62.7025 132.085 62.2594V60.6552C132.085 60.2122 131.739 59.853 131.313 59.853Z" fill="#EDEDED"/>
<path fill-rule="evenodd" clip-rule="evenodd" d="M161.709 59.853H192.405C192.76 59.853 193.048 60.1623 193.048 60.5437V61.2344V62.2594C193.048 62.7025 192.714 63.0616 192.302 63.0616H161.709C161.296 63.0616 160.962 62.7025 160.962 62.2594V60.6552C160.962 60.2122 161.296 59.853 161.709 59.853Z" fill="#EDEDED"/>
<path d="M226.477 59.853H210.956C210.517 59.853 210.16 60.2122 210.16 60.6552V62.2594C210.16 62.7025 210.517 63.0616 210.956 63.0616H226.477C226.916 63.0616 227.273 62.7025 227.273 62.2594V60.6552C227.273 60.2122 226.916 59.853 226.477 59.853Z" fill="#EDEDED"/>
<path d="M36.4355 81.2832H21.8851C21.473 81.2832 21.1389 81.6423 21.1389 82.0853V83.6896C21.1389 84.1326 21.473 84.4918 21.8851 84.4918H36.4355C36.8476 84.4918 37.1817 84.1326 37.1817 83.6896V82.0853C37.1817 81.6423 36.8476 81.2832 36.4355 81.2832Z" fill="#EDEDED"/>
<path d="M95.2325 81.2832H66.8317C66.4048 81.2832 66.0588 81.6423 66.0588 82.0853V83.6896C66.0588 84.1326 66.4048 84.4918 66.8317 84.4918H95.2325C95.6594 84.4918 96.0054 84.1326 96.0054 83.6896V82.0853C96.0054 81.6423 95.6594 81.2832 95.2325 81.2832Z" fill="#EDEDED"/>
<path d="M131.596 81.2832H116.029C115.603 81.2832 115.257 81.6423 115.257 82.0853V83.6896C115.257 84.1326 115.603 84.4918 116.029 84.4918H131.596C132.023 84.4918 132.369 84.1326 132.369 83.6896V82.0853C132.369 81.6423 132.023 81.2832 131.596 81.2832Z" fill="#EDEDED"/>
<path d="M192.576 81.2832H162.001C161.584 81.2832 161.246 81.6423 161.246 82.0853V83.6896C161.246 84.1326 161.584 84.4918 162.001 84.4918H192.576C192.993 84.4918 193.331 84.1326 193.331 83.6896V82.0853C193.331 81.6423 192.993 81.2832 192.576 81.2832Z" fill="#EDEDED"/>
<path d="M226.76 81.2832H211.24C210.8 81.2832 210.444 81.6423 210.444 82.0853V83.6896C210.444 84.1326 210.8 84.4918 211.24 84.4918H226.76C227.2 84.4918 227.556 84.1326 227.556 83.6896V82.0853C227.556 81.6423 227.2 81.2832 226.76 81.2832Z" fill="#EDEDED"/>
<path d="M36.4355 90.9089H21.8851C21.473 90.9089 21.1389 91.2681 21.1389 91.7111V93.3154C21.1389 93.7584 21.473 94.1175 21.8851 94.1175H36.4355C36.8476 94.1175 37.1817 93.7584 37.1817 93.3154V91.7111C37.1817 91.2681 36.8476 90.9089 36.4355 90.9089Z" fill="#EDEDED"/>
<path d="M90.9723 90.9089H66.8138C66.3968 90.9089 66.0588 91.2681 66.0588 91.7111V93.3154C66.0588 93.7584 66.3968 94.1175 66.8138 94.1175H90.9723C91.3893 94.1175 91.7273 93.7584 91.7273 93.3154V91.7111C91.7273 91.2681 91.3893 90.9089 90.9723 90.9089Z" fill="#EDEDED"/>
<path d="M131.596 90.9089H116.029C115.603 90.9089 115.257 91.2681 115.257 91.7111V93.3154C115.257 93.7584 115.603 94.1175 116.029 94.1175H131.596C132.023 94.1175 132.369 93.7584 132.369 93.3154V91.7111C132.369 91.2681 132.023 90.9089 131.596 90.9089Z" fill="#EDEDED"/>
<path d="M191.501 90.9089H162.007C161.587 90.9089 161.246 91.2681 161.246 91.7111V93.3154C161.246 93.7584 161.587 94.1175 162.007 94.1175H191.501C191.921 94.1175 192.262 93.7584 192.262 93.3154V91.7111C192.262 91.2681 191.921 90.9089 191.501 90.9089Z" fill="#EDEDED"/>
<path d="M226.76 90.9089H211.24C210.8 90.9089 210.444 91.2681 210.444 91.7111V93.3154C210.444 93.7584 210.8 94.1175 211.24 94.1175H226.76C227.2 94.1175 227.556 93.7584 227.556 93.3154V91.7111C227.556 91.2681 227.2 90.9089 226.76 90.9089Z" fill="#EDEDED"/>
<path d="M36.4355 101.604H21.8851C21.473 101.604 21.1389 101.963 21.1389 102.406V104.01C21.1389 104.453 21.473 104.813 21.8851 104.813H36.4355C36.8476 104.813 37.1817 104.453 37.1817 104.01V102.406C37.1817 101.963 36.8476 101.604 36.4355 101.604Z" fill="#EDEDED"/>
<path d="M85.6461 101.604H67.8616C67.4565 101.604 67.1282 101.963 67.1282 102.406V104.01C67.1282 104.453 67.4565 104.813 67.8616 104.813H85.6461C86.0512 104.813 86.3795 104.453 86.3795 104.01V102.406C86.3795 101.963 86.0512 101.604 85.6461 101.604Z" fill="#EDEDED"/>
<path d="M131.596 101.604H116.029C115.603 101.604 115.257 101.963 115.257 102.406V104.01C115.257 104.453 115.603 104.813 116.029 104.813H131.596C132.023 104.813 132.369 104.453 132.369 104.01V102.406C132.369 101.963 132.023 101.604 131.596 101.604Z" fill="#EDEDED"/>
<path d="M188.281 101.604H162.018C161.592 101.604 161.246 101.963 161.246 102.406V104.01C161.246 104.453 161.592 104.813 162.018 104.813H188.281C188.707 104.813 189.053 104.453 189.053 104.01V102.406C189.053 101.963 188.707 101.604 188.281 101.604Z" fill="#EDEDED"/>
<path d="M226.81 101.604H212.259C211.847 101.604 211.513 101.963 211.513 102.406V104.01C211.513 104.453 211.847 104.813 212.259 104.813H226.81C227.222 104.813 227.556 104.453 227.556 104.01V102.406C227.556 101.963 227.222 101.604 226.81 101.604Z" fill="#EDEDED"/>
<path d="M36.4355 111.23H21.8851C21.473 111.23 21.1389 111.589 21.1389 112.032V113.636C21.1389 114.079 21.473 114.438 21.8851 114.438H36.4355C36.8476 114.438 37.1817 114.079 37.1817 113.636V112.032C37.1817 111.589 36.8476 111.23 36.4355 111.23Z" fill="#EDEDED"/>
<path d="M85.6461 111.23H67.8616C67.4565 111.23 67.1282 111.589 67.1282 112.032V113.636C67.1282 114.079 67.4565 114.438 67.8616 114.438H85.6461C86.0512 114.438 86.3795 114.079 86.3795 113.636V112.032C86.3795 111.589 86.0512 111.23 85.6461 111.23Z" fill="#EDEDED"/>
<path d="M131.596 111.23H116.029C115.603 111.23 115.257 111.589 115.257 112.032V113.636C115.257 114.079 115.603 114.438 116.029 114.438H131.596C132.023 114.438 132.369 114.079 132.369 113.636V112.032C132.369 111.589 132.023 111.23 131.596 111.23Z" fill="#EDEDED"/>
<path d="M190.434 111.23H162.004C161.585 111.23 161.246 111.589 161.246 112.032V113.636C161.246 114.079 161.585 114.438 162.004 114.438H190.434C190.853 114.438 191.192 114.079 191.192 113.636V112.032C191.192 111.589 190.853 111.23 190.434 111.23Z" fill="#EDEDED"/>
<path d="M226.81 111.23H212.259C211.847 111.23 211.513 111.589 211.513 112.032V113.636C211.513 114.079 211.847 114.438 212.259 114.438H226.81C227.222 114.438 227.556 114.079 227.556 113.636V112.032C227.556 111.589 227.222 111.23 226.81 111.23Z" fill="#EDEDED"/>
<path d="M36.4355 121.925H21.8851C21.473 121.925 21.1389 122.284 21.1389 122.727V124.331C21.1389 124.774 21.473 125.134 21.8851 125.134H36.4355C36.8476 125.134 37.1817 124.774 37.1817 124.331V122.727C37.1817 122.284 36.8476 121.925 36.4355 121.925Z" fill="#EDEDED"/>
<path d="M102.746 121.925H67.8741C67.4621 121.925 67.1282 122.284 67.1282 122.727V124.331C67.1282 124.774 67.4621 125.134 67.8741 125.134H102.746C103.158 125.134 103.492 124.774 103.492 124.331V122.727C103.492 122.284 103.158 121.925 102.746 121.925Z" fill="#EDEDED"/>
<path d="M133.587 121.925H116.177C115.669 121.925 115.257 122.314 115.257 122.794V124.264C115.257 124.744 115.669 125.134 116.177 125.134H133.587C134.096 125.134 134.508 124.744 134.508 124.264V122.794C134.508 122.314 134.096 121.925 133.587 121.925Z" fill="#EDEDED"/>
<path d="M187.22 121.925H162.01C161.588 121.925 161.246 122.284 161.246 122.727V124.331C161.246 124.774 161.588 125.134 162.01 125.134H187.22C187.642 125.134 187.984 124.774 187.984 124.331V122.727C187.984 122.284 187.642 121.925 187.22 121.925Z" fill="#EDEDED"/>
<path d="M226.81 121.925H212.259C211.847 121.925 211.513 122.284 211.513 122.727V124.331C211.513 124.774 211.847 125.134 212.259 125.134H226.81C227.222 125.134 227.556 124.774 227.556 124.331V122.727C227.556 122.284 227.222 121.925 226.81 121.925Z" fill="#EDEDED"/>
<path d="M36.4355 131.551H21.8851C21.473 131.551 21.1389 131.91 21.1389 132.353V133.957C21.1389 134.4 21.473 134.759 21.8851 134.759H36.4355C36.8476 134.759 37.1817 134.4 37.1817 133.957V132.353C37.1817 131.91 36.8476 131.551 36.4355 131.551Z" fill="#EDEDED"/>
<path d="M93.1182 131.551H67.8761C67.463 131.551 67.1282 131.91 67.1282 132.353V133.957C67.1282 134.4 67.463 134.759 67.8761 134.759H93.1182C93.5313 134.759 93.8661 134.4 93.8661 133.957V132.353C93.8661 131.91 93.5313 131.551 93.1182 131.551Z" fill="#EDEDED"/>
<path d="M133.587 131.551H116.177C115.669 131.551 115.257 131.94 115.257 132.42V133.89C115.257 134.37 115.669 134.759 116.177 134.759H133.587C134.096 134.759 134.508 134.37 134.508 133.89V132.42C134.508 131.94 134.096 131.551 133.587 131.551Z" fill="#EDEDED"/>
<path d="M188.275 131.551H162.024C161.594 131.551 161.246 131.91 161.246 132.353V133.957C161.246 134.4 161.594 134.759 162.024 134.759H188.275C188.705 134.759 189.053 134.4 189.053 133.957V132.353C189.053 131.91 188.705 131.551 188.275 131.551Z" fill="#EDEDED"/>
<path d="M226.81 131.551H212.259C211.847 131.551 211.513 131.91 211.513 132.353V133.957C211.513 134.4 211.847 134.759 212.259 134.759H226.81C227.222 134.759 227.556 134.4 227.556 133.957V132.353C227.556 131.91 227.222 131.551 226.81 131.551Z" fill="#EDEDED"/>
<path d="M36.4355 142.246H21.8851C21.473 142.246 21.1389 142.605 21.1389 143.048V144.652C21.1389 145.095 21.473 145.454 21.8851 145.454H36.4355C36.8476 145.454 37.1817 145.095 37.1817 144.652V143.048C37.1817 142.605 36.8476 142.246 36.4355 142.246Z" fill="#EDEDED"/>
<path d="M97.385 142.246H66.8183C66.3988 142.246 66.0588 142.605 66.0588 143.048V144.652C66.0588 145.095 66.3988 145.454 66.8183 145.454H97.385C97.8044 145.454 98.1444 145.095 98.1444 144.652V143.048C98.1444 142.605 97.8044 142.246 97.385 142.246Z" fill="#EDEDED"/>
<path d="M133.587 143.315H116.177C115.669 143.315 115.257 143.705 115.257 144.185V145.655C115.257 146.135 115.669 146.524 116.177 146.524H133.587C134.096 146.524 134.508 146.135 134.508 145.655V144.185C134.508 143.705 134.096 143.315 133.587 143.315Z" fill="#EDEDED"/>
<path d="M188.307 142.246H161.992C161.58 142.246 161.246 142.605 161.246 143.048V144.652C161.246 145.095 161.58 145.454 161.992 145.454H188.307C188.719 145.454 189.053 145.095 189.053 144.652V143.048C189.053 142.605 188.719 142.246 188.307 142.246Z" fill="#EDEDED"/>
<path d="M226.76 142.246H211.24C210.8 142.246 210.444 142.605 210.444 143.048V144.652C210.444 145.095 210.8 145.454 211.24 145.454H226.76C227.2 145.454 227.556 145.095 227.556 144.652V143.048C227.556 142.605 227.2 142.246 226.76 142.246Z" fill="#EDEDED"/>
<path d="M36.4355 151.872H21.8851C21.473 151.872 21.1389 152.231 21.1389 152.674V154.278C21.1389 154.721 21.473 155.08 21.8851 155.08H36.4355C36.8476 155.08 37.1817 154.721 37.1817 154.278V152.674C37.1817 152.231 36.8476 151.872 36.4355 151.872Z" fill="#EDEDED"/>
<path d="M85.6056 151.872H66.833C66.4054 151.872 66.0588 152.231 66.0588 152.674V154.278C66.0588 154.721 66.4054 155.08 66.833 155.08H85.6056C86.0331 155.08 86.3797 154.721 86.3797 154.278V152.674C86.3797 152.231 86.0331 151.872 85.6056 151.872Z" fill="#EDEDED"/>
<path d="M133.587 152.941H116.177C115.669 152.941 115.257 153.33 115.257 153.81V155.28C115.257 155.76 115.669 156.149 116.177 156.149H133.587C134.096 156.149 134.508 155.76 134.508 155.28V153.81C134.508 153.33 134.096 152.941 133.587 152.941Z" fill="#EDEDED"/>
<path d="M196.844 151.872H162.011C161.589 151.872 161.246 152.231 161.246 152.674V154.278C161.246 154.721 161.589 155.08 162.011 155.08H196.844C197.267 155.08 197.609 154.721 197.609 154.278V152.674C197.609 152.231 197.267 151.872 196.844 151.872Z" fill="#EDEDED"/>
<path d="M226.76 151.872H211.24C210.8 151.872 210.444 152.231 210.444 152.674V154.278C210.444 154.721 210.8 155.08 211.24 155.08H226.76C227.2 155.08 227.556 154.721 227.556 154.278V152.674C227.556 152.231 227.2 151.872 226.76 151.872Z" fill="#EDEDED"/>
<path d="M36.4355 162.567H21.8851C21.473 162.567 21.1389 162.926 21.1389 163.369V164.973C21.1389 165.416 21.473 165.775 21.8851 165.775H36.4355C36.8476 165.775 37.1817 165.416 37.1817 164.973V163.369C37.1817 162.926 36.8476 162.567 36.4355 162.567Z" fill="#EDEDED"/>
<path d="M97.3759 162.567H66.8274C66.4029 162.567 66.0588 162.926 66.0588 163.369V164.973C66.0588 165.416 66.4029 165.775 66.8274 165.775H97.3759C97.8003 165.775 98.1444 165.416 98.1444 164.973V163.369C98.1444 162.926 97.8003 162.567 97.3759 162.567Z" fill="#EDEDED"/>
<path d="M133.587 163.636H116.177C115.669 163.636 115.257 164.025 115.257 164.506V165.975C115.257 166.456 115.669 166.845 116.177 166.845H133.587C134.096 166.845 134.508 166.456 134.508 165.975V164.506C134.508 164.025 134.096 163.636 133.587 163.636Z" fill="#EDEDED"/>
<path d="M187.225 162.567H162.004C161.585 162.567 161.246 162.926 161.246 163.369V164.973C161.246 165.416 161.585 165.775 162.004 165.775H187.225C187.644 165.775 187.984 165.416 187.984 164.973V163.369C187.984 162.926 187.644 162.567 187.225 162.567Z" fill="#EDEDED"/>
<path d="M226.76 162.567H211.24C210.8 162.567 210.444 162.926 210.444 163.369V164.973C210.444 165.416 210.8 165.775 211.24 165.775H226.76C227.2 165.775 227.556 165.416 227.556 164.973V163.369C227.556 162.926 227.2 162.567 226.76 162.567Z" fill="#EDEDED"/>
<path d="M36.4355 172.192H21.8851C21.473 172.192 21.1389 172.552 21.1389 172.995V174.599C21.1389 175.042 21.473 175.401 21.8851 175.401H36.4355C36.8476 175.401 37.1817 175.042 37.1817 174.599V172.995C37.1817 172.552 36.8476 172.192 36.4355 172.192Z" fill="#EDEDED"/>
<path d="M96.3138 172.192H66.82C66.3996 172.192 66.0588 172.552 66.0588 172.995V174.599C66.0588 175.042 66.3996 175.401 66.82 175.401H96.3138C96.7341 175.401 97.0749 175.042 97.0749 174.599V172.995C97.0749 172.552 96.7341 172.192 96.3138 172.192Z" fill="#EDEDED"/>
<path d="M133.587 172.192H116.177C115.669 172.192 115.257 172.582 115.257 173.062V174.532C115.257 175.012 115.669 175.401 116.177 175.401H133.587C134.096 175.401 134.508 175.012 134.508 174.532V173.062C134.508 172.582 134.096 172.192 133.587 172.192Z" fill="#EDEDED"/>
<path d="M187.225 172.192H162.004C161.585 172.192 161.246 172.552 161.246 172.995V174.599C161.246 175.042 161.585 175.401 162.004 175.401H187.225C187.644 175.401 187.984 175.042 187.984 174.599V172.995C187.984 172.552 187.644 172.192 187.225 172.192Z" fill="#EDEDED"/>
<path d="M226.76 172.192H211.24C210.8 172.192 210.444 172.552 210.444 172.995V174.599C210.444 175.042 210.8 175.401 211.24 175.401H226.76C227.2 175.401 227.556 175.042 227.556 174.599V172.995C227.556 172.552 227.2 172.192 226.76 172.192Z" fill="#EDEDED"/>
<path d="M36.4355 182.887H21.8851C21.473 182.887 21.1389 183.127 21.1389 183.422V184.492C21.1389 184.787 21.473 185.026 21.8851 185.026H36.4355C36.8476 185.026 37.1817 184.787 37.1817 184.492V183.422C37.1817 183.127 36.8476 182.887 36.4355 182.887Z" fill="#EDEDED"/>
<path d="M101.661 182.887H66.8204C66.3998 182.887 66.0588 183.127 66.0588 183.422V184.492C66.0588 184.787 66.3998 185.026 66.8204 185.026H101.661C102.082 185.026 102.422 184.787 102.422 184.492V183.422C102.422 183.127 102.082 182.887 101.661 182.887Z" fill="#EDEDED"/>
<path d="M133.741 182.887H116.024C115.6 182.887 115.257 183.212 115.257 183.612V185.372C115.257 185.772 115.6 186.096 116.024 186.096H133.741C134.165 186.096 134.508 185.772 134.508 185.372V183.612C134.508 183.212 134.165 182.887 133.741 182.887Z" fill="#EDEDED"/>
<path d="M188.291 182.887H162.008C161.587 182.887 161.246 183.127 161.246 183.422V184.492C161.246 184.787 161.587 185.026 162.008 185.026H188.291C188.712 185.026 189.053 184.787 189.053 184.492V183.422C189.053 183.127 188.712 182.887 188.291 182.887Z" fill="#EDEDED"/>
<path d="M226.76 182.887H211.24C210.8 182.887 210.444 183.127 210.444 183.422V184.492C210.444 184.787 210.8 185.026 211.24 185.026H226.76C227.2 185.026 227.556 184.787 227.556 184.492V183.422C227.556 183.127 227.2 182.887 226.76 182.887Z" fill="#EDEDED"/>
<path d="M36.4355 192.513H21.8851C21.473 192.513 21.1389 192.872 21.1389 193.315V194.92C21.1389 195.363 21.473 195.722 21.8851 195.722H36.4355C36.8476 195.722 37.1817 195.363 37.1817 194.92V193.315C37.1817 192.872 36.8476 192.513 36.4355 192.513Z" fill="#EDEDED"/>
<path d="M93.1148 192.513H66.8104C66.3953 192.513 66.0588 192.872 66.0588 193.315V194.92C66.0588 195.363 66.3953 195.722 66.8104 195.722H93.1148C93.5298 195.722 93.8663 195.363 93.8663 194.92V193.315C93.8663 192.872 93.5298 192.513 93.1148 192.513Z" fill="#EDEDED"/>
<path d="M131.596 192.513H116.029C115.603 192.513 115.257 192.872 115.257 193.315V194.92C115.257 195.363 115.603 195.722 116.029 195.722H131.596C132.023 195.722 132.369 195.363 132.369 194.92V193.315C132.369 192.872 132.023 192.513 131.596 192.513Z" fill="#EDEDED"/>
<path d="M188.286 192.513H162.013C161.589 192.513 161.246 192.872 161.246 193.315V194.92C161.246 195.363 161.589 195.722 162.013 195.722H188.286C188.71 195.722 189.053 195.363 189.053 194.92V193.315C189.053 192.872 188.71 192.513 188.286 192.513Z" fill="#EDEDED"/>
<path d="M226.76 192.513H211.24C210.8 192.513 210.444 192.872 210.444 193.315V194.92C210.444 195.363 210.8 195.722 211.24 195.722H226.76C227.2 195.722 227.556 195.363 227.556 194.92V193.315C227.556 192.872 227.2 192.513 226.76 192.513Z" fill="#EDEDED"/>
<rect x="11.4546" y="39" width="31.9091" height="8.27273" rx="0.5" fill="black" fill-opacity="0.075"/>
<rect x="11.7046" y="39.25" width="31.4091" height="7.77273" rx="0.25" stroke="black" stroke-opacity="0.075" stroke-width="0.5"/>
<rect x="44.5454" y="39" width="47.2727" height="8.27273" rx="0.5" fill="black" fill-opacity="0.075"/>
<rect x="44.7954" y="39.25" width="46.7727" height="7.77273" rx="0.25" stroke="black" stroke-opacity="0.075" stroke-width="0.5"/>
<rect x="93" y="39" width="27.1818" height="8.27273" rx="0.5" fill="#1594BC" fill-opacity="0.2"/>
<rect x="93.25" y="39.25" width="26.6818" height="7.77273" rx="0.25" stroke="black" stroke-opacity="0.075" stroke-width="0.5"/>
<rect x="121.364" y="39" width="27.1818" height="8.27273" rx="0.5" fill="#DB9B2B" fill-opacity="0.2"/>
<rect x="121.614" y="39.25" width="26.6818" height="7.77273" rx="0.25" stroke="black" stroke-opacity="0.075" stroke-width="0.5"/>
<rect x="149.727" y="39" width="68.5455" height="8.27273" rx="0.5" fill="#429B81" fill-opacity="0.2"/>
<rect x="149.977" y="39.25" width="68.0455" height="7.77273" rx="0.25" stroke="black" stroke-opacity="0.075" stroke-width="0.5"/>
<rect x="219.455" y="39" width="34.2727" height="8.27273" rx="0.5" fill="#117899" fill-opacity="0.2"/>
<rect x="219.705" y="39.25" width="33.7727" height="7.77273" rx="0.25" stroke="black" stroke-opacity="0.075" stroke-width="0.5"/>
<path d="M254.909 36.6365H9.09082V37.8183H254.909V36.6365Z" fill="#D2D2D2"/>
<path d="M254.909 48.4546H9.09082V49.6364H254.909V48.4546Z" fill="#D2D2D2"/>
<path d="M254.909 199.727H9.09082V200.909H254.909V199.727Z" fill="#D2D2D2"/>
<path d="M10.2726 36.6365H9.09082V200.909H10.2726V36.6365Z" fill="#D2D2D2"/>
<path d="M256.091 36.6365H254.909V200.909H256.091V36.6365Z" fill="#D2D2D2"/>
<path fill-rule="evenodd" clip-rule="evenodd" d="M104.805 199.33L96.2186 207.811L102.059 212.895C107.919 207.13 110.848 204.248 110.848 204.248C110.848 204.248 108.834 202.608 104.805 199.33Z" fill="#00223D"/>
<path fill-rule="evenodd" clip-rule="evenodd" d="M96.2186 207.811L102.059 212.895L102.518 216.251C89.4547 230.826 82.5152 238.542 81.7047 239.404L81.6602 239.451C81.6483 239.463 81.6393 239.472 81.6334 239.478C81.2079 239.883 76.4354 239.883 73.7014 237.621C70.9673 235.36 70.8636 230.641 71.2699 230.196C71.2728 230.193 71.2765 230.189 71.2809 230.184L71.3166 230.146C71.9987 229.417 79.0477 221.994 92.4639 207.877L96.2186 207.811Z" fill="url(#paint0_linear)"/>
<path d="M131.221 210.802C150.271 210.802 165.713 195.359 165.713 176.31C165.713 157.261 150.271 141.818 131.221 141.818C112.172 141.818 96.7295 157.261 96.7295 176.31C96.7295 195.359 112.172 210.802 131.221 210.802Z" fill="#1FA7D2" fill-opacity="0.284583" stroke="#00223D" stroke-width="1.5"/>
<path opacity="0.800525" d="M131.828 148.235C125.661 148.329 120.109 150.262 115.173 154.034C110.236 157.805 106.762 162.768 104.751 168.922" stroke="white" stroke-width="4.5" stroke-linecap="round" stroke-linejoin="round"/>
<defs>
<filter id="filter0_i" x="13.8181" y="0" width="236.364" height="237.364" filterUnits="userSpaceOnUse" color-interpolation-filters="sRGB">
<feFlood flood-opacity="0" result="BackgroundImageFix"/>
<feBlend mode="normal" in="SourceGraphic" in2="BackgroundImageFix" result="shape"/>
<feColorMatrix in="SourceAlpha" type="matrix" values="0 0 0 0 0 0 0 0 0 0 0 0 0 0 0 0 0 0 127 0" result="hardAlpha"/>
<feOffset dy="1"/>
<feGaussianBlur stdDeviation="2"/>
<feComposite in2="hardAlpha" operator="arithmetic" k2="-1" k3="1"/>
<feColorMatrix type="matrix" values="0 0 0 0 0 0 0 0 0 0 0 0 0 0 0 0 0 0 0.12 0"/>
<feBlend mode="normal" in2="shape" result="effect1_innerShadow"/>
</filter>
<filter id="filter1_d" x="0" y="28.5454" width="264" height="181.273" filterUnits="userSpaceOnUse" color-interpolation-filters="sRGB">
<feFlood flood-opacity="0" result="BackgroundImageFix"/>
<feColorMatrix in="SourceAlpha" type="matrix" values="0 0 0 0 0 0 0 0 0 0 0 0 0 0 0 0 0 0 127 0" result="hardAlpha"/>
<feOffset dy="1"/>
<feGaussianBlur stdDeviation="1"/>
<feColorMatrix type="matrix" values="0 0 0 0 0 0 0 0 0 0 0 0 0 0 0 0 0 0 0.3 0"/>
<feBlend mode="normal" in2="BackgroundImageFix" result="effect1_dropShadow"/>
<feBlend mode="normal" in="SourceGraphic" in2="effect1_dropShadow" result="shape"/>
</filter>
<linearGradient id="paint0_linear" x1="85.0093" y1="217.173" x2="91.7079" y2="227.367" gradientUnits="userSpaceOnUse">
<stop stop-color="#ECC961"/>
<stop offset="1" stop-color="#D49932"/>
</linearGradient>
</defs>
</svg>
