<svg width="244" height="219" viewBox="0 0 244 219" fill="none" xmlns="http://www.w3.org/2000/svg">
<g filter="url(#filter0_i_504_18031)">
<path d="M122 218.182C182.249 218.182 231.091 169.34 231.091 109.091C231.091 48.8417 182.249 0 122 0C61.7509 0 12.9092 48.8417 12.9092 109.091C12.9092 169.34 61.7509 218.182 122 218.182Z" fill="black" fill-opacity="0.04"/>
</g>
<path d="M230.591 109.091C230.591 169.064 181.973 217.682 122 217.682C62.027 217.682 13.4092 169.064 13.4092 109.091C13.4092 49.1178 62.027 0.5 122 0.5C181.973 0.5 230.591 49.1178 230.591 109.091Z" stroke="#CED4DA"/>
<path d="M235.056 26.7725H8.94444C4.83372 26.7725 1.5 30.1 1.5 34.2062V183.975C1.5 188.082 4.83372 191.409 8.94444 191.409H235.056C239.166 191.409 242.5 188.082 242.5 183.975V34.2062C242.5 30.1 239.166 26.7725 235.056 26.7725Z" fill="white" stroke="#0C364C"/>
<path d="M235.874 165.259H8.80664V174.621H235.874V165.259Z" fill="white"/>
<path d="M235.874 174.454H8.80664V175.441H235.874V174.454Z" fill="#D2D2D2"/>
<path d="M235.874 175.608H8.80762V184.971H235.874V175.608Z" fill="white"/>
<path d="M235.874 155.896H8.80664V165.259H235.874V155.896Z" fill="white"/>
<path d="M235.874 165.092H8.80664V166.079H235.874V165.092Z" fill="#D2D2D2"/>
<path d="M235.874 146.534H8.80664V155.896H235.874V146.534Z" fill="white"/>
<path d="M235.874 155.729H8.80664V156.716H235.874V155.729Z" fill="#D2D2D2"/>
<path d="M235.874 137.172H8.80664V146.534H235.874V137.172Z" fill="white"/>
<path d="M235.874 146.367H8.80664V147.354H235.874V146.367Z" fill="#D2D2D2"/>
<path d="M235.874 127.809H8.80664V137.171H235.874V127.809Z" fill="white"/>
<path d="M235.874 137.004H8.80664V137.992H235.874V137.004Z" fill="#D2D2D2"/>
<path d="M235.874 118.447H8.80664V127.809H235.874V118.447Z" fill="white"/>
<path d="M235.874 127.642H8.80664V128.629H235.874V127.642Z" fill="#D2D2D2"/>
<path d="M235.874 109.084H8.80664V118.447H235.874V109.084Z" fill="white"/>
<path d="M235.874 118.28H8.80664V119.267H235.874V118.28Z" fill="#D2D2D2"/>
<path d="M235.874 99.7227H8.80664V109.085H235.874V99.7227Z" fill="white"/>
<path d="M235.874 108.917H8.80664V109.905H235.874V108.917Z" fill="#D2D2D2"/>
<path d="M235.874 90.3604H8.80664V99.7226H235.874V90.3604Z" fill="white"/>
<path d="M235.874 99.5557H8.80664V100.542H235.874V99.5557Z" fill="#D2D2D2"/>
<path d="M235.874 80.998H8.77344V90.3604H235.874V80.998Z" fill="white"/>
<path d="M235.874 90.1924H8.77344V91.1797H235.874V90.1924Z" fill="#D2D2D2"/>
<path d="M235.874 80.998H8.80664V90.3604H235.874V80.998Z" fill="white"/>
<path d="M235.874 90.1924H8.80664V91.1797H235.874V90.1924Z" fill="#D2D2D2"/>
<path d="M235.874 71.6357H8.80664V80.998H235.874V71.6357Z" fill="white"/>
<path d="M235.874 80.8311H8.80664V81.8183H235.874V80.8311Z" fill="#D2D2D2"/>
<path d="M235.874 62.2725H8.80664V71.6349H235.874V62.2725Z" fill="white"/>
<path d="M235.874 71.4688H8.80664V72.4559H235.874V71.4688Z" fill="#D2D2D2"/>
<path d="M33.787 65.1582H20.3558C19.9754 65.1582 19.667 65.4897 19.667 65.8986V67.3795C19.667 67.7884 19.9754 68.1199 20.3558 68.1199H33.787C34.1674 68.1199 34.4758 67.7884 34.4758 67.3795V65.8986C34.4758 65.4897 34.1674 65.1582 33.787 65.1582Z" fill="#EDEDED"/>
<path d="M89.0586 65.1582H61.8335C61.4455 65.1582 61.1309 65.4897 61.1309 65.8986V67.3795C61.1309 67.7884 61.4455 68.1199 61.8335 68.1199H89.0586C89.4466 68.1199 89.7611 67.7884 89.7611 67.3795V65.8986C89.7611 65.4897 89.4466 65.1582 89.0586 65.1582Z" fill="#EDEDED"/>
<path d="M121.627 65.1582H107.258C106.864 65.1582 106.544 65.4897 106.544 65.8986V67.3795C106.544 67.7884 106.864 68.1199 107.258 68.1199H121.627C122.021 68.1199 122.34 67.7884 122.34 67.3795V65.8986C122.34 65.4897 122.021 65.1582 121.627 65.1582Z" fill="#EDEDED"/>
<path fill-rule="evenodd" clip-rule="evenodd" d="M149.685 65.1582H178.02C178.348 65.1582 178.614 65.4437 178.614 65.7958V66.4334V67.3795C178.614 67.7884 178.305 68.1199 177.925 68.1199H149.685C149.304 68.1199 148.996 67.7884 148.996 67.3795V65.8986C148.996 65.4897 149.304 65.1582 149.685 65.1582Z" fill="#EDEDED"/>
<path d="M209.471 65.1582H195.144C194.739 65.1582 194.41 65.4897 194.41 65.8986V67.3795C194.41 67.7884 194.739 68.1199 195.144 68.1199H209.471C209.877 68.1199 210.206 67.7884 210.206 67.3795V65.8986C210.206 65.4897 209.877 65.1582 209.471 65.1582Z" fill="#EDEDED"/>
<path d="M235.612 52.3643H8.54492V61.7266H235.612V52.3643Z" fill="white"/>
<path d="M235.612 61.5586H8.54492V62.5459H235.612V61.5586Z" fill="#D2D2D2"/>
<path d="M33.5253 55.249H20.0941C19.7137 55.249 19.4053 55.5805 19.4053 55.9895V57.4703C19.4053 57.8793 19.7137 58.2108 20.0941 58.2108H33.5253C33.9057 58.2108 34.214 57.8793 34.214 57.4703V55.9895C34.214 55.5805 33.9057 55.249 33.5253 55.249Z" fill="#EDEDED"/>
<path d="M88.7967 55.249H61.5717C61.1837 55.249 60.8691 55.5805 60.8691 55.9895V57.4703C60.8691 57.8793 61.1837 58.2108 61.5717 58.2108H88.7967C89.1848 58.2108 89.4993 57.8793 89.4993 57.4703V55.9895C89.4993 55.5805 89.1848 55.249 88.7967 55.249Z" fill="#EDEDED"/>
<path d="M121.366 55.249H106.996C106.602 55.249 106.283 55.5805 106.283 55.9895V57.4703C106.283 57.8793 106.602 58.2108 106.996 58.2108H121.366C121.76 58.2108 122.079 57.8793 122.079 57.4703V55.9895C122.079 55.5805 121.76 55.249 121.366 55.249Z" fill="#EDEDED"/>
<path fill-rule="evenodd" clip-rule="evenodd" d="M149.423 55.249H177.759C178.087 55.249 178.352 55.5345 178.352 55.8866V56.5242V57.4703C178.352 57.8793 178.044 58.2108 177.663 58.2108H149.423C149.043 58.2108 148.735 57.8793 148.735 57.4703V55.9895C148.735 55.5805 149.043 55.249 149.423 55.249Z" fill="#EDEDED"/>
<path d="M209.209 55.249H194.883C194.477 55.249 194.148 55.5805 194.148 55.9895V57.4703C194.148 57.8793 194.477 58.2108 194.883 58.2108H209.209C209.615 58.2108 209.944 57.8793 209.944 57.4703V55.9895C209.944 55.5805 209.615 55.249 209.209 55.249Z" fill="#EDEDED"/>
<path d="M33.787 75.0312H20.3558C19.9754 75.0312 19.667 75.3628 19.667 75.7717V77.2525C19.667 77.6614 19.9754 77.993 20.3558 77.993H33.787C34.1674 77.993 34.4758 77.6614 34.4758 77.2525V75.7717C34.4758 75.3628 34.1674 75.0312 33.787 75.0312Z" fill="#EDEDED"/>
<path d="M88.0605 75.0312H61.8443C61.4503 75.0312 61.1309 75.3628 61.1309 75.7717V77.2525C61.1309 77.6614 61.4503 77.993 61.8443 77.993H88.0605C88.4545 77.993 88.7739 77.6614 88.7739 77.2525V75.7717C88.7739 75.3628 88.4545 75.0312 88.0605 75.0312Z" fill="#EDEDED"/>
<path d="M121.627 75.0312H107.258C106.864 75.0312 106.544 75.3628 106.544 75.7717V77.2525C106.544 77.6614 106.864 77.993 107.258 77.993H121.627C122.021 77.993 122.34 77.6614 122.34 77.2525V75.7717C122.34 75.3628 122.021 75.0312 121.627 75.0312Z" fill="#EDEDED"/>
<path d="M177.917 75.0312H149.693C149.308 75.0312 148.996 75.3628 148.996 75.7717V77.2525C148.996 77.6614 149.308 77.993 149.693 77.993H177.917C178.302 77.993 178.614 77.6614 178.614 77.2525V75.7717C178.614 75.3628 178.302 75.0312 177.917 75.0312Z" fill="#EDEDED"/>
<path d="M209.471 75.0312H195.144C194.739 75.0312 194.41 75.3628 194.41 75.7717V77.2525C194.41 77.6614 194.739 77.993 195.144 77.993H209.471C209.877 77.993 210.206 77.6614 210.206 77.2525V75.7717C210.206 75.3628 209.877 75.0312 209.471 75.0312Z" fill="#EDEDED"/>
<path d="M33.787 83.916H20.3558C19.9754 83.916 19.667 84.2475 19.667 84.6565V86.1373C19.667 86.5463 19.9754 86.8778 20.3558 86.8778H33.787C34.1674 86.8778 34.4758 86.5463 34.4758 86.1373V84.6565C34.4758 84.2475 34.1674 83.916 33.787 83.916Z" fill="#EDEDED"/>
<path d="M84.128 83.916H61.8278C61.443 83.916 61.1309 84.2475 61.1309 84.6565V86.1373C61.1309 86.5463 61.443 86.8778 61.8278 86.8778H84.128C84.5129 86.8778 84.8249 86.5463 84.8249 86.1373V84.6565C84.8249 84.2475 84.5129 83.916 84.128 83.916Z" fill="#EDEDED"/>
<path d="M121.627 83.916H107.258C106.864 83.916 106.544 84.2475 106.544 84.6565V86.1373C106.544 86.5463 106.864 86.8778 107.258 86.8778H121.627C122.021 86.8778 122.34 86.5463 122.34 86.1373V84.6565C122.34 84.2475 122.021 83.916 121.627 83.916Z" fill="#EDEDED"/>
<path d="M176.924 83.916H149.699C149.311 83.916 148.996 84.2475 148.996 84.6565V86.1373C148.996 86.5463 149.311 86.8778 149.699 86.8778H176.924C177.312 86.8778 177.626 86.5463 177.626 86.1373V84.6565C177.626 84.2475 177.312 83.916 176.924 83.916Z" fill="#EDEDED"/>
<path d="M209.471 83.916H195.144C194.739 83.916 194.41 84.2475 194.41 84.6565V86.1373C194.41 86.5463 194.739 86.8778 195.144 86.8778H209.471C209.877 86.8778 210.206 86.5463 210.206 86.1373V84.6565C210.206 84.2475 209.877 83.916 209.471 83.916Z" fill="#EDEDED"/>
<path d="M33.787 93.7881H20.3558C19.9754 93.7881 19.667 94.1196 19.667 94.5286V96.0094C19.667 96.4184 19.9754 96.7499 20.3558 96.7499H33.787C34.1674 96.7499 34.4758 96.4184 34.4758 96.0094V94.5286C34.4758 94.1196 34.1674 93.7881 33.787 93.7881Z" fill="#EDEDED"/>
<path d="M79.2117 93.7881H62.7952C62.4213 93.7881 62.1182 94.1196 62.1182 94.5286V96.0094C62.1182 96.4184 62.4213 96.7499 62.7952 96.7499H79.2117C79.5856 96.7499 79.8887 96.4184 79.8887 96.0094V94.5286C79.8887 94.1196 79.5856 93.7881 79.2117 93.7881Z" fill="#EDEDED"/>
<path d="M121.627 93.7881H107.258C106.864 93.7881 106.544 94.1196 106.544 94.5286V96.0094C106.544 96.4184 106.864 96.7499 107.258 96.7499H121.627C122.021 96.7499 122.34 96.4184 122.34 96.0094V94.5286C122.34 94.1196 122.021 93.7881 121.627 93.7881Z" fill="#EDEDED"/>
<path d="M173.952 93.7881H149.709C149.315 93.7881 148.996 94.1196 148.996 94.5286V96.0094C148.996 96.4184 149.315 96.7499 149.709 96.7499H173.952C174.345 96.7499 174.665 96.4184 174.665 96.0094V94.5286C174.665 94.1196 174.345 93.7881 173.952 93.7881Z" fill="#EDEDED"/>
<path d="M209.517 93.7881H196.085C195.705 93.7881 195.397 94.1196 195.397 94.5286V96.0094C195.397 96.4184 195.705 96.7499 196.085 96.7499H209.517C209.897 96.7499 210.205 96.4184 210.205 96.0094V94.5286C210.205 94.1196 209.897 93.7881 209.517 93.7881Z" fill="#EDEDED"/>
<path d="M33.787 102.674H20.3558C19.9754 102.674 19.667 103.005 19.667 103.414V104.895C19.667 105.304 19.9754 105.635 20.3558 105.635H33.787C34.1674 105.635 34.4758 105.304 34.4758 104.895V103.414C34.4758 103.005 34.1674 102.674 33.787 102.674Z" fill="#EDEDED"/>
<path d="M79.2117 102.674H62.7952C62.4213 102.674 62.1182 103.005 62.1182 103.414V104.895C62.1182 105.304 62.4213 105.635 62.7952 105.635H79.2117C79.5856 105.635 79.8887 105.304 79.8887 104.895V103.414C79.8887 103.005 79.5856 102.674 79.2117 102.674Z" fill="#EDEDED"/>
<path d="M121.627 102.674H107.258C106.864 102.674 106.544 103.005 106.544 103.414V104.895C106.544 105.304 106.864 105.635 107.258 105.635H121.627C122.021 105.635 122.34 105.304 122.34 104.895V103.414C122.34 103.005 122.021 102.674 121.627 102.674Z" fill="#EDEDED"/>
<path d="M175.939 102.674H149.696C149.309 102.674 148.996 103.005 148.996 103.414V104.895C148.996 105.304 149.309 105.635 149.696 105.635H175.939C176.326 105.635 176.639 105.304 176.639 104.895V103.414C176.639 103.005 176.326 102.674 175.939 102.674Z" fill="#EDEDED"/>
<path d="M209.517 102.674H196.085C195.705 102.674 195.397 103.005 195.397 103.414V104.895C195.397 105.304 195.705 105.635 196.085 105.635H209.517C209.897 105.635 210.205 105.304 210.205 104.895V103.414C210.205 103.005 209.897 102.674 209.517 102.674Z" fill="#EDEDED"/>
<path d="M33.787 112.546H20.3558C19.9754 112.546 19.667 112.878 19.667 113.287V114.767C19.667 115.176 19.9754 115.508 20.3558 115.508H33.787C34.1674 115.508 34.4758 115.176 34.4758 114.767V113.287C34.4758 112.878 34.1674 112.546 33.787 112.546Z" fill="#EDEDED"/>
<path d="M94.9961 112.546H62.8068C62.4265 112.546 62.1182 112.878 62.1182 113.287V114.767C62.1182 115.176 62.4265 115.508 62.8068 115.508H94.9961C95.3764 115.508 95.6846 115.176 95.6846 114.767V113.287C95.6846 112.878 95.3764 112.546 94.9961 112.546Z" fill="#EDEDED"/>
<path d="M123.465 112.546H107.394C106.925 112.546 106.544 112.905 106.544 113.349V114.705C106.544 115.149 106.925 115.508 107.394 115.508H123.465C123.934 115.508 124.315 115.149 124.315 114.705V113.349C124.315 112.905 123.934 112.546 123.465 112.546Z" fill="#EDEDED"/>
<path d="M172.972 112.546H149.701C149.312 112.546 148.996 112.878 148.996 113.287V114.767C148.996 115.176 149.312 115.508 149.701 115.508H172.972C173.362 115.508 173.677 115.176 173.677 114.767V113.287C173.677 112.878 173.362 112.546 172.972 112.546Z" fill="#EDEDED"/>
<path d="M209.517 112.546H196.085C195.705 112.546 195.397 112.878 195.397 113.287V114.767C195.397 115.176 195.705 115.508 196.085 115.508H209.517C209.897 115.508 210.205 115.176 210.205 114.767V113.287C210.205 112.878 209.897 112.546 209.517 112.546Z" fill="#EDEDED"/>
<path d="M33.787 121.431H20.3558C19.9754 121.431 19.667 121.763 19.667 122.172V123.653C19.667 124.062 19.9754 124.393 20.3558 124.393H33.787C34.1674 124.393 34.4758 124.062 34.4758 123.653V122.172C34.4758 121.763 34.1674 121.431 33.787 121.431Z" fill="#EDEDED"/>
<path d="M86.109 121.431H62.8086C62.4273 121.431 62.1182 121.763 62.1182 122.172V123.653C62.1182 124.062 62.4273 124.393 62.8086 124.393H86.109C86.4903 124.393 86.7994 124.062 86.7994 123.653V122.172C86.7994 121.763 86.4903 121.431 86.109 121.431Z" fill="#EDEDED"/>
<path d="M123.465 121.431H107.394C106.925 121.431 106.544 121.791 106.544 122.234V123.591C106.544 124.034 106.925 124.393 107.394 124.393H123.465C123.934 124.393 124.315 124.034 124.315 123.591V122.234C124.315 121.791 123.934 121.431 123.465 121.431Z" fill="#EDEDED"/>
<path d="M173.947 121.431H149.714C149.318 121.431 148.996 121.763 148.996 122.172V123.653C148.996 124.062 149.318 124.393 149.714 124.393H173.947C174.343 124.393 174.665 124.062 174.665 123.653V122.172C174.665 121.763 174.343 121.431 173.947 121.431Z" fill="#EDEDED"/>
<path d="M209.517 121.431H196.085C195.705 121.431 195.397 121.763 195.397 122.172V123.653C195.397 124.062 195.705 124.393 196.085 124.393H209.517C209.897 124.393 210.205 124.062 210.205 123.653V122.172C210.205 121.763 209.897 121.431 209.517 121.431Z" fill="#EDEDED"/>
<path d="M33.787 131.304H20.3558C19.9754 131.304 19.667 131.635 19.667 132.044V133.525C19.667 133.934 19.9754 134.266 20.3558 134.266H33.787C34.1674 134.266 34.4758 133.934 34.4758 133.525V132.044C34.4758 131.635 34.1674 131.304 33.787 131.304Z" fill="#EDEDED"/>
<path d="M90.0474 131.304H61.832C61.4448 131.304 61.1309 131.635 61.1309 132.044V133.525C61.1309 133.934 61.4448 134.266 61.832 134.266H90.0474C90.4345 134.266 90.7484 133.934 90.7484 133.525V132.044C90.7484 131.635 90.4345 131.304 90.0474 131.304Z" fill="#EDEDED"/>
<path d="M125.092 131H107.908C107.407 131 107 131.485 107 132.084V133.916C107 134.515 107.407 135 107.908 135H125.092C125.593 135 126 134.515 126 133.916V132.084C126 131.485 125.593 131 125.092 131Z" fill="#EDEDED"/>
<path d="M173.975 131.304H149.685C149.305 131.304 148.996 131.635 148.996 132.044V133.525C148.996 133.934 149.305 134.266 149.685 134.266H173.975C174.356 134.266 174.665 133.934 174.665 133.525V132.044C174.665 131.635 174.356 131.304 173.975 131.304Z" fill="#EDEDED"/>
<path d="M209.471 131.304H195.144C194.739 131.304 194.41 131.635 194.41 132.044V133.525C194.41 133.934 194.739 134.266 195.144 134.266H209.471C209.877 134.266 210.206 133.934 210.206 133.525V132.044C210.206 131.635 209.877 131.304 209.471 131.304Z" fill="#EDEDED"/>
<path d="M33.787 140.189H20.3558C19.9754 140.189 19.667 140.521 19.667 140.93V142.411C19.667 142.819 19.9754 143.151 20.3558 143.151H33.787C34.1674 143.151 34.4758 142.819 34.4758 142.411V140.93C34.4758 140.521 34.1674 140.189 33.787 140.189Z" fill="#EDEDED"/>
<path d="M79.1741 140.189H61.8455C61.4509 140.189 61.1309 140.521 61.1309 140.93V142.411C61.1309 142.819 61.4509 143.151 61.8455 143.151H79.1741C79.5687 143.151 79.8887 142.819 79.8887 142.411V140.93C79.8887 140.521 79.5687 140.189 79.1741 140.189Z" fill="#EDEDED"/>
<path d="M125.092 140H107.908C107.407 140 107 140.485 107 141.084V142.916C107 143.515 107.407 144 107.908 144H125.092C125.593 144 126 143.515 126 142.916V141.084C126 140.485 125.593 140 125.092 140Z" fill="#EDEDED"/>
<path d="M181.856 140.189H149.703C149.312 140.189 148.996 140.521 148.996 140.93V142.411C148.996 142.819 149.312 143.151 149.703 143.151H181.856C182.246 143.151 182.563 142.819 182.563 142.411V140.93C182.563 140.521 182.246 140.189 181.856 140.189Z" fill="#EDEDED"/>
<path d="M209.471 140.189H195.144C194.739 140.189 194.41 140.521 194.41 140.93V142.411C194.41 142.819 194.739 143.151 195.144 143.151H209.471C209.877 143.151 210.206 142.819 210.206 142.411V140.93C210.206 140.521 209.877 140.189 209.471 140.189Z" fill="#EDEDED"/>
<path d="M33.787 150.062H20.3558C19.9754 150.062 19.667 150.393 19.667 150.802V152.283C19.667 152.692 19.9754 153.023 20.3558 153.023H33.787C34.1674 153.023 34.4758 152.692 34.4758 152.283V150.802C34.4758 150.393 34.1674 150.062 33.787 150.062Z" fill="#EDEDED"/>
<path d="M90.039 150.062H61.8403C61.4486 150.062 61.1309 150.393 61.1309 150.802V152.283C61.1309 152.692 61.4486 153.023 61.8403 153.023H90.039C90.4308 153.023 90.7484 152.692 90.7484 152.283V150.802C90.7484 150.393 90.4308 150.062 90.039 150.062Z" fill="#EDEDED"/>
<path d="M125.092 150H107.908C107.407 150 107 150.485 107 151.084V152.916C107 153.515 107.407 154 107.908 154H125.092C125.593 154 126 153.515 126 152.916V151.084C126 150.485 125.593 150 125.092 150Z" fill="#EDEDED"/>
<path d="M172.977 150.062H149.696C149.31 150.062 148.996 150.393 148.996 150.802V152.283C148.996 152.692 149.31 153.023 149.696 153.023H172.977C173.364 153.023 173.677 152.692 173.677 152.283V150.802C173.677 150.393 173.364 150.062 172.977 150.062Z" fill="#EDEDED"/>
<path d="M209.471 150.062H195.144C194.739 150.062 194.41 150.393 194.41 150.802V152.283C194.41 152.692 194.739 153.023 195.144 153.023H209.471C209.877 153.023 210.206 152.692 210.206 152.283V150.802C210.206 150.393 209.877 150.062 209.471 150.062Z" fill="#EDEDED"/>
<path d="M33.787 158.947H20.3558C19.9754 158.947 19.667 159.278 19.667 159.687V161.168C19.667 161.577 19.9754 161.909 20.3558 161.909H33.787C34.1674 161.909 34.4758 161.577 34.4758 161.168V159.687C34.4758 159.278 34.1674 158.947 33.787 158.947Z" fill="#EDEDED"/>
<path d="M89.0586 158.947H61.8335C61.4455 158.947 61.1309 159.278 61.1309 159.687V161.168C61.1309 161.577 61.4455 161.909 61.8335 161.909H89.0586C89.4466 161.909 89.7611 161.577 89.7611 161.168V159.687C89.7611 159.278 89.4466 158.947 89.0586 158.947Z" fill="#EDEDED"/>
<path d="M125.092 159H107.908C107.407 159 107 159.485 107 160.084V161.916C107 162.515 107.407 163 107.908 163H125.092C125.593 163 126 162.515 126 161.916V160.084C126 159.485 125.593 159 125.092 159Z" fill="#EDEDED"/>
<path d="M172.977 158.947H149.696C149.31 158.947 148.996 159.278 148.996 159.687V161.168C148.996 161.577 149.31 161.909 149.696 161.909H172.977C173.364 161.909 173.677 161.577 173.677 161.168V159.687C173.677 159.278 173.364 158.947 172.977 158.947Z" fill="#EDEDED"/>
<path d="M209.471 158.947H195.144C194.739 158.947 194.41 159.278 194.41 159.687V161.168C194.41 161.577 194.739 161.909 195.144 161.909H209.471C209.877 161.909 210.206 161.577 210.206 161.168V159.687C210.206 159.278 209.877 158.947 209.471 158.947Z" fill="#EDEDED"/>
<path d="M33.787 168.819H20.3558C19.9754 168.819 19.667 169.04 19.667 169.313V170.3C19.667 170.573 19.9754 170.794 20.3558 170.794H33.787C34.1674 170.794 34.4758 170.573 34.4758 170.3V169.313C34.4758 169.04 34.1674 168.819 33.787 168.819Z" fill="#EDEDED"/>
<path d="M93.9944 168.819H61.8339C61.4457 168.819 61.1309 169.04 61.1309 169.313V170.3C61.1309 170.573 61.4457 170.794 61.8339 170.794H93.9944C94.3827 170.794 94.6974 170.573 94.6974 170.3V169.313C94.6974 169.04 94.3827 168.819 93.9944 168.819Z" fill="#EDEDED"/>
<path d="M125.243 169H107.757C107.339 169 107 169.404 107 169.903V172.097C107 172.596 107.339 173 107.757 173H125.243C125.661 173 126 172.596 126 172.097V169.903C126 169.404 125.661 169 125.243 169Z" fill="#EDEDED"/>
<path d="M173.961 168.819H149.699C149.311 168.819 148.996 169.04 148.996 169.313V170.3C148.996 170.573 149.311 170.794 149.699 170.794H173.961C174.35 170.794 174.665 170.573 174.665 170.3V169.313C174.665 169.04 174.35 168.819 173.961 168.819Z" fill="#EDEDED"/>
<path d="M209.471 168.819H195.144C194.739 168.819 194.41 169.04 194.41 169.313V170.3C194.41 170.573 194.739 170.794 195.144 170.794H209.471C209.877 170.794 210.206 170.573 210.206 170.3V169.313C210.206 169.04 209.877 168.819 209.471 168.819Z" fill="#EDEDED"/>
<path d="M33.787 177.705H20.3558C19.9754 177.705 19.667 178.036 19.667 178.445V179.926C19.667 180.335 19.9754 180.666 20.3558 180.666H33.787C34.1674 180.666 34.4758 180.335 34.4758 179.926V178.445C34.4758 178.036 34.1674 177.705 33.787 177.705Z" fill="#EDEDED"/>
<path d="M86.1057 177.705H61.8247C61.4415 177.705 61.1309 178.036 61.1309 178.445V179.926C61.1309 180.335 61.4415 180.666 61.8247 180.666H86.1057C86.4888 180.666 86.7994 180.335 86.7994 179.926V178.445C86.7994 178.036 86.4888 177.705 86.1057 177.705Z" fill="#EDEDED"/>
<path d="M123.232 178H107.768C107.344 178 107 178.448 107 179V181C107 181.552 107.344 182 107.768 182H123.232C123.656 182 124 181.552 124 181V179C124 178.448 123.656 178 123.232 178Z" fill="#EDEDED"/>
<path d="M173.956 177.705H149.704C149.313 177.705 148.996 178.036 148.996 178.445V179.926C148.996 180.335 149.313 180.666 149.704 180.666H173.956C174.348 180.666 174.665 180.335 174.665 179.926V178.445C174.665 178.036 174.348 177.705 173.956 177.705Z" fill="#EDEDED"/>
<path d="M209.471 177.705H195.144C194.739 177.705 194.41 178.036 194.41 178.445V179.926C194.41 180.335 194.739 180.666 195.144 180.666H209.471C209.877 180.666 210.206 180.335 210.206 179.926V178.445C210.206 178.036 209.877 177.705 209.471 177.705Z" fill="#EDEDED"/>
<path d="M39.682 36H11.2275C10.9514 36 10.7275 36.2239 10.7275 36.5V43.1364C10.7275 43.4125 10.9514 43.6364 11.2275 43.6364H39.682C39.9582 43.6364 40.182 43.4125 40.182 43.1364V36.5C40.182 36.2239 39.9582 36 39.682 36Z" fill="black" fill-opacity="0.075"/>
<path d="M39.682 36.25H11.2275C11.0895 36.25 10.9775 36.3619 10.9775 36.5V43.1364C10.9775 43.2744 11.0895 43.3864 11.2275 43.3864H39.682C39.8201 43.3864 39.932 43.2744 39.932 43.1364V36.5C39.932 36.3619 39.8201 36.25 39.682 36.25Z" stroke="black" stroke-opacity="0.075" stroke-width="0.5"/>
<path d="M84.4089 36H41.7725C41.4963 36 41.2725 36.2239 41.2725 36.5V43.1364C41.2725 43.4125 41.4963 43.6364 41.7725 43.6364H84.4089C84.685 43.6364 84.9089 43.4125 84.9089 43.1364V36.5C84.9089 36.2239 84.685 36 84.4089 36Z" fill="black" fill-opacity="0.075"/>
<path d="M84.4089 36.25H41.7725C41.6344 36.25 41.5225 36.3619 41.5225 36.5V43.1364C41.5225 43.2744 41.6344 43.3864 41.7725 43.3864H84.4089C84.5469 43.3864 84.6589 43.2744 84.6589 43.1364V36.5C84.6589 36.3619 84.5469 36.25 84.4089 36.25Z" stroke="black" stroke-opacity="0.075" stroke-width="0.5"/>
<path d="M110.591 36H86.5C86.2239 36 86 36.2239 86 36.5V43.1364C86 43.4125 86.2239 43.6364 86.5 43.6364H110.591C110.867 43.6364 111.091 43.4125 111.091 43.1364V36.5C111.091 36.2239 110.867 36 110.591 36Z" fill="#1594BC" fill-opacity="0.2"/>
<path d="M110.591 36.25H86.5C86.3619 36.25 86.25 36.3619 86.25 36.5V43.1364C86.25 43.2744 86.3619 43.3864 86.5 43.3864H110.591C110.729 43.3864 110.841 43.2744 110.841 43.1364V36.5C110.841 36.3619 110.729 36.25 110.591 36.25Z" stroke="black" stroke-opacity="0.075" stroke-width="0.5"/>
<path d="M136.773 36H112.682C112.405 36 112.182 36.2239 112.182 36.5V43.1364C112.182 43.4125 112.405 43.6364 112.682 43.6364H136.773C137.049 43.6364 137.273 43.4125 137.273 43.1364V36.5C137.273 36.2239 137.049 36 136.773 36Z" fill="#DB9B2B" fill-opacity="0.2"/>
<path d="M136.773 36.25H112.682C112.544 36.25 112.432 36.3619 112.432 36.5V43.1364C112.432 43.2744 112.544 43.3864 112.682 43.3864H136.773C136.911 43.3864 137.023 43.2744 137.023 43.1364V36.5C137.023 36.3619 136.911 36.25 136.773 36.25Z" stroke="black" stroke-opacity="0.075" stroke-width="0.5"/>
<path d="M201.137 36H138.864C138.588 36 138.364 36.2239 138.364 36.5V43.1364C138.364 43.4125 138.588 43.6364 138.864 43.6364H201.137C201.413 43.6364 201.637 43.4125 201.637 43.1364V36.5C201.637 36.2239 201.413 36 201.137 36Z" fill="#429B81" fill-opacity="0.2"/>
<path d="M201.137 36.25H138.864C138.726 36.25 138.614 36.3619 138.614 36.5V43.1364C138.614 43.2744 138.726 43.3864 138.864 43.3864H201.137C201.275 43.3864 201.387 43.2744 201.387 43.1364V36.5C201.387 36.3619 201.275 36.25 201.137 36.25Z" stroke="black" stroke-opacity="0.075" stroke-width="0.5"/>
<path d="M233.863 36H203.227C202.95 36 202.727 36.2239 202.727 36.5V43.1364C202.727 43.4125 202.95 43.6364 203.227 43.6364H233.863C234.139 43.6364 234.363 43.4125 234.363 43.1364V36.5C234.363 36.2239 234.139 36 233.863 36Z" fill="#117899" fill-opacity="0.2"/>
<path d="M233.863 36.25H203.227C203.088 36.25 202.977 36.3619 202.977 36.5V43.1364C202.977 43.2744 203.088 43.3864 203.227 43.3864H233.863C234.001 43.3864 234.113 43.2744 234.113 43.1364V36.5C234.113 36.3619 234.001 36.25 233.863 36.25Z" stroke="black" stroke-opacity="0.075" stroke-width="0.5"/>
<path d="M235.454 33.8184H8.54492V34.9093H235.454V33.8184Z" fill="#D2D2D2"/>
<path d="M235.454 44.7275H8.54492V45.8184H235.454V44.7275Z" fill="#D2D2D2"/>
<path d="M235.454 184.364H8.54492V185.455H235.454V184.364Z" fill="#D2D2D2"/>
<path d="M9.63583 33.8184H8.54492V185.455H9.63583V33.8184Z" fill="#D2D2D2"/>
<path d="M236.545 33.8184H235.455V185.455H236.545V33.8184Z" fill="#D2D2D2"/>
<g filter="url(#filter1_d_504_18031)">
<path fill-rule="evenodd" clip-rule="evenodd" d="M153.355 182.75C153.057 182.569 152.875 182.246 152.874 181.898L152.873 181.204C152.87 180.255 152.825 179.297 152.706 178.326C152.587 177.356 152.402 176.443 152.154 175.584L151.952 174.881C151.851 174.531 151.948 174.154 152.205 173.897L152.722 173.38L157.825 168.278C158.178 167.926 158.217 167.367 157.917 166.969L151.853 158.925C151.553 158.528 151.007 158.411 150.571 158.652L144.273 162.128L143.657 162.469C143.348 162.639 142.973 162.634 142.669 162.456L142.061 162.101C140.375 161.116 138.669 160.374 136.821 159.872L136.134 159.685C135.791 159.592 135.523 159.324 135.431 158.98L135.246 158.293L133.376 151.341C133.247 150.86 132.783 150.547 132.289 150.608L122.298 151.835C121.804 151.895 121.429 152.311 121.42 152.809L121.288 160.007L121.274 160.718C121.268 161.074 121.073 161.399 120.763 161.573L120.142 161.92C118.476 162.851 116.962 164.027 115.59 165.357L115.087 165.844C114.835 166.088 114.473 166.183 114.134 166.092L113.457 165.912L106.505 164.062C106.024 163.934 105.522 164.18 105.327 164.638L101.389 173.91C101.194 174.369 101.367 174.901 101.795 175.158L107.98 178.873L108.607 179.25C108.919 179.437 109.105 179.78 109.091 180.144L109.065 180.874C109.03 181.827 109.045 182.793 109.153 183.674C109.267 184.606 109.457 185.559 109.705 186.417L109.907 187.119C110.008 187.469 109.911 187.846 109.654 188.104L109.136 188.62L104.034 193.722C103.681 194.075 103.642 194.633 103.942 195.031L110.006 203.075C110.306 203.473 110.852 203.589 111.288 203.349L117.586 199.872L118.202 199.532C118.51 199.361 118.886 199.366 119.19 199.544L119.797 199.899C121.483 200.884 123.19 201.626 125.038 202.128L125.724 202.315C126.068 202.408 126.336 202.677 126.428 203.02L126.613 203.707L128.483 210.659C128.612 211.141 129.076 211.453 129.57 211.392L139.561 210.166C140.055 210.105 140.43 209.69 140.439 209.191L140.571 201.993L140.584 201.282C140.591 200.926 140.786 200.601 141.096 200.427L141.717 200.08C143.383 199.149 144.897 197.973 146.269 196.644L146.772 196.156C147.024 195.912 147.386 195.818 147.725 195.908L148.402 196.088L155.354 197.938C155.835 198.066 156.337 197.821 156.532 197.362L160.473 188.083C160.667 187.626 160.496 187.096 160.072 186.838L153.948 183.11L153.355 182.75ZM132.217 190.917C137.698 190.244 141.596 185.255 140.923 179.773C140.25 174.291 135.261 170.393 129.779 171.066C124.297 171.739 120.399 176.729 121.072 182.21C121.745 187.692 126.735 191.59 132.217 190.917Z" fill="url(#paint0_radial_504_18031)"/>
<path d="M152.873 181.204L153.498 181.202L153.498 181.202L152.873 181.204ZM152.154 175.584L152.755 175.41L152.755 175.41L152.154 175.584ZM152.722 173.38L153.164 173.822L153.164 173.822L152.722 173.38ZM144.273 162.128L143.971 161.581L143.971 161.581L144.273 162.128ZM142.061 162.101L142.377 161.562L142.377 161.562L142.061 162.101ZM136.821 159.872L136.657 160.475L136.657 160.475L136.821 159.872ZM135.246 158.293L134.643 158.455L134.643 158.455L135.246 158.293ZM121.288 160.007L121.912 160.019L121.912 160.018L121.288 160.007ZM120.142 161.92L120.446 162.466L120.446 162.466L120.142 161.92ZM115.59 165.357L116.025 165.806L116.025 165.806L115.59 165.357ZM113.457 165.912L113.296 166.516L113.296 166.516L113.457 165.912ZM107.98 178.873L107.658 179.409L107.658 179.409L107.98 178.873ZM109.065 180.874L108.44 180.851L108.44 180.851L109.065 180.874ZM109.705 186.417L109.104 186.59L109.104 186.59L109.705 186.417ZM109.136 188.62L108.695 188.178L108.695 188.178L109.136 188.62ZM117.586 199.872L117.284 199.325L117.284 199.325L117.586 199.872ZM119.797 199.899L119.482 200.438L119.482 200.439L119.797 199.899ZM125.038 202.128L125.202 201.525L125.202 201.525L125.038 202.128ZM126.613 203.707L127.216 203.545L127.216 203.545L126.613 203.707ZM140.571 201.993L139.946 201.982L139.946 201.982L140.571 201.993ZM141.717 200.08L142.022 200.626L142.022 200.626L141.717 200.08ZM146.269 196.644L145.834 196.195L145.834 196.195L146.269 196.644ZM148.402 196.088L148.563 195.484L148.563 195.484L148.402 196.088ZM153.948 183.11L154.273 182.577L154.272 182.576L153.948 183.11ZM140.584 201.282L139.96 201.27L140.584 201.282ZM141.096 200.427L141.401 200.973L141.096 200.427ZM129.57 211.392L129.646 212.013L129.57 211.392ZM118.202 199.532L118.504 200.079L118.202 199.532ZM119.19 199.544L118.875 200.083L119.19 199.544ZM104.034 193.722L103.592 193.28L104.034 193.722ZM109.091 180.144L109.716 180.166L109.091 180.144ZM101.389 173.91L100.814 173.665L101.389 173.91ZM101.795 175.158L101.473 175.694L101.795 175.158ZM146.772 196.156L146.337 195.707L146.772 196.156ZM147.725 195.908L147.885 195.304L147.725 195.908ZM106.505 164.062L106.665 163.458L106.505 164.062ZM105.327 164.638L104.752 164.393L105.327 164.638ZM125.724 202.315L125.888 201.712L125.724 202.315ZM132.289 150.608L132.213 149.988L132.289 150.608ZM151.853 158.925L151.354 159.301L151.853 158.925ZM150.571 158.652L150.873 159.199L150.571 158.652ZM115.087 165.844L115.522 166.293L115.087 165.844ZM110.006 203.075L110.505 202.699L110.006 203.075ZM111.288 203.349L110.986 202.801L111.288 203.349ZM143.657 162.469L143.355 161.921L143.657 162.469ZM142.669 162.456L142.984 161.917L142.669 162.456ZM122.298 151.835L122.374 152.455L122.298 151.835ZM121.42 152.809L120.795 152.797L121.42 152.809ZM151.952 174.881L151.351 175.054L151.952 174.881ZM152.205 173.897L152.647 174.339L152.205 173.897ZM139.561 210.166L139.485 209.545L139.561 210.166ZM140.439 209.191L139.814 209.18L140.439 209.191ZM121.274 160.718L121.899 160.73L121.274 160.718ZM120.763 161.573L121.068 162.118L120.763 161.573ZM109.654 188.104L109.212 187.662L109.654 188.104ZM157.825 168.278L158.267 168.72L157.825 168.278ZM157.917 166.969L157.418 167.345L157.917 166.969ZM155.354 197.938L155.515 197.334L155.354 197.938ZM156.532 197.362L155.956 197.118L156.532 197.362ZM160.473 188.083L161.048 188.327L160.473 188.083ZM160.072 186.838L159.747 187.372L160.072 186.838ZM152.874 181.898L153.499 181.896L152.874 181.898ZM153.355 182.75L153.03 183.283L153.355 182.75ZM152.248 181.206L152.249 181.9L153.499 181.896L153.498 181.202L152.248 181.206ZM152.086 178.402C152.201 179.342 152.245 180.275 152.248 181.206L153.498 181.202C153.495 180.235 153.449 179.251 153.327 178.25L152.086 178.402ZM151.554 175.757C151.792 176.582 151.971 177.463 152.086 178.402L153.327 178.25C153.204 177.249 153.012 176.303 152.755 175.41L151.554 175.757ZM151.351 175.054L151.554 175.757L152.755 175.41L152.552 174.708L151.351 175.054ZM152.28 172.938L151.763 173.455L152.647 174.339L153.164 173.822L152.28 172.938ZM157.383 167.836L152.28 172.938L153.164 173.822L158.267 168.72L157.383 167.836ZM151.354 159.301L157.418 167.345L158.416 166.593L152.352 158.549L151.354 159.301ZM144.575 162.676L150.873 159.199L150.269 158.105L143.971 161.581L144.575 162.676ZM143.959 163.016L144.575 162.676L143.971 161.581L143.355 161.921L143.959 163.016ZM141.746 162.641L142.354 162.996L142.984 161.917L142.377 161.562L141.746 162.641ZM136.657 160.475C138.447 160.961 140.102 161.68 141.746 162.641L142.377 161.562C140.649 160.552 138.892 159.787 136.985 159.269L136.657 160.475ZM135.971 160.289L136.657 160.475L136.985 159.269L136.298 159.082L135.971 160.289ZM134.643 158.455L134.827 159.143L136.035 158.818L135.85 158.131L134.643 158.455ZM132.773 151.503L134.643 158.455L135.85 158.131L133.98 151.178L132.773 151.503ZM122.374 152.455L132.365 151.228L132.213 149.988L122.222 151.214L122.374 152.455ZM121.912 160.018L122.045 152.82L120.795 152.797L120.663 159.996L121.912 160.018ZM121.899 160.73L121.912 160.019L120.663 159.995L120.65 160.707L121.899 160.73ZM120.446 162.466L121.068 162.118L120.458 161.027L119.837 161.374L120.446 162.466ZM116.025 165.806C117.365 164.507 118.836 163.366 120.446 162.466L119.837 161.374C118.116 162.336 116.56 163.547 115.155 164.908L116.025 165.806ZM115.522 166.293L116.025 165.806L115.155 164.908L114.652 165.395L115.522 166.293ZM113.296 166.516L113.973 166.696L114.295 165.488L113.617 165.308L113.296 166.516ZM106.344 164.666L113.296 166.516L113.617 165.308L106.665 163.458L106.344 164.666ZM101.965 174.154L105.902 164.882L104.752 164.393L100.814 173.665L101.965 174.154ZM108.302 178.338L102.117 174.622L101.473 175.694L107.658 179.409L108.302 178.338ZM108.929 178.714L108.302 178.338L107.658 179.409L108.285 179.786L108.929 178.714ZM109.689 180.897L109.716 180.166L108.467 180.121L108.44 180.851L109.689 180.897ZM109.773 183.598C109.67 182.762 109.655 181.831 109.689 180.897L108.44 180.851C108.405 181.823 108.419 182.825 108.532 183.75L109.773 183.598ZM110.305 186.243C110.068 185.421 109.884 184.5 109.773 183.598L108.532 183.75C108.651 184.713 108.847 185.698 109.104 186.59L110.305 186.243ZM110.508 186.946L110.305 186.243L109.104 186.59L109.307 187.292L110.508 186.946ZM109.578 189.062L110.095 188.546L109.212 187.662L108.695 188.178L109.578 189.062ZM104.475 194.164L109.578 189.062L108.695 188.178L103.592 193.28L104.475 194.164ZM110.505 202.699L104.441 194.655L103.443 195.407L109.507 203.451L110.505 202.699ZM117.284 199.325L110.986 202.801L111.59 203.896L117.888 200.419L117.284 199.325ZM117.9 198.984L117.284 199.325L117.888 200.419L118.504 200.079L117.9 198.984ZM120.113 199.359L119.505 199.004L118.875 200.083L119.482 200.438L120.113 199.359ZM125.202 201.525C123.412 201.039 121.756 200.32 120.113 199.359L119.482 200.439C121.21 201.448 122.967 202.213 124.874 202.731L125.202 201.525ZM125.888 201.712L125.202 201.525L124.874 202.731L125.561 202.918L125.888 201.712ZM127.216 203.545L127.031 202.858L125.824 203.182L126.009 203.87L127.216 203.545ZM129.086 210.497L127.216 203.545L126.009 203.87L127.879 210.822L129.086 210.497ZM139.485 209.545L129.494 210.772L129.646 212.013L139.637 210.786L139.485 209.545ZM139.946 201.982L139.814 209.18L141.064 209.203L141.196 202.005L139.946 201.982ZM139.96 201.27L139.946 201.982L141.196 202.005L141.209 201.293L139.96 201.27ZM141.412 199.535L140.791 199.882L141.401 200.973L142.022 200.626L141.412 199.535ZM145.834 196.195C144.494 197.493 143.023 198.634 141.412 199.535L142.022 200.626C143.743 199.664 145.299 198.453 146.704 197.092L145.834 196.195ZM146.337 195.707L145.834 196.195L146.704 197.092L147.207 196.605L146.337 195.707ZM148.563 195.484L147.885 195.304L147.564 196.512L148.241 196.692L148.563 195.484ZM155.515 197.334L148.563 195.484L148.241 196.692L155.193 198.542L155.515 197.334ZM159.898 187.839L155.956 197.118L157.107 197.607L161.048 188.327L159.898 187.839ZM153.623 183.644L159.747 187.372L160.397 186.304L154.273 182.577L153.623 183.644ZM153.03 183.283L153.623 183.644L154.272 182.576L153.68 182.216L153.03 183.283ZM140.303 179.849C140.934 184.988 137.279 189.666 132.14 190.297L132.293 191.538C138.117 190.822 142.259 185.521 141.544 179.697L140.303 179.849ZM129.855 171.687C134.994 171.056 139.672 174.71 140.303 179.849L141.544 179.697C140.828 173.873 135.527 169.731 129.703 170.446L129.855 171.687ZM121.693 182.134C121.062 176.995 124.716 172.318 129.855 171.687L129.703 170.446C123.879 171.161 119.737 176.462 120.452 182.287L121.693 182.134ZM132.14 190.297C127.001 190.928 122.324 187.273 121.693 182.134L120.452 182.287C121.167 188.111 126.468 192.253 132.293 191.538L132.14 190.297ZM141.209 201.293C141.212 201.16 141.285 201.038 141.401 200.973L140.791 199.882C140.287 200.164 139.97 200.692 139.96 201.27L141.209 201.293ZM127.879 210.822C128.089 211.604 128.843 212.111 129.646 212.013L129.494 210.772C129.309 210.795 129.135 210.678 129.086 210.497L127.879 210.822ZM118.504 200.079C118.62 200.015 118.76 200.017 118.875 200.083L119.505 199.004C119.011 198.715 118.401 198.708 117.9 198.984L118.504 200.079ZM103.592 193.28C103.019 193.853 102.955 194.76 103.443 195.407L104.441 194.655C104.329 194.506 104.343 194.296 104.475 194.164L103.592 193.28ZM108.285 179.786C108.402 179.856 108.472 179.984 108.467 180.121L109.716 180.166C109.738 179.575 109.436 179.019 108.929 178.714L108.285 179.786ZM100.814 173.665C100.497 174.411 100.778 175.276 101.473 175.694L102.117 174.622C101.956 174.526 101.891 174.326 101.965 174.154L100.814 173.665ZM147.207 196.605C147.301 196.513 147.437 196.478 147.564 196.512L147.885 195.304C147.334 195.157 146.747 195.31 146.337 195.707L147.207 196.605ZM106.665 163.458C105.884 163.25 105.068 163.649 104.752 164.393L105.902 164.882C105.975 164.71 106.164 164.618 106.344 164.666L106.665 163.458ZM125.561 202.918C125.689 202.953 125.79 203.054 125.824 203.182L127.031 202.858C126.881 202.3 126.446 201.863 125.888 201.712L125.561 202.918ZM133.98 151.178C133.77 150.397 133.016 149.889 132.213 149.988L132.365 151.228C132.55 151.205 132.724 151.323 132.773 151.503L133.98 151.178ZM152.352 158.549C151.865 157.903 150.977 157.714 150.269 158.105L150.873 159.199C151.036 159.109 151.241 159.152 151.354 159.301L152.352 158.549ZM114.652 165.395C114.557 165.487 114.422 165.522 114.295 165.488L113.973 166.696C114.524 166.843 115.112 166.69 115.522 166.293L114.652 165.395ZM109.507 203.451C109.994 204.097 110.882 204.287 111.59 203.896L110.986 202.801C110.822 202.892 110.618 202.848 110.505 202.699L109.507 203.451ZM143.355 161.921C143.239 161.985 143.098 161.984 142.984 161.917L142.354 162.996C142.848 163.285 143.458 163.292 143.959 163.016L143.355 161.921ZM122.222 151.214C121.418 151.313 120.81 151.988 120.795 152.797L122.045 152.82C122.048 152.634 122.189 152.478 122.374 152.455L122.222 151.214ZM152.552 174.708C152.514 174.577 152.551 174.435 152.647 174.339L151.763 173.455C151.345 173.873 151.187 174.486 151.351 175.054L152.552 174.708ZM139.637 210.786C140.441 210.687 141.049 210.012 141.064 209.203L139.814 209.18C139.811 209.367 139.67 209.522 139.485 209.545L139.637 210.786ZM120.65 160.707C120.647 160.84 120.574 160.962 120.458 161.027L121.068 162.118C121.572 161.836 121.889 161.308 121.899 160.73L120.65 160.707ZM109.307 187.292C109.345 187.424 109.308 187.565 109.212 187.662L110.095 188.546C110.514 188.127 110.672 187.515 110.508 186.946L109.307 187.292ZM158.267 168.72C158.84 168.147 158.904 167.24 158.416 166.593L157.418 167.345C157.53 167.495 157.516 167.704 157.383 167.836L158.267 168.72ZM136.298 159.082C136.17 159.047 136.069 158.947 136.035 158.818L134.827 159.143C134.978 159.701 135.413 160.137 135.971 160.289L136.298 159.082ZM155.193 198.542C155.975 198.75 156.791 198.351 157.107 197.607L155.956 197.118C155.883 197.29 155.695 197.382 155.515 197.334L155.193 198.542ZM161.048 188.327C161.363 187.585 161.086 186.723 160.397 186.304L159.747 187.372C159.906 187.468 159.97 187.667 159.898 187.839L161.048 188.327ZM152.249 181.9C152.251 182.465 152.547 182.989 153.03 183.283L153.68 182.216C153.568 182.148 153.5 182.027 153.499 181.896L152.249 181.9Z" fill="#3E4144"/>
</g>
<g filter="url(#filter2_d_504_18031)">
<path fill-rule="evenodd" clip-rule="evenodd" d="M112.411 147.423C112.145 147.198 112.016 146.851 112.07 146.507L112.144 146.028C112.266 145.246 112.354 144.452 112.382 143.637C112.411 142.823 112.378 142.047 112.286 141.308L112.223 140.801C112.178 140.44 112.333 140.082 112.627 139.868L113.041 139.568L117.788 136.12C118.192 135.827 118.318 135.281 118.084 134.841L114.277 127.685C114.043 127.246 113.522 127.045 113.054 127.215L107.553 129.206L107.09 129.373C106.759 129.493 106.389 129.43 106.117 129.207L105.736 128.895C104.477 127.865 103.169 127.032 101.714 126.377L101.26 126.174C100.936 126.028 100.713 125.721 100.676 125.367L100.623 124.872L100.006 119.05C99.9531 118.555 99.544 118.174 99.0461 118.156L90.9523 117.874C90.4545 117.856 90.0198 118.208 89.9328 118.699L88.9107 124.463L88.8239 124.953C88.7618 125.303 88.5184 125.594 88.1846 125.717L87.718 125.889C86.2258 126.438 84.8266 127.209 83.524 128.124L83.1232 128.405C82.836 128.607 82.4641 128.644 82.1433 128.501L81.6955 128.303L76.3469 125.933C75.8918 125.731 75.3576 125.895 75.0938 126.317L70.7974 133.19C70.533 133.612 70.6206 134.165 71.0026 134.486L75.4984 138.257L75.8898 138.585C76.1688 138.819 76.2985 139.187 76.2284 139.544L76.1302 140.045C75.9774 140.825 75.8633 141.622 75.8375 142.361C75.8102 143.144 75.8426 143.953 75.9343 144.691L75.9974 145.198C76.0423 145.559 75.8873 145.916 75.5927 146.13L75.1794 146.43L70.4315 149.879C70.028 150.172 69.9021 150.717 70.1363 151.158L73.9428 158.313C74.1766 158.753 74.698 158.953 75.1661 158.784L80.667 156.793L81.1295 156.625C81.4608 156.505 81.8308 156.568 82.1034 156.792L82.4838 157.103C83.7429 158.134 85.0506 158.967 86.5064 159.621L86.9599 159.825C87.2843 159.971 87.5069 160.278 87.5444 160.632L87.5968 161.126L88.2143 166.948C88.2668 167.444 88.6759 167.825 89.1738 167.842L97.2676 168.125C97.7655 168.142 98.2002 167.79 98.2872 167.3L99.3092 161.535L99.396 161.046C99.4581 160.695 99.7016 160.404 100.035 160.282L100.502 160.11C101.994 159.561 103.393 158.79 104.696 157.875L105.097 157.593C105.384 157.391 105.756 157.355 106.077 157.497L106.524 157.696L111.873 160.066C112.328 160.267 112.862 160.104 113.126 159.682L117.427 152.802C117.69 152.381 117.604 151.831 117.226 151.51L112.78 147.737L112.411 147.423ZM93.7216 150.991C98.1371 151.145 101.842 147.69 101.996 143.275C102.15 138.859 98.6955 135.155 94.28 135C89.8644 134.846 86.1598 138.301 86.0056 142.716C85.8514 147.132 89.306 150.836 93.7216 150.991Z" fill="url(#paint1_linear_504_18031)"/>
<path d="M112.144 146.028L112.638 146.105L112.638 146.104L112.144 146.028ZM112.286 141.308L112.782 141.246L112.782 141.246L112.286 141.308ZM113.041 139.568L113.334 139.973L113.334 139.973L113.041 139.568ZM107.553 129.206L107.383 128.736L107.383 128.736L107.553 129.206ZM105.736 128.895L106.053 128.508L106.053 128.508L105.736 128.895ZM101.714 126.377L101.918 125.921L101.714 126.377ZM100.623 124.872L100.126 124.925L100.126 124.925L100.623 124.872ZM88.9107 124.463L89.403 124.551L89.403 124.551L88.9107 124.463ZM87.718 125.889L87.8907 126.358L87.8907 126.358L87.718 125.889ZM83.524 128.124L83.8114 128.533L83.8115 128.533L83.524 128.124ZM81.6955 128.303L81.4929 128.76L81.4929 128.76L81.6955 128.303ZM75.4984 138.257L75.177 138.64L75.177 138.64L75.4984 138.257ZM76.1302 140.045L76.6208 140.142L76.1302 140.045ZM75.9343 144.691L75.4382 144.752L75.4382 144.752L75.9343 144.691ZM75.1794 146.43L74.8855 146.026L74.8855 146.026L75.1794 146.43ZM80.667 156.793L80.4968 156.322L80.4968 156.322L80.667 156.793ZM82.4838 157.103L82.1671 157.49L82.1671 157.49L82.4838 157.103ZM86.5064 159.621L86.7114 159.165L86.7114 159.165L86.5064 159.621ZM87.5968 161.126L88.094 161.073L88.094 161.073L87.5968 161.126ZM99.3092 161.535L98.8169 161.448L98.8169 161.448L99.3092 161.535ZM100.502 160.11L100.675 160.579L100.675 160.579L100.502 160.11ZM104.696 157.875L104.409 157.466L104.408 157.466L104.696 157.875ZM106.524 157.696L106.727 157.238L106.727 157.238L106.524 157.696ZM112.78 147.737L113.104 147.356L113.104 147.356L112.78 147.737ZM99.396 161.046L98.9037 160.958L99.396 161.046ZM100.035 160.282L100.208 160.751L100.035 160.282ZM88.2143 166.948L88.7115 166.895L88.2143 166.948ZM89.1738 167.842L89.1912 167.342L89.1738 167.842ZM81.1295 156.625L81.2997 157.095L81.1295 156.625ZM82.1034 156.792L81.7866 157.179L82.1034 156.792ZM70.4315 149.879L70.7253 150.284L70.4315 149.879ZM70.1363 151.158L69.6949 151.393L70.1363 151.158ZM75.8898 138.585L75.5684 138.969L75.8898 138.585ZM76.2284 139.544L76.7191 139.64L76.2284 139.544ZM70.7974 133.19L70.3734 132.924L70.7974 133.19ZM71.0026 134.486L70.6813 134.869L71.0026 134.486ZM105.097 157.593L104.809 157.184L105.097 157.593ZM106.077 157.497L106.279 157.04L106.077 157.497ZM76.3469 125.933L76.1443 126.39L76.3469 125.933ZM75.0938 126.317L75.5178 126.582L75.0938 126.317ZM86.9599 159.825L86.7549 160.281L86.9599 159.825ZM87.5444 160.632L88.0416 160.579L87.5444 160.632ZM100.006 119.05L100.503 118.998L100.006 119.05ZM114.277 127.685L114.718 127.45L114.277 127.685ZM113.054 127.215L113.224 127.685L113.054 127.215ZM82.1433 128.501L82.3458 128.044L82.1433 128.501ZM73.9428 158.313L73.5014 158.548L73.9428 158.313ZM75.1661 158.784L75.3363 159.254L75.1661 158.784ZM107.09 129.373L107.261 129.844L107.09 129.373ZM106.117 129.207L106.433 128.82L106.117 129.207ZM89.9328 118.699L90.4251 118.786L89.9328 118.699ZM112.223 140.801L111.726 140.863L112.223 140.801ZM112.627 139.868L112.921 140.273L112.627 139.868ZM97.2676 168.125L97.2502 168.624L97.2676 168.125ZM98.2872 167.3L97.7948 167.213L98.2872 167.3ZM88.8239 124.953L88.3316 124.866L88.8239 124.953ZM88.1846 125.717L88.3573 126.186L88.1846 125.717ZM75.9974 145.198L75.5012 145.259L75.9974 145.198ZM75.5927 146.13L75.8865 146.535L75.5927 146.13ZM117.788 136.12L117.495 135.715L117.788 136.12ZM118.084 134.841L117.642 135.076L118.084 134.841ZM100.676 125.367L100.178 125.42L100.676 125.367ZM113.126 159.682L113.55 159.947L113.126 159.682ZM117.427 152.802L117.851 153.067L117.427 152.802ZM117.226 151.51L116.902 151.891L117.226 151.51ZM112.07 146.507L111.576 146.43L112.07 146.507ZM112.411 147.423L112.734 147.042L112.411 147.423ZM111.65 145.951L111.576 146.43L112.564 146.584L112.638 146.105L111.65 145.951ZM111.883 143.62C111.855 144.41 111.769 145.183 111.65 145.951L112.638 146.104C112.762 145.308 112.853 144.494 112.882 143.655L111.883 143.62ZM111.789 141.37C111.878 142.081 111.91 142.831 111.883 143.62L112.882 143.655C112.911 142.816 112.877 142.014 112.782 141.246L111.789 141.37ZM111.726 140.863L111.789 141.37L112.782 141.246L112.719 140.739L111.726 140.863ZM112.747 139.164L112.333 139.464L112.921 140.273L113.334 139.973L112.747 139.164ZM117.495 135.715L112.747 139.164L113.334 139.973L118.082 136.524L117.495 135.715ZM113.836 127.92L117.642 135.076L118.525 134.606L114.718 127.45L113.836 127.92ZM107.723 129.676L113.224 127.685L112.884 126.744L107.383 128.736L107.723 129.676ZM107.261 129.844L107.723 129.676L107.383 128.736L106.92 128.903L107.261 129.844ZM105.419 129.282L105.8 129.594L106.433 128.82L106.053 128.508L105.419 129.282ZM101.509 126.833C102.92 127.468 104.19 128.276 105.419 129.282L106.053 128.508C104.763 127.453 103.418 126.596 101.918 125.921L101.509 126.833ZM101.055 126.63L101.509 126.833L101.918 125.921L101.465 125.717L101.055 126.63ZM100.126 124.925L100.178 125.42L101.173 125.314L101.12 124.82L100.126 124.925ZM99.5085 119.103L100.126 124.925L101.12 124.82L100.503 118.998L99.5085 119.103ZM90.9349 118.373L99.0287 118.656L99.0636 117.657L90.9698 117.374L90.9349 118.373ZM89.403 124.551L90.4251 118.786L89.4405 118.611L88.4184 124.376L89.403 124.551ZM89.3162 125.04L89.403 124.551L88.4184 124.376L88.3316 124.866L89.3162 125.04ZM87.8907 126.358L88.3573 126.186L88.0119 125.248L87.5453 125.419L87.8907 126.358ZM83.8115 128.533C85.0846 127.638 86.4457 126.89 87.8907 126.358L87.5453 125.419C86.006 125.986 84.5686 126.779 83.2365 127.715L83.8115 128.533ZM83.4106 128.815L83.8114 128.533L83.2366 127.715L82.8358 127.996L83.4106 128.815ZM81.4929 128.76L81.9407 128.959L82.3458 128.044L81.898 127.846L81.4929 128.76ZM76.1443 126.39L81.4929 128.76L81.898 127.846L76.5495 125.476L76.1443 126.39ZM71.2213 133.455L75.5178 126.582L74.6698 126.052L70.3734 132.924L71.2213 133.455ZM75.8197 137.874L71.324 134.103L70.6813 134.869L75.177 138.64L75.8197 137.874ZM76.2111 138.202L75.8197 137.874L75.177 138.64L75.5684 138.969L76.2111 138.202ZM76.6208 140.142L76.7191 139.64L75.7378 139.448L75.6395 139.949L76.6208 140.142ZM76.3372 142.379C76.3618 141.676 76.4709 140.906 76.6208 140.142L75.6395 139.949C75.4838 140.743 75.3649 141.569 75.3378 142.344L76.3372 142.379ZM76.4305 144.629C76.3423 143.919 76.3107 143.137 76.3372 142.379L75.3378 142.344C75.3097 143.15 75.3429 143.986 75.4382 144.752L76.4305 144.629ZM76.4936 145.136L76.4305 144.629L75.4382 144.752L75.5012 145.259L76.4936 145.136ZM75.4732 146.835L75.8865 146.535L75.2989 145.726L74.8855 146.026L75.4732 146.835ZM70.7253 150.284L75.4732 146.835L74.8855 146.026L70.1376 149.474L70.7253 150.284ZM74.3843 158.079L70.5777 150.923L69.6949 151.393L73.5014 158.548L74.3843 158.079ZM80.4968 156.322L74.9959 158.314L75.3363 159.254L80.8372 157.263L80.4968 156.322ZM80.9593 156.155L80.4968 156.322L80.8372 157.263L81.2997 157.095L80.9593 156.155ZM82.8006 156.716L82.4201 156.405L81.7866 157.179L82.1671 157.49L82.8006 156.716ZM86.7114 159.165C85.2999 158.531 84.0294 157.722 82.8005 156.716L82.1671 157.49C83.4565 158.546 84.8013 159.403 86.3015 160.077L86.7114 159.165ZM87.1649 159.369L86.7114 159.165L86.3015 160.077L86.7549 160.281L87.1649 159.369ZM88.094 161.073L88.0416 160.579L87.0472 160.684L87.0996 161.179L88.094 161.073ZM88.7115 166.895L88.094 161.073L87.0996 161.179L87.7171 167.001L88.7115 166.895ZM97.2851 167.625L89.1912 167.342L89.1563 168.342L97.2502 168.624L97.2851 167.625ZM98.8169 161.448L97.7948 167.213L98.7795 167.387L99.8016 161.622L98.8169 161.448ZM98.9037 160.958L98.8169 161.448L99.8016 161.622L99.8884 161.133L98.9037 160.958ZM100.329 159.641L99.8627 159.812L100.208 160.751L100.675 160.579L100.329 159.641ZM104.408 157.466C103.135 158.36 101.774 159.109 100.329 159.641L100.675 160.579C102.214 160.013 103.651 159.22 104.983 158.284L104.408 157.466ZM104.809 157.184L104.409 157.466L104.983 158.284L105.384 158.002L104.809 157.184ZM106.727 157.238L106.279 157.04L105.874 157.954L106.322 158.153L106.727 157.238ZM112.076 159.609L106.727 157.238L106.322 158.153L111.67 160.523L112.076 159.609ZM117.003 152.537L112.702 159.417L113.55 159.947L117.851 153.067L117.003 152.537ZM112.457 148.118L116.902 151.891L117.549 151.129L113.104 147.356L112.457 148.118ZM112.087 147.804L112.457 148.118L113.104 147.356L112.734 147.042L112.087 147.804ZM101.496 143.257C101.352 147.397 97.8786 150.635 93.739 150.491L93.7041 151.49C98.3957 151.654 102.332 147.984 102.496 143.292L101.496 143.257ZM94.2625 135.5C98.4021 135.645 101.641 139.118 101.496 143.257L102.496 143.292C102.659 138.601 98.989 134.664 94.2974 134.501L94.2625 135.5ZM86.5053 142.734C86.6499 138.594 90.1229 135.355 94.2625 135.5L94.2974 134.501C89.6058 134.337 85.6698 138.007 85.5059 142.699L86.5053 142.734ZM93.739 150.491C89.5994 150.346 86.3608 146.873 86.5053 142.734L85.5059 142.699C85.3421 147.39 89.0126 151.326 93.7041 151.49L93.739 150.491ZM99.8884 161.133C99.9194 160.958 100.041 160.812 100.208 160.751L99.8627 159.812C99.362 159.997 98.9969 160.433 98.9037 160.958L99.8884 161.133ZM87.7171 167.001C87.7959 167.744 88.4096 168.316 89.1563 168.342L89.1912 167.342C88.9423 167.334 88.7378 167.143 88.7115 166.895L87.7171 167.001ZM81.2997 157.095C81.4653 157.035 81.6503 157.067 81.7866 157.179L82.4201 156.405C82.0112 156.07 81.4563 155.975 80.9593 156.155L81.2997 157.095ZM70.1376 149.474C69.5325 149.914 69.3436 150.732 69.6949 151.393L70.5777 150.923C70.4606 150.703 70.5236 150.43 70.7253 150.284L70.1376 149.474ZM75.5684 138.969C75.7079 139.086 75.7728 139.269 75.7378 139.448L76.7191 139.64C76.8242 139.104 76.6296 138.553 76.2111 138.202L75.5684 138.969ZM70.3734 132.924C69.9769 133.559 70.1082 134.388 70.6813 134.869L71.324 134.103C71.133 133.942 71.0892 133.666 71.2213 133.455L70.3734 132.924ZM105.384 158.002C105.528 157.901 105.714 157.883 105.874 157.954L106.279 157.04C105.798 156.827 105.24 156.881 104.809 157.184L105.384 158.002ZM76.5495 125.476C75.8668 125.173 75.0656 125.419 74.6698 126.052L75.5178 126.582C75.6497 126.371 75.9168 126.289 76.1443 126.39L76.5495 125.476ZM86.7549 160.281C86.9171 160.354 87.0284 160.508 87.0472 160.684L88.0416 160.579C87.9853 160.048 87.6515 159.588 87.1649 159.369L86.7549 160.281ZM100.503 118.998C100.424 118.255 99.8104 117.683 99.0636 117.657L99.0287 118.656C99.2776 118.665 99.4822 118.855 99.5085 119.103L100.503 118.998ZM114.718 127.45C114.368 126.791 113.586 126.49 112.884 126.744L113.224 127.685C113.458 127.6 113.719 127.7 113.836 127.92L114.718 127.45ZM82.8358 127.996C82.6922 128.097 82.5063 128.115 82.3458 128.044L81.9407 128.959C82.422 129.172 82.9798 129.117 83.4106 128.815L82.8358 127.996ZM73.5014 158.548C73.8521 159.207 74.6342 159.508 75.3363 159.254L74.9959 158.314C74.7619 158.399 74.5012 158.298 74.3843 158.079L73.5014 158.548ZM106.92 128.903C106.755 128.963 106.57 128.932 106.433 128.82L105.8 129.594C106.209 129.929 106.764 130.023 107.261 129.844L106.92 128.903ZM90.9698 117.374C90.223 117.348 89.5709 117.876 89.4405 118.611L90.4251 118.786C90.4686 118.541 90.686 118.365 90.9349 118.373L90.9698 117.374ZM112.719 140.739C112.696 140.559 112.774 140.38 112.921 140.273L112.333 139.464C111.891 139.785 111.659 140.321 111.726 140.863L112.719 140.739ZM97.2502 168.624C97.9969 168.651 98.649 168.123 98.7795 167.387L97.7948 167.213C97.7514 167.458 97.534 167.634 97.2851 167.625L97.2502 168.624ZM88.3316 124.866C88.3005 125.041 88.1788 125.186 88.0119 125.248L88.3573 126.186C88.858 126.002 89.2231 125.566 89.3162 125.04L88.3316 124.866ZM75.5012 145.259C75.5237 145.44 75.4462 145.619 75.2989 145.726L75.8865 146.535C76.3285 146.214 76.561 145.678 76.4936 145.136L75.5012 145.259ZM118.082 136.524C118.687 136.085 118.876 135.266 118.525 134.606L117.642 135.076C117.759 135.296 117.696 135.568 117.495 135.715L118.082 136.524ZM101.465 125.717C101.303 125.645 101.192 125.491 101.173 125.314L100.178 125.42C100.235 125.95 100.568 126.411 101.055 126.63L101.465 125.717ZM111.67 160.523C112.353 160.825 113.154 160.58 113.55 159.947L112.702 159.417C112.57 159.628 112.303 159.71 112.076 159.609L111.67 160.523ZM117.851 153.067C118.245 152.436 118.117 151.611 117.549 151.129L116.902 151.891C117.092 152.052 117.134 152.327 117.003 152.537L117.851 153.067ZM111.576 146.43C111.495 146.946 111.689 147.466 112.087 147.804L112.734 147.042C112.602 146.929 112.537 146.756 112.564 146.584L111.576 146.43Z" fill="#3E4144"/>
</g>
<defs>
<filter id="filter0_i_504_18031" x="12.9092" y="0" width="218.182" height="219.182" filterUnits="userSpaceOnUse" color-interpolation-filters="sRGB">
<feFlood flood-opacity="0" result="BackgroundImageFix"/>
<feBlend mode="normal" in="SourceGraphic" in2="BackgroundImageFix" result="shape"/>
<feColorMatrix in="SourceAlpha" type="matrix" values="0 0 0 0 0 0 0 0 0 0 0 0 0 0 0 0 0 0 127 0" result="hardAlpha"/>
<feOffset dy="1"/>
<feGaussianBlur stdDeviation="2"/>
<feComposite in2="hardAlpha" operator="arithmetic" k2="-1" k3="1"/>
<feColorMatrix type="matrix" values="0 0 0 0 0 0 0 0 0 0 0 0 0 0 0 0 0 0 0.12 0"/>
<feBlend mode="normal" in2="shape" result="effect1_innerShadow_504_18031"/>
</filter>
<filter id="filter1_d_504_18031" x="98.6846" y="147.976" width="62.4932" height="64.0488" filterUnits="userSpaceOnUse" color-interpolation-filters="sRGB">
<feFlood flood-opacity="0" result="BackgroundImageFix"/>
<feColorMatrix in="SourceAlpha" type="matrix" values="0 0 0 0 0 0 0 0 0 0 0 0 0 0 0 0 0 0 127 0" result="hardAlpha"/>
<feOffset dx="-1" dy="-1"/>
<feGaussianBlur stdDeviation="0.5"/>
<feComposite in2="hardAlpha" operator="out"/>
<feColorMatrix type="matrix" values="0 0 0 0 0 0 0 0 0 0 0 0 0 0 0 0 0 0 0.1 0"/>
<feBlend mode="normal" in2="BackgroundImageFix" result="effect1_dropShadow_504_18031"/>
<feBlend mode="normal" in="SourceGraphic" in2="effect1_dropShadow_504_18031" result="shape"/>
</filter>
<filter id="filter2_d_504_18031" x="67.5186" y="115.373" width="51.1826" height="53.252" filterUnits="userSpaceOnUse" color-interpolation-filters="sRGB">
<feFlood flood-opacity="0" result="BackgroundImageFix"/>
<feColorMatrix in="SourceAlpha" type="matrix" values="0 0 0 0 0 0 0 0 0 0 0 0 0 0 0 0 0 0 127 0" result="hardAlpha"/>
<feOffset dx="-1" dy="-1"/>
<feGaussianBlur stdDeviation="0.5"/>
<feComposite in2="hardAlpha" operator="out"/>
<feColorMatrix type="matrix" values="0 0 0 0 0 0 0 0 0 0 0 0 0 0 0 0 0 0 0.1 0"/>
<feBlend mode="normal" in2="BackgroundImageFix" result="effect1_dropShadow_504_18031"/>
<feBlend mode="normal" in="SourceGraphic" in2="effect1_dropShadow_504_18031" result="shape"/>
</filter>
<radialGradient id="paint0_radial_504_18031" cx="0" cy="0" r="1" gradientUnits="userSpaceOnUse" gradientTransform="translate(149.889 196.807) rotate(-136.941) scale(42.3893 156.038)">
<stop stop-color="#F0F3F6"/>
<stop offset="1" stop-color="#DDE2E7"/>
</radialGradient>
<linearGradient id="paint1_linear_504_18031" x1="84.6564" y1="127.66" x2="103.175" y2="159.104" gradientUnits="userSpaceOnUse">
<stop stop-color="#D8DEE3"/>
<stop offset="1" stop-color="#F0F3F6"/>
</linearGradient>
</defs>
</svg>
