<svg width="244" height="219" viewBox="0 0 244 219" fill="none" xmlns="http://www.w3.org/2000/svg">
<g filter="url(#filter0_i_504_18031)">
<path d="M122 218.182C182.249 218.182 231.091 169.34 231.091 109.091C231.091 48.8417 182.249 0 122 0C61.7509 0 12.9092 48.8417 12.9092 109.091C12.9092 169.34 61.7509 218.182 122 218.182Z" fill="black" fill-opacity="0.04"/>
</g>
<path d="M230.591 109.091C230.591 169.064 181.973 217.682 122 217.682C62.027 217.682 13.4092 169.064 13.4092 109.091C13.4092 49.1178 62.027 0.5 122 0.5C181.973 0.5 230.591 49.1178 230.591 109.091Z" stroke="#CED4DA"/>
<g filter="url(#filter1_d_504_18031)">
<path d="M235.056 27.2725H8.94444C5.10913 27.2725 2 30.3768 2 34.2062V183.975C2 187.805 5.10913 190.909 8.94444 190.909H235.056C238.891 190.909 242 187.805 242 183.975V34.2062C242 30.3768 238.891 27.2725 235.056 27.2725Z" fill="black"/>
</g>
<path d="M235.056 26.7725H8.94444C4.83372 26.7725 1.5 30.1 1.5 34.2062V183.975C1.5 188.082 4.83372 191.409 8.94444 191.409H235.056C239.166 191.409 242.5 188.082 242.5 183.975V34.2062C242.5 30.1 239.166 26.7725 235.056 26.7725Z" fill="white" stroke="#0C364C"/>
<path d="M235.874 165.259H8.80664V174.621H235.874V165.259Z" fill="white"/>
<path d="M235.874 174.454H8.80664V175.441H235.874V174.454Z" fill="#D2D2D2"/>
<path d="M235.874 175.608H8.80762V184.971H235.874V175.608Z" fill="white"/>
<path d="M235.874 155.896H8.80664V165.259H235.874V155.896Z" fill="white"/>
<path d="M235.874 165.092H8.80664V166.079H235.874V165.092Z" fill="#D2D2D2"/>
<path d="M235.874 146.534H8.80664V155.896H235.874V146.534Z" fill="white"/>
<path d="M235.874 155.729H8.80664V156.716H235.874V155.729Z" fill="#D2D2D2"/>
<path d="M235.874 137.172H8.80664V146.534H235.874V137.172Z" fill="white"/>
<path d="M235.874 146.367H8.80664V147.354H235.874V146.367Z" fill="#D2D2D2"/>
<path d="M235.874 127.809H8.80664V137.171H235.874V127.809Z" fill="white"/>
<path d="M235.874 137.004H8.80664V137.992H235.874V137.004Z" fill="#D2D2D2"/>
<path d="M235.874 118.447H8.80664V127.809H235.874V118.447Z" fill="white"/>
<path d="M235.874 127.642H8.80664V128.629H235.874V127.642Z" fill="#D2D2D2"/>
<path d="M235.874 109.084H8.80664V118.447H235.874V109.084Z" fill="white"/>
<path d="M235.874 118.28H8.80664V119.267H235.874V118.28Z" fill="#D2D2D2"/>
<path d="M235.874 99.7227H8.80664V109.085H235.874V99.7227Z" fill="white"/>
<path d="M235.874 108.917H8.80664V109.905H235.874V108.917Z" fill="#D2D2D2"/>
<path d="M235.874 90.3604H8.80664V99.7226H235.874V90.3604Z" fill="white"/>
<path d="M235.874 99.5557H8.80664V100.542H235.874V99.5557Z" fill="#D2D2D2"/>
<path d="M235.874 80.998H8.77344V90.3604H235.874V80.998Z" fill="white"/>
<path d="M235.874 90.1924H8.77344V91.1797H235.874V90.1924Z" fill="#D2D2D2"/>
<path d="M235.874 80.998H8.80664V90.3604H235.874V80.998Z" fill="white"/>
<path d="M235.874 90.1924H8.80664V91.1797H235.874V90.1924Z" fill="#D2D2D2"/>
<path d="M235.874 71.6357H8.80664V80.998H235.874V71.6357Z" fill="white"/>
<path d="M235.874 80.8311H8.80664V81.8183H235.874V80.8311Z" fill="#D2D2D2"/>
<path d="M235.874 62.2725H8.80664V71.6349H235.874V62.2725Z" fill="white"/>
<path d="M235.874 71.4688H8.80664V72.4559H235.874V71.4688Z" fill="#D2D2D2"/>
<path d="M33.787 65.1582H20.3558C19.9754 65.1582 19.667 65.4897 19.667 65.8986V67.3795C19.667 67.7884 19.9754 68.1199 20.3558 68.1199H33.787C34.1674 68.1199 34.4758 67.7884 34.4758 67.3795V65.8986C34.4758 65.4897 34.1674 65.1582 33.787 65.1582Z" fill="#EDEDED"/>
<path d="M89.0586 65.1582H61.8335C61.4455 65.1582 61.1309 65.4897 61.1309 65.8986V67.3795C61.1309 67.7884 61.4455 68.1199 61.8335 68.1199H89.0586C89.4466 68.1199 89.7611 67.7884 89.7611 67.3795V65.8986C89.7611 65.4897 89.4466 65.1582 89.0586 65.1582Z" fill="#EDEDED"/>
<path d="M121.627 65.1582H107.258C106.864 65.1582 106.544 65.4897 106.544 65.8986V67.3795C106.544 67.7884 106.864 68.1199 107.258 68.1199H121.627C122.021 68.1199 122.34 67.7884 122.34 67.3795V65.8986C122.34 65.4897 122.021 65.1582 121.627 65.1582Z" fill="#EDEDED"/>
<path fill-rule="evenodd" clip-rule="evenodd" d="M149.685 65.1582H178.02C178.348 65.1582 178.614 65.4437 178.614 65.7958V66.4334V67.3795C178.614 67.7884 178.305 68.1199 177.925 68.1199H149.685C149.304 68.1199 148.996 67.7884 148.996 67.3795V65.8986C148.996 65.4897 149.304 65.1582 149.685 65.1582Z" fill="#EDEDED"/>
<path d="M209.471 65.1582H195.144C194.739 65.1582 194.41 65.4897 194.41 65.8986V67.3795C194.41 67.7884 194.739 68.1199 195.144 68.1199H209.471C209.877 68.1199 210.206 67.7884 210.206 67.3795V65.8986C210.206 65.4897 209.877 65.1582 209.471 65.1582Z" fill="#EDEDED"/>
<path d="M235.612 52.3643H8.54492V61.7266H235.612V52.3643Z" fill="white"/>
<path d="M235.612 61.5586H8.54492V62.5459H235.612V61.5586Z" fill="#D2D2D2"/>
<path d="M33.5253 55.249H20.0941C19.7137 55.249 19.4053 55.5805 19.4053 55.9895V57.4703C19.4053 57.8793 19.7137 58.2108 20.0941 58.2108H33.5253C33.9057 58.2108 34.214 57.8793 34.214 57.4703V55.9895C34.214 55.5805 33.9057 55.249 33.5253 55.249Z" fill="#EDEDED"/>
<path d="M88.7967 55.249H61.5717C61.1837 55.249 60.8691 55.5805 60.8691 55.9895V57.4703C60.8691 57.8793 61.1837 58.2108 61.5717 58.2108H88.7967C89.1848 58.2108 89.4993 57.8793 89.4993 57.4703V55.9895C89.4993 55.5805 89.1848 55.249 88.7967 55.249Z" fill="#EDEDED"/>
<path d="M121.366 55.249H106.996C106.602 55.249 106.283 55.5805 106.283 55.9895V57.4703C106.283 57.8793 106.602 58.2108 106.996 58.2108H121.366C121.76 58.2108 122.079 57.8793 122.079 57.4703V55.9895C122.079 55.5805 121.76 55.249 121.366 55.249Z" fill="#EDEDED"/>
<path fill-rule="evenodd" clip-rule="evenodd" d="M149.423 55.249H177.759C178.087 55.249 178.352 55.5345 178.352 55.8866V56.5242V57.4703C178.352 57.8793 178.044 58.2108 177.663 58.2108H149.423C149.043 58.2108 148.735 57.8793 148.735 57.4703V55.9895C148.735 55.5805 149.043 55.249 149.423 55.249Z" fill="#EDEDED"/>
<path d="M209.209 55.249H194.883C194.477 55.249 194.148 55.5805 194.148 55.9895V57.4703C194.148 57.8793 194.477 58.2108 194.883 58.2108H209.209C209.615 58.2108 209.944 57.8793 209.944 57.4703V55.9895C209.944 55.5805 209.615 55.249 209.209 55.249Z" fill="#EDEDED"/>
<path d="M33.787 75.0312H20.3558C19.9754 75.0312 19.667 75.3628 19.667 75.7717V77.2525C19.667 77.6614 19.9754 77.993 20.3558 77.993H33.787C34.1674 77.993 34.4758 77.6614 34.4758 77.2525V75.7717C34.4758 75.3628 34.1674 75.0312 33.787 75.0312Z" fill="#EDEDED"/>
<path d="M88.0605 75.0312H61.8443C61.4503 75.0312 61.1309 75.3628 61.1309 75.7717V77.2525C61.1309 77.6614 61.4503 77.993 61.8443 77.993H88.0605C88.4545 77.993 88.7739 77.6614 88.7739 77.2525V75.7717C88.7739 75.3628 88.4545 75.0312 88.0605 75.0312Z" fill="#EDEDED"/>
<path d="M121.627 75.0312H107.258C106.864 75.0312 106.544 75.3628 106.544 75.7717V77.2525C106.544 77.6614 106.864 77.993 107.258 77.993H121.627C122.021 77.993 122.34 77.6614 122.34 77.2525V75.7717C122.34 75.3628 122.021 75.0312 121.627 75.0312Z" fill="#EDEDED"/>
<path d="M177.917 75.0312H149.693C149.308 75.0312 148.996 75.3628 148.996 75.7717V77.2525C148.996 77.6614 149.308 77.993 149.693 77.993H177.917C178.302 77.993 178.614 77.6614 178.614 77.2525V75.7717C178.614 75.3628 178.302 75.0312 177.917 75.0312Z" fill="#EDEDED"/>
<path d="M209.471 75.0312H195.144C194.739 75.0312 194.41 75.3628 194.41 75.7717V77.2525C194.41 77.6614 194.739 77.993 195.144 77.993H209.471C209.877 77.993 210.206 77.6614 210.206 77.2525V75.7717C210.206 75.3628 209.877 75.0312 209.471 75.0312Z" fill="#EDEDED"/>
<path d="M33.787 83.916H20.3558C19.9754 83.916 19.667 84.2475 19.667 84.6565V86.1373C19.667 86.5463 19.9754 86.8778 20.3558 86.8778H33.787C34.1674 86.8778 34.4758 86.5463 34.4758 86.1373V84.6565C34.4758 84.2475 34.1674 83.916 33.787 83.916Z" fill="#EDEDED"/>
<path d="M84.128 83.916H61.8278C61.443 83.916 61.1309 84.2475 61.1309 84.6565V86.1373C61.1309 86.5463 61.443 86.8778 61.8278 86.8778H84.128C84.5129 86.8778 84.8249 86.5463 84.8249 86.1373V84.6565C84.8249 84.2475 84.5129 83.916 84.128 83.916Z" fill="#EDEDED"/>
<path d="M121.627 83.916H107.258C106.864 83.916 106.544 84.2475 106.544 84.6565V86.1373C106.544 86.5463 106.864 86.8778 107.258 86.8778H121.627C122.021 86.8778 122.34 86.5463 122.34 86.1373V84.6565C122.34 84.2475 122.021 83.916 121.627 83.916Z" fill="#EDEDED"/>
<path d="M176.924 83.916H149.699C149.311 83.916 148.996 84.2475 148.996 84.6565V86.1373C148.996 86.5463 149.311 86.8778 149.699 86.8778H176.924C177.312 86.8778 177.626 86.5463 177.626 86.1373V84.6565C177.626 84.2475 177.312 83.916 176.924 83.916Z" fill="#EDEDED"/>
<path d="M209.471 83.916H195.144C194.739 83.916 194.41 84.2475 194.41 84.6565V86.1373C194.41 86.5463 194.739 86.8778 195.144 86.8778H209.471C209.877 86.8778 210.206 86.5463 210.206 86.1373V84.6565C210.206 84.2475 209.877 83.916 209.471 83.916Z" fill="#EDEDED"/>
<path d="M33.787 93.7881H20.3558C19.9754 93.7881 19.667 94.1196 19.667 94.5286V96.0094C19.667 96.4184 19.9754 96.7499 20.3558 96.7499H33.787C34.1674 96.7499 34.4758 96.4184 34.4758 96.0094V94.5286C34.4758 94.1196 34.1674 93.7881 33.787 93.7881Z" fill="#EDEDED"/>
<path d="M79.2117 93.7881H62.7952C62.4213 93.7881 62.1182 94.1196 62.1182 94.5286V96.0094C62.1182 96.4184 62.4213 96.7499 62.7952 96.7499H79.2117C79.5856 96.7499 79.8887 96.4184 79.8887 96.0094V94.5286C79.8887 94.1196 79.5856 93.7881 79.2117 93.7881Z" fill="#EDEDED"/>
<path d="M121.627 93.7881H107.258C106.864 93.7881 106.544 94.1196 106.544 94.5286V96.0094C106.544 96.4184 106.864 96.7499 107.258 96.7499H121.627C122.021 96.7499 122.34 96.4184 122.34 96.0094V94.5286C122.34 94.1196 122.021 93.7881 121.627 93.7881Z" fill="#EDEDED"/>
<path d="M173.952 93.7881H149.709C149.315 93.7881 148.996 94.1196 148.996 94.5286V96.0094C148.996 96.4184 149.315 96.7499 149.709 96.7499H173.952C174.345 96.7499 174.665 96.4184 174.665 96.0094V94.5286C174.665 94.1196 174.345 93.7881 173.952 93.7881Z" fill="#EDEDED"/>
<path d="M209.517 93.7881H196.085C195.705 93.7881 195.397 94.1196 195.397 94.5286V96.0094C195.397 96.4184 195.705 96.7499 196.085 96.7499H209.517C209.897 96.7499 210.205 96.4184 210.205 96.0094V94.5286C210.205 94.1196 209.897 93.7881 209.517 93.7881Z" fill="#EDEDED"/>
<path d="M33.787 102.674H20.3558C19.9754 102.674 19.667 103.005 19.667 103.414V104.895C19.667 105.304 19.9754 105.635 20.3558 105.635H33.787C34.1674 105.635 34.4758 105.304 34.4758 104.895V103.414C34.4758 103.005 34.1674 102.674 33.787 102.674Z" fill="#EDEDED"/>
<path d="M79.2117 102.674H62.7952C62.4213 102.674 62.1182 103.005 62.1182 103.414V104.895C62.1182 105.304 62.4213 105.635 62.7952 105.635H79.2117C79.5856 105.635 79.8887 105.304 79.8887 104.895V103.414C79.8887 103.005 79.5856 102.674 79.2117 102.674Z" fill="#EDEDED"/>
<path d="M121.627 102.674H107.258C106.864 102.674 106.544 103.005 106.544 103.414V104.895C106.544 105.304 106.864 105.635 107.258 105.635H121.627C122.021 105.635 122.34 105.304 122.34 104.895V103.414C122.34 103.005 122.021 102.674 121.627 102.674Z" fill="#EDEDED"/>
<path d="M175.939 102.674H149.696C149.309 102.674 148.996 103.005 148.996 103.414V104.895C148.996 105.304 149.309 105.635 149.696 105.635H175.939C176.326 105.635 176.639 105.304 176.639 104.895V103.414C176.639 103.005 176.326 102.674 175.939 102.674Z" fill="#EDEDED"/>
<path d="M209.517 102.674H196.085C195.705 102.674 195.397 103.005 195.397 103.414V104.895C195.397 105.304 195.705 105.635 196.085 105.635H209.517C209.897 105.635 210.205 105.304 210.205 104.895V103.414C210.205 103.005 209.897 102.674 209.517 102.674Z" fill="#EDEDED"/>
<path d="M33.787 112.546H20.3558C19.9754 112.546 19.667 112.878 19.667 113.287V114.767C19.667 115.176 19.9754 115.508 20.3558 115.508H33.787C34.1674 115.508 34.4758 115.176 34.4758 114.767V113.287C34.4758 112.878 34.1674 112.546 33.787 112.546Z" fill="#EDEDED"/>
<path d="M94.9961 112.546H62.8068C62.4265 112.546 62.1182 112.878 62.1182 113.287V114.767C62.1182 115.176 62.4265 115.508 62.8068 115.508H94.9961C95.3764 115.508 95.6846 115.176 95.6846 114.767V113.287C95.6846 112.878 95.3764 112.546 94.9961 112.546Z" fill="#EDEDED"/>
<path d="M123.465 112.546H107.394C106.925 112.546 106.544 112.905 106.544 113.349V114.705C106.544 115.149 106.925 115.508 107.394 115.508H123.465C123.934 115.508 124.315 115.149 124.315 114.705V113.349C124.315 112.905 123.934 112.546 123.465 112.546Z" fill="#EDEDED"/>
<path d="M172.972 112.546H149.701C149.312 112.546 148.996 112.878 148.996 113.287V114.767C148.996 115.176 149.312 115.508 149.701 115.508H172.972C173.362 115.508 173.677 115.176 173.677 114.767V113.287C173.677 112.878 173.362 112.546 172.972 112.546Z" fill="#EDEDED"/>
<path d="M209.517 112.546H196.085C195.705 112.546 195.397 112.878 195.397 113.287V114.767C195.397 115.176 195.705 115.508 196.085 115.508H209.517C209.897 115.508 210.205 115.176 210.205 114.767V113.287C210.205 112.878 209.897 112.546 209.517 112.546Z" fill="#EDEDED"/>
<path d="M33.787 121.431H20.3558C19.9754 121.431 19.667 121.763 19.667 122.172V123.653C19.667 124.062 19.9754 124.393 20.3558 124.393H33.787C34.1674 124.393 34.4758 124.062 34.4758 123.653V122.172C34.4758 121.763 34.1674 121.431 33.787 121.431Z" fill="#EDEDED"/>
<path d="M86.109 121.431H62.8086C62.4273 121.431 62.1182 121.763 62.1182 122.172V123.653C62.1182 124.062 62.4273 124.393 62.8086 124.393H86.109C86.4903 124.393 86.7994 124.062 86.7994 123.653V122.172C86.7994 121.763 86.4903 121.431 86.109 121.431Z" fill="#EDEDED"/>
<path d="M123.465 121.431H107.394C106.925 121.431 106.544 121.791 106.544 122.234V123.591C106.544 124.034 106.925 124.393 107.394 124.393H123.465C123.934 124.393 124.315 124.034 124.315 123.591V122.234C124.315 121.791 123.934 121.431 123.465 121.431Z" fill="#EDEDED"/>
<path d="M173.947 121.431H149.714C149.318 121.431 148.996 121.763 148.996 122.172V123.653C148.996 124.062 149.318 124.393 149.714 124.393H173.947C174.343 124.393 174.665 124.062 174.665 123.653V122.172C174.665 121.763 174.343 121.431 173.947 121.431Z" fill="#EDEDED"/>
<path d="M209.517 121.431H196.085C195.705 121.431 195.397 121.763 195.397 122.172V123.653C195.397 124.062 195.705 124.393 196.085 124.393H209.517C209.897 124.393 210.205 124.062 210.205 123.653V122.172C210.205 121.763 209.897 121.431 209.517 121.431Z" fill="#EDEDED"/>
<path d="M33.787 131.304H20.3558C19.9754 131.304 19.667 131.635 19.667 132.044V133.525C19.667 133.934 19.9754 134.266 20.3558 134.266H33.787C34.1674 134.266 34.4758 133.934 34.4758 133.525V132.044C34.4758 131.635 34.1674 131.304 33.787 131.304Z" fill="#EDEDED"/>
<path d="M90.0474 131.304H61.832C61.4448 131.304 61.1309 131.635 61.1309 132.044V133.525C61.1309 133.934 61.4448 134.266 61.832 134.266H90.0474C90.4345 134.266 90.7484 133.934 90.7484 133.525V132.044C90.7484 131.635 90.4345 131.304 90.0474 131.304Z" fill="#EDEDED"/>
<path d="M125.092 131H107.908C107.407 131 107 131.485 107 132.084V133.916C107 134.515 107.407 135 107.908 135H125.092C125.593 135 126 134.515 126 133.916V132.084C126 131.485 125.593 131 125.092 131Z" fill="#EDEDED"/>
<path d="M173.975 131.304H149.685C149.305 131.304 148.996 131.635 148.996 132.044V133.525C148.996 133.934 149.305 134.266 149.685 134.266H173.975C174.356 134.266 174.665 133.934 174.665 133.525V132.044C174.665 131.635 174.356 131.304 173.975 131.304Z" fill="#EDEDED"/>
<path d="M209.471 131.304H195.144C194.739 131.304 194.41 131.635 194.41 132.044V133.525C194.41 133.934 194.739 134.266 195.144 134.266H209.471C209.877 134.266 210.206 133.934 210.206 133.525V132.044C210.206 131.635 209.877 131.304 209.471 131.304Z" fill="#EDEDED"/>
<path d="M33.787 140.189H20.3558C19.9754 140.189 19.667 140.521 19.667 140.93V142.411C19.667 142.819 19.9754 143.151 20.3558 143.151H33.787C34.1674 143.151 34.4758 142.819 34.4758 142.411V140.93C34.4758 140.521 34.1674 140.189 33.787 140.189Z" fill="#EDEDED"/>
<path d="M79.1741 140.189H61.8455C61.4509 140.189 61.1309 140.521 61.1309 140.93V142.411C61.1309 142.819 61.4509 143.151 61.8455 143.151H79.1741C79.5687 143.151 79.8887 142.819 79.8887 142.411V140.93C79.8887 140.521 79.5687 140.189 79.1741 140.189Z" fill="#EDEDED"/>
<path d="M125.092 140H107.908C107.407 140 107 140.485 107 141.084V142.916C107 143.515 107.407 144 107.908 144H125.092C125.593 144 126 143.515 126 142.916V141.084C126 140.485 125.593 140 125.092 140Z" fill="#EDEDED"/>
<path d="M181.856 140.189H149.703C149.312 140.189 148.996 140.521 148.996 140.93V142.411C148.996 142.819 149.312 143.151 149.703 143.151H181.856C182.246 143.151 182.563 142.819 182.563 142.411V140.93C182.563 140.521 182.246 140.189 181.856 140.189Z" fill="#EDEDED"/>
<path d="M209.471 140.189H195.144C194.739 140.189 194.41 140.521 194.41 140.93V142.411C194.41 142.819 194.739 143.151 195.144 143.151H209.471C209.877 143.151 210.206 142.819 210.206 142.411V140.93C210.206 140.521 209.877 140.189 209.471 140.189Z" fill="#EDEDED"/>
<path d="M33.787 150.062H20.3558C19.9754 150.062 19.667 150.393 19.667 150.802V152.283C19.667 152.692 19.9754 153.023 20.3558 153.023H33.787C34.1674 153.023 34.4758 152.692 34.4758 152.283V150.802C34.4758 150.393 34.1674 150.062 33.787 150.062Z" fill="#EDEDED"/>
<path d="M90.039 150.062H61.8403C61.4486 150.062 61.1309 150.393 61.1309 150.802V152.283C61.1309 152.692 61.4486 153.023 61.8403 153.023H90.039C90.4308 153.023 90.7484 152.692 90.7484 152.283V150.802C90.7484 150.393 90.4308 150.062 90.039 150.062Z" fill="#EDEDED"/>
<path d="M125.092 150H107.908C107.407 150 107 150.485 107 151.084V152.916C107 153.515 107.407 154 107.908 154H125.092C125.593 154 126 153.515 126 152.916V151.084C126 150.485 125.593 150 125.092 150Z" fill="#EDEDED"/>
<path d="M172.977 150.062H149.696C149.31 150.062 148.996 150.393 148.996 150.802V152.283C148.996 152.692 149.31 153.023 149.696 153.023H172.977C173.364 153.023 173.677 152.692 173.677 152.283V150.802C173.677 150.393 173.364 150.062 172.977 150.062Z" fill="#EDEDED"/>
<path d="M209.471 150.062H195.144C194.739 150.062 194.41 150.393 194.41 150.802V152.283C194.41 152.692 194.739 153.023 195.144 153.023H209.471C209.877 153.023 210.206 152.692 210.206 152.283V150.802C210.206 150.393 209.877 150.062 209.471 150.062Z" fill="#EDEDED"/>
<path d="M33.787 158.947H20.3558C19.9754 158.947 19.667 159.278 19.667 159.687V161.168C19.667 161.577 19.9754 161.909 20.3558 161.909H33.787C34.1674 161.909 34.4758 161.577 34.4758 161.168V159.687C34.4758 159.278 34.1674 158.947 33.787 158.947Z" fill="#EDEDED"/>
<path d="M89.0586 158.947H61.8335C61.4455 158.947 61.1309 159.278 61.1309 159.687V161.168C61.1309 161.577 61.4455 161.909 61.8335 161.909H89.0586C89.4466 161.909 89.7611 161.577 89.7611 161.168V159.687C89.7611 159.278 89.4466 158.947 89.0586 158.947Z" fill="#EDEDED"/>
<path d="M125.092 159H107.908C107.407 159 107 159.485 107 160.084V161.916C107 162.515 107.407 163 107.908 163H125.092C125.593 163 126 162.515 126 161.916V160.084C126 159.485 125.593 159 125.092 159Z" fill="#EDEDED"/>
<path d="M172.977 158.947H149.696C149.31 158.947 148.996 159.278 148.996 159.687V161.168C148.996 161.577 149.31 161.909 149.696 161.909H172.977C173.364 161.909 173.677 161.577 173.677 161.168V159.687C173.677 159.278 173.364 158.947 172.977 158.947Z" fill="#EDEDED"/>
<path d="M209.471 158.947H195.144C194.739 158.947 194.41 159.278 194.41 159.687V161.168C194.41 161.577 194.739 161.909 195.144 161.909H209.471C209.877 161.909 210.206 161.577 210.206 161.168V159.687C210.206 159.278 209.877 158.947 209.471 158.947Z" fill="#EDEDED"/>
<path d="M33.787 168.819H20.3558C19.9754 168.819 19.667 169.04 19.667 169.313V170.3C19.667 170.573 19.9754 170.794 20.3558 170.794H33.787C34.1674 170.794 34.4758 170.573 34.4758 170.3V169.313C34.4758 169.04 34.1674 168.819 33.787 168.819Z" fill="#EDEDED"/>
<path d="M93.9944 168.819H61.8339C61.4457 168.819 61.1309 169.04 61.1309 169.313V170.3C61.1309 170.573 61.4457 170.794 61.8339 170.794H93.9944C94.3827 170.794 94.6974 170.573 94.6974 170.3V169.313C94.6974 169.04 94.3827 168.819 93.9944 168.819Z" fill="#EDEDED"/>
<path d="M125.243 169H107.757C107.339 169 107 169.404 107 169.903V172.097C107 172.596 107.339 173 107.757 173H125.243C125.661 173 126 172.596 126 172.097V169.903C126 169.404 125.661 169 125.243 169Z" fill="#EDEDED"/>
<path d="M173.961 168.819H149.699C149.311 168.819 148.996 169.04 148.996 169.313V170.3C148.996 170.573 149.311 170.794 149.699 170.794H173.961C174.35 170.794 174.665 170.573 174.665 170.3V169.313C174.665 169.04 174.35 168.819 173.961 168.819Z" fill="#EDEDED"/>
<path d="M209.471 168.819H195.144C194.739 168.819 194.41 169.04 194.41 169.313V170.3C194.41 170.573 194.739 170.794 195.144 170.794H209.471C209.877 170.794 210.206 170.573 210.206 170.3V169.313C210.206 169.04 209.877 168.819 209.471 168.819Z" fill="#EDEDED"/>
<path d="M33.787 177.705H20.3558C19.9754 177.705 19.667 178.036 19.667 178.445V179.926C19.667 180.335 19.9754 180.666 20.3558 180.666H33.787C34.1674 180.666 34.4758 180.335 34.4758 179.926V178.445C34.4758 178.036 34.1674 177.705 33.787 177.705Z" fill="#EDEDED"/>
<path d="M86.1057 177.705H61.8247C61.4415 177.705 61.1309 178.036 61.1309 178.445V179.926C61.1309 180.335 61.4415 180.666 61.8247 180.666H86.1057C86.4888 180.666 86.7994 180.335 86.7994 179.926V178.445C86.7994 178.036 86.4888 177.705 86.1057 177.705Z" fill="#EDEDED"/>
<path d="M123.232 178H107.768C107.344 178 107 178.448 107 179V181C107 181.552 107.344 182 107.768 182H123.232C123.656 182 124 181.552 124 181V179C124 178.448 123.656 178 123.232 178Z" fill="#EDEDED"/>
<path d="M173.956 177.705H149.704C149.313 177.705 148.996 178.036 148.996 178.445V179.926C148.996 180.335 149.313 180.666 149.704 180.666H173.956C174.348 180.666 174.665 180.335 174.665 179.926V178.445C174.665 178.036 174.348 177.705 173.956 177.705Z" fill="#EDEDED"/>
<path d="M209.471 177.705H195.144C194.739 177.705 194.41 178.036 194.41 178.445V179.926C194.41 180.335 194.739 180.666 195.144 180.666H209.471C209.877 180.666 210.206 180.335 210.206 179.926V178.445C210.206 178.036 209.877 177.705 209.471 177.705Z" fill="#EDEDED"/>
<path d="M39.682 36H11.2275C10.9514 36 10.7275 36.2239 10.7275 36.5V43.1364C10.7275 43.4125 10.9514 43.6364 11.2275 43.6364H39.682C39.9582 43.6364 40.182 43.4125 40.182 43.1364V36.5C40.182 36.2239 39.9582 36 39.682 36Z" fill="black" fill-opacity="0.075"/>
<path d="M39.682 36.25H11.2275C11.0895 36.25 10.9775 36.3619 10.9775 36.5V43.1364C10.9775 43.2744 11.0895 43.3864 11.2275 43.3864H39.682C39.8201 43.3864 39.932 43.2744 39.932 43.1364V36.5C39.932 36.3619 39.8201 36.25 39.682 36.25Z" stroke="black" stroke-opacity="0.075" stroke-width="0.5"/>
<path d="M84.4089 36H41.7725C41.4963 36 41.2725 36.2239 41.2725 36.5V43.1364C41.2725 43.4125 41.4963 43.6364 41.7725 43.6364H84.4089C84.685 43.6364 84.9089 43.4125 84.9089 43.1364V36.5C84.9089 36.2239 84.685 36 84.4089 36Z" fill="black" fill-opacity="0.075"/>
<path d="M84.4089 36.25H41.7725C41.6344 36.25 41.5225 36.3619 41.5225 36.5V43.1364C41.5225 43.2744 41.6344 43.3864 41.7725 43.3864H84.4089C84.5469 43.3864 84.6589 43.2744 84.6589 43.1364V36.5C84.6589 36.3619 84.5469 36.25 84.4089 36.25Z" stroke="black" stroke-opacity="0.075" stroke-width="0.5"/>
<path d="M110.591 36H86.5C86.2239 36 86 36.2239 86 36.5V43.1364C86 43.4125 86.2239 43.6364 86.5 43.6364H110.591C110.867 43.6364 111.091 43.4125 111.091 43.1364V36.5C111.091 36.2239 110.867 36 110.591 36Z" fill="#1594BC" fill-opacity="0.2"/>
<path d="M110.591 36.25H86.5C86.3619 36.25 86.25 36.3619 86.25 36.5V43.1364C86.25 43.2744 86.3619 43.3864 86.5 43.3864H110.591C110.729 43.3864 110.841 43.2744 110.841 43.1364V36.5C110.841 36.3619 110.729 36.25 110.591 36.25Z" stroke="black" stroke-opacity="0.075" stroke-width="0.5"/>
<path d="M136.773 36H112.682C112.405 36 112.182 36.2239 112.182 36.5V43.1364C112.182 43.4125 112.405 43.6364 112.682 43.6364H136.773C137.049 43.6364 137.273 43.4125 137.273 43.1364V36.5C137.273 36.2239 137.049 36 136.773 36Z" fill="#DB9B2B" fill-opacity="0.2"/>
<path d="M136.773 36.25H112.682C112.544 36.25 112.432 36.3619 112.432 36.5V43.1364C112.432 43.2744 112.544 43.3864 112.682 43.3864H136.773C136.911 43.3864 137.023 43.2744 137.023 43.1364V36.5C137.023 36.3619 136.911 36.25 136.773 36.25Z" stroke="black" stroke-opacity="0.075" stroke-width="0.5"/>
<path d="M201.137 36H138.864C138.588 36 138.364 36.2239 138.364 36.5V43.1364C138.364 43.4125 138.588 43.6364 138.864 43.6364H201.137C201.413 43.6364 201.637 43.4125 201.637 43.1364V36.5C201.637 36.2239 201.413 36 201.137 36Z" fill="#429B81" fill-opacity="0.2"/>
<path d="M201.137 36.25H138.864C138.726 36.25 138.614 36.3619 138.614 36.5V43.1364C138.614 43.2744 138.726 43.3864 138.864 43.3864H201.137C201.275 43.3864 201.387 43.2744 201.387 43.1364V36.5C201.387 36.3619 201.275 36.25 201.137 36.25Z" stroke="black" stroke-opacity="0.075" stroke-width="0.5"/>
<path d="M233.863 36H203.227C202.95 36 202.727 36.2239 202.727 36.5V43.1364C202.727 43.4125 202.95 43.6364 203.227 43.6364H233.863C234.139 43.6364 234.363 43.4125 234.363 43.1364V36.5C234.363 36.2239 234.139 36 233.863 36Z" fill="#117899" fill-opacity="0.2"/>
<path d="M233.863 36.25H203.227C203.088 36.25 202.977 36.3619 202.977 36.5V43.1364C202.977 43.2744 203.088 43.3864 203.227 43.3864H233.863C234.001 43.3864 234.113 43.2744 234.113 43.1364V36.5C234.113 36.3619 234.001 36.25 233.863 36.25Z" stroke="black" stroke-opacity="0.075" stroke-width="0.5"/>
<path d="M235.454 33.8184H8.54492V34.9093H235.454V33.8184Z" fill="#D2D2D2"/>
<path d="M235.454 44.7275H8.54492V45.8184H235.454V44.7275Z" fill="#D2D2D2"/>
<path d="M235.454 184.364H8.54492V185.455H235.454V184.364Z" fill="#D2D2D2"/>
<path d="M9.63583 33.8184H8.54492V185.455H9.63583V33.8184Z" fill="#D2D2D2"/>
<path d="M236.545 33.8184H235.455V185.455H236.545V33.8184Z" fill="#D2D2D2"/>
<path opacity="0.800525" d="M119.841 130.833C114.149 130.919 109.024 132.703 104.467 136.185C99.9095 139.667 96.7029 144.248 94.8467 149.928" stroke="white" stroke-width="4.5" stroke-linecap="round" stroke-linejoin="round"/>
<g filter="url(#filter2_d_504_18031)">
<path fill-rule="evenodd" clip-rule="evenodd" d="M153.402 181.966C153.099 181.796 152.906 181.48 152.893 181.132L152.867 180.439C152.831 179.49 152.753 178.534 152.6 177.568C152.447 176.603 152.23 175.697 151.953 174.847L151.726 174.152C151.612 173.805 151.696 173.425 151.945 173.159L152.444 172.624L157.365 167.348C157.705 166.983 157.725 166.424 157.411 166.036L151.07 158.209C150.757 157.822 150.207 157.725 149.779 157.98L143.607 161.675L143.003 162.036C142.7 162.217 142.325 162.226 142.015 162.058L141.395 161.725C139.676 160.799 137.945 160.117 136.081 159.68L135.388 159.517C135.042 159.436 134.765 159.177 134.66 158.837L134.452 158.157L132.34 151.274C132.194 150.798 131.72 150.501 131.228 150.579L121.286 152.154C120.794 152.232 120.434 152.66 120.442 153.158L120.561 160.357L120.573 161.068C120.579 161.424 120.395 161.756 120.091 161.94L119.483 162.309C117.851 163.297 116.379 164.525 115.054 165.902L114.568 166.407C114.325 166.66 113.966 166.766 113.624 166.688L112.941 166.532L105.929 164.925C105.444 164.814 104.951 165.077 104.772 165.542L101.16 174.945C100.981 175.411 101.173 175.937 101.609 176.179L107.92 179.676L108.56 180.03C108.878 180.207 109.076 180.543 109.075 180.907L109.074 181.638C109.073 182.591 109.121 183.557 109.26 184.433C109.407 185.361 109.63 186.306 109.907 187.155L110.134 187.85C110.247 188.196 110.163 188.576 109.915 188.842L109.416 189.377L104.494 194.653C104.154 195.018 104.135 195.577 104.449 195.965L110.79 203.792C111.103 204.179 111.653 204.277 112.08 204.021L118.253 200.326L118.857 199.965C119.159 199.784 119.534 199.776 119.845 199.943L120.464 200.276C122.183 201.202 123.915 201.884 125.779 202.321L126.472 202.484C126.818 202.565 127.095 202.824 127.2 203.164L127.408 203.844L129.52 210.727C129.666 211.203 130.14 211.5 130.632 211.422L140.574 209.847C141.066 209.769 141.426 209.341 141.417 208.843L141.299 201.644L141.287 200.933C141.281 200.577 141.464 200.245 141.769 200.061L142.377 199.692C144.009 198.704 145.481 197.475 146.806 196.099L147.292 195.594C147.535 195.341 147.893 195.235 148.235 195.313L148.918 195.469L155.931 197.076C156.416 197.187 156.909 196.924 157.088 196.459L160.702 187.048C160.88 186.584 160.692 186.061 160.259 185.817L154.008 182.306L153.402 181.966ZM132.562 190.867C138.017 190.003 141.739 184.88 140.875 179.425C140.011 173.971 134.888 170.249 129.434 171.113C123.979 171.977 120.257 177.099 121.121 182.554C121.985 188.009 127.107 191.731 132.562 190.867Z" fill="url(#paint0_radial_504_18031)"/>
<path d="M152.867 180.439L153.491 180.415L153.491 180.415L152.867 180.439ZM151.953 174.847L152.547 174.652L152.547 174.652L151.953 174.847ZM152.444 172.624L152.901 173.051L152.901 173.051L152.444 172.624ZM143.607 161.675L143.286 161.138L143.286 161.138L143.607 161.675ZM141.395 161.725L141.692 161.174L141.692 161.174L141.395 161.725ZM136.081 159.68L135.938 160.288L136.081 159.68ZM134.452 158.157L133.854 158.34L133.854 158.34L134.452 158.157ZM120.561 160.357L121.186 160.346L121.186 160.346L120.561 160.357ZM119.483 162.309L119.806 162.843L119.806 162.843L119.483 162.309ZM115.054 165.902L115.504 166.335L115.504 166.335L115.054 165.902ZM112.941 166.532L112.802 167.141L112.802 167.141L112.941 166.532ZM107.92 179.676L107.618 180.223L107.618 180.223L107.92 179.676ZM109.074 181.638L108.449 181.637L109.074 181.638ZM109.907 187.155L109.313 187.349L109.313 187.349L109.907 187.155ZM109.416 189.377L108.959 188.95L108.959 188.95L109.416 189.377ZM118.253 200.326L117.932 199.79L117.932 199.79L118.253 200.326ZM120.464 200.276L120.168 200.827L120.168 200.827L120.464 200.276ZM125.779 202.321L125.922 201.713L125.922 201.713L125.779 202.321ZM127.408 203.844L128.006 203.661L128.006 203.661L127.408 203.844ZM141.299 201.644L140.674 201.655L140.674 201.655L141.299 201.644ZM142.377 199.692L142.701 200.227L142.701 200.227L142.377 199.692ZM146.806 196.099L146.355 195.666L146.355 195.666L146.806 196.099ZM148.918 195.469L149.058 194.86L149.058 194.86L148.918 195.469ZM154.008 182.306L154.314 181.761L154.314 181.761L154.008 182.306ZM141.287 200.933L141.912 200.923L141.287 200.933ZM141.769 200.061L142.092 200.596L141.769 200.061ZM129.52 210.727L130.117 210.544L129.52 210.727ZM118.857 199.965L118.536 199.429L118.857 199.965ZM119.845 199.943L120.141 199.392L119.845 199.943ZM104.494 194.653L104.037 194.227L104.494 194.653ZM104.449 195.965L103.963 196.358L104.449 195.965ZM108.56 180.03L108.863 179.484L108.56 180.03ZM101.609 176.179L101.306 176.725L101.609 176.179ZM147.292 195.594L147.742 196.028L147.292 195.594ZM148.235 195.313L148.375 194.704L148.235 195.313ZM105.929 164.925L106.068 164.316L105.929 164.925ZM104.772 165.542L104.189 165.318L104.772 165.542ZM126.472 202.484L126.329 203.092L126.472 202.484ZM127.2 203.164L127.797 202.981L127.2 203.164ZM132.34 151.274L131.743 151.457L132.34 151.274ZM151.07 158.209L150.584 158.602L151.07 158.209ZM149.779 157.98L149.459 157.444L149.779 157.98ZM114.568 166.407L114.118 165.973L114.568 166.407ZM113.624 166.688L113.485 167.297L113.624 166.688ZM110.79 203.792L111.275 203.399L110.79 203.792ZM112.08 204.021L111.759 203.485L112.08 204.021ZM143.003 162.036L142.682 161.5L143.003 162.036ZM142.015 162.058L142.311 161.508L142.015 162.058ZM120.442 153.158L121.067 153.148L120.442 153.158ZM151.726 174.152L151.131 174.346L151.726 174.152ZM151.945 173.159L151.488 172.733L151.945 173.159ZM141.417 208.843L142.042 208.832L141.417 208.843ZM120.573 161.068L119.948 161.078L120.573 161.068ZM120.091 161.94L120.415 162.475L120.091 161.94ZM110.134 187.85L110.728 187.655L110.134 187.85ZM109.915 188.842L109.458 188.416L109.915 188.842ZM157.365 167.348L156.908 166.921L157.365 167.348ZM157.411 166.036L157.897 165.643L157.411 166.036ZM135.388 159.517L135.245 160.126L135.388 159.517ZM134.66 158.837L134.063 159.02L134.66 158.837ZM155.931 197.076L156.07 196.466L155.931 197.076ZM157.088 196.459L156.504 196.235L157.088 196.459ZM160.702 187.048L160.119 186.824L160.702 187.048ZM160.259 185.817L159.953 186.362L160.259 185.817ZM152.893 181.132L153.517 181.108L152.893 181.132ZM153.402 181.966L153.096 182.511L153.402 181.966ZM152.242 180.462L152.268 181.155L153.517 181.108L153.491 180.415L152.242 180.462ZM151.983 177.666C152.131 178.602 152.207 179.532 152.242 180.462L153.491 180.415C153.455 179.448 153.375 178.467 153.217 177.471L151.983 177.666ZM151.359 175.041C151.625 175.857 151.835 176.731 151.983 177.666L153.217 177.471C153.06 176.475 152.835 175.536 152.547 174.652L151.359 175.041ZM151.131 174.346L151.359 175.041L152.547 174.652L152.32 173.957L151.131 174.346ZM151.986 172.198L151.488 172.733L152.402 173.585L152.901 173.051L151.986 172.198ZM156.908 166.921L151.986 172.198L152.901 173.051L157.822 167.774L156.908 166.921ZM150.584 158.602L156.925 166.43L157.897 165.643L151.556 157.815L150.584 158.602ZM143.928 162.211L150.1 158.516L149.459 157.444L143.286 161.138L143.928 162.211ZM143.324 162.572L143.928 162.211L143.286 161.138L142.682 161.5L143.324 162.572ZM141.099 162.275L141.719 162.609L142.311 161.508L141.692 161.174L141.099 162.275ZM135.938 160.288C137.743 160.712 139.423 161.372 141.099 162.275L141.692 161.174C139.929 160.225 138.147 159.523 136.223 159.071L135.938 160.288ZM135.245 160.126L135.938 160.288L136.223 159.071L135.531 158.909L135.245 160.126ZM133.854 158.34L134.063 159.02L135.258 158.654L135.049 157.973L133.854 158.34ZM131.743 151.457L133.854 158.34L135.049 157.973L132.938 151.091L131.743 151.457ZM121.384 152.771L131.325 151.197L131.13 149.962L121.188 151.537L121.384 152.771ZM121.186 160.346L121.067 153.148L119.817 153.169L119.936 160.367L121.186 160.346ZM121.198 161.058L121.186 160.346L119.936 160.367L119.948 161.078L121.198 161.058ZM119.806 162.843L120.415 162.475L119.767 161.405L119.159 161.774L119.806 162.843ZM115.504 166.335C116.798 164.991 118.228 163.799 119.806 162.843L119.159 161.774C117.473 162.795 115.96 164.06 114.604 165.468L115.504 166.335ZM115.018 166.84L115.504 166.335L114.604 165.468L114.118 165.973L115.018 166.84ZM112.802 167.141L113.485 167.297L113.764 166.079L113.081 165.922L112.802 167.141ZM105.789 165.535L112.802 167.141L113.081 165.922L106.068 164.316L105.789 165.535ZM101.744 175.169L105.356 165.766L104.189 165.318L100.577 174.721L101.744 175.169ZM108.223 179.129L101.912 175.632L101.306 176.725L107.618 180.223L108.223 179.129ZM108.863 179.484L108.223 179.129L107.618 180.223L108.257 180.577L108.863 179.484ZM109.699 181.639L109.7 180.908L108.45 180.906L108.449 181.637L109.699 181.639ZM109.877 184.335C109.745 183.503 109.698 182.573 109.699 181.639L108.449 181.637C108.448 182.609 108.497 183.61 108.642 184.531L109.877 184.335ZM110.501 186.96C110.235 186.146 110.019 185.233 109.877 184.335L108.642 184.531C108.794 185.488 109.025 186.466 109.313 187.349L110.501 186.96ZM110.728 187.655L110.501 186.96L109.313 187.349L109.54 188.044L110.728 187.655ZM109.873 189.803L110.372 189.268L109.458 188.416L108.959 188.95L109.873 189.803ZM104.951 195.08L109.873 189.803L108.959 188.95L104.037 194.227L104.951 195.08ZM111.275 203.399L104.934 195.571L103.963 196.358L110.304 204.186L111.275 203.399ZM117.932 199.79L111.759 203.485L112.401 204.557L118.574 200.863L117.932 199.79ZM118.536 199.429L117.932 199.79L118.574 200.863L119.178 200.501L118.536 199.429ZM120.761 199.726L120.141 199.392L119.548 200.493L120.168 200.827L120.761 199.726ZM125.922 201.713C124.116 201.289 122.437 200.629 120.761 199.726L120.168 200.827C121.93 201.776 123.713 202.479 125.636 202.93L125.922 201.713ZM126.615 201.875L125.922 201.713L125.636 202.93L126.329 203.092L126.615 201.875ZM128.006 203.661L127.797 202.981L126.602 203.347L126.811 204.028L128.006 203.661ZM130.117 210.544L128.006 203.661L126.811 204.028L128.922 210.911L130.117 210.544ZM140.476 209.23L130.534 210.804L130.73 212.039L140.672 210.464L140.476 209.23ZM140.674 201.655L140.793 208.853L142.042 208.832L141.923 201.634L140.674 201.655ZM140.662 200.943L140.674 201.655L141.923 201.634L141.912 200.923L140.662 200.943ZM142.053 199.158L141.445 199.527L142.092 200.596L142.701 200.227L142.053 199.158ZM146.355 195.666C145.062 197.01 143.632 198.202 142.053 199.158L142.701 200.227C144.387 199.206 145.9 197.941 147.256 196.533L146.355 195.666ZM146.841 195.161L146.355 195.666L147.256 196.533L147.742 196.028L146.841 195.161ZM149.058 194.86L148.375 194.704L148.096 195.922L148.779 196.079L149.058 194.86ZM156.07 196.466L149.058 194.86L148.779 196.079L155.791 197.685L156.07 196.466ZM160.119 186.824L156.504 196.235L157.671 196.684L161.286 187.272L160.119 186.824ZM153.702 182.851L159.953 186.362L160.565 185.273L154.314 181.761L153.702 182.851ZM153.096 182.511L153.702 182.851L154.314 181.761L153.708 181.421L153.096 182.511ZM140.257 179.523C141.067 184.637 137.578 189.439 132.464 190.249L132.66 191.484C138.456 190.566 142.41 185.123 141.492 179.328L140.257 179.523ZM129.531 171.73C134.645 170.92 139.447 174.409 140.257 179.523L141.492 179.328C140.574 173.532 135.132 169.578 129.336 170.496L129.531 171.73ZM121.738 182.456C120.928 177.342 124.417 172.54 129.531 171.73L129.336 170.496C123.54 171.414 119.586 176.856 120.504 182.652L121.738 182.456ZM132.464 190.249C127.351 191.059 122.548 187.57 121.738 182.456L120.504 182.652C121.422 188.448 126.864 192.402 132.66 191.484L132.464 190.249ZM141.912 200.923C141.91 200.789 141.978 200.665 142.092 200.596L141.445 199.527C140.95 199.826 140.652 200.365 140.662 200.943L141.912 200.923ZM128.922 210.911C129.159 211.684 129.93 212.166 130.73 212.039L130.534 210.804C130.35 210.834 130.172 210.723 130.117 210.544L128.922 210.911ZM119.178 200.501C119.291 200.433 119.432 200.43 119.548 200.493L120.141 199.392C119.637 199.121 119.027 199.135 118.536 199.429L119.178 200.501ZM104.037 194.227C103.485 194.82 103.453 195.729 103.963 196.358L104.934 195.571C104.817 195.426 104.824 195.216 104.951 195.08L104.037 194.227ZM108.257 180.577C108.376 180.643 108.451 180.769 108.45 180.906L109.7 180.908C109.701 180.316 109.38 179.77 108.863 179.484L108.257 180.577ZM100.577 174.721C100.286 175.478 100.597 176.333 101.306 176.725L101.912 175.632C101.748 175.541 101.677 175.344 101.744 175.169L100.577 174.721ZM147.742 196.028C147.833 195.933 147.967 195.893 148.096 195.922L148.375 194.704C147.819 194.577 147.237 194.75 146.841 195.161L147.742 196.028ZM106.068 164.316C105.28 164.136 104.479 164.562 104.189 165.318L105.356 165.766C105.423 165.592 105.607 165.493 105.789 165.535L106.068 164.316ZM126.329 203.092C126.459 203.123 126.563 203.22 126.602 203.347L127.797 202.981C127.628 202.428 127.177 202.007 126.615 201.875L126.329 203.092ZM132.938 151.091C132.7 150.317 131.929 149.835 131.13 149.962L131.325 151.197C131.51 151.167 131.688 151.279 131.743 151.457L132.938 151.091ZM151.556 157.815C151.047 157.187 150.153 157.029 149.459 157.444L150.1 158.516C150.261 158.421 150.467 158.457 150.584 158.602L151.556 157.815ZM114.118 165.973C114.026 166.068 113.892 166.108 113.764 166.079L113.485 167.297C114.041 167.425 114.623 167.251 115.018 166.84L114.118 165.973ZM110.304 204.186C110.813 204.814 111.707 204.973 112.401 204.557L111.759 203.485C111.599 203.58 111.393 203.544 111.275 203.399L110.304 204.186ZM142.682 161.5C142.568 161.568 142.428 161.571 142.311 161.508L141.719 162.609C142.223 162.88 142.833 162.866 143.324 162.572L142.682 161.5ZM121.188 151.537C120.388 151.663 119.804 152.359 119.817 153.169L121.067 153.148C121.064 152.961 121.199 152.801 121.384 152.771L121.188 151.537ZM152.32 173.957C152.277 173.828 152.309 173.685 152.402 173.585L151.488 172.733C151.084 173.165 150.948 173.783 151.131 174.346L152.32 173.957ZM140.672 210.464C141.471 210.338 142.056 209.642 142.042 208.832L140.793 208.853C140.796 209.04 140.661 209.2 140.476 209.23L140.672 210.464ZM119.948 161.078C119.95 161.212 119.881 161.336 119.767 161.405L120.415 162.475C120.909 162.175 121.207 161.636 121.198 161.058L119.948 161.078ZM109.54 188.044C109.582 188.173 109.551 188.316 109.458 188.416L110.372 189.268C110.775 188.836 110.912 188.218 110.728 187.655L109.54 188.044ZM157.822 167.774C158.375 167.181 158.407 166.272 157.897 165.643L156.925 166.43C157.043 166.575 157.036 166.785 156.908 166.921L157.822 167.774ZM135.531 158.909C135.401 158.878 135.297 158.781 135.258 158.654L134.063 159.02C134.232 159.573 134.682 159.994 135.245 160.126L135.531 158.909ZM155.791 197.685C156.58 197.865 157.381 197.439 157.671 196.684L156.504 196.235C156.437 196.41 156.252 196.508 156.07 196.466L155.791 197.685ZM161.286 187.272C161.575 186.519 161.268 185.668 160.565 185.273L159.953 186.362C160.115 186.454 160.186 186.65 160.119 186.824L161.286 187.272ZM152.268 181.155C152.29 181.721 152.603 182.234 153.096 182.511L153.708 181.421C153.595 181.357 153.522 181.239 153.517 181.108L152.268 181.155Z" fill="#3E4144"/>
</g>
<g filter="url(#filter3_d_504_18031)">
<path fill-rule="evenodd" clip-rule="evenodd" d="M112.245 148.059C111.988 147.825 111.871 147.473 111.936 147.131L112.028 146.655C112.176 145.878 112.292 145.088 112.349 144.275C112.406 143.462 112.4 142.686 112.334 141.943L112.288 141.434C112.256 141.072 112.423 140.72 112.725 140.517L113.149 140.231L118.014 136.95C118.428 136.671 118.573 136.131 118.354 135.682L114.799 128.398C114.581 127.951 114.067 127.732 113.593 127.885L108.026 129.684L107.558 129.835C107.223 129.943 106.855 129.867 106.591 129.634L106.221 129.31C104.999 128.236 103.721 127.358 102.289 126.653L101.843 126.433C101.524 126.276 101.312 125.962 101.287 125.607L101.252 125.111L100.838 119.271C100.803 118.774 100.407 118.379 99.9103 118.344L91.8312 117.779C91.3343 117.744 90.8876 118.08 90.7835 118.568L89.5609 124.293L89.457 124.78C89.3828 125.127 89.1294 125.41 88.7915 125.521L88.3192 125.676C86.8088 126.173 85.3835 126.894 84.0497 127.764L83.6393 128.031C83.3453 128.223 82.9724 128.246 82.6567 128.093L82.216 127.879L76.9534 125.323C76.5057 125.106 75.9661 125.251 75.6877 125.663L71.154 132.382C70.8751 132.795 70.9433 133.351 71.3139 133.685L75.6753 137.611L76.055 137.952C76.3257 138.196 76.4425 138.567 76.36 138.922L76.2443 139.42C76.0644 140.193 75.9226 140.986 75.871 141.724C75.8164 142.505 75.8205 143.315 75.8865 144.055L75.9318 144.564C75.9641 144.927 75.7968 145.278 75.4948 145.482L75.0713 145.768L70.2059 149.048C69.7925 149.327 69.6476 149.868 69.8663 150.316L73.4208 157.6C73.6391 158.048 74.1532 158.266 74.6269 158.113L80.1939 156.315L80.662 156.164C80.9973 156.056 81.3648 156.132 81.6295 156.364L81.9988 156.689C83.2212 157.763 84.499 158.641 85.9311 159.346L86.3772 159.565C86.6963 159.722 86.908 160.037 86.9331 160.392L86.9683 160.888L87.3822 166.728C87.4174 167.225 87.813 167.62 88.3099 167.655L96.3889 168.22C96.8859 168.254 97.3326 167.918 97.4367 167.431L98.6593 161.705L98.7631 161.219C98.8374 160.871 99.0908 160.589 99.4287 160.478L99.901 160.323C101.411 159.826 102.837 159.104 104.17 158.235L104.581 157.968C104.875 157.776 105.248 157.753 105.563 157.906L106.004 158.12L111.267 160.675C111.714 160.893 112.254 160.748 112.532 160.335L117.07 153.61C117.348 153.199 117.282 152.646 116.915 152.311L112.604 148.386L112.245 148.059ZM93.443 150.972C97.8505 151.28 101.673 147.957 101.982 143.55C102.29 139.142 98.9666 135.319 94.5591 135.011C90.1516 134.703 86.3288 138.026 86.0206 142.434C85.7124 146.841 89.0355 150.664 93.443 150.972Z" fill="url(#paint1_linear_504_18031)"/>
<path d="M112.028 146.655L112.519 146.749L112.519 146.749L112.028 146.655ZM112.334 141.943L112.832 141.899L112.832 141.899L112.334 141.943ZM113.149 140.231L113.428 140.646L113.428 140.645L113.149 140.231ZM108.026 129.684L107.872 129.208L107.872 129.208L108.026 129.684ZM106.221 129.31L106.551 128.934L106.551 128.934L106.221 129.31ZM102.289 126.653L102.51 126.204L102.51 126.204L102.289 126.653ZM101.252 125.111L100.753 125.146L100.753 125.146L101.252 125.111ZM89.5609 124.293L90.0499 124.398L90.0499 124.398L89.5609 124.293ZM88.3192 125.676L88.4754 126.151L88.4754 126.151L88.3192 125.676ZM84.0497 127.764L84.3227 128.182L84.3227 128.182L84.0497 127.764ZM82.216 127.879L81.9976 128.329L81.9977 128.329L82.216 127.879ZM75.6753 137.611L75.3408 137.982L75.3408 137.982L75.6753 137.611ZM76.2443 139.42L76.7313 139.533L76.2443 139.42ZM75.8865 144.055L75.3885 144.1L75.3885 144.1L75.8865 144.055ZM75.0713 145.768L74.7917 145.353L74.7917 145.353L75.0713 145.768ZM80.1939 156.315L80.0402 155.839L80.0402 155.839L80.1939 156.315ZM81.9988 156.689L81.6687 157.064L81.6688 157.064L81.9988 156.689ZM85.9311 159.346L86.1519 158.897L86.1519 158.897L85.9311 159.346ZM86.9683 160.888L87.467 160.852L87.467 160.852L86.9683 160.888ZM98.6593 161.705L98.1703 161.601L98.1703 161.601L98.6593 161.705ZM99.901 160.323L100.057 160.798L100.057 160.798L99.901 160.323ZM104.17 158.235L103.897 157.816L103.897 157.816L104.17 158.235ZM106.004 158.12L106.222 157.67L106.222 157.67L106.004 158.12ZM112.604 148.386L112.941 148.016L112.941 148.016L112.604 148.386ZM98.7631 161.219L98.2742 161.115L98.7631 161.219ZM99.4287 160.478L99.5849 160.953L99.4287 160.478ZM87.3822 166.728L87.8809 166.693L87.3822 166.728ZM88.3099 167.655L88.3448 167.156L88.3099 167.655ZM80.662 156.164L80.8157 156.64L80.662 156.164ZM81.6295 156.364L81.2994 156.74L81.6295 156.364ZM70.2059 149.048L70.4855 149.463L70.2059 149.048ZM69.8663 150.316L69.4169 150.535L69.8663 150.316ZM76.055 137.952L75.7205 138.324L76.055 137.952ZM76.36 138.922L76.847 139.035L76.36 138.922ZM71.154 132.382L70.7396 132.102L71.154 132.382ZM71.3139 133.685L70.9794 134.056L71.3139 133.685ZM104.581 157.968L104.308 157.549L104.581 157.968ZM105.563 157.906L105.782 157.456L105.563 157.906ZM76.9534 125.323L76.735 125.773L76.9534 125.323ZM75.6877 125.663L76.1022 125.943L75.6877 125.663ZM86.3772 159.565L86.1564 160.014L86.3772 159.565ZM86.9331 160.392L87.4319 160.356L86.9331 160.392ZM100.838 119.271L101.337 119.235L100.838 119.271ZM114.799 128.398L115.249 128.179L114.799 128.398ZM113.593 127.885L113.747 128.361L113.593 127.885ZM82.6567 128.093L82.875 127.643L82.6567 128.093ZM73.4208 157.6L72.9714 157.82L73.4208 157.6ZM74.6269 158.113L74.7806 158.589L74.6269 158.113ZM107.558 129.835L107.712 130.311L107.558 129.835ZM106.591 129.634L106.921 129.259L106.591 129.634ZM90.7835 118.568L91.2725 118.672L90.7835 118.568ZM112.288 141.434L111.79 141.479L112.288 141.434ZM112.725 140.517L113.005 140.931L112.725 140.517ZM96.3889 168.22L96.3541 168.718L96.3889 168.22ZM97.4367 167.431L96.9477 167.327L97.4367 167.431ZM89.457 124.78L88.9681 124.675L89.457 124.78ZM88.7915 125.521L88.9477 125.996L88.7915 125.521ZM75.9318 144.564L75.4338 144.609L75.9318 144.564ZM75.4948 145.482L75.7744 145.897L75.4948 145.482ZM118.014 136.95L117.735 136.536L118.014 136.95ZM118.354 135.682L117.905 135.902L118.354 135.682ZM101.287 125.607L100.788 125.642L101.287 125.607ZM112.532 160.335L112.947 160.615L112.532 160.335ZM117.07 153.61L117.485 153.89L117.07 153.61ZM116.915 152.311L116.578 152.681L116.915 152.311ZM111.936 147.131L111.445 147.037L111.936 147.131ZM112.245 148.059L112.582 147.689L112.245 148.059ZM111.537 146.561L111.445 147.037L112.427 147.226L112.519 146.749L111.537 146.561ZM111.85 144.24C111.795 145.028 111.683 145.798 111.537 146.561L112.519 146.749C112.67 145.958 112.789 145.147 112.848 144.31L111.85 144.24ZM111.836 141.988C111.899 142.702 111.905 143.452 111.85 144.24L112.848 144.31C112.906 143.472 112.9 142.669 112.832 141.899L111.836 141.988ZM111.79 141.479L111.836 141.988L112.832 141.899L112.786 141.39L111.79 141.479ZM112.869 139.816L112.446 140.102L113.005 140.931L113.428 140.646L112.869 139.816ZM117.735 136.536L112.869 139.816L113.428 140.645L118.294 137.365L117.735 136.536ZM114.35 128.618L117.905 135.902L118.803 135.463L115.249 128.179L114.35 128.618ZM108.18 130.159L113.747 128.361L113.44 127.41L107.872 129.208L108.18 130.159ZM107.712 130.311L108.18 130.159L107.872 129.208L107.404 129.359L107.712 130.311ZM105.891 129.685L106.261 130.01L106.921 129.259L106.551 128.934L105.891 129.685ZM102.068 127.101C103.457 127.785 104.698 128.637 105.891 129.685L106.551 128.934C105.299 127.834 103.985 126.93 102.51 126.204L102.068 127.101ZM101.622 126.882L102.068 127.101L102.51 126.204L102.064 125.985L101.622 126.882ZM100.753 125.146L100.788 125.642L101.786 125.571L101.751 125.075L100.753 125.146ZM100.339 119.306L100.753 125.146L101.751 125.076L101.337 119.235L100.339 119.306ZM91.7964 118.278L99.8754 118.843L99.9451 117.845L91.8661 117.28L91.7964 118.278ZM90.0499 124.398L91.2725 118.672L90.2946 118.463L89.0719 124.189L90.0499 124.398ZM89.946 124.884L90.0499 124.398L89.0719 124.189L88.9681 124.675L89.946 124.884ZM88.4754 126.151L88.9477 125.996L88.6353 125.046L88.163 125.201L88.4754 126.151ZM84.3227 128.182C85.6263 127.333 87.0127 126.632 88.4754 126.151L88.163 125.201C86.6049 125.713 85.1406 126.456 83.7767 127.345L84.3227 128.182ZM83.9122 128.45L84.3227 128.182L83.7768 127.345L83.3664 127.612L83.9122 128.45ZM81.9977 128.329L82.4383 128.542L82.875 127.643L82.4344 127.429L81.9977 128.329ZM76.735 125.773L81.9976 128.329L82.4344 127.429L77.1718 124.873L76.735 125.773ZM71.5685 132.662L76.1022 125.943L75.2732 125.384L70.7396 132.102L71.5685 132.662ZM76.0098 137.239L71.6485 133.313L70.9794 134.056L75.3408 137.982L76.0098 137.239ZM76.3895 137.581L76.0098 137.239L75.3408 137.982L75.7205 138.324L76.3895 137.581ZM76.7313 139.533L76.847 139.035L75.873 138.809L75.7573 139.306L76.7313 139.533ZM76.3698 141.759C76.4189 141.057 76.5548 140.292 76.7313 139.533L75.7573 139.306C75.574 140.095 75.4263 140.916 75.3723 141.689L76.3698 141.759ZM76.3845 144.011C76.3211 143.299 76.3169 142.516 76.3698 141.759L75.3723 141.689C75.316 142.494 75.32 143.331 75.3885 144.1L76.3845 144.011ZM76.4299 144.52L76.3845 144.011L75.3885 144.1L75.4338 144.609L76.4299 144.52ZM75.3508 146.182L75.7744 145.897L75.2153 145.067L74.7917 145.353L75.3508 146.182ZM70.4855 149.463L75.3508 146.182L74.7917 145.353L69.9264 148.634L70.4855 149.463ZM73.8701 157.381L70.3157 150.097L69.4169 150.535L72.9714 157.82L73.8701 157.381ZM80.0402 155.839L74.4732 157.637L74.7806 158.589L80.3476 156.791L80.0402 155.839ZM80.5083 155.688L80.0402 155.839L80.3476 156.791L80.8157 156.64L80.5083 155.688ZM82.3289 156.313L81.9595 155.989L81.2994 156.74L81.6687 157.064L82.3289 156.313ZM86.1519 158.897C84.7634 158.214 83.5218 157.361 82.3288 156.313L81.6688 157.064C82.9205 158.164 84.2346 159.068 85.7103 159.794L86.1519 158.897ZM86.598 159.117L86.1519 158.897L85.7103 159.794L86.1564 160.014L86.598 159.117ZM87.467 160.852L87.4319 160.356L86.4344 160.427L86.4695 160.923L87.467 160.852ZM87.8809 166.693L87.467 160.852L86.4695 160.923L86.8834 166.763L87.8809 166.693ZM96.4238 167.721L88.3448 167.156L88.275 168.154L96.3541 168.718L96.4238 167.721ZM98.1703 161.601L96.9477 167.327L97.9256 167.535L99.1483 161.81L98.1703 161.601ZM98.2742 161.115L98.1703 161.601L99.1483 161.81L99.2521 161.323L98.2742 161.115ZM99.7448 159.848L99.2725 160.003L99.5849 160.953L100.057 160.798L99.7448 159.848ZM103.897 157.816C102.594 158.666 101.208 159.367 99.7448 159.848L100.057 160.798C101.615 160.285 103.08 159.543 104.443 158.654L103.897 157.816ZM104.308 157.549L103.897 157.816L104.443 158.654L104.854 158.387L104.308 157.549ZM106.222 157.67L105.782 157.456L105.345 158.356L105.786 158.57L106.222 157.67ZM111.485 160.226L106.222 157.67L105.786 158.57L111.048 161.125L111.485 160.226ZM116.656 153.331L112.118 160.056L112.947 160.615L117.485 153.89L116.656 153.331ZM112.267 148.755L116.578 152.681L117.251 151.942L112.941 148.016L112.267 148.755ZM111.909 148.429L112.267 148.755L112.941 148.016L112.582 147.689L111.909 148.429ZM101.483 143.515C101.194 147.647 97.6099 150.762 93.4779 150.473L93.4081 151.471C98.0911 151.798 102.153 148.268 102.48 143.585L101.483 143.515ZM94.5243 135.51C98.6563 135.799 101.772 139.383 101.483 143.515L102.48 143.585C102.808 138.902 99.277 134.84 94.594 134.512L94.5243 135.51ZM86.5193 142.469C86.8083 138.336 90.3922 135.221 94.5243 135.51L94.594 134.512C89.911 134.185 85.8492 137.716 85.5218 142.399L86.5193 142.469ZM93.4779 150.473C89.3459 150.184 86.2304 146.601 86.5193 142.469L85.5218 142.399C85.1943 147.082 88.7252 151.144 93.4081 151.471L93.4779 150.473ZM99.2521 161.323C99.2893 161.15 99.416 161.008 99.5849 160.953L99.2725 160.003C98.7657 160.17 98.3856 160.593 98.2742 161.115L99.2521 161.323ZM86.8834 166.763C86.9363 167.509 87.5296 168.101 88.275 168.154L88.3448 167.156C88.0963 167.139 87.8985 166.941 87.8809 166.693L86.8834 166.763ZM80.8157 156.64C80.9833 156.586 81.1671 156.624 81.2994 156.74L81.9595 155.989C81.5625 155.64 81.0112 155.526 80.5083 155.688L80.8157 156.64ZM69.9264 148.634C69.3062 149.052 69.0889 149.863 69.4169 150.535L70.3157 150.097C70.2063 149.873 70.2787 149.602 70.4855 149.463L69.9264 148.634ZM75.7205 138.324C75.8559 138.446 75.9143 138.631 75.873 138.809L76.847 139.035C76.9708 138.503 76.7955 137.946 76.3895 137.581L75.7205 138.324ZM70.7396 132.102C70.3212 132.722 70.4235 133.556 70.9794 134.056L71.6485 133.313C71.4631 133.146 71.429 132.868 71.5685 132.662L70.7396 132.102ZM104.854 158.387C105.001 158.291 105.187 158.279 105.345 158.356L105.782 157.456C105.308 157.226 104.749 157.261 104.308 157.549L104.854 158.387ZM77.1718 124.873C76.5002 124.547 75.6909 124.765 75.2732 125.384L76.1022 125.943C76.2414 125.737 76.5111 125.664 76.735 125.773L77.1718 124.873ZM86.1564 160.014C86.316 160.092 86.4218 160.25 86.4344 160.427L87.4319 160.356C87.3942 159.824 87.0766 159.352 86.598 159.117L86.1564 160.014ZM101.337 119.235C101.284 118.49 100.691 117.897 99.9451 117.845L99.8754 118.843C100.124 118.86 100.322 119.058 100.339 119.306L101.337 119.235ZM115.249 128.179C114.921 127.508 114.15 127.18 113.44 127.41L113.747 128.361C113.984 128.285 114.241 128.394 114.35 128.618L115.249 128.179ZM83.3664 127.612C83.2193 127.708 83.0329 127.72 82.875 127.643L82.4383 128.542C82.9118 128.772 83.4712 128.737 83.9122 128.45L83.3664 127.612ZM72.9714 157.82C73.2989 158.491 74.07 158.819 74.7806 158.589L74.4732 157.637C74.2363 157.714 73.9793 157.605 73.8701 157.381L72.9714 157.82ZM107.404 129.359C107.237 129.413 107.053 129.375 106.921 129.259L106.261 130.01C106.658 130.359 107.209 130.473 107.712 130.311L107.404 129.359ZM91.8661 117.28C91.1207 117.228 90.4506 117.732 90.2946 118.463L91.2725 118.672C91.3245 118.428 91.5479 118.26 91.7964 118.278L91.8661 117.28ZM112.786 141.39C112.77 141.209 112.854 141.033 113.005 140.931L112.446 140.102C111.993 140.407 111.742 140.935 111.79 141.479L112.786 141.39ZM96.3541 168.718C97.0995 168.771 97.7696 168.266 97.9256 167.535L96.9477 167.327C96.8957 167.57 96.6723 167.738 96.4238 167.721L96.3541 168.718ZM88.9681 124.675C88.9309 124.849 88.8042 124.99 88.6353 125.046L88.9477 125.996C89.4545 125.829 89.8346 125.406 89.946 124.884L88.9681 124.675ZM75.4338 144.609C75.45 144.79 75.3663 144.966 75.2153 145.067L75.7744 145.897C76.2272 145.591 76.4783 145.064 76.4299 144.52L75.4338 144.609ZM118.294 137.365C118.914 136.947 119.131 136.135 118.803 135.463L117.905 135.902C118.014 136.126 117.941 136.396 117.735 136.536L118.294 137.365ZM102.064 125.985C101.904 125.906 101.798 125.749 101.786 125.571L100.788 125.642C100.826 126.174 101.144 126.646 101.622 126.882L102.064 125.985ZM111.048 161.125C111.72 161.451 112.529 161.234 112.947 160.615L112.118 160.056C111.979 160.262 111.709 160.334 111.485 160.226L111.048 161.125ZM117.485 153.89C117.901 153.273 117.802 152.443 117.251 151.942L116.578 152.681C116.762 152.848 116.795 153.125 116.656 153.331L117.485 153.89ZM111.445 147.037C111.347 147.55 111.523 148.077 111.909 148.429L112.582 147.689C112.453 147.572 112.395 147.397 112.427 147.226L111.445 147.037Z" fill="#3E4144"/>
</g>
<defs>
<filter id="filter0_i_504_18031" x="12.9092" y="0" width="218.182" height="219.182" filterUnits="userSpaceOnUse" color-interpolation-filters="sRGB">
<feFlood flood-opacity="0" result="BackgroundImageFix"/>
<feBlend mode="normal" in="SourceGraphic" in2="BackgroundImageFix" result="shape"/>
<feColorMatrix in="SourceAlpha" type="matrix" values="0 0 0 0 0 0 0 0 0 0 0 0 0 0 0 0 0 0 127 0" result="hardAlpha"/>
<feOffset dy="1"/>
<feGaussianBlur stdDeviation="2"/>
<feComposite in2="hardAlpha" operator="arithmetic" k2="-1" k3="1"/>
<feColorMatrix type="matrix" values="0 0 0 0 0 0 0 0 0 0 0 0 0 0 0 0 0 0 0.12 0"/>
<feBlend mode="normal" in2="shape" result="effect1_innerShadow_504_18031"/>
</filter>
<filter id="filter1_d_504_18031" x="0" y="26.2725" width="244" height="167.637" filterUnits="userSpaceOnUse" color-interpolation-filters="sRGB">
<feFlood flood-opacity="0" result="BackgroundImageFix"/>
<feColorMatrix in="SourceAlpha" type="matrix" values="0 0 0 0 0 0 0 0 0 0 0 0 0 0 0 0 0 0 127 0" result="hardAlpha"/>
<feOffset dy="1"/>
<feGaussianBlur stdDeviation="1"/>
<feColorMatrix type="matrix" values="0 0 0 0 0 0 0 0 0 0 0 0 0 0 0 0 0 0 0.3 0"/>
<feBlend mode="normal" in2="BackgroundImageFix" result="effect1_dropShadow_504_18031"/>
<feBlend mode="normal" in="SourceGraphic" in2="effect1_dropShadow_504_18031" result="shape"/>
</filter>
<filter id="filter2_d_504_18031" x="98.4688" y="147.942" width="62.9258" height="64.1172" filterUnits="userSpaceOnUse" color-interpolation-filters="sRGB">
<feFlood flood-opacity="0" result="BackgroundImageFix"/>
<feColorMatrix in="SourceAlpha" type="matrix" values="0 0 0 0 0 0 0 0 0 0 0 0 0 0 0 0 0 0 127 0" result="hardAlpha"/>
<feOffset dx="-1" dy="-1"/>
<feGaussianBlur stdDeviation="0.5"/>
<feComposite in2="hardAlpha" operator="out"/>
<feColorMatrix type="matrix" values="0 0 0 0 0 0 0 0 0 0 0 0 0 0 0 0 0 0 0.1 0"/>
<feBlend mode="normal" in2="BackgroundImageFix" result="effect1_dropShadow_504_18031"/>
<feBlend mode="normal" in="SourceGraphic" in2="effect1_dropShadow_504_18031" result="shape"/>
</filter>
<filter id="filter3_d_504_18031" x="67.2646" y="115.276" width="51.6904" height="53.4463" filterUnits="userSpaceOnUse" color-interpolation-filters="sRGB">
<feFlood flood-opacity="0" result="BackgroundImageFix"/>
<feColorMatrix in="SourceAlpha" type="matrix" values="0 0 0 0 0 0 0 0 0 0 0 0 0 0 0 0 0 0 127 0" result="hardAlpha"/>
<feOffset dx="-1" dy="-1"/>
<feGaussianBlur stdDeviation="0.5"/>
<feComposite in2="hardAlpha" operator="out"/>
<feColorMatrix type="matrix" values="0 0 0 0 0 0 0 0 0 0 0 0 0 0 0 0 0 0 0.1 0"/>
<feBlend mode="normal" in2="BackgroundImageFix" result="effect1_dropShadow_504_18031"/>
<feBlend mode="normal" in="SourceGraphic" in2="effect1_dropShadow_504_18031" result="shape"/>
</filter>
<radialGradient id="paint0_radial_504_18031" cx="0" cy="0" r="1" gradientUnits="userSpaceOnUse" gradientTransform="translate(150.429 196.137) rotate(-138.941) scale(42.3893 156.038)">
<stop stop-color="#F0F3F6"/>
<stop offset="1" stop-color="#DDE2E7"/>
</radialGradient>
<linearGradient id="paint1_linear_504_18031" x1="85.1976" y1="127.339" x2="102.608" y2="159.41" gradientUnits="userSpaceOnUse">
<stop stop-color="#D8DEE3"/>
<stop offset="1" stop-color="#F0F3F6"/>
</linearGradient>
</defs>
</svg>
