<?xml version="1.0" encoding="UTF-8"?>
<svg width="251px" height="221px" viewBox="0 0 251 221" version="1.1" xmlns="http://www.w3.org/2000/svg" xmlns:xlink="http://www.w3.org/1999/xlink">
    <title>img-not-auth</title>
    <defs>
        <rect id="path-1" x="1.1764" y="27.1764" width="243.85536" height="166.5216" rx="7.056"></rect>
        <filter x="-2.1%" y="-2.4%" width="104.1%" height="106.0%" filterUnits="objectBoundingBox" id="filter-2">
            <feOffset dx="0" dy="1" in="SourceAlpha" result="shadowOffsetOuter1"></feOffset>
            <feGaussianBlur stdDeviation="1.5" in="shadowOffsetOuter1" result="shadowBlurOuter1"></feGaussianBlur>
            <feColorMatrix values="0 0 0 0 0.465733986   0 0 0 0 0.464665429   0 0 0 0 0.485450634  0 0 0 0.496175699 0" type="matrix" in="shadowBlurOuter1"></feColorMatrix>
        </filter>
        <path d="M100.773017,43.2089944 L71.9910056,43.2089944 L71.9910056,14.4269831 C71.9910056,6.51193004 65.5150531,0.035977514 57.6,0.035977514 C49.6849469,0.035977514 43.2089944,6.51193004 43.2089944,14.4269831 L43.2089944,43.2089944 L14.4269831,43.2089944 C6.51193004,43.2089944 0.0359775131,49.6849469 0.0359775131,57.6 C0.0359775131,65.5150531 6.51193004,71.9910056 14.4269831,71.9910056 L43.2089944,71.9910056 L43.2089944,100.773017 C43.2089944,108.68807 49.6849469,115.164022 57.6,115.164022 C65.5150531,115.164022 71.9910056,108.68807 71.9910056,100.773017 L71.9910056,71.9910056 L100.773017,71.9910056 C108.68807,71.9910056 115.164022,65.5150531 115.164022,57.6 C115.164022,49.6849469 108.68807,43.2089944 100.773017,43.2089944 Z" id="path-3"></path>
        <rect id="path-5" x="0" y="0" width="25.909632" height="6.096384" rx="0.508032"></rect>
    </defs>
    <g id="views" stroke="none" stroke-width="1" fill="none" fill-rule="evenodd">
        <g id="alert-builder-empty-alerts" transform="translate(-595.000000, -340.000000)">
            <g id="img-not-auth" transform="translate(597.000000, 340.000000)">
                <circle id="background" fill="#DBDDE3" cx="123.5" cy="110.5" r="110.5"></circle>
                <g id="image-surface">
                    <use fill="black" fill-opacity="1" filter="url(#filter-2)" xlink:href="#path-1"></use>
                    <use fill="#FFFFFF" fill-rule="evenodd" xlink:href="#path-1"></use>
                </g>
                <g id="Icon-/-add" opacity="0.402018229" transform="translate(124.000000, 110.000000) rotate(45.000000) translate(-124.000000, -110.000000) translate(66.000000, 52.000000)">
                    <mask id="mask-4" fill="white">
                        <use xlink:href="#path-3"></use>
                    </mask>
                    <use id="add" fill="#CFDADD" fill-rule="nonzero" xlink:href="#path-3"></use>
                </g>
                <g id="Group" transform="translate(0.000000, 30.000000)">
                    <g id="Group-2" transform="translate(0.000000, 8.000000)" fill="#D8D8D8">
                        <g id="UI/paper-shadow-z=&quot;1&quot;" transform="translate(0.830656, 0.668672)">
                            <rect id="Base" x="0" y="0" width="243.85536" height="1"></rect>
                        </g>
                    </g>
                    <rect id="Rectangle" fill="#CCCCCC" x="12.515392" y="1.63073536" width="20.998656" height="1.19218176" rx="0.59609088"></rect>
                    <rect id="Rectangle-Copy" fill="#CCCCCC" x="12.515392" y="4.01509888" width="16.426368" height="1.19218176" rx="0.59609088"></rect>
                    <circle id="Oval" fill="#CCCCCC" cx="7.77376" cy="3.419008" r="2.709504"></circle>
                </g>
                <g id="btn_primary" transform="translate(213.526720, 45.611776)">
                    <mask id="mask-6" fill="white">
                        <use xlink:href="#path-5"></use>
                    </mask>
                    <use id="Rectangle-28" fill="#E9E8E7" xlink:href="#path-5"></use>
                </g>
                <g id="gate" transform="translate(50.000000, 77.000000)">
                    <rect id="footing" fill="#D8D8D8" x="0" y="82" width="34" height="1"></rect>
                    <rect id="footing" fill="#D8D8D8" x="19" y="85" width="34" height="1"></rect>
                    <rect id="footing" fill="#D8D8D8" x="92" y="82" width="34" height="1"></rect>
                    <rect id="footing" fill="#D8D8D8" x="99" y="85" width="14" height="1"></rect>
                    <rect id="footing" fill="#D8D8D8" x="123" y="89" width="14" height="1"></rect>
                    <rect id="footing" fill="#D8D8D8" x="144" y="82" width="4" height="1"></rect>
                    <rect id="footing" fill="#D8D8D8" x="117" y="85" width="4" height="1"></rect>
                    <g id="column" transform="translate(8.000000, 0.000000)">
                        <rect id="Rectangle" fill="#DBE5E8" x="3" y="4" width="8" height="78"></rect>
                        <rect id="Rectangle" fill="#CFDADD" x="11" y="4" width="2" height="78"></rect>
                        <rect id="Rectangle" fill="#CFDADD" x="1" y="4" width="2" height="78"></rect>
                        <rect id="Rectangle" fill="#AEBBBF" x="1" y="2" width="12" height="2"></rect>
                        <rect id="Rectangle" fill="#CFDADD" x="0" y="0" width="14" height="2"></rect>
                    </g>
                    <g id="weight" transform="translate(4.000000, 15.000000)">
                        <path d="M8,16 C12.418278,16 16,12.418278 16,8 C16,3.581722 12.418278,0 8,0 C5.73099757,0 2.94471348,0.482570434 1.48876953,2 C0.10965036,3.43736042 0,5.85072443 0,8 C0,10.0995315 0.165770805,12.572832 1.48876953,14 C2.94990438,15.5761806 5.68125351,16 8,16 Z" id="Oval" fill="#AEBBBF"></path>
                        <rect id="Rectangle" fill="#909DA1" x="7" y="0" width="3" height="16"></rect>
                        <rect id="Rectangle" fill="#AEBBBF" x="10" y="0" width="9" height="16"></rect>
                    </g>
                    <g id="bar" transform="translate(23.000000, 17.000000)">
                        <rect id="Rectangle" fill="#F97373" x="0" y="0" width="93" height="12"></rect>
                        <rect id="Rectangle" fill="#CFDADD" x="0" y="0" width="93" height="2"></rect>
                        <rect id="Rectangle" fill="#CFDADD" x="0" y="10" width="93" height="2"></rect>
                    </g>
                    <g id="stripes" transform="translate(23.000000, 17.000000)">
                        <polygon id="Path-15" fill="#FFFFFF" points="0 10 5.32714844 2 11 2 5.5 10"></polygon>
                        <polygon id="Path-15" fill="#FFFFFF" points="12 10 17.3271484 2 23 2 17.5 10"></polygon>
                        <polygon id="Path-15" fill="#FFFFFF" points="24 10 29.3271484 2 35 2 29.5 10"></polygon>
                        <polygon id="Path-15" fill="#FFFFFF" points="36 10 41.3271484 2 47 2 41.5 10"></polygon>
                        <polygon id="Path-15" fill="#FFFFFF" points="48 10 53.3271484 2 59 2 53.5 10"></polygon>
                        <polygon id="Path-15" fill="#FFFFFF" points="60 10 65.3271484 2 71 2 65.5 10"></polygon>
                        <polygon id="Path-15" fill="#FFFFFF" points="72 10 77.3271484 2 83 2 77.5 10"></polygon>
                        <polygon id="Path-15" fill="#FFFFFF" points="84 10 89.3271484 2 95 2 89.5 10"></polygon>
                        <path d="M93,-2.922107e-13 C96.3137085,-2.922107e-13 99,2.6862915 99,6 C99,9.3137085 96.3137085,12 93,12 L93,12 Z" id="Combined-Shape" fill="#CFDADD"></path>
                    </g>
                    <path d="M23,29 L117,29 C119.761424,29 122,26.7614237 122,24 L122,22 C122,19.2385763 119.761424,17 117,17 L23,17 L23,17 L23,15 L21,15 L21,2 L22,2 L22,0 L8,0 L8,2 L9,2 L9,15.4072266 C6.23857625,15.4072266 4,17.6458028 4,20.4072266 L4,26 C4,28.7614237 6.23857625,31 9,31 L9,31 L9,31 L9,82 L21,82 L21,31 L23,31 L23,29 Z" id="Path-6" stroke="#979797"></path>
                </g>
                <path d="M198.5,157 C201.537566,157 204,158.958814 204,161.375134 C204,161.58744 203.98099,161.796213 203.944251,162.000436 L193.055749,162.000436 C193.01901,161.796213 193,161.58744 193,161.375134 C193,158.958814 195.462434,157 198.5,157 Z" id="Combined-Shape" fill="#BBBBBB"></path>
                <path d="M193,159 C194.656854,159 196,160.343146 196,162 C196,162.259064 195.967163,162.510458 195.905423,162.750248 L190.094577,162.750248 C190.032837,162.510458 190,162.259064 190,162 C190,160.343146 191.343146,159 193,159 Z" id="Combined-Shape" fill="#D8D8D8"></path>
                <path d="M204,160 C205.656854,160 207,161.119288 207,162.5 C207,162.671524 206.979272,162.839013 206.939789,163.000823 L201.060211,163.000823 C201.020728,162.839013 201,162.671524 201,162.5 C201,161.119288 202.343146,160 204,160 Z" id="Combined-Shape" fill="#D5CFDE"></path>
                <g id="Group" transform="translate(60.550781, 141.116333)">
                    <path d="M8.94921875,16.883667 L8.44921875,13.2186279 C7.33138021,12.1847738 6.55192057,11.6678467 6.11083984,11.6678467 C5.66975911,11.6678467 4.33951823,11.6678467 2.12011719,11.6678467 L0,13.2186279 L3.21728516,9.64978027 L5.44921875,9.64978027 L6.97705078,9.64978027 L8.44921875,10.4749756 L9.44921875,11.6678467 C9.44921875,11.6558024 9.44921875,12.1887614 9.44921875,13.2667236 C9.44921875,14.3446859 9.28255208,15.5503337 8.94921875,16.883667 Z" id="Path-2" fill="#98B9A8"></path>
                    <path d="M9.25476074,16.883667 L8.5,11.8729248 L7.18811035,9.64978027 L6.44921875,8.17736816 L5.05926514,7.22338867 C3.9511761,7.22338867 3.31350113,7.22338867 3.14624023,7.22338867 C2.77058919,7.22338867 2.42561849,7.22338867 2.11132813,7.22338867 L1.08911133,7.4453125 L8.8817842e-16,7.9296875 C0.966145833,6.98388672 1.44921875,6.51098633 1.44921875,6.51098633 C1.44921875,6.51098633 3.14624023,6.15576172 3.14624023,6.15576172 C3.14624023,6.15576172 4.37219238,5.94250488 4.62738037,5.94250488 C4.7975057,5.94250488 5.13277181,5.94250488 5.63317871,5.94250488 C6.18990072,6.08467611 6.46826172,6.15576172 6.46826172,6.15576172 C6.46826172,6.15576172 6.70821126,6.37650553 7.18811035,6.81799316 C7.61869303,7.23620605 7.83398438,7.4453125 7.83398438,7.4453125 C7.83398437,7.4453125 8.20572917,7.88252767 8.94921875,8.75695801 L9.65917969,10.168335 L9.91833496,11.4130859 C9.91833496,12.0108236 9.91833496,12.4009603 9.91833496,12.5834961 C9.91833496,12.8572998 9.91833496,13.442627 9.91833496,13.7650146 C9.91833496,13.9799398 9.98506673,14.6925863 10.1185303,15.9029541 L9.25476074,16.883667 Z" id="Path-3" fill="#7C9789"></path>
                    <path d="M9.44921875,15.6136475 L9.65905762,13.2667236 C9.58911133,12.1831462 9.55413818,11.5652669 9.55413818,11.4130859 C9.55413818,11.2609049 9.35249837,9.55733236 8.94921875,6.30236816 C8.75382487,3.88602702 8.65612793,2.62121582 8.65612793,2.50793457 C8.65612793,2.39465332 8.75382487,1.88521322 8.94921875,0.979614258 L9.15759277,0 L9.55267334,2.15075684 C9.7354126,2.59517415 9.82678223,2.94087728 9.82678223,3.18786621 C9.82678223,3.55834961 9.82678223,4.64697266 9.82678223,4.8137207 C9.82678223,4.92488607 10.0342611,5.66499837 10.4492188,7.03405762 C10.4492188,7.059611 10.4492188,7.31719971 10.4492188,7.80682373 C10.4492188,8.29644775 10.4492188,8.9107666 10.4492188,9.64978027 C10.4492188,12.0610758 10.4492188,13.2667236 10.4492188,13.2667236 C10.4492188,13.2667236 10.1185303,15.6136475 10.1185303,15.6136475 C10.1185303,15.6136475 10.0212809,16.0369873 9.82678223,16.883667 L9.44921875,15.6136475 Z" id="Path-4" fill="#98B9A8"></path>
                    <path d="M9.21875,16.3502197 L9.44921875,15.2442627 C10.1158854,10.1094157 10.4492187,7.54199219 10.4492187,7.54199219 C10.4492187,7.54199219 10.7825521,6.13907878 11.4492188,3.33325195 C11.8901367,2.77905273 12.1105957,2.50195312 12.1105957,2.50195312 C12.1105957,2.50195312 12.6691895,2.14453125 13.2045898,1.92578125 C13.5615234,1.77994792 14.2305501,1.54199219 15.2116699,1.21191406 L16.4492188,1.21191406 L14.949707,1.92578125 L13.4492187,2.66418457 L12.6212158,3.53479004 L12.1105957,4.53112793 C11.7970378,5.96846517 11.6402588,6.68713379 11.6402588,6.68713379 C11.6402588,6.68713379 11.4782715,7.94897461 11.1542969,10.4726562 C10.8410645,11.9966634 10.6844482,12.758667 10.6844482,12.758667 C10.6844482,12.758667 10.4958089,13.9558512 10.1185303,16.3502197 L9.21875,16.3502197 Z" id="Path-5" fill="#7C9789"></path>
                </g>
                <path d="M69.5,156 C71.9852814,156 74,157.567003 74,159.5 C74,159.669869 73.984441,159.836912 73.9543709,160.000314 L65.0456291,160.000314 C65.015559,159.836912 65,159.669869 65,159.5 C65,157.567003 67.0147186,156 69.5,156 Z" id="Combined-Shape" fill="#CEC3C3"></path>
                <path d="M75,158 C76.6568542,158 78,159.343146 78,161 C78,161.259064 77.9671626,161.510458 77.9054231,161.750248 L72.0945769,161.750248 C72.0328374,161.510458 72,161.259064 72,161 C72,159.343146 73.3431458,158 75,158 Z" id="Combined-Shape" fill="#D8D8D8"></path>
            </g>
        </g>
    </g>
</svg>