<svg width="24" height="24" viewBox="0 0 24 24" fill="none" xmlns="http://www.w3.org/2000/svg">
<g clip-path="url(#clip0_7378_3528)">
<path fill-rule="evenodd" clip-rule="evenodd" d="M21 1.5H3C2.60218 1.5 2.22064 1.65804 1.93934 1.93934C1.65804 2.22064 1.5 2.60218 1.5 3V21C1.5 21.3978 1.65804 21.7794 1.93934 22.0607C2.22064 22.342 2.60218 22.5 3 22.5H21C21.3978 22.5 21.7794 22.342 22.0607 22.0607C22.342 21.7794 22.5 21.3978 22.5 21V3C22.5 2.60218 22.342 2.22064 22.0607 1.93934C21.7794 1.65804 21.3978 1.5 21 1.5ZM3 0C2.20435 0 1.44129 0.316071 0.87868 0.87868C0.316071 1.44129 0 2.20435 0 3L0 21C0 21.7956 0.316071 22.5587 0.87868 23.1213C1.44129 23.6839 2.20435 24 3 24H21C21.7956 24 22.5587 23.6839 23.1213 23.1213C23.6839 22.5587 24 21.7956 24 21V3C24 2.20435 23.6839 1.44129 23.1213 0.87868C22.5587 0.316071 21.7956 0 21 0L3 0Z" fill="#29435A"/>
<path d="M13.3949 9.88208L9.95993 10.3126L9.83693 10.8826L10.5119 11.0071C10.9529 11.1121 11.0399 11.2711 10.9439 11.7106L9.83693 16.9126C9.54593 18.2581 9.99443 18.8911 11.0489 18.8911C11.8664 18.8911 12.8159 18.5131 13.2464 17.9941L13.3784 17.3701C13.0784 17.6341 12.6404 17.7391 12.3494 17.7391C11.9369 17.7391 11.7869 17.4496 11.8934 16.9396L13.3949 9.88208Z" fill="#29435A"/>
<path d="M12 8.25C12.8284 8.25 13.5 7.57843 13.5 6.75C13.5 5.92157 12.8284 5.25 12 5.25C11.1716 5.25 10.5 5.92157 10.5 6.75C10.5 7.57843 11.1716 8.25 12 8.25Z" fill="#29435A"/>
</g>
<defs>
<clipPath id="clip0_7378_3528">
<rect width="24" height="24" fill="white"/>
</clipPath>
</defs>
</svg>
