<?xml version="1.0" encoding="UTF-8"?>
<svg width="48px" height="48px" viewBox="0 0 48 48" version="1.1" xmlns="http://www.w3.org/2000/svg" xmlns:xlink="http://www.w3.org/1999/xlink">
    <title>logo-hhs-48H</title>
    <g id="logo-hhs-48H" stroke="none" stroke-width="1" fill="none" fill-rule="evenodd">
        <path d="M23.2412398,2 L23.2412398,2.05383813 L23.3250312,2.05992506 C23.4028253,2.05992506 23.4626669,2.08378615 23.504556,2.12569154 C23.5344909,2.15562107 23.5464689,2.23938698 23.5404838,2.36513836 L23.5166114,3.68812384 C23.5166114,3.80181928 23.5046273,3.8796989 23.4806836,3.90961875 C23.4387505,3.96349385 23.3729687,3.98743941 23.2831183,3.98743941 L23.2052943,3.98147216 L23.2052943,4.04126962 L24.1271189,4.05917313 L24.1271189,3.99937567 L24.0433275,3.99937567 C23.9655334,3.99937567 23.9056038,3.97539403 23.8637147,3.93349039 C23.8337842,3.89757777 23.8219197,3.81979495 23.8279065,3.69404357 L23.8398423,3.09547052 C23.8517965,3.09547052 23.8697437,3.09545292 23.8877059,3.10143865 L23.9296021,3.10143865 L24.0552694,3.10143865 L24.7737206,4.07119388 L25.354272,4.07716201 L25.354272,4.02333179 C25.240573,4.00537548 25.1448265,3.98134544 25.0669444,3.93348423 C24.9950905,3.88559927 24.9113562,3.79576491 24.8096255,3.65813359 L24.3726059,3.06554451 C24.5581148,3.02962749 24.6958385,2.96971298 24.7796167,2.87995342 C24.8693791,2.7842099 24.9173404,2.6824824 24.9173404,2.55074705 C24.9173404,2.43705161 24.8873958,2.33523611 24.8095375,2.25137252 C24.7377276,2.16161296 24.641893,2.10177326 24.5341782,2.07185341 C24.4264633,2.03593902 24.2588188,2.01792199 24.0313328,2.01193626 L23.2411597,2 L23.2412398,2 Z M22.6784648,2.03593462 L21.0142524,2.17356594 L21.0142524,2.23348309 L21.0920755,2.22751496 C21.1818379,2.2155435 21.2478397,2.23349277 21.2897288,2.26940979 C21.319639,2.29335271 21.3375387,2.37113729 21.3554965,2.50287264 L21.4811638,3.82585812 C21.4871497,3.92160165 21.4871497,3.98751333 21.4811638,4.02341715 C21.4691955,4.0533502 21.4512967,4.0832815 21.4213636,4.10123781 C21.3734903,4.12518601 21.325529,4.14313264 21.2776558,4.14313264 L21.1998318,4.15506802 L21.2058001,4.20889824 L22.8700124,4.07126692 L23.0076481,3.54441351 L22.9418804,3.55050044 C22.8820388,3.68223579 22.8221093,3.77789132 22.7622677,3.843803 C22.7143944,3.89768073 22.6665211,3.93365055 22.6126637,3.95160246 C22.5588062,3.97554451 22.47494,3.98749309 22.3551688,3.99946455 L21.9900471,4.02942312 C21.9241773,4.03540797 21.8883164,4.0294416 21.8643797,4.02345499 C21.8404501,4.01148441 21.828488,3.99951823 21.8165161,3.98156104 C21.8045434,3.96360473 21.7985311,3.90962667 21.7865566,3.81981783 L21.7206692,3.14934914 L22.199578,3.10745518 C22.2894284,3.10146769 22.3552542,3.10753878 22.4031274,3.11951024 C22.4510447,3.13746656 22.480999,3.16141124 22.5049462,3.1973309 C22.522925,3.22127118 22.5469004,3.28104929 22.5648652,3.38283399 L22.6246645,3.37686586 L22.5587781,2.67647731 L22.4989778,2.68244544 C22.504962,2.79015691 22.4809805,2.87410849 22.427123,2.92198026 C22.3912181,2.9578964 22.313424,2.98772825 22.1876687,2.99371398 L21.7087599,3.03560794 L21.6369042,2.23349189 L22.229424,2.18562981 C22.3372269,2.17964407 22.4090368,2.17964407 22.4569101,2.18562981 C22.5107675,2.203587 22.5526566,2.23350157 22.5825774,2.26941859 C22.6185273,2.30533298 22.6484956,2.38311403 22.678412,2.48484153 L22.7443002,2.4788734 L22.678412,2.03593462 L22.6784648,2.03593462 Z M25.3723046,2.03593462 L25.3663372,2.08976484 C25.4321629,2.1017363 25.4801242,2.11977093 25.5160291,2.14371385 C25.5519781,2.16765853 25.5818452,2.19158386 25.6057915,2.22750264 C25.6177599,2.25144556 25.6417484,2.3052705 25.671678,2.40103778 L26.2462453,4.23882073 L26.3061644,4.25075699 L27.2819344,2.61070907 C27.3357918,2.51496554 27.3955454,2.4429819 27.4614592,2.4010941 C27.5033483,2.37714942 27.5632779,2.35921775 27.641072,2.35323202 L27.6470403,2.2994018 L26.9885187,2.22158115 L26.9825504,2.27541048 C26.9945258,2.28139621 27.000539,2.28734674 27.0125099,2.28734674 C27.0783357,2.30530306 27.1322811,2.32927062 27.1562178,2.35919927 C27.1861509,2.38912968 27.1980127,2.41902402 27.1920268,2.44895883 C27.1860426,2.49085982 27.1502327,2.56872624 27.0843999,2.68242168 L26.4258784,3.78989622 L26.036732,2.54479036 C26.0008121,2.43109492 25.9888499,2.3533033 25.9948358,2.29935957 C26.00082,2.26344166 26.0187346,2.2394961 26.0486677,2.22153891 C26.0846167,2.19759071 26.1503985,2.19157946 26.246233,2.19157946 L26.2522013,2.13775012 L25.3722659,2.03593462 L25.3723046,2.03593462 Z M24.1031348,2.12563962 C24.2408584,2.13167903 24.3486613,2.17355714 24.4324395,2.25135756 C24.5102618,2.33516483 24.5521227,2.43694865 24.5521227,2.568596 C24.5461386,2.69434738 24.4922829,2.80214685 24.3905504,2.88601043 C24.2828356,2.96981594 24.1271594,3.00568985 23.92361,3.00568985 C23.9176249,3.00568985 23.9056223,3.00558865 23.8936505,2.99960204 L23.8876821,2.99960204 L23.8817147,2.99960204 L23.8757464,2.99960204 L23.8697781,2.99960204 L23.8636909,2.99960204 L23.8577226,2.99960204 L23.8517552,2.99960204 L23.8457869,2.99960204 L23.8398185,2.99960204 L23.8577226,2.15559819 C23.9595413,2.13764012 24.0433196,2.12563962 24.1031612,2.12563962 L24.1031348,2.12563962 Z M20.3917238,2.22748592 L20.3319236,2.23347781 C20.3319236,2.28735202 20.3198857,2.3173282 20.3138998,2.33529331 C20.2959033,2.3532505 20.2719561,2.3652334 20.2480125,2.37121913 C20.2240758,2.37720486 20.1761999,2.37113553 20.116361,2.35916407 C19.9786373,2.32923542 19.8528819,2.32329985 19.7391829,2.34126056 C19.5595701,2.37717494 19.4160383,2.454956 19.3202037,2.58070738 C19.2244572,2.70637076 19.1944484,2.83810611 19.218385,2.9817214 C19.2363375,3.06552779 19.2723102,3.13739264 19.3261879,3.20321631 C19.3800893,3.26307362 19.4519432,3.31699975 19.5417936,3.35888754 C19.6255719,3.40078414 19.7752639,3.45463107 19.9788133,3.52045475 C20.1823627,3.58031645 20.3020459,3.62218225 20.3499192,3.64611813 C20.4217291,3.67604678 20.4755865,3.71796538 20.5114915,3.75990157 C20.5534141,3.80779093 20.5773428,3.8557331 20.5893155,3.90360486 C20.607268,3.99336442 20.5833128,4.07714001 20.5234273,4.15493162 C20.4576015,4.23873801 20.3618549,4.28666697 20.2301154,4.31060286 C20.1164164,4.32855917 20.0087015,4.32861549 19.9068828,4.29269934 C19.7991679,4.26875466 19.7212859,4.22080634 19.6613563,4.15498002 C19.5955305,4.08913435 19.5416731,3.99332482 19.4818315,3.84962153 L19.4219124,3.86167659 L19.5656203,4.5500092 L19.6255393,4.53807382 C19.6195534,4.49018445 19.6255032,4.46018716 19.637476,4.44224229 C19.6494267,4.4242851 19.6673589,4.41230131 19.6913079,4.40631558 C19.7212727,4.40032985 19.7871424,4.40639918 19.8949453,4.41837064 C20.0087323,4.43633048 20.0744701,4.44225989 20.110375,4.43627416 C20.1702166,4.43627416 20.2241621,4.43034475 20.2899878,4.41837064 C20.4815689,4.38245362 20.6311729,4.29860324 20.7388878,4.16686788 C20.8406185,4.03513253 20.8766115,3.89151724 20.8466907,3.74182998 C20.8287382,3.66401196 20.7927646,3.58624674 20.7388878,3.52640704 C20.6849864,3.45457299 20.6132204,3.40672763 20.5294422,3.36483984 C20.4456376,3.32293884 20.295972,3.26909631 20.0744701,3.20327263 C19.8050949,3.12545022 19.6315543,3.05358537 19.5536722,2.99365766 C19.4937998,2.95175667 19.4638218,2.89791414 19.4518535,2.83798643 C19.433857,2.76016841 19.4518112,2.6823152 19.5116528,2.60452358 C19.5714944,2.53268954 19.6553607,2.4788602 19.7691477,2.46090829 C19.8648943,2.44294758 19.9606408,2.44888227 20.0564754,2.4788118 C20.1582941,2.50874485 20.2420723,2.56263579 20.3079861,2.62849906 C20.3738118,2.70033311 20.4276693,2.79613824 20.4695584,2.92787359 L20.5293577,2.91581853 L20.3917221,2.22748592 L20.3917238,2.22748592 Z M27.9823662,2.38312635 L27.9643424,2.43701113 L28.0422852,2.44894651 C28.0901585,2.46091885 28.1380318,2.47891476 28.1799209,2.51483178 C28.2038496,2.53877647 28.2217986,2.56273611 28.2277845,2.58668431 C28.2337704,2.62260133 28.2217678,2.68841181 28.197825,2.79022731 L27.9045131,4.08320494 C27.8805765,4.20288435 27.8506566,4.27477999 27.8207226,4.30469984 C27.7668212,4.34061423 27.7009514,4.35249593 27.611101,4.33453962 L27.5392453,4.32260336 L27.5273087,4.37655325 L28.4252846,4.56205634 L28.4431896,4.50225887 L28.3653656,4.49020381 C28.3174923,4.47822707 28.269619,4.45436599 28.2337141,4.42443822 C28.2038047,4.40049353 28.1858672,4.37654973 28.1798822,4.34661756 C28.1798822,4.31668891 28.185773,4.24489006 28.209722,4.14905853 L28.5031218,2.85009693 C28.5270585,2.73640149 28.5569661,2.65852188 28.5928842,2.63449799 C28.6408015,2.592597 28.7065832,2.58658311 28.7964336,2.60453942 L28.8682893,2.61659448 L28.8863122,2.56264547 L27.9823521,2.38312635 L27.9823662,2.38312635 Z M17.7036922,2.83805067 L16.985417,3.07758549 L17.0092894,3.13141571 L17.0751768,3.10742526 C17.158999,3.07749485 17.2248688,3.07749485 17.272742,3.10742526 C17.3146311,3.12538158 17.3566426,3.19120525 17.4044815,3.31096826 L17.8174766,4.41254683 L16.033669,3.39491985 L15.4769662,3.58042293 L15.4948702,3.63437195 C15.5547118,3.61042903 15.6026731,3.60443098 15.6325939,3.59844524 C15.6984197,3.59844524 15.7523651,3.6043773 15.7882701,3.61634876 C15.8301592,3.62233713 15.8899128,3.65225258 15.973779,3.70013754 L16.4766244,5.03500297 C16.5185109,5.14271444 16.530473,5.21461008 16.5244871,5.25649788 C16.5065346,5.31635958 16.452679,5.36420934 16.3629148,5.38814523 L16.29106,5.41213567 L16.3150512,5.46596588 L17.0274302,5.22651906 L17.009527,5.17268885 L16.931703,5.19667929 C16.8538649,5.22661146 16.7879072,5.22661146 16.7340498,5.19667929 C16.6981448,5.17872298 16.6562354,5.10683173 16.6143666,4.98706432 L16.1654666,3.80778213 L18.09307,4.90320074 L18.1469019,4.89126536 L17.5363416,3.26899335 C17.4944543,3.16128188 17.4765035,3.08349026 17.4884771,3.04758644 C17.5124138,2.98772033 17.5602853,2.94577094 17.6500495,2.91585109 L17.7213314,2.88619523 L17.7028509,2.83805067 L17.7036922,2.83805067 Z M30.0636217,2.84752052 C29.9678751,2.84557375 29.8721286,2.85598146 29.776294,2.87992614 C29.5847129,2.92182714 29.4170684,3.0116615 29.2734486,3.14929282 C29.1297408,3.28701214 29.0220259,3.44866734 28.9621843,3.64613837 C28.8843471,3.88558519 28.8843295,4.11904804 28.9681526,4.34054295 C29.0818516,4.6338455 29.3033536,4.83140453 29.6505228,4.92714806 C29.8361198,4.98102491 30.0157325,4.98695608 30.1773929,4.94505157 C30.3449493,4.90315498 30.5066096,4.81331622 30.6681819,4.66970093 L30.6262858,4.62780609 C30.4527452,4.75346947 30.3090373,4.82536512 30.1892661,4.849301 C30.0695829,4.87922965 29.9439156,4.87318144 29.8062799,4.83127781 C29.6506038,4.78937682 29.5248484,4.7115984 29.4291019,4.6098709 C29.3333553,4.5081434 29.2735137,4.38239202 29.2555612,4.23270476 C29.2375648,4.08900147 29.2555357,3.92743426 29.3093932,3.74791515 C29.3812031,3.53838818 29.4710535,3.36476504 29.5787683,3.23910166 C29.6925554,3.11343827 29.8122386,3.03547066 29.9438901,2.99956684 C30.0756296,2.96365069 30.2072811,2.96973674 30.3449168,3.00565465 C30.5065771,3.05354401 30.6383166,3.137302 30.7220948,3.25698141 C30.8118572,3.37666082 30.8537463,3.54429999 30.8537463,3.75981093 L30.9016099,3.77771532 L31.0691664,3.10135065 L31.0094858,3.08344714 C30.9855492,3.12534814 30.9555263,3.15524071 30.9196354,3.1732067 C30.8896706,3.18517816 30.865756,3.19112957 30.8418114,3.18514296 C30.8178308,3.17915899 30.7939399,3.161259 30.7580209,3.12534462 C30.6382497,3.01164918 30.500526,2.93975353 30.350922,2.89188177 C30.2551755,2.86494422 30.1594289,2.84996405 30.0635944,2.84752052 L30.0636217,2.84752052 Z M31.5482212,3.31096034 L31.5242292,3.36491024 L31.596084,3.388781 C31.6798631,3.42469802 31.7278235,3.46669845 31.7457759,3.51462038 C31.7577883,3.55652577 31.7397143,3.63438779 31.6858569,3.74808323 L31.1412104,4.97514918 C31.0932931,5.06490874 31.063345,5.12474844 31.0393917,5.14868433 C31.015455,5.17262725 30.9855483,5.19057828 30.9496293,5.19057828 C30.895771,5.19057828 30.8478106,5.18464535 30.7999373,5.17267477 L30.7280816,5.13674807 L30.7040904,5.19057828 L32.2425474,5.80120727 L32.6257096,5.40019325 L32.5659094,5.37620281 C32.4462262,5.46596236 32.3444075,5.52589007 32.2605413,5.56179389 C32.1947155,5.58573681 32.1347859,5.59165126 32.0749443,5.58566553 C32.0210869,5.57968156 31.9313245,5.55583192 31.8236096,5.51393181 L31.4823365,5.38219646 C31.4284351,5.35824913 31.3924861,5.34035618 31.3805178,5.32239899 C31.3625583,5.29845079 31.3566454,5.28043904 31.3566454,5.26248185 C31.3626296,5.23853716 31.3745433,5.18465767 31.4164456,5.10681061 L31.691805,4.48421368 L32.1347208,4.65783683 C32.2125149,4.69375473 32.2725325,4.72960047 32.3024533,4.75956432 C32.3383529,4.79548135 32.3502984,4.83140805 32.3562852,4.87334776 C32.3562852,4.90328082 32.344301,4.96917929 32.3203573,5.06492282 L32.3741893,5.08294513 L32.6675011,4.43641232 L32.6136692,4.41254067 C32.5598117,4.51426817 32.494074,4.58009185 32.4281602,4.59804376 C32.3743028,4.61600623 32.2904365,4.60403917 32.1766495,4.55614981 L31.7396299,4.38261466 L32.0689346,3.64033832 L32.6196533,3.85576126 C32.7154879,3.89766665 32.7813136,3.93360919 32.8172186,3.96356073 C32.8591385,3.99947775 32.8830875,4.0413585 32.8890734,4.08922411 C32.8950584,4.13711787 32.8891447,4.21497549 32.8652019,4.32268696 L32.9250012,4.34667828 L33.0865735,3.92164037 L31.5481165,3.31096034 L31.5482212,3.31096034 Z M14.2055989,4.11311423 L14.1637036,4.13118758 L14.2655223,5.95682659 C14.2774942,6.11848179 14.2715619,6.23226523 14.2476191,6.2980889 C14.2356508,6.32801756 14.1876983,6.36989391 14.1158796,6.42375228 L14.1398708,6.4775825 L14.7565033,6.18427994 L14.7265438,6.13629818 C14.6307972,6.17221696 14.5647954,6.19028415 14.5229063,6.17831181 C14.4869723,6.17232344 14.4570542,6.15429145 14.4450823,6.1243628 C14.4271246,6.08844578 14.4151422,6.02861927 14.4091545,5.94484368 L14.385283,5.5975974 L15.1455352,5.24445513 L15.3970459,5.44799813 C15.4808242,5.51384381 15.5347696,5.56767754 15.5527221,5.60956534 C15.5706825,5.63949839 15.5706825,5.66949128 15.5527221,5.70539686 C15.5347696,5.73532552 15.492818,5.77115278 15.4149984,5.81302033 L15.4449579,5.86696935 L16.2052102,5.50177115 L16.1813378,5.45390906 C16.0975156,5.48982257 16.0255737,5.49585758 15.9657321,5.4778995 C15.8999063,5.46592716 15.8100559,5.40610066 15.6903727,5.31034833 L14.2057732,4.11311423 L14.2055989,4.11311423 Z M33.9876463,4.36205966 C33.9279094,4.36029181 33.8687551,4.36680466 33.8104095,4.38251874 C33.6487492,4.42442414 33.5350502,4.50818212 33.4572561,4.6338455 C33.4153283,4.71166352 33.3973371,4.78353277 33.3973371,4.86730835 C33.3973371,4.94512637 33.4153503,5.02896356 33.4572561,5.11881111 C33.4931611,5.2026175 33.5770273,5.32825008 33.6907264,5.50178523 C33.8045134,5.6694244 33.8702511,5.77713587 33.8942758,5.81902366 C33.9241869,5.88486494 33.9421403,5.95075902 33.9421403,6.00461475 C33.9421403,6.06447645 33.9301561,6.11831019 33.9062124,6.16028598 C33.8582951,6.238104 33.7804571,6.29202133 33.6787264,6.31595722 C33.5829798,6.3399019 33.4692808,6.32198871 33.3554937,6.262127 C33.253675,6.21423764 33.1698968,6.14227159 33.1100552,6.058496 C33.0501819,5.97468962 33.0202048,5.88496086 33.0142206,5.80118527 C33.0082365,5.717378 33.0322356,5.60362625 33.0801089,5.45992295 L33.0322453,5.43605131 L32.6729317,6.05248827 L32.7268824,6.0764796 C32.7628164,6.04056609 32.7807592,6.01656157 32.8047055,6.01656157 C32.8286703,6.00459099 32.8466448,6.01067792 32.8705929,6.02264938 C32.8945295,6.03462172 32.9482981,6.07650248 33.0201089,6.14831276 C33.0979029,6.22613518 33.1458642,6.27397614 33.175785,6.29192805 C33.217675,6.32186111 33.2716196,6.35786085 33.325477,6.38177561 C33.4991056,6.47153517 33.6726463,6.49555905 33.8402907,6.45362814 C34.0139194,6.41172714 34.1336906,6.32189279 34.2114846,6.18426146 C34.2533667,6.11841139 34.2712673,6.0345742 34.2772523,5.95079861 C34.2772523,5.8729762 34.2593386,5.78905541 34.2234204,5.70527982 C34.1815313,5.62746181 34.1036492,5.49584086 33.9719097,5.31632174 C33.8162335,5.09482683 33.7325433,4.93308363 33.7086067,4.8373401 C33.6966348,4.77149443 33.7025495,4.71167672 33.7324791,4.65782099 C33.7744122,4.58598694 33.8402819,4.53805358 33.9361165,4.51411769 C34.031863,4.49017565 34.1335938,4.50215943 34.2294283,4.5500444 C34.3191907,4.59793376 34.3911766,4.65784387 34.4450341,4.74161945 C34.5049047,4.82542144 34.5347965,4.9152426 34.5407806,5.00500215 C34.5407806,5.09476171 34.5167991,5.20845715 34.4689258,5.33420853 L34.5227577,5.36416711 L34.8759111,4.74157017 L34.8221989,4.71757973 C34.7922341,4.75349851 34.7623512,4.77151203 34.7384066,4.77749688 C34.714426,4.78348525 34.6904955,4.78340165 34.6665518,4.76544181 C34.6426152,4.75945784 34.6125914,4.72954239 34.5767014,4.68165303 C34.486939,4.57394156 34.3911925,4.49606194 34.2893738,4.44220621 C34.1883471,4.39356885 34.0873204,4.36598098 33.9877897,4.36205966 L33.9876463,4.36205966 Z M14.3304839,4.58000209 L15.0488374,5.1666952 L14.3783475,5.47794966 L14.3304839,4.58000209 L14.3304839,4.58000209 Z M12.8339943,4.81953691 L12.3311489,5.14275932 L12.6425892,6.86675882 L11.0501868,5.96282728 L10.5353731,6.29203365 L10.5713009,6.34001454 C10.6431108,6.29212517 10.7029524,6.26219388 10.7448415,6.26219388 C10.7927148,6.25620815 10.8286576,6.2621578 10.8586286,6.27413014 C10.9005177,6.29807922 10.948479,6.34598531 11.0023364,6.4238174 L11.7984936,7.52521998 C11.8643528,7.62096351 11.9003123,7.68089121 11.9003123,7.722779 C11.9003123,7.78860268 11.8643995,7.84245841 11.7865253,7.89033018 L11.7206379,7.93222413 L11.7565658,7.98008622 L12.3850785,7.57308822 L12.3491516,7.53119427 L12.2832642,7.57308822 C12.2173945,7.61497426 12.1515247,7.63292265 12.0916831,7.62095031 C12.0497931,7.60898237 11.9899524,7.54917698 11.9181425,7.44741516 L11.1039448,6.32198871 L12.8160304,7.2977279 L12.8579257,7.27385626 L12.5227248,5.41213743 L13.3367465,6.53756388 C13.4026048,6.63330741 13.4385652,6.69921909 13.4385652,6.73512291 C13.4385652,6.80094659 13.4026523,6.85480232 13.3247781,6.90267409 L13.2588908,6.94456892 L13.2948186,6.992431 L14.0551589,6.50165742 L14.0251994,6.45976259 L13.959312,6.49568929 C13.8934423,6.54356105 13.8276605,6.56150857 13.7677309,6.54355137 C13.7258427,6.537563 13.6659122,6.4777365 13.5881181,6.3760002 L12.7919609,5.27442163 C12.7261008,5.1786781 12.6901422,5.11285442 12.6901422,5.07087863 C12.6901422,5.01102133 12.7321422,4.95119922 12.8100014,4.90332746 L12.8698016,4.8614335 L12.8338738,4.81953691 L12.8339943,4.81953691 Z M35.2402717,5.96878133 C35.0606589,5.96878133 34.9231112,6.1005466 34.9231112,6.26818577 C34.9231112,6.42984097 35.0606589,6.5673843 35.2402717,6.5673843 L35.2403913,6.5673843 L35.252328,6.5673843 L35.2702321,6.5673843 L35.2882549,6.56141617 L35.3001916,6.56141617 L35.3182145,6.55544804 L35.3361185,6.55544804 L35.3480552,6.54948079 L35.3601106,6.54351265 L35.3780147,6.53754452 L35.3899505,6.53157727 L35.4020068,6.52548946 L35.4199109,6.51355408 L35.4318466,6.50758595 L35.4439021,6.49565057 L35.4558378,6.48956364 L35.4618061,6.47762738 L35.4738616,6.465692 L35.4857973,6.45972387 L35.4917656,6.44766881 L35.5037014,6.43573343 L35.5096697,6.42379716 L35.5157577,6.41186178 L35.5276935,6.39980672 L35.5336609,6.38190321 L35.5396292,6.36984815 L35.5396292,6.35791277 L35.5455976,6.34000838 L35.5516847,6.32795332 L35.5516847,6.3100498 L35.557653,6.29811442 L35.557653,6.28009123 L35.557653,6.26815585 C35.557653,6.10051668 35.4138572,5.96878133 35.2402285,5.96878133 L35.2402717,5.96878133 Z M36.9823661,6.06443509 L36.9464383,6.10653761 L37.0062385,6.15439969 C37.0720995,6.20228906 37.1020731,6.25023122 37.1020731,6.30408695 C37.1080572,6.35197632 37.066176,6.42983833 36.9823899,6.52558186 L36.4495357,7.14219482 C36.2819792,7.33368188 36.1862326,7.47729717 36.1503277,7.56714473 C36.1024403,7.69888008 36.1024588,7.83052743 36.1443594,7.96217479 C36.1862925,8.09391014 36.2999475,8.23162946 36.4854565,8.36926078 C36.6531009,8.50099613 36.8147612,8.57271578 36.9644532,8.57869975 C37.1201294,8.59066769 37.2457967,8.56668693 37.3594958,8.50684722 C37.4672106,8.44097955 37.5869818,8.33322408 37.7246175,8.17156887 L38.2753362,7.53110803 C38.3531302,7.44134847 38.4129718,7.39338871 38.4488768,7.38142077 C38.532699,7.35749808 38.604553,7.36945899 38.6703787,7.42331472 L38.7302986,7.47129648 L38.7662256,7.42331472 L38.1796019,6.97442893 L38.143675,7.02229102 L38.143675,7.02240982 L38.2034743,7.06430465 C38.2693362,7.11816038 38.2993089,7.16603215 38.2993089,7.22587185 C38.3052931,7.26780365 38.2632931,7.33956729 38.1794497,7.43531082 L37.6227469,8.07585966 C37.479039,8.24948281 37.3593558,8.35719428 37.2695934,8.39908207 C37.1738469,8.4469732 37.066132,8.45893234 36.9403767,8.44097691 C36.8146213,8.41704102 36.6949381,8.36917102 36.5872233,8.2794097 C36.503445,8.21952512 36.4375313,8.14776235 36.4076105,8.0758667 C36.3716932,7.99803109 36.3597293,7.92609144 36.3657152,7.86026777 C36.3716993,7.78841612 36.4077046,7.7106685 36.4615497,7.62082095 C36.5154072,7.53106139 36.5752488,7.45916574 36.623122,7.39932604 L37.221714,6.70500946 C37.2995081,6.62123387 37.3593497,6.56729014 37.4012388,6.5553222 C37.4671085,6.53732629 37.5330663,6.55531252 37.5988921,6.60318428 L37.6646597,6.65104636 L37.7005876,6.60915241 L36.9823124,6.06443509 L36.9823661,6.06443509 Z M10.2419732,6.53156143 L9.67928624,7.01046211 L9.71521408,7.05235695 L9.77501431,6.99852673 C9.83485591,6.95061625 9.8947855,6.92665485 9.96061126,6.93264146 C10.0025444,6.93862543 10.0683261,6.98652799 10.1641607,7.08232872 L10.7507843,7.69876568 C10.9003883,7.86042089 10.9963109,7.98617227 11.0322158,8.07593182 C11.0621454,8.17167535 11.0620609,8.27349085 11.0201604,8.38718629 C10.9782273,8.50088173 10.9064614,8.60260923 10.7987465,8.69236879 C10.7209084,8.76417643 10.6370862,8.80615223 10.5532199,8.83008811 C10.4693977,8.84804442 10.3915596,8.84802682 10.3257339,8.83605624 C10.2478958,8.81810433 10.1761299,8.77021232 10.0862795,8.71039286 C10.0024573,8.64452518 9.9366755,8.57865751 9.87683391,8.5188178 L9.24832115,7.86031705 C9.16449892,7.77055749 9.1225658,7.71062978 9.11658164,7.66874199 C9.10461332,7.60291832 9.13462212,7.54299061 9.20049188,7.48913488 L9.26029211,7.43530466 L9.21839595,7.39937796 L8.53602576,7.9800871 L8.5719536,8.02198193 L8.63175295,7.97411985 C8.69159455,7.92022451 8.75143614,7.89628071 8.80529358,7.90226644 C8.85919502,7.90825041 8.93104893,7.96213695 9.02089933,8.0519537 L9.58358633,8.64454278 C9.75721496,8.83013387 9.88886647,8.94391731 9.98461302,8.9858051 C10.1102804,9.05167102 10.248092,9.07565266 10.397696,9.05765763 C10.5413159,9.03372175 10.7029762,8.94985816 10.8766048,8.80615487 C11.0382651,8.66843555 11.1339237,8.52490825 11.1699166,8.38718893 C11.2118031,8.24955761 11.2058541,8.12371823 11.1579809,8.01600676 C11.1041234,7.90231132 11.0083769,7.77057597 10.864669,7.62097671 L10.2780454,7.00436374 C10.1942232,6.92058816 10.15229,6.86074845 10.1463059,6.81886066 C10.1343376,6.74102504 10.1583191,6.67515737 10.2181607,6.6272856 L10.284048,6.57345539 L10.2421528,6.53156143 L10.2419732,6.53156143 Z M39.1560241,7.93815354 C38.9884676,7.93815354 38.8568161,7.98605611 38.743029,8.08784081 C38.6831874,8.15370848 38.6353142,8.21957616 38.6113775,8.29745577 C38.5874295,8.36930742 38.5813828,8.45902298 38.5933538,8.54878253 C38.6053221,8.64452606 38.6412948,8.78822936 38.7011566,8.97980441 C38.7610299,9.17137947 38.7969912,9.29105888 38.8029754,9.33893064 C38.8089622,9.41676626 38.8088786,9.47673796 38.7909199,9.53657767 C38.7729674,9.5904334 38.7430502,9.63830517 38.7071285,9.66822502 C38.6413027,9.73407862 38.5514523,9.76995252 38.4496336,9.76396855 C38.3419187,9.75798458 38.2461722,9.7161531 38.1504256,9.62633723 C38.0666465,9.54854561 38.01279,9.45869805 37.976885,9.36295452 C37.9469554,9.267123 37.9408824,9.17137947 37.9648296,9.09358785 C37.9827821,9.00976826 38.0426219,8.90799677 38.1264019,8.78233338 L38.0845057,8.74043943 L37.5637078,9.23728498 L37.6056031,9.27917894 C37.6475362,9.249245 37.6775072,9.23728498 37.7014377,9.23728498 C37.7253646,9.23728498 37.743281,9.24331823 37.7612379,9.26127542 C37.7791904,9.27922734 37.8151631,9.33308131 37.8690408,9.42284263 C37.9169581,9.51858616 37.9527785,9.57842586 37.9707715,9.60236174 C38.0006923,9.64424954 38.0426192,9.68614085 38.0845585,9.72802512 C38.2281784,9.86574445 38.3838545,9.93165612 38.5574831,9.93764009 C38.7311118,9.94362406 38.8747316,9.88975425 38.9945028,9.78196886 C39.0543444,9.72208515 39.1023057,9.65621748 39.1262423,9.57235389 C39.1561754,9.49451828 39.1620865,9.41078669 39.1501147,9.32102713 C39.1381464,9.23722514 39.1022493,9.08765228 39.0304315,8.87812531 C38.9526031,8.62671055 38.9106603,8.44710344 38.9226286,8.35127191 C38.9286128,8.28544823 38.9526982,8.2315925 39.0005714,8.18372073 C39.060457,8.12982804 39.1441913,8.09991259 39.2400258,8.1058992 C39.3418445,8.1058992 39.4316069,8.14181094 39.509401,8.21968264 C39.5812109,8.28555031 39.6289962,8.36329793 39.658917,8.45912946 C39.6888519,8.55487298 39.6888343,8.64472054 39.6648844,8.7344801 C39.6409478,8.82423966 39.5871088,8.92596716 39.497328,9.03367863 L39.5392232,9.06960445 L40.0720774,8.5728469 L40.0242138,8.53095206 C39.9822807,8.56088512 39.9464453,8.5728469 39.9284673,8.5728469 C39.9045025,8.5728469 39.8805412,8.56084904 39.8625799,8.54288744 C39.8445834,8.52493553 39.8206424,8.48902467 39.7966935,8.429104 C39.7487762,8.30942459 39.6770103,8.2076091 39.5991282,8.12972948 C39.4673887,8.00996207 39.3176967,7.94413839 39.1560364,7.93815354 L39.1560241,7.93815354 Z M8.28480106,8.22525301 L7.67424079,8.87798891 L7.72210438,8.91391562 L7.76996798,8.8600854 C7.80587294,8.82415518 7.84179725,8.80022722 7.89563533,8.78226474 C7.93154029,8.77029328 7.96155349,8.77031088 7.99146988,8.77629749 C8.02737484,8.78826543 8.08123228,8.83018843 8.16501051,8.8959769 L8.63793512,9.28511099 L7.97941356,9.99148351 L7.97941356,9.99160231 L7.50648896,9.60845219 C7.42865088,9.54262852 7.38082161,9.49466875 7.36286913,9.4647489 C7.34490697,9.43482905 7.33884185,9.4049444 7.35081369,9.36900537 C7.36282601,9.32113361 7.3867688,9.27915782 7.41670104,9.24316599 L7.47053296,9.18933578 L7.42266848,9.15340908 L6.81809236,9.80592586 L6.85998852,9.84185256 L6.91382044,9.78802235 C6.94374123,9.7580585 6.98566555,9.728158 7.03350363,9.71020169 C7.06940858,9.69823023 7.09941562,9.69812903 7.12933818,9.70411388 C7.16524314,9.71608182 7.22508473,9.7580057 7.30287881,9.82379329 L8.36242705,10.697805 C8.46424577,10.7755975 8.51203104,10.8354363 8.52399936,10.8713401 C8.53596768,10.9311798 8.51198528,10.9970915 8.45214369,11.0629152 L8.40428009,11.1167454 L8.44617537,11.146704 L9.05682365,10.4941872 L9.00884037,10.4582614 L8.96097677,10.5120907 C8.92507181,10.5480218 8.88316334,10.5779364 8.83530942,10.5899114 C8.79936046,10.6018828 8.76951095,10.6019849 8.73956287,10.5959992 C8.70964207,10.5840312 8.64372831,10.5481353 8.56593424,10.4763198 L8.069161,10.0692338 L8.72759455,9.35687727 L9.22445579,9.76994724 C9.32029035,9.84773886 9.37405978,9.90757856 9.3860281,9.94348238 C9.39201226,10.0033221 9.3740149,10.0691458 9.31417331,10.1289855 L9.26630971,10.1829354 L9.30820499,10.2187424 L9.91885327,9.5663136 L9.87098967,9.5303869 L9.82312607,9.58421711 C9.78722112,9.6201491 9.74519296,9.64408146 9.69728272,9.66203777 C9.66137776,9.67401011 9.63148425,9.67399163 9.60153617,9.6680059 C9.56563121,9.65603796 9.51177377,9.61411409 9.42799554,9.54832649 L8.36827129,8.6744028 C8.29047722,8.61456309 8.23661978,8.56669133 8.22465146,8.53677147 C8.2066937,8.50685162 8.20074386,8.4708554 8.21271482,8.44093995 C8.21874298,8.39306818 8.24256434,8.35118039 8.27848338,8.31527657 L8.32741268,8.26115683 L8.28543556,8.22525301 L8.28480106,8.22525301 Z M41.1976785,9.78200846 L39.3299167,10.284838 C39.1682564,10.332708 39.0485732,10.3506441 38.9707791,10.3386673 C38.9348742,10.3326833 38.8810167,10.308751 38.815103,10.2489078 L38.7672394,10.2847148 L39.1982749,10.7815603 L39.2461385,10.7516009 C39.1862625,10.6678253 39.1563761,10.6079856 39.1563761,10.5720818 C39.1563761,10.5361339 39.1682405,10.5062687 39.1921833,10.4823222 C39.2221041,10.4583423 39.2820337,10.4344126 39.3717961,10.4104697 L39.7249495,10.3146382 L40.2637879,10.9312511 L40.2637879,10.9313699 L40.1081118,11.2127045 C40.0542543,11.3024641 40.0123652,11.3623038 39.9764602,11.3922236 C39.9465394,11.4101808 39.9165298,11.4162326 39.8806257,11.4102468 C39.8387366,11.4042629 39.7909513,11.3682746 39.7311097,11.3084313 L39.6892144,11.344358 L40.2278768,11.966955 L40.2757404,11.9310283 C40.221846,11.8651606 40.1978997,11.7993809 40.2038856,11.7334692 C40.2038856,11.6736295 40.2398143,11.57771 40.3116885,11.4460627 L41.2269129,9.81710269 L41.1969921,9.78111086 L41.1976785,9.78200846 Z M40.766555,10.0333352 L40.3236392,10.8234833 L39.8507146,10.284838 L40.766555,10.0333352 Z M43.0113752,10.3625416 L43.0113752,10.3625416 C43.0113752,10.3625416 43.0113752,10.3625416 43.0113752,10.3625416 L43.0113752,10.3625416 Z M43.0114948,10.3627792 L43.0114948,10.3685088 L43.0055265,10.3805639 L42.9934711,10.3984674 L42.9815344,10.4224587 L42.9636304,10.4583854 L42.9396392,10.4943113 L42.9096796,10.5421734 L42.8798398,10.5900354 L42.843912,10.6498338 L42.8020158,10.7097509 L42.7540334,10.7755165 L42.7061689,10.8533381 L42.652337,10.9251906 L42.5925377,11.0090991 L42.5326186,11.0928878 L42.4667313,11.1826474 L42.3948756,11.2784789 L42.3170534,11.3742225 L42.2392294,11.470054 L42.1554379,11.5718695 L42.0655875,11.673597 L41.9758251,11.7813964 L41.8799906,11.8891959 L41.7782599,12.0029794 L41.670457,12.1107788 L41.5626541,12.2243863 L41.4488671,12.3381697 L41.3291839,12.4519531 L41.2095007,12.5657366 L41.0838334,12.67952 L40.9521819,12.7873195 L40.8144582,12.9011029 C39.7668783,13.7570747 27.7821908,21.1139265 27.1960951,21.5808522 C26.6034873,22.0417939 25.5258986,23.2810038 24.6459632,26.9324578 C23.9335842,29.8776273 23.4726279,28.7760487 21.1200612,28.6862892 C19.7431765,28.6324334 15.9239626,27.6268624 16.2172745,30.5780158 C16.2172745,30.5780158 16.6901991,29.9195151 21.9042501,30.6199107 C23.9575208,30.9012453 25.6336135,30.2307766 26.1185064,28.6862962 C26.6033993,27.1179679 27.3098822,24.4542211 28.3694304,23.053444 C28.8603075,22.4069111 38.4624195,16.5046922 41.10865,14.93038 C42.0724517,14.3617268 45.1731264,12.48804 43.0123168,10.3627792 L43.0114948,10.3627792 Z M6.59084391,11.3263744 L6.24358665,11.8590358 L6.29133056,11.8889944 C6.3152716,11.8590851 6.35126192,11.8411499 6.38716512,11.8351642 C6.43504279,11.8291785 6.48291167,11.8351906 6.52480079,11.8651228 C6.6565403,11.9369744 6.76434317,12.1105535 6.85410556,12.3739362 C6.60268286,12.391897 6.345276,12.3978431 6.06991666,12.3858716 C6.0818885,12.1763447 6.07585506,12.0207614 6.04592546,11.9189459 C6.01599146,11.8111465 5.9500909,11.7333548 5.85434435,11.6794991 C5.7585978,11.6256214 5.66285125,11.6076747 5.55513638,11.6376043 C5.4474215,11.6615842 5.36355527,11.7273638 5.29764151,11.8291793 C5.22580784,11.9369788 5.1959108,12.0506742 5.20114992,12.1704417 C5.21386768,12.3261129 5.29764151,12.4517763 5.45322966,12.5355519 C5.50710469,12.5714997 5.57300085,12.5953977 5.64481077,12.6193406 C5.7106638,12.6372829 5.80638307,12.6553325 5.92615427,12.6732905 C5.90818859,12.9426572 5.93216219,13.1461122 5.99800994,13.2838315 C6.05787354,13.4214628 6.14162977,13.5232783 6.24934464,13.58919 C6.36304367,13.6550348 6.48290287,13.6669992 6.62053854,13.6310849 C6.75227805,13.595181 6.86597708,13.5053335 6.95582748,13.3677022 C7.02169723,13.2659747 7.05755819,13.1641592 7.07551067,13.0623437 C7.09346843,12.9545442 7.08743762,12.8169129 7.05151859,12.6553457 C7.20719474,12.6254249 7.32687793,12.5835019 7.41664032,12.5356663 C7.50046256,12.4877945 7.56642031,12.4280428 7.61429359,12.3561471 C7.67417567,12.2663876 7.69812022,12.1645721 7.68614839,12.0567726 C7.66819591,11.9549571 7.60830151,11.8472456 7.50055144,11.7395342 L7.42869576,11.7694927 C7.48857168,11.8233485 7.51854616,11.8831882 7.52453032,11.9430279 C7.53051448,12.0028685 7.51246344,12.0627073 7.47654704,12.122547 C7.44064208,12.1823867 7.38080049,12.2303465 7.30300641,12.2722343 C7.22516834,12.3081821 7.11749747,12.3381671 6.96780548,12.3620818 C6.90791988,12.1885467 6.8300818,12.0268035 6.73433525,11.8652363 C6.64457286,11.7035811 6.59661158,11.6018536 6.59062742,11.5479978 C6.58459926,11.5000821 6.6025535,11.4281424 6.64445934,11.3503508 L6.59062742,11.3263744 L6.59084391,11.3263744 Z M5.59940948,11.7768442 C5.65020003,11.7768442 5.70184421,11.7902466 5.7467254,11.8171859 C5.8364878,11.8710856 5.89043323,11.9369533 5.92633819,12.0327848 L5.93230651,12.0506883 L5.93827395,12.0687115 L5.93827395,12.086615 L5.94424227,12.1046382 L5.95032939,12.128509 L5.95032939,12.1465322 L5.95629771,12.1644357 L5.95629771,12.1884261 L5.95629771,12.2124174 L5.96226603,12.230321 L5.96226603,12.2543123 L5.95629771,12.278183 L5.95629771,12.3021744 L5.95629771,12.3260451 L5.95629771,12.3560037 L5.95032939,12.379995 C5.81858988,12.3560715 5.71685917,12.3380377 5.65094541,12.3200779 C5.58509765,12.3020987 5.53126222,12.2842277 5.4893731,12.2602795 C5.43549367,12.2243757 5.39362655,12.1764731 5.36370575,12.1105923 C5.33377527,12.0387406 5.34565559,11.960905 5.39354647,11.8890974 C5.42946463,11.8292137 5.48330886,11.7992498 5.54922262,11.7812979 C5.56568434,11.7783094 5.58254383,11.7768442 5.59947372,11.7768442 L5.59940948,11.7768442 Z M6.90809236,12.6732078 L6.93208356,12.6732078 L6.93196476,12.6732078 C6.94992428,12.8050628 6.95599116,12.9008064 6.9440202,12.9606461 C6.93803604,13.0264698 6.91404836,13.0803255 6.87813284,13.1341812 C6.81230709,13.2359087 6.72245669,13.2957484 6.61474182,13.3077164 C6.50104279,13.3257123 6.39922408,13.3077428 6.29749337,13.253887 C6.20773097,13.1999864 6.14181722,13.1281357 6.0999281,13.0323921 C6.06401522,12.9366486 6.04609706,12.8168812 6.04609706,12.6792499 C6.19578905,12.6912222 6.31556025,12.6972722 6.42327512,12.6972722 L6.4411792,12.6972722 L6.46517128,12.6972722 L6.48904367,12.6972722 L6.51303487,12.6972722 L6.53702607,12.6972722 L6.55493015,12.6972722 L6.56686679,12.6972722 L6.57892223,12.6972722 L6.59682631,12.6972722 L6.60876206,12.6913049 L6.62678582,12.6913049 L6.6446899,12.6913049 L6.65674534,12.6913049 L6.67464942,12.6913049 L6.69267318,12.6913049 L6.71057726,12.685218 L6.72848134,12.685218 L6.7465051,12.685218 L6.76440917,12.685218 L6.78840037,12.685218 L6.80630445,12.6792499 L6.82432821,12.6792499 L6.84820061,12.6792499 L6.86622349,12.6792499 L6.89021557,12.6792499 L6.90811964,12.6732078 L6.90809236,12.6732078 Z M45.2088067,13.4808217 C45.2070733,13.4808217 45.2123253,13.486388 45.2177092,13.4925647 L45.2203352,13.4874317 C45.2145368,13.4835043 45.2109471,13.4808217 45.2088067,13.4808217 Z M45.2177092,13.4925454 L45.1724716,13.5830283 L45.1186397,13.6788598 L45.0648078,13.7806753 L45.0108562,13.8882988 L44.9510569,14.0020822 L44.9210965,14.0560312 L44.8851695,14.1158296 L44.8492417,14.1757459 L44.8134335,14.2355442 L44.7715382,14.2954613 L44.7295224,14.3552597 L44.6876271,14.421145 L44.6397635,14.4809433 L44.5859316,14.5468277 L44.538068,14.612713 L44.4782678,14.6725104 L44.4183487,14.7443638 L44.3524614,14.8102491 L44.286574,14.8761344 L44.2147192,14.9419 L44.1428636,15.0137525 L44.059073,15.0796378 L43.9752807,15.1514912 L43.8854303,15.2233437 L43.7956679,15.2951971 L43.6938492,15.3610824 L43.5921185,15.4329349 C41.4489973,16.8696159 33.1700006,22.0057106 31.2603497,23.1490009 C30.182849,23.7895498 29.320778,24.9986638 29.057387,25.5434691 C28.7640752,26.1480261 28.3270555,27.6505307 28.1294903,30.230502 C28.0935712,30.7273476 26.7885985,31.5474155 26.9501708,31.9126137 C27.105759,32.265844 28.0996575,32.0922209 28.0636645,32.3675715 C28.027749,32.6070183 27.7343597,32.9721285 27.7343597,33.2055914 C27.7343597,33.480942 28.3209834,33.2294912 28.1772755,33.5288138 C27.931837,34.0196754 28.3210714,34.1274748 28.4646912,34.498569 C28.6142952,34.8636792 28.4167871,35.2827331 28.5484826,35.5939876 C28.787937,36.132721 29.6379517,36.2344485 30.9967959,36.2045286 C32.3617123,36.1805857 32.9782567,37.1204281 32.6789607,37.958448 C32.2899024,39.0658345 31.3799581,39.0478826 29.9671684,39.9996859 C28.5483946,40.9455052 28.488553,42.1487233 29.3146311,43.1723343 C29.9432318,43.9505144 32.3078548,44.3276806 33.7924544,42.819192 C34.0977346,42.4779297 33.1218765,42.9388714 31.7031907,42.1965951 C31.7031907,42.1965951 30.7812782,41.5321983 31.2721552,40.6403227 C31.7570482,39.7423752 32.5472212,39.3532411 33.4212605,38.8444276 C34.2892277,38.3296301 35.4326422,38.0482075 35.3787847,36.9468049 C35.3249273,35.8513863 34.1816008,35.6958031 33.7206445,35.6658833 C33.2537041,35.6419403 32.5353409,35.6837577 31.8947718,35.6538282 C30.924986,35.6059564 30.6317622,35.1450147 30.5719206,33.2953518 C30.5539637,32.7027627 29.7218179,33.0200012 30.1827742,32.235837 C30.4282127,31.828751 29.7218179,31.9904942 29.2429091,31.7869512 C28.8358103,31.6013602 29.7157457,30.7453004 30.326394,29.9312164 C30.5179751,29.6738177 30.2186792,29.3446993 30.326394,28.1295133 C30.4282127,27.0699985 30.9190898,25.6871733 32.3378636,24.7174181 C33.0322902,24.2445084 36.0612429,22.3588537 36.9412664,21.8560242 C38.1744432,21.1436677 44.1427624,17.2825987 45.1664056,16.5104025 C46.9530293,15.1607532 45.328858,13.6202327 45.2176116,13.4925454 L45.2177092,13.4925454 Z M4.12501377,13.9242906 L3.77775651,14.7264947 L3.83767555,14.7503663 L3.86154707,14.6846007 C3.87950395,14.6427129 3.90952243,14.6007829 3.95139746,14.5708173 C3.98132706,14.5468735 4.01122762,14.5408578 4.04115985,14.5408578 C4.07707361,14.5408578 4.14887473,14.5587552 4.25060544,14.6006562 L4.82534876,14.8221511 L4.44817071,15.6960748 L4.44817071,15.6961936 L3.86761923,15.4687147 C3.77187268,15.4327669 3.70595892,15.4029007 3.68202228,15.3789551 C3.6580786,15.3549752 3.640127,15.3249771 3.640127,15.2950467 C3.63414108,15.2471749 3.64006892,15.1993031 3.65803108,15.1574153 L3.6879906,15.0915301 L3.63415868,15.0675387 L3.28100527,15.8697428 L3.33483719,15.8937341 L3.3647967,15.8278488 C3.38873774,15.7799771 3.41864006,15.7440345 3.4545591,15.7140654 C3.48449309,15.6901234 3.51438485,15.6781396 3.54432149,15.6781396 C3.58023525,15.6781396 3.65212436,15.7020191 3.75394308,15.7379379 L5.05294571,16.2407674 C5.1726289,16.2886392 5.24443881,16.324565 5.26239129,16.3604468 C5.29830681,16.4143466 5.29830681,16.4801263 5.26239129,16.5580059 L5.23243177,16.6238911 L5.29235081,16.6419143 L5.63960807,15.8397103 L5.58565735,15.8158387 L5.55581663,15.8876921 C5.53785975,15.9295799 5.50185359,15.9654186 5.46596624,15.9953155 C5.43603224,16.0192576 5.4061396,16.0312413 5.37620385,16.0312413 C5.34029009,16.0312413 5.26848897,16.0073635 5.17265442,15.971443 L4.55602198,15.7379802 L4.93918419,14.8639685 L5.54974447,15.0974313 C5.66942766,15.1453031 5.74141358,15.1871909 5.75936606,15.2171107 C5.79528158,15.2710105 5.79528158,15.3367901 5.75936606,15.4146697 L5.72940654,15.480555 L5.78323846,15.5045455 L6.13639187,14.6963574 L6.08255996,14.6784539 L6.046633,14.7442195 C6.02867172,14.7861073 5.99875884,14.8220499 5.96284156,14.858003 C5.93291197,14.8759602 5.90301229,14.8879615 5.87307917,14.8879615 C5.83716101,14.8879615 5.7652763,14.870066 5.66345758,14.8281641 L4.36445495,14.3313185 C4.2687084,14.2893867 4.20279464,14.2595197 4.17885801,14.241559 C4.14892841,14.2176231 4.13696273,14.1876029 4.13696273,14.1517114 C4.12499089,14.1038396 4.13702785,14.0559679 4.15498561,14.0140801 L4.18534642,13.9480804 L4.12541682,13.9242906 L4.12501377,13.9242906 Z M3.16121208,16.2348952 L2.67042299,17.8390393 L3.14933176,17.9947106 L3.16735552,17.9407615 C3.07759313,17.9048577 3.00560721,17.8689345 2.96371809,17.8150982 C2.91582545,17.7612424 2.8979689,17.7133707 2.89198298,17.653531 C2.88599706,17.6115992 2.90396626,17.5458195 2.92790994,17.4559719 L3.00573393,17.2165251 L4.59206422,17.653531 C4.70576325,17.6834948 4.77757317,17.7194462 4.80749396,17.7493625 C4.84940068,17.7972782 4.85543412,17.8630579 4.83148516,17.9469215 L4.80749396,18.0128068 L4.867413,18.0307103 L5.12490787,17.1986744 L5.06498883,17.1807709 L5.04708475,17.2465365 C5.02314371,17.3243281 4.98112523,17.3782718 4.92722556,17.4022077 C4.88531884,17.4201702 4.80155821,17.40827 4.67589086,17.3783361 L3.08956057,16.9413302 L3.173352,16.6659796 C3.19729304,16.588188 3.23314607,16.5222763 3.27508271,16.4803885 C3.31698943,16.438469 3.37690143,16.4145569 3.44281518,16.3965997 C3.4847175,16.3906113 3.55053006,16.3905929 3.64038045,16.402567 L3.65828453,16.3487376 L3.16142328,16.2348952 L3.16121208,16.2348952 Z M4.19092753,18.2282253 L4.16693633,18.2700357 C4.29260368,18.3478722 4.37646991,18.4198109 4.42443119,18.4796506 C4.47830447,18.5455183 4.50820415,18.605314 4.51419359,18.6712257 C4.52616542,18.7430773 4.51416366,18.8508328 4.48423407,19.0065041 L4.44830711,19.1501193 C4.42436167,19.2818547 4.40047871,19.3536623 4.38850687,19.3775982 C4.37054912,19.4015262 4.34654472,19.4194746 4.32858784,19.4254603 C4.28668992,19.431446 4.22676912,19.4314821 4.14299089,19.413524 L2.80209914,19.1620213 C2.68241595,19.1380414 2.60453388,19.1141108 2.57461308,19.0901679 C2.54467996,19.066232 2.52082076,19.0363473 2.50884541,18.9884404 C2.49687357,18.9405246 2.50282076,18.868673 2.52078116,18.7609615 L2.46695013,18.7490261 L2.27536902,19.6529577 L2.32920094,19.664893 L2.3472247,19.5870724 C2.36518158,19.5152647 2.40100997,19.461321 2.45485157,19.4314012 C2.49076972,19.4074582 2.57462276,19.4134264 2.70636227,19.4373693 L4.08315897,19.700752 C4.20293017,19.7187479 4.28072424,19.7486625 4.30466088,19.7726045 C4.35853592,19.8205203 4.37046991,19.8863 4.35849279,19.9701635 L4.34058872,20.0420169 L4.40038807,20.0539523 L4.72960485,18.5095599 L4.19094249,18.2282253 L4.19092753,18.2282253 Z M43.6582197,19.5452383 L43.652371,19.5512302 L43.6464027,19.5571983 L43.6404344,19.5631664 L43.628379,19.5691337 L43.6164432,19.5810699 L43.6045066,19.593125 L43.5864837,19.6050604 L43.5505558,19.6350198 L43.5086597,19.6769138 L43.4548278,19.7188077 L43.4009959,19.7666707 L43.3351094,19.8205009 L43.269222,19.8743303 L43.1913989,19.9402155 L43.1135758,20.0061008 L43.0297844,20.0719861 L42.939934,20.1438386 L42.8501716,20.2216601 L42.754337,20.2994808 L42.6526063,20.3773015 L42.5507876,20.4612099 L42.4429847,20.5449978 L42.341254,20.6287875 L42.1197521,20.7963387 L41.892266,20.9638898 L41.6707641,21.131441 L41.4432781,21.2871123 L41.3356512,21.3649329 L41.2218642,21.4367854 L41.1140613,21.5086388 L41.0122426,21.5804922 C39.8329231,22.3167846 34.5410781,25.1303068 33.3677428,26.100062 C32.1884233,27.0698172 32.2362966,27.8957811 32.2362966,27.8957811 L32.0448035,30.2963213 C32.0448035,30.2963213 31.3084879,31.0385977 31.2127413,31.3139483 C31.1169948,31.5892989 31.7035304,31.6371707 32.1405501,31.8646496 C32.5835539,32.0981124 32.0567833,32.3075514 32.2363846,32.5170784 C32.5836419,32.9061244 32.8528411,32.5889555 32.6193708,33.2533707 C32.5834509,33.3550982 32.9127707,33.6664407 32.8768657,33.8399758 C32.8169801,34.1153265 32.6673321,34.3009176 32.9247302,34.5463484 C33.218042,34.821699 34.1638912,35.2887127 36.330949,34.8457229 C38.6835157,34.3608453 40.2279569,36.1925563 41.4012921,36.5038107 C41.8023188,36.6056262 43.1314183,37.0245922 45.2265781,35.3964242 C46.1305382,34.6960356 44.6697873,35.3304535 42.5746274,34.4505168 C40.3417439,33.5166654 39.671342,33.4568257 38.16879,33.7381603 C36.8817557,33.9776072 35.9299223,34.1872221 35.4270769,34.0375349 C34.9960414,33.9057995 35.3552247,33.2652507 35.0320344,33.1575392 C34.3854811,32.9420283 34.8284849,32.6308618 34.4454107,32.4213348 C34.0562643,32.2058239 34.2838384,32.1219603 34.2718701,31.6910264 C34.2658842,31.3917399 33.9365811,31.4755155 33.4636565,31.2121328 C33.0984468,31.0026058 33.9665019,30.6195437 34.0921693,30.3141852 C34.2357891,29.9370191 34.0562124,29.4102537 34.1519695,28.6380575 C34.3255102,27.2791682 36.3549323,26.3274529 37.432521,25.7288798 C38.6118404,25.088419 41.9760821,23.0352131 42.7722393,22.5024637 C44.633929,21.2573578 43.658247,19.5452383 43.658247,19.5452383 L43.6582197,19.5452383 Z M4.31061072,20.1556675 C4.298638,20.2395795 4.26862304,20.2995072 4.22076032,20.341395 C4.17286857,20.3832828 4.07115633,20.4311546 3.92155235,20.4730423 L2.05379055,21.0297276 L2.05379055,21.0775906 L3.75399588,21.9516023 C3.90368787,22.0294379 4.00533058,22.0953056 4.0473077,22.1491613 C4.0712549,22.1790811 4.08918537,22.2329193 4.09517129,22.3167125 L4.15509033,22.3226806 L4.22085889,21.6822197 L4.16105865,21.6762516 C4.14310177,21.7720831 4.11911497,21.8379068 4.09517129,21.8618427 C4.0652417,21.8917714 4.03536314,21.9036363 3.99942474,21.8976497 C3.96351098,21.8976497 3.90359019,21.8737895 3.81981195,21.8318841 L3.49657934,21.664157 L3.57440245,20.8740968 L3.89165091,20.7782653 C3.99936578,20.7483314 4.0712637,20.7363714 4.11913697,20.7363714 C4.15505513,20.7423553 4.18497065,20.7603873 4.20292753,20.7903213 C4.22687121,20.8202411 4.23288793,20.8740792 4.23288793,20.9578724 L4.29268728,20.9638397 L4.37051039,20.1616356 L4.31071104,20.1556675 L4.31061072,20.1556675 Z M3.44862774,20.9100482 L3.38274038,21.6104367 L2.54469404,21.1734309 L3.44865414,20.9100482 L3.44862774,20.9100482 Z M3.62216836,22.4362951 L3.62216836,22.5022868 C3.75390788,22.5681545 3.85563859,22.6280382 3.92155235,22.6878779 C3.97542738,22.7357497 4.0052901,22.7896934 4.02328306,22.8375652 C4.04124082,22.8914209 4.04725666,22.9751965 4.05324258,23.0888919 L4.05921002,23.4301543 C4.05921002,23.490038 4.05327778,23.5259858 4.04130594,23.5439377 C4.02933234,23.567863 4.01142298,23.5798283 3.98747402,23.5917989 C3.96951274,23.5977846 3.90958579,23.6037352 3.81384539,23.6037352 L3.1014664,23.6098221 L3.1014664,23.1607603 C3.0954796,23.0769407 3.10749984,23.011073 3.1254576,22.9691852 C3.14940304,22.9272693 3.17331592,22.9033528 3.21522,22.8853965 C3.24515399,22.867456 3.31096655,22.8495058 3.41278526,22.8375344 L3.41278526,22.7837042 L2.66450131,22.7896714 L2.66450131,22.8494698 C2.79016866,22.8494698 2.8739469,22.8795383 2.92182017,22.9274101 C2.95774009,22.9692979 2.97575417,23.0470895 2.98173921,23.1608729 L2.98173921,23.6097587 L2.13163655,23.621695 L2.12566911,23.0650097 C2.11968319,22.9572983 2.12573423,22.8914746 2.14369199,22.8495868 C2.16763743,22.7956871 2.19751423,22.7597392 2.23943854,22.7358034 C2.28134262,22.7118235 2.35912173,22.6819124 2.47889293,22.66395 L2.47292461,22.6040328 L2,22.6280232 L2.01790408,24.2022475 L2.07782311,24.2022475 L2.07782311,24.1303941 C2.07782311,24.0466185 2.09572191,23.9867788 2.13762335,23.950875 C2.16755559,23.9269303 2.25141038,23.9089801 2.38913405,23.9089801 L3.80192372,23.8909578 C3.90365443,23.8909578 3.97546434,23.8970087 4.00547314,23.9089801 C4.0413869,23.9209481 4.07130682,23.9388322 4.0892637,23.9747457 C4.11320738,24.0166335 4.12519153,24.0586445 4.12519153,24.1064811 L4.12519153,24.1783345 L4.18511057,24.1783345 L4.16708769,22.6040222 L3.62235317,22.4362951 L3.62216836,22.4362951 Z M4.18494337,24.3280719 L4.12502433,24.3340955 L4.13696097,24.3999808 C4.14294689,24.4478525 4.13703577,24.4958123 4.11308857,24.543684 C4.10112025,24.5736321 4.08310089,24.5975979 4.05316953,24.6095693 C4.02323994,24.6275116 3.95143882,24.6454582 3.84372395,24.6574314 L2.44888677,24.8069427 C2.3411719,24.8189141 2.27534614,24.8190153 2.23944118,24.8130305 C2.20352127,24.8070465 2.17360751,24.7890119 2.15564975,24.7590806 C2.12571751,24.7171928 2.10780375,24.6753015 2.10181783,24.6274332 L2.08976239,24.5555807 L2.02996216,24.561548 L2.13776503,25.4294877 L2.20353271,25.4175523 L2.19159607,25.3517858 C2.18561015,25.2979301 2.19154327,25.2559543 2.20950103,25.2080825 C2.22746318,25.1781319 2.24547286,25.1482015 2.26942006,25.13623 C2.30533558,25.1242585 2.37713493,25.1062864 2.48484981,25.0943352 L3.10148224,25.0284508 L3.22116543,25.9622142 L2.59854884,26.0340676 C2.49681812,26.046039 2.42500821,26.0461411 2.38910325,26.0401545 C2.35318686,26.0281989 2.32925638,26.0101475 2.30531182,25.9862046 C2.27538222,25.9443168 2.25734702,25.9024255 2.2513611,25.8545573 L2.24539278,25.7827047 L2.18559343,25.788672 L2.2932203,26.6506277 L2.35314021,26.6446596 L2.34120358,26.5728071 C2.33521854,26.5249353 2.34113229,26.4769756 2.36507597,26.4291038 C2.37704781,26.3991549 2.40105133,26.3753097 2.42499501,26.3633382 C2.45492989,26.345381 2.52672572,26.3334175 2.63444059,26.3214434 L4.02927778,26.1657721 C4.15494513,26.1538007 4.24470752,26.1537646 4.27471632,26.1777075 C4.33457552,26.2076274 4.36456672,26.2674671 4.37653504,26.3452587 L4.38847079,26.4230794 L4.44827103,26.411144 L4.34064416,25.5491882 L4.28072512,25.5551563 L4.28669256,25.6270089 C4.29267848,25.6748806 4.28674712,25.7228404 4.26878848,25.7707122 C4.2508316,25.8006663 4.23281312,25.8246269 4.20886945,25.8365974 C4.17295129,25.8545573 4.10115457,25.8665208 3.99942386,25.8784914 L3.34090231,25.9503448 L3.22121912,25.0164934 L3.87974067,24.9446391 C4.00549602,24.9266819 4.08918626,24.9326509 4.12517921,24.9506072 C4.17904985,24.9865111 4.21502961,25.0403668 4.22699793,25.1241424 L4.23296625,25.1959958 L4.2927656,25.1900277 L4.18513873,24.3280719 L4.18494337,24.3280719 Z M3.04144088,27.841774 L2.58655676,27.9797574 L2.99955177,29.4462701 L3.05350337,29.4282469 L3.0354796,29.3624813 C3.02350777,29.3146096 3.02350777,29.2666498 3.0354796,29.2187781 C3.04745144,29.1828461 3.05951921,29.1589181 3.08346288,29.1409574 C3.11339688,29.1229615 3.1851936,29.0990177 3.28701231,29.0750721 L4.64576853,28.7338098 C4.77152389,28.7038803 4.84940596,28.6979667 4.89129508,28.7099382 C4.95115867,28.7338749 4.99302579,28.787728 5.01696243,28.8715054 L5.03486651,28.937271 L5.09478554,28.9253347 L4.85533116,28.0813309 L4.80138044,28.0932662 L4.8194042,28.1651188 C4.83137604,28.2129905 4.83137604,28.2609503 4.8194042,28.3088221 C4.80743324,28.344754 4.79548428,28.3686855 4.77153973,28.3866427 C4.74161013,28.4046386 4.66963301,28.4285851 4.5679023,28.452528 L3.90357259,28.6200792 L3.80175387,28.2609529 C3.78379523,28.1951293 3.78381371,28.1411855 3.79578555,28.1052817 C3.80176971,28.0633499 3.82565531,28.0333993 3.85558579,28.0034662 C3.89150395,27.97352 3.94543618,27.9495761 4.02921442,27.9316137 L4.01119066,27.8777835 L3.30479582,28.0513186 L3.31685127,28.1112349 C3.43662246,28.0932786 3.52031269,28.0992282 3.56818597,28.1231711 C3.61607684,28.153091 3.6520258,28.2069291 3.67598884,28.2907223 L3.77771955,28.6498485 L2.95762569,28.8534795 L2.83195834,28.4224577 C2.80800938,28.3206422 2.7960129,28.2368666 2.80199882,28.1830108 C2.80798298,28.1291551 2.83198914,28.0811953 2.86191786,28.0393075 C2.90382105,27.9914358 2.96373657,27.943476 3.05349896,27.8956043 L3.04144352,27.841774 L3.04144088,27.841774 Z M4.57549778,29.4079622 C4.43029391,29.4079622 4.28068992,29.434289 4.12501377,29.4881667 C3.82571779,29.5959662 3.61020005,29.7753973 3.4845327,30.0208281 L3.47259694,30.0448194 L3.4605415,30.0688099 L3.44860574,30.0926815 L3.4366691,30.116672 L3.43058198,30.1406633 L3.42461366,30.164534 L3.4126779,30.1885254 L3.40670958,30.2123961 L3.40074126,30.2363874 L3.39477382,30.2603779 L3.38868582,30.2842495 L3.38271838,30.30824 L3.38271838,30.3321116 L3.37675006,30.3561029 L3.37675006,30.3800934 L3.37675006,30.3979969 L3.37675006,30.4219873 L3.37078174,30.445859 L3.37675006,30.4698494 L3.37675006,30.4938407 L3.37675006,30.5177124 L3.37675006,30.5417028 L3.38271838,30.5655745 L3.38271838,30.5895649 L3.38868582,30.6135562 L3.39477382,30.637427 L3.40074126,30.6554502 L3.40670958,30.6793218 L3.4126779,30.7033123 L3.41864534,30.7273027 L3.43058198,30.7511743 L3.4366691,30.7751657 C3.53839981,31.0265804 3.70604428,31.2061875 3.95746698,31.325867 C4.24479464,31.4576023 4.54409062,31.4695702 4.86732324,31.3558255 C5.1845717,31.2480261 5.4060736,31.062435 5.53781311,30.8170042 C5.66356847,30.5715734 5.67553679,30.3140867 5.57374095,30.050704 C5.47201024,29.7933052 5.28034113,29.6078021 4.99899763,29.4940187 C4.86127396,29.4371481 4.72064621,29.4079622 4.57553034,29.4079622 L4.57549778,29.4079622 Z M4.82164034,29.6914181 C4.91201875,29.6914181 4.99306891,29.7029182 5.06487883,29.7276021 C5.26244409,29.7934698 5.3940956,29.9131932 5.46590552,30.0927123 C5.53175327,30.2603515 5.51382367,30.4159347 5.41804192,30.565622 C5.29228657,30.763181 5.06488851,30.9187642 4.73567173,31.0325477 C4.41243911,31.1463311 4.13699177,31.170267 3.92147402,31.1044011 L3.90356995,31.098433 L3.88554619,31.0924648 L3.87360955,31.0864976 L3.85558667,31.0805294 L3.84365003,31.0744416 L3.82574595,31.0625063 L3.81369051,31.0565381 L3.79578643,31.0505709 L3.78385068,31.0385158 L3.77179523,31.0325477 L3.7598586,31.0265795 L3.74183572,31.0146442 L3.72989908,31.0027079 L3.71796332,30.996621 L3.70602756,30.9846856 L3.69397212,30.9727502 L3.6880038,30.9667821 L3.67606804,30.954727 L3.6640126,30.9427916 L3.65207596,30.9308554 L3.64610764,30.9188003 L3.63417188,30.9068641 L3.62211644,30.8949287 L3.61614812,30.8828745 L3.60421237,30.8649701 L3.59824405,30.8530347 L3.59227661,30.8409797 L3.58022117,30.8230762 L3.57425285,30.8111408 L3.56828453,30.7931176 L3.56231709,30.7811813 L3.55634877,30.7631581 C3.48451598,30.583551 3.49649485,30.4159998 3.59227661,30.2664006 C3.70597564,30.0748255 3.94534202,29.9191543 4.29259928,29.7994749 C4.49465266,29.7283809 4.67100937,29.6923794 4.82158138,29.6914181 L4.82164034,29.6914181 Z M14.8345473,30.8947402 C13.5935382,30.9090658 12.7058585,31.4627802 12.8891674,32.5589908 L12.9011032,32.5530227 L12.9130389,32.5470545 L12.9250944,32.5351192 L12.9489668,32.5230641 L12.972958,32.5051606 L13.0088858,32.4871374 L13.0448136,32.475202 L13.0867098,32.4572985 L13.1345725,32.4333072 L13.1884044,32.4154037 L13.2482047,32.3973805 L13.3081237,32.3854451 L13.3799794,32.3674228 L13.4578025,32.3554865 L13.5356256,32.3435511 L13.625388,32.3314952 L13.7212226,32.3255279 L13.8230413,32.3195598 L13.924772,32.3195598 L14.038559,32.3255279 L14.1582422,32.3314952 L14.2840856,32.3435511 L14.3498532,32.3554865 L14.4217089,32.3674228 L14.4875954,32.37339 L14.5594511,32.3914132 L14.6313067,32.4033486 L14.7031615,32.4154037 L14.7809855,32.4333072 L14.8588078,32.4572985 L14.9367506,32.475202 L15.0205429,32.4991925 L15.0983651,32.5230641 L15.1881275,32.5470545 L15.2720377,32.5770131 L15.3618001,32.606852 L15.4515625,32.6368115 L15.5414129,32.6727382 L15.6371595,32.7026959 L15.732994,32.7445907 C17.7862648,33.5766266 23.2098493,36.0248625 24.6467517,37.0784813 C25.5267751,37.7250141 27.9811605,38.8324887 27.2927182,40.0357068 C26.6042758,41.2329409 23.2759391,41.7895381 23.9583973,44.3695974 C24.6468397,46.9555527 28.2743844,45.8482541 28.7652614,45.2017213 C29.2501544,44.5551885 27.1490104,45.5787995 26.4126947,43.7291366 C25.8260711,42.2505678 26.8497144,41.2688447 28.2744724,40.3111454 C28.9569306,39.8502037 29.8847393,39.4790215 29.7410315,38.2818754 C29.6449329,37.4498395 28.1782858,36.8033067 26.7056545,35.9771668 C25.2330233,35.1451309 19.5520318,32.469328 17.2955637,31.4517011 C16.4515332,31.0723349 15.5796939,30.8865678 14.8350181,30.8947402 L14.8345473,30.8947402 Z M6.54375825,32.2478243 L6.48980753,32.2776632 L6.53182249,32.3435494 C6.56773801,32.4093731 6.57962361,32.4751967 6.56166233,32.5290525 C6.54370545,32.5649563 6.47787529,32.6128747 6.3581129,32.6727558 L4.90941828,33.4210161 L4.75972629,33.1696893 C4.71782133,33.0918537 4.69992694,33.025898 4.69992694,32.9660583 C4.69394278,32.9122026 4.71185213,32.8523629 4.75375885,32.7985071 C4.77770429,32.7626033 4.82563301,32.7206962 4.89746668,32.6728438 L4.8734746,32.6190135 L4.43645495,32.8703403 L4.43645495,32.87046 L5.28057346,34.3369728 L5.74144174,34.1275338 L5.71160191,34.0735839 C5.62183951,34.1154708 5.54395744,34.1274335 5.47214752,34.1214469 C5.40031473,34.1154189 5.34639217,34.0975814 5.29851889,34.0556813 C5.2685893,34.0317445 5.22669138,33.9718036 5.1788357,33.8879541 L5.05316835,33.6725312 L6.50784713,32.9302548 C6.61565001,32.8763665 6.68745992,32.8524333 6.72934904,32.8524333 C6.79517479,32.8584172 6.84903223,32.9002813 6.89690551,32.9780967 L6.93283334,33.0439819 L6.98666526,33.0140225 L6.54374945,32.2478243 L6.54375825,32.2478243 Z M7.47763915,33.738273 L5.96901493,34.7140122 C5.86728422,34.7798711 5.80145846,34.8097557 5.75956935,34.8097557 C5.68773743,34.8097557 5.63381399,34.7739469 5.57995656,34.7021322 L5.53806128,34.6422151 L5.48422937,34.6721745 L5.91526486,35.2647636 L5.96312845,35.2288369 L5.92123229,35.1750067 C5.87334758,35.109183 5.85542502,35.0492553 5.86740038,34.9953996 C5.8793687,34.9535118 5.94515397,34.8936721 6.04692517,34.8218645 L7.07655261,34.1633637 L6.48992898,36.0489304 L6.82521791,36.5038882 L6.87308151,36.4739296 C6.83714663,36.4260578 6.81319767,36.38417 6.80122671,36.3601462 C6.789254,36.3003064 6.77735432,36.2523467 6.77735432,36.2104589 C6.77735432,36.1745111 6.7893376,36.1086434 6.81328128,36.0248678 L8.05833847,35.2168558 C8.15408502,35.156987 8.2320551,35.1210243 8.26796006,35.1210243 C8.33976997,35.1210243 8.39961157,35.1569518 8.44748484,35.2288237 L8.49534932,35.2887409 L8.54321291,35.2587832 L8.11235343,34.6661941 L8.06437015,34.7021199 L8.10638511,34.7619183 C8.15425838,34.8277419 8.17220734,34.8876696 8.15424958,34.9415254 C8.14826542,34.9834132 8.08835431,35.0372689 7.9746368,35.1090766 L6.87918359,35.821433 L7.50769635,33.7861791 L7.47785651,33.738273 L7.47763915,33.738273 Z M8.77065762,35.5102323 L8.23780341,35.7077913 L8.27969957,35.7556525 C8.4233194,35.7197328 8.54317859,35.7077552 8.63901315,35.7197267 C8.71082306,35.7197267 8.77066466,35.7436458 8.81853793,35.7675888 C8.86641121,35.7975086 8.93223696,35.8574363 9.01011904,35.9471959 L9.24957342,36.2045066 C9.28547046,36.2464384 9.30937278,36.2823748 9.30937278,36.3063221 C9.31535782,36.3242573 9.3153763,36.3481624 9.30340534,36.3661204 C9.29143702,36.3840724 9.24957166,36.4260121 9.17773799,36.4799039 L8.63889962,36.9169097 L8.32763533,36.5758234 C8.26774973,36.5099997 8.23197678,36.456144 8.22000846,36.4142562 C8.2080375,36.3723693 8.20801902,36.3303407 8.22597678,36.2944008 C8.2379451,36.2644809 8.27981045,36.2107308 8.35164413,36.1389056 L8.30974797,36.0970107 L7.74098881,36.5518805 L7.78288408,36.5937744 C7.87871864,36.5279182 7.96249687,36.4980309 8.03439479,36.5040149 C8.08829623,36.5099989 8.15407798,36.5638845 8.23794422,36.6537021 L8.54920851,36.9947885 L7.89675912,37.5156579 L7.51359691,37.09062 C7.44174299,37.0128284 7.39989787,36.9529007 7.3819454,36.9110129 C7.36398676,36.8631411 7.36400524,36.8093734 7.37597708,36.7673976 C7.39392956,36.7194818 7.43577819,36.6537021 7.50762859,36.5698386 L7.47170075,36.5219765 L7.11854733,36.8331429 L8.20810438,38.030377 L8.24999966,37.9944512 L8.20213606,37.9346529 C8.1422575,37.8748132 8.11832703,37.8148855 8.12431295,37.7610297 C8.13628127,37.7251259 8.1901211,37.6593902 8.29186941,37.5815106 L9.36338598,36.7135709 C9.44716421,36.6536872 9.50110965,36.6117554 9.53701461,36.5997875 C9.5669354,36.5878151 9.6027902,36.5878151 9.63874532,36.5997875 C9.6866186,36.6177394 9.72850771,36.6476575 9.75842851,36.6835762 L9.81226042,36.7374065 L9.85427538,36.7014797 L8.7707025,35.5102323 L8.77065762,35.5102323 Z M9.93792073,36.8211618 L9.89602458,36.8570885 L9.94985649,36.9049515 C10.0157192,36.9588063 10.045691,37.0126629 10.0397069,37.0725026 C10.0397069,37.1144344 9.99773857,37.1803021 9.90796738,37.2761336 L8.94425368,38.2578568 C8.86645961,38.3416764 8.80054585,38.3835202 8.7646409,38.3954881 C8.69877114,38.4074561 8.62691723,38.3834753 8.56109147,38.3236356 L8.50725956,38.2757735 L8.46536428,38.3176675 L8.91426425,38.7126975 L10.632334,38.0363329 L10.0575907,39.7004927 L10.5125629,40.0955227 L10.5484907,40.0536288 C10.4886491,39.999773 10.44676,39.9518133 10.4288075,39.9099255 C10.4168357,39.8680377 10.4108656,39.8320758 10.4228401,39.802126 C10.4348084,39.7602382 10.4766297,39.7063825 10.5364511,39.6405588 L11.5002528,38.6588356 C11.5840759,38.575016 11.6439606,38.5271883 11.6858497,38.5212043 C11.7457353,38.5032084 11.8175012,38.5271311 11.883415,38.5869708 L11.937246,38.6348329 L11.9791413,38.5989062 L11.4224385,38.1141165 L11.3865106,38.1560114 L11.4404614,38.2038735 C11.5003381,38.2577292 11.5302237,38.3115849 11.5302237,38.3714246 C11.5302237,38.4073725 11.4822871,38.4731521 11.3925001,38.5689837 L10.4107459,39.5687467 L11.0392587,37.7790116 L11.0033317,37.7430849 L9.14762623,38.4733933 L10.1358046,37.4710782 C10.2135986,37.3872586 10.2735282,37.3394308 10.3154174,37.3334469 C10.3812871,37.315451 10.4470689,37.3393728 10.5189668,37.3992125 L10.5727987,37.4470746 L10.614694,37.4051806 L9.93830795,36.8185755 L9.93792073,36.8211618 Z M12.4760844,38.9102715 L12.4401566,38.9581336 L12.5060439,39.0000284 C12.5719137,39.0479002 12.6078626,39.09586 12.619831,39.1556997 C12.619831,39.1976315 12.5839181,39.2693951 12.5060439,39.3651386 L11.5362581,40.6281964 L11.2847474,40.4606452 C11.2129374,40.4127735 11.1651522,40.3588297 11.1352314,40.304974 C11.1112851,40.2571022 11.1052525,40.1972625 11.1112402,40.1314389 C11.1172243,40.0895511 11.1411935,40.0356953 11.183095,39.9579037 L11.1352314,39.921977 L10.859872,40.328975 L12.2905262,41.3047142 L12.6077746,40.927548 L12.559911,40.8975895 C12.4940413,40.9693971 12.4342437,41.0113729 12.3683299,41.0353088 C12.3025042,41.0592544 12.2366784,41.0592192 12.182821,41.0472442 C12.140887,41.0352762 12.0810023,40.9992879 11.997224,40.9454287 L11.7876024,40.7959174 L12.7573883,39.5388436 C12.8291982,39.4431001 12.8830556,39.3952283 12.9189606,39.3772764 C12.9848304,39.3592805 13.0506121,39.3712836 13.1284062,39.4251394 L13.1883252,39.4670333 L13.2242531,39.4191712 L12.4759691,38.9102715 L12.4760844,38.9102715 Z M13.4877594,39.622628 L13.4577999,39.6704901 C13.5535464,39.7363578 13.6253563,39.8021374 13.6613493,39.879929 C13.7032666,39.9517807 13.7273026,40.0715921 13.7452604,40.2332473 L13.8171161,40.9574837 C13.6375033,40.9036104 13.4878113,40.897578 13.3621439,40.9334924 C13.2364766,40.9694402 13.14073,41.0412919 13.0748163,41.1490914 C13.0089465,41.2508189 12.9849659,41.3526344 13.0089289,41.4663298 C13.0268814,41.5740413 13.0748013,41.6697848 13.1526368,41.7476644 C13.2304308,41.825456 13.3680665,41.9211996 13.5656318,42.028999 L14.2420178,42.4121491 L14.2719773,42.3583189 L14.20609,42.3223931 C14.1282519,42.2864893 14.0923909,42.2325455 14.0804226,42.1786898 C14.0744376,42.136802 14.0983284,42.0589224 14.170185,41.9512109 L14.882652,40.8139045 C14.9484777,40.712177 14.996263,40.6583213 15.032168,40.6403694 C15.0980377,40.6104548 15.1698917,40.6163684 15.2417896,40.6582729 L15.3136452,40.7002865 L15.3436048,40.6523048 L14.5473595,40.2094029 L14.5174,40.257265 L14.5892557,40.2991599 C14.6611096,40.3350637 14.6969706,40.3830419 14.7089389,40.4368792 C14.7209072,40.478767 14.6850498,40.5566466 14.6191765,40.6643581 L14.2959439,41.1791555 C14.2839729,41.1731672 14.2719879,41.1611499 14.2600169,41.1551642 C14.2420583,41.1491785 14.2300926,41.1432649 14.2181208,41.1312926 C14.1941841,41.1193246 14.1522413,41.0953183 14.1103179,41.0713763 L13.9906347,39.8980781 L13.4877893,39.622628 L13.4877594,39.622628 Z M15.4333152,40.7001827 L15.4093232,40.7541317 C15.4871181,40.7900355 15.5410627,40.8378351 15.5649993,40.897747 C15.594928,40.9516027 15.6068946,41.0534182 15.6068946,41.2031055 L15.5530627,43.0467844 L15.6009263,43.0646879 L17.0316684,41.831638 C17.1573358,41.7178546 17.2590665,41.6519429 17.3249802,41.628007 C17.3608852,41.6160364 17.4208148,41.6220873 17.5105772,41.6460302 L17.5344496,41.5922 L16.911833,41.3288173 L16.8879606,41.3766794 C16.9837071,41.4245511 17.0375646,41.4664389 17.055517,41.4963588 C17.0734739,41.5323066 17.0734563,41.562274 17.0614845,41.5921903 C17.043532,41.6280941 17.0016235,41.6759377 16.9358171,41.7358056 L16.6664419,41.9632845 L15.8943094,41.6400621 L15.9002768,41.3288076 C15.9062627,41.2210961 15.9122759,41.1492885 15.9302363,41.1133847 C15.9481897,41.0834736 15.9721219,41.0594532 16.0140278,41.0534675 C16.0499327,41.0414925 16.1097743,41.0534974 16.1875684,41.0834252 L16.2115605,41.0355631 L15.4333557,40.7001827 L15.4333152,40.7001827 Z M13.8124,41.1001204 C13.9198509,41.1049825 14.0399741,41.1431153 14.1701296,41.2149802 C14.1821058,41.220965 14.1880988,41.2269947 14.2060574,41.2389706 L14.2121445,41.2389706 L14.2181128,41.2449378 L14.2240812,41.250906 L14.2300486,41.250906 L14.2360169,41.2568741 L14.2419852,41.2568741 L14.2419852,41.2628422 L14.2479527,41.2628422 L13.7869964,41.9872547 C13.6912498,41.9573348 13.6134558,41.9273067 13.5595983,41.8974071 C13.4398271,41.8315394 13.3680172,41.7478078 13.3380964,41.6400964 C13.3081756,41.5263129 13.3321457,41.4185135 13.3980155,41.310802 C13.4698703,41.1970186 13.5716441,41.1312829 13.7092798,41.107259 C13.7421997,41.101275 13.7765839,41.0990777 13.8124185,41.1001204 L13.8124,41.1001204 Z M18.1032184,41.7537135 L18.0851938,41.8075437 L18.1630178,41.831535 C18.2348277,41.8554709 18.2887731,41.8973948 18.3127098,41.9512144 C18.3246649,41.9871183 18.3127159,42.0649099 18.2708136,42.1906613 L18.061368,42.7533305 L18.0612483,42.7533305 C18.0014067,42.7173827 17.9475493,42.6874188 17.8936919,42.657499 C17.8338503,42.6395611 17.785977,42.6156596 17.7321196,42.5977006 C17.5345543,42.5318752 17.3610137,42.5318937 17.2173058,42.5917334 C17.073598,42.657601 16.9657951,42.7712525 16.9119377,42.9269237 C16.8700327,43.0466031 16.8700512,43.1544026 16.9059694,43.2622021 C16.9479025,43.3700015 17.0196684,43.4597611 17.1095188,43.5315687 C17.1993692,43.5974364 17.3370929,43.6632161 17.5226018,43.7231438 L18.2708858,43.9685746 L18.2887898,43.9147444 L18.2109667,43.8907539 C18.1331726,43.866818 18.0852114,43.8248942 18.0612747,43.7710745 C18.0433381,43.7351267 18.0552967,43.6513951 18.10317,43.5376117 L18.5581421,42.2805379 C18.6000313,42.1728264 18.6359943,42.1069147 18.665945,42.0829788 C18.7198464,42.0470609 18.7916124,42.0410136 18.8753906,42.0649565 L18.9532146,42.088947 L18.9772058,42.0410849 L18.1032545,41.7537135 L18.1032184,41.7537135 Z M15.8881994,41.7596816 L16.5707456,42.0470002 L15.8643507,42.6576292 L15.8882231,41.7596816 L15.8881994,41.7596816 Z M19.3004023,42.1189548 L18.989138,42.5738536 L19.0609937,42.5918759 C19.1567403,42.4841645 19.2465907,42.4122688 19.3243847,42.364397 C19.3842263,42.3284615 19.4440679,42.3104656 19.5039095,42.3044799 C19.5577669,42.3044799 19.6476173,42.3164637 19.7673005,42.3404057 L20.1204539,42.4243142 C20.1803395,42.4362918 20.2162005,42.4482518 20.234241,42.466209 C20.2521987,42.4841477 20.2642005,42.5020821 20.2642005,42.5200392 C20.2701864,42.5439751 20.2581671,42.5918284 20.2402093,42.6875904 L20.0726528,43.3340352 L19.6057124,43.2323077 C19.5219342,43.2143118 19.4561084,43.1903839 19.4202034,43.1604552 C19.3842642,43.1305354 19.3603196,43.0945594 19.3483478,43.0586397 C19.3423618,43.0286759 19.3423442,42.9628962 19.3543161,42.8610807 L19.2943962,42.8491453 L19.1208555,43.5374779 L19.1746875,43.5494133 C19.2105924,43.4417018 19.2645379,43.3698942 19.3243794,43.3339904 C19.3782369,43.3100474 19.4621031,43.3160138 19.5818743,43.3399585 L20.0427426,43.447758 L19.8451773,44.2319221 L19.2644498,44.1002747 C19.1626311,44.0703232 19.0909092,44.0463794 19.0550043,44.0284213 C19.007087,43.9925175 18.9711345,43.9506068 18.9591697,43.9087419 C18.9412111,43.8668541 18.9352788,43.7890625 18.9412648,43.6752791 L18.8753774,43.6633428 L18.7915868,44.1062446 L20.4138221,44.4713548 L20.4258784,44.4175255 L20.3540219,44.3996211 C20.2702436,44.3816692 20.210402,44.3456782 20.1864654,44.3037896 C20.1685023,44.2678858 20.1684487,44.1841102 20.2043695,44.0583588 L20.5336742,42.7653812 C20.5575968,42.6756216 20.5814833,42.6097099 20.5994419,42.585774 C20.6173944,42.5498755 20.6473178,42.5379304 20.6832325,42.5319438 C20.7370899,42.5139866 20.7850512,42.5140042 20.8329245,42.5259757 L20.9107485,42.5439989 L20.9226842,42.490049 L19.300449,42.1189548 L19.3004023,42.1189548 Z M22.027067,42.6551014 C21.7484516,42.6646665 21.5227256,42.7398745 21.3476889,42.8790361 C21.1441395,43.0466753 21.0184721,43.2681702 20.9825672,43.5495048 C20.9526464,43.7650157 20.9825522,43.9506068 21.0603912,44.12423 C21.1442134,44.2977651 21.2639406,44.4295005 21.4195287,44.51926 C21.5752049,44.6030796 21.8146593,44.6689473 22.1379799,44.7108351 L23.0119312,44.8126506 L23.0178995,44.7527334 L22.9400755,44.7467662 C22.8622814,44.7347983 22.8024398,44.710865 22.7665349,44.6570066 C22.7425912,44.6270868 22.736519,44.5433112 22.7544794,44.4175598 L22.9281081,43.1065423 C22.9460606,42.9928468 22.9699321,42.9210392 22.9938757,42.8911193 C23.0358089,42.843252 23.1075748,42.8192307 23.1974252,42.8312013 L23.275368,42.8432572 L23.2813363,42.7833401 L22.3234308,42.6695567 C22.218708,42.6575887 22.1199693,42.6530471 22.0270389,42.6551014 L22.027067,42.6551014 Z M17.6830072,42.7055993 C17.7214854,42.7055993 17.7596661,42.7121705 17.7978503,42.723393 C17.8277711,42.7353689 17.8637447,42.7474504 17.899669,42.7654067 L17.9056364,42.7713748 L17.9175731,42.7713748 L17.9235405,42.7773429 L17.9295088,42.7833111 L17.9354771,42.7833111 L17.9475326,42.7892783 L17.9535009,42.7952464 L17.9594683,42.7952464 L17.971405,42.8013334 L17.9774921,42.8073015 L17.9894279,42.8073015 L17.9953962,42.8132696 L18.0073328,42.8192369 L18.0133003,42.825205 L18.0253557,42.825205 L18.031324,42.8311723 L17.7380122,43.6393603 C17.6482498,43.6273871 17.582336,43.6154244 17.5344628,43.5974663 C17.4506405,43.5735305 17.3786986,43.5316233 17.3308253,43.471803 C17.2769362,43.4179032 17.2470691,43.3460516 17.2350788,43.262188 C17.2231069,43.1783684 17.234989,43.0946368 17.2649195,43.0108612 C17.3128368,42.8911818 17.3846907,42.8072302 17.4864214,42.7533745 C17.5537432,42.7197023 17.6187769,42.7055993 17.6829306,42.7055993 L17.6830072,42.7055993 Z M22.2287684,42.7754129 C22.2579394,42.7771405 22.2875214,42.7795693 22.3174748,42.7833111 L22.3354985,42.7833111 L22.3534026,42.7892783 L22.3714264,42.7892783 L22.3952988,42.7952464 L22.4133216,42.7952464 L22.4312266,42.8012146 L22.4492495,42.8073015 L22.4731219,42.8073015 L22.4911456,42.8132696 L22.5150171,42.8192369 L22.5390092,42.825205 L22.5569133,42.8311723 L22.5809045,42.8371404 L22.6048966,42.8432282 L22.6287681,42.8551636 L22.6527602,42.8611317 L22.4252741,44.5851312 C22.2996068,44.5971036 22.1857317,44.6030726 22.0959693,44.5910985 C21.8385625,44.5611346 21.6409972,44.4533792 21.5033615,44.27386 C21.3597417,44.0942529 21.3117804,43.866774 21.3476854,43.5854394 C21.3836343,43.3041048 21.4974654,43.0945779 21.6769902,42.9509626 C21.8393545,42.8252992 22.0245994,42.7683635 22.2287649,42.7754129 L22.2287684,42.7754129 Z" id="Shape" fill="#FFFFFF" fill-rule="nonzero"></path>
    </g>
</svg>