<?xml version="1.0" encoding="UTF-8"?>
<svg width="64px" height="48px" viewBox="0 0 64 48" version="1.1" xmlns="http://www.w3.org/2000/svg" xmlns:xlink="http://www.w3.org/1999/xlink">
    <title>logo-cdc-48H</title>
    <defs>
        <polygon id="path-1" points="0.613592659 0.735913157 58.5660256 0.735913157 58.5660256 35.6565562 0.613592659 35.6565562"></polygon>
    </defs>
    <g id="logo-cdc-48H" stroke="none" stroke-width="1" fill="none" fill-rule="evenodd">
        <g id="US_CDC_logo" transform="translate(2.000000, 1.000000)">
            <g id="CDC" transform="translate(0.077200, 0.285112)">
                <g id="rays">
                    <mask id="mask-2" fill="white">
                        <use xlink:href="#path-1"></use>
                    </mask>
                    <g id="Mask" fill-rule="nonzero"></g>
                    <g mask="url(#mask-2)" fill="#FFFFFF" fill-rule="nonzero">
                        <g transform="translate(3.007807, -0.200520)">
                            <polygon id="ray09" points="22.2186614 35.0549947 56.3603004 0.491280181 56.3603004 0.134351727 56.1978688 0.134351727 21.6993334 35.0549947"></polygon>
                            <polygon id="ray01" points="0.681759595 35.0549947 2.9877551 0.134351727 2.63081863 0.134351727 0.324853198 35.0549947"></polygon>
                            <polygon id="ray02" points="2.5335662 35.0549947 7.50346621 0.134351727 7.14655981 0.134351727 2.17564717 35.0549947"></polygon>
                            <polygon id="ray03" points="4.51472856 35.0549947 12.3109647 0.134351727 11.9209423 0.134351727 4.12570881 35.0549947"></polygon>
                            <polygon id="ray04" points="6.65928503 35.0549947 17.8012053 0.134351727 17.4432763 0.134351727 6.30135598 35.0549947"></polygon>
                            <polygon id="ray05" points="8.70559649 35.0549947 23.0307693 0.134351727 22.640767 0.134351727 8.31559419 35.0549947"></polygon>
                            <polygon id="ray06" points="11.0767511 35.0549947 28.9751988 0.134351727 28.5531133 0.134351727 10.6546555 35.0549947"></polygon>
                            <polygon id="ray07" points="37.9083961 0.134351727 37.4542072 0.134351727 14.2930996 35.0549947 14.7472785 35.0549947"></polygon>
                            <polygon id="ray08" points="46.1598037 0.134351727 45.7046322 0.134351727 17.5415313 35.0549947 18.028786 35.0549947"></polygon>
                            <polygon id="ray10" points="56.3603004 13.3556653 56.3603004 12.9004889 28.4558608 35.0549947 29.0082948 35.0549947"></polygon>
                            <polygon id="ray11" points="56.3603004 22.9706182 56.3603004 22.5485326 36.3172762 35.0549947 36.9990357 35.0549947"></polygon>
                            <polygon id="ray12" points="56.3603004 32.0341528 56.3603004 31.6441324 48.9861398 35.0549947 49.830341 35.0549947"></polygon>
                        </g>
                    </g>
                </g>
                <path d="M14.4093914,24.2319 C8.36770946,24.2319 4.27409396,20.5292814 4.27409396,14.4866038 C4.27409396,8.63942574 8.65946676,4.51371192 14.4414948,4.51371192 C16.0015441,4.51371192 17.6909191,4.80647883 18.9892891,5.42307028 L18.9892891,8.31457755 C18.3396128,7.47039136 17.073326,5.94343294 14.5066439,5.94343294 C10.8682098,5.94343294 8.82189837,9.28910707 8.82189837,14.0965845 C8.82189837,19.1316567 10.7388741,22.7380174 14.8966662,22.7380174 C16.3584505,22.7380174 18.1771812,21.9910837 18.9892891,21.2431393 L19.6720614,22.7380174 C18.8920367,23.3546229 17.4302424,24.2319 14.4093914,24.2319" id="path1884" fill="#004AA1" fill-rule="nonzero"></path>
                <path d="M14.4093914,4.51371593 C8.36770946,4.51371593 4.27409396,8.21633656 4.27409396,14.2590111 C4.27409396,20.1061882 8.65946676,24.231897 14.4414948,24.231897 C16.0015441,24.231897 17.6909191,23.9391371 18.9892891,23.3225467 L18.9892891,20.4310314 C18.3396128,21.2752226 17.073326,22.802176 14.5066439,22.802176 C10.8682098,22.802176 8.82189837,19.4565018 8.82189837,14.6490234 C8.82189837,9.61395425 10.7388741,6.00759348 14.8966662,6.00759348 C16.3584505,6.00759348 18.1771812,6.75453226 18.9892891,7.50247363 L19.6720614,6.00759348 C18.8920367,5.39099301 17.4302424,4.51371593 14.4093914,4.51371593 Z" id="C1" stroke="#FFFFFF" stroke-width="0.64893617" fill="#FFFFFF" transform="translate(11.973078, 14.372806) scale(-1, 1) rotate(-180.000000) translate(-11.973078, -14.372806) "></path>
                <path d="M30.033947,21.8276495 C28.7355769,22.282841 27.3058759,22.3480121 25.9734274,22.3480121 L25.9734274,6.30034736 C27.3058759,6.30034736 28.7676602,6.36551852 30.033947,6.82071003 L30.033947,4.90373126 C29.6449372,4.871651 29.2549349,4.8385601 28.8649126,4.8385601 L21.9128777,4.8385601 L21.9128777,23.8749706 L29.3201041,23.8749706 C29.5466922,23.8749706 29.8073689,23.8749706 30.033947,23.8418807 L30.033947,21.8276495 Z M34.0944966,14.3893514 C34.0944966,19.0995754 32.2757759,21.0155435 30.033947,21.8276495 L30.033947,23.8418807 C33.6724111,23.5822036 38.5781345,21.1779681 38.5781345,14.292099 C38.5781345,7.30796677 33.9972442,5.22856441 30.033947,4.90373126 L30.033947,6.82071003 C32.3078592,7.59972506 34.0944966,9.5487841 34.0944966,14.3893514 L34.0944966,14.3893514 Z" id="D" fill="#FFFFFF" fill-rule="nonzero"></path>
                <path d="M40.7868676,14.4866038 C40.7868676,8.63942574 45.1722404,4.51371192 50.9542683,4.51371192 C52.513305,4.51371192 54.20269,4.80647883 55.5020627,5.42307028 L55.5020627,8.31457755 C54.8523864,7.47039136 53.585087,5.94343294 51.0194174,5.94343294 C47.3809834,5.94343294 45.3346619,9.28910707 45.3346619,14.0965845 C45.3346619,19.1316567 47.2506551,22.7380174 51.4094398,22.7380174 C52.8712241,22.7380174 54.6578816,21.9910837 55.5020627,21.2431393 L56.1838223,22.7380174 C55.3717244,23.3546229 53.943006,24.2319 50.922165,24.2319 C44.8794905,24.2319 40.7868676,20.5292814 40.7868676,14.4866038 Z" id="C2" fill="#004AA1" fill-rule="nonzero"></path>
                <path d="M50.922165,4.51371593 C44.8794905,4.51371593 40.7868676,8.21633656 40.7868676,14.2590111 C40.7868676,20.1061882 45.1722404,24.231897 50.9542683,24.231897 C52.513305,24.231897 54.20269,23.9391371 55.5020627,23.3225467 L55.5020627,20.4310314 C54.8523864,21.2752226 53.585087,22.802176 51.0194174,22.802176 C47.3809834,22.802176 45.3346619,19.4565018 45.3346619,14.6490234 C45.3346619,9.61395425 47.2506551,6.00759348 51.4094398,6.00759348 C52.8712241,6.00759348 54.6578816,6.75453226 55.5020627,7.50247363 L56.1838223,6.00759348 C55.3717244,5.39099301 53.943006,4.51371593 50.922165,4.51371593 Z" id="path1892" stroke="#FFFFFF" stroke-width="0.64893617" fill="#FFFFFF" transform="translate(48.485345, 14.372806) scale(-1, 1) rotate(-180.000000) translate(-48.485345, -14.372806) "></path>
            </g>
            <g id="type" transform="translate(1.079803, 36.178277)" fill="#FFFFFF" fill-rule="nonzero">
                <path d="M2.91456513,6.88787336 L2.94663838,6.85479851 L3.30458748,7.37514614 L3.2394083,7.40722641 C3.20733505,7.40722641 3.20733505,7.37514614 3.20733505,7.37514614 L3.17423915,7.37514614 C3.14215587,7.37514614 3.10906999,7.40722641 3.01181756,7.43930768 C2.65489111,7.66690343 2.29696206,7.76415586 1.97210886,7.76415586 C1.55003331,7.76415586 1.22518011,7.63482216 0.965506095,7.40722641 C0.705822052,7.17963065 0.543420518,6.85479851 0.543420518,6.49786905 C0.543420518,6.13992998 0.705822052,5.84817268 0.965506095,5.62059197 C1.22518011,5.36091494 1.58309914,5.26366251 2.00520477,5.26366251 C2.23179291,5.26366251 2.45938365,5.29574378 2.68696436,5.36091494 C2.91456513,5.42507648 3.04389081,5.45816737 3.04389081,5.45816737 L3.10906999,5.45816737 L3.17423915,5.45816737 L3.20733505,5.49024865 L2.88248185,6.04267755 L2.8173127,6.01059627 L2.8173127,5.97752142 C2.8173127,5.91334384 2.75214354,5.84817268 2.55663608,5.78301556 C2.39421449,5.68576313 2.19970963,5.65267224 2.00520477,5.65267224 C1.74452815,5.65267224 1.51693741,5.75091925 1.32243254,5.88026799 C1.16001096,6.04267755 1.06275853,6.23819203 1.06275853,6.49786905 C1.06275853,6.72544977 1.16001096,6.91995463 1.32243254,7.08237822 C1.51693741,7.24480282 1.74452815,7.30997398 2.00520477,7.30997398 C2.23179291,7.30997398 2.4273104,7.27688409 2.62180523,7.17963065 C2.8173127,7.08237822 2.91456513,7.01720706 2.91456513,6.98512579 L2.91456513,6.91995463 L2.91456513,6.88787336 Z" id="path1894"></path>
                <path d="M4.83052826,7.76415586 C4.50669771,7.76415586 4.21393782,7.66690343 3.98634708,7.47239857 C3.79184221,7.27688409 3.66149388,7.01720706 3.66149388,6.72544977 C3.66149388,6.43269689 3.79184221,6.17302087 3.98634708,5.97752142 C4.21393782,5.78301556 4.50669771,5.68576313 4.83052826,5.68576313 L4.83052826,6.07576844 C4.63602339,6.07576844 4.47362186,6.13992998 4.3442661,6.2702733 C4.21393782,6.40061662 4.14876866,6.52994932 4.14876866,6.72544977 C4.14876866,6.91995463 4.21393782,7.08237822 4.3442661,7.17963065 C4.47362186,7.30997398 4.63602339,7.37514614 4.83052826,7.37514614 L4.83052826,7.76415586 Z M4.83052826,5.68576313 C5.18846733,5.68576313 5.48022463,5.78301556 5.67572207,5.97752142 C5.90332283,6.17302087 6.03265854,6.43269689 6.03265854,6.72544977 C6.03265854,7.01720706 5.90332283,7.27688409 5.67572207,7.47239857 C5.44815138,7.66690343 5.18846733,7.76415586 4.83052826,7.76415586 L4.83052826,7.37514614 C5.05812902,7.37514614 5.22055061,7.30997398 5.35089895,7.17963065 C5.44815138,7.08237822 5.51330048,6.91995463 5.51330048,6.72544977 C5.51330048,6.52994932 5.44815138,6.36752573 5.35089895,6.2702733 C5.22055061,6.13992998 5.05812902,6.07576844 4.83052826,6.07576844 L4.83052826,5.68576313 Z" id="path1896"></path>
                <path d="M8.40481578,7.01720706 L8.40481578,5.94542511 C8.40481578,5.88026799 8.40481578,5.84817268 8.37173993,5.84817268 C8.37173993,5.81509683 8.3396366,5.81509683 8.27448749,5.78301556 L8.27448749,5.75091925 L8.92416381,5.75091925 L8.92416381,5.78301556 C8.89107793,5.81509683 8.85899466,5.81509683 8.82691138,5.84817268 L8.82691138,5.94542511 L8.82691138,7.53756973 L8.82691138,7.63482216 C8.85899466,7.63482216 8.89107793,7.66690343 8.92416381,7.66690343 L8.92416381,7.7320756 L8.20930831,7.7320756 L8.20930831,7.66690343 C8.24139159,7.66690343 8.24139159,7.63482216 8.27448749,7.63482216 L8.30656075,7.60173227 C8.30656075,7.569651 8.30656075,7.569651 8.27448749,7.569651 L8.27448749,7.53756973 L7.10444049,6.40061662 L7.10444049,7.53756973 C7.10444049,7.569651 7.13752637,7.60173227 7.13752637,7.63482216 C7.16960964,7.63482216 7.20270555,7.66690343 7.2347788,7.66690343 L7.2347788,7.7320756 L6.58508243,7.7320756 L6.58508243,7.66690343 C6.65026161,7.66690343 6.65026161,7.63482216 6.68233486,7.63482216 C6.68233486,7.60173227 6.71543076,7.569651 6.71543076,7.53756973 L6.71543076,5.94542511 C6.71543076,5.88026799 6.68233486,5.84817268 6.68233486,5.84817268 C6.65026161,5.81509683 6.65026161,5.81509683 6.58508243,5.78301556 L6.58508243,5.75091925 L7.36510708,5.75091925 L7.36510708,5.78301556 C7.33203123,5.81509683 7.29995798,5.81509683 7.29995798,5.81509683 C7.29995798,5.84817268 7.26785465,5.84817268 7.26785465,5.84817268 C7.26785465,5.88026799 7.26785465,5.88026799 7.29995798,5.88026799 L7.29995798,5.91334384 L8.40481578,7.01720706 Z" id="path1898"></path>
                <path d="M9.70418847,6.13992998 L9.63901931,6.13992998 C9.60592341,6.17302087 9.60592341,6.20510114 9.57385016,6.23819203 L9.50867098,6.23819203 L9.50867098,5.62059197 L9.57385016,5.62059197 C9.60592341,5.68576313 9.60592341,5.7178444 9.63901931,5.7178444 C9.63901931,5.7178444 9.67110259,5.75091925 9.70418847,5.75091925 L11.3604776,5.75091925 C11.3925809,5.75091925 11.4256568,5.7178444 11.45773,5.7178444 C11.45773,5.68576313 11.4898333,5.68576313 11.4898333,5.62059197 L11.5549824,5.62059197 L11.5549824,6.23819203 L11.4898333,6.23819203 C11.4898333,6.20510114 11.45773,6.17302087 11.45773,6.13992998 L11.3604776,6.13992998 L10.7759704,6.13992998 L10.7759704,7.53756973 C10.7759704,7.569651 10.7759704,7.60173227 10.8080537,7.63482216 C10.8080537,7.63482216 10.8411396,7.66690343 10.9053061,7.66690343 L10.9053061,7.7320756 L10.1914432,7.7320756 L10.1914432,7.66690343 C10.2235465,7.66690343 10.2556198,7.63482216 10.2886956,7.63482216 L10.2886956,7.53756973 L10.2886956,6.13992998 L9.70418847,6.13992998 Z" id="path1900"></path>
                <path d="M12.7250294,7.53756973 C12.7250294,7.569651 12.7571127,7.60173227 12.7571127,7.63482216 C12.789196,7.63482216 12.789196,7.66690343 12.8543652,7.66690343 L12.8543652,7.7320756 L12.1405022,7.7320756 L12.1405022,7.66690343 C12.2046788,7.66690343 12.2046788,7.63482216 12.2377547,7.63482216 C12.2377547,7.60173227 12.269858,7.569651 12.269858,7.53756973 L12.269858,5.94542511 C12.269858,5.88026799 12.2377547,5.84817268 12.2377547,5.84817268 C12.2046788,5.81509683 12.2046788,5.81509683 12.1405022,5.78301556 L12.1405022,5.75091925 L13.2764608,5.75091925 L13.2764608,6.10784871 L12.7250294,6.10784871 L12.7250294,6.56304021 L13.2764608,6.56304021 L13.2764608,6.98512579 L13.2443875,6.91995463 L12.7250294,6.91995463 L12.7250294,7.53756973 Z M13.2764608,5.75091925 L13.4719682,5.75091925 C13.7316422,5.75091925 13.9261471,5.78301556 14.0885687,5.88026799 C14.218917,5.97752142 14.3161695,6.13992998 14.3161695,6.30235357 C14.3161695,6.46477816 14.2519929,6.59512148 14.1537378,6.69237392 C14.0564854,6.78962635 13.9261471,6.85479851 13.7647281,6.88787336 L14.1216646,7.43930768 C14.1537378,7.47239857 14.218917,7.50447984 14.2519929,7.53756973 C14.2840661,7.569651 14.3492453,7.63482216 14.4134219,7.66690343 L14.4134219,7.7320756 L13.6012939,7.7320756 L13.6012939,7.66690343 C13.6343898,7.66690343 13.6343898,7.63482216 13.6664731,7.63482216 C13.6664731,7.63482216 13.699559,7.60173227 13.699559,7.569651 L13.6664731,7.53756973 C13.6664731,7.50447984 13.6343898,7.50447984 13.6343898,7.47239857 L13.2764608,6.98512579 L13.2764608,6.56304021 L13.3095366,6.56304021 C13.4719682,6.56304021 13.6012939,6.52994932 13.699559,6.49786905 C13.7647281,6.46477816 13.8288947,6.40061662 13.8288947,6.30235357 C13.8288947,6.23819203 13.7968114,6.17302087 13.699559,6.13992998 C13.6012939,6.10784871 13.4719682,6.10784871 13.2764608,6.10784871 L13.2764608,5.75091925 Z" id="path1902"></path>
                <path d="M16.0376277,5.68576313 L16.0707236,5.68576313 L16.0707236,6.07576844 L16.0376277,6.07576844 C15.8431229,6.07576844 15.6807013,6.13992998 15.550363,6.2702733 C15.4531005,6.40061662 15.388944,6.52994932 15.388944,6.72544977 C15.388944,6.91995463 15.4531005,7.08237822 15.550363,7.17963065 C15.6807013,7.30997398 15.8431229,7.37514614 16.0707236,7.37514614 L16.0707236,7.76415586 L16.0376277,7.76415586 C15.7127846,7.76415586 15.4531005,7.66690343 15.2255298,7.47239857 C14.9989417,7.27688409 14.9016892,7.01720706 14.9016892,6.72544977 C14.9016892,6.43269689 14.9989417,6.17302087 15.2255298,5.97752142 C15.4210273,5.78301556 15.7127846,5.68576313 16.0376277,5.68576313 L16.0376277,5.68576313 Z M16.0707236,5.68576313 C16.42764,5.68576313 16.7203999,5.78301556 16.9149048,5.97752142 C17.1104022,6.17302087 17.239758,6.43269689 17.239758,6.72544977 C17.239758,7.01720706 17.1104022,7.27688409 16.9149048,7.47239857 C16.7203999,7.66690343 16.42764,7.76415586 16.0707236,7.76415586 L16.0707236,7.37514614 C16.2652285,7.37514614 16.42764,7.30997398 16.5579784,7.17963065 C16.6883167,7.08237822 16.7524832,6.91995463 16.7524832,6.72544977 C16.7524832,6.52994932 16.6883167,6.36752573 16.5579784,6.2702733 C16.4607259,6.13992998 16.2983043,6.07576844 16.0707236,6.07576844 L16.0707236,5.68576313 Z" id="path1904"></path>
                <path d="M18.5070374,5.75091925 L18.5070374,5.78301556 C18.4749541,5.81509683 18.4418682,5.81509683 18.409785,5.84817268 L18.409785,5.94542511 L18.409785,7.30997398 L19.6109026,7.30997398 L19.7091677,7.30997398 C19.7412409,7.27688409 19.7412409,7.24480282 19.7733242,7.21171192 L19.8064101,7.21171192 L19.8064101,7.82932803 L19.7733242,7.82932803 C19.7412409,7.79723172 19.7412409,7.76415586 19.7091677,7.7320756 L19.6109026,7.7320756 L17.8252778,7.7320756 L17.8252778,7.66690343 C17.8573611,7.66690343 17.8894343,7.63482216 17.8894343,7.63482216 C17.9225302,7.60173227 17.9225302,7.569651 17.9225302,7.53756973 L17.9225302,5.94542511 C17.9225302,5.88026799 17.9225302,5.84817268 17.8894343,5.84817268 C17.8894343,5.81509683 17.8573611,5.81509683 17.8252778,5.78301556 L17.8252778,5.75091925 L18.5070374,5.75091925 Z" id="path1906"></path>
                <path d="M22.8593343,6.30235357 L22.5354938,6.95205094 L22.8593343,6.95205094 L22.8593343,7.21171192 L22.4051555,7.21171192 L22.2748071,7.47239857 L22.2748071,7.53756973 L22.2748071,7.569651 L22.2748071,7.60173227 C22.307903,7.63482216 22.3399863,7.63482216 22.3720596,7.66690343 L22.3720596,7.7320756 L21.6903,7.7320756 L21.6903,7.66690343 C21.7554791,7.63482216 21.8206483,7.569651 21.8857974,7.47239857 L21.8857974,7.43930768 L22.5996603,5.97752142 L22.6327562,5.94542511 L22.6327562,5.91334384 C22.6327562,5.88026799 22.5996603,5.88026799 22.5996603,5.84817268 C22.567577,5.81509683 22.5354938,5.81509683 22.5024079,5.78301556 L22.5024079,5.75091925 L22.8593343,5.75091925 L22.8593343,6.30235357 Z M22.8593343,6.95205094 L23.1851801,6.95205094 L22.8593343,6.30235357 L22.8593343,5.75091925 L23.2493366,5.75091925 L23.2493366,5.81509683 C23.2172634,5.81509683 23.1851801,5.81509683 23.1851801,5.84817268 C23.1520842,5.84817268 23.1520842,5.88026799 23.1520842,5.91334384 L23.1520842,5.94542511 L23.1520842,5.97752142 L23.899043,7.43930768 C23.9321189,7.50447984 23.9641921,7.569651 23.9962955,7.60173227 C24.0293613,7.63482216 24.0614446,7.63482216 24.1266137,7.66690343 L24.1266137,7.7320756 L23.3465891,7.7320756 L23.3465891,7.66690343 C23.379685,7.63482216 23.4117683,7.63482216 23.4448541,7.60173227 L23.4769374,7.569651 C23.4769374,7.53756973 23.4769374,7.53756973 23.4448541,7.53756973 L23.4448541,7.47239857 L23.3145158,7.21171192 L22.8593343,7.21171192 L22.8593343,6.95205094 Z" id="path1908"></path>
                <path d="M26.3674401,7.01720706 L26.3674401,5.94542511 C26.3674401,5.88026799 26.3674401,5.84817268 26.3353568,5.84817268 C26.3353568,5.81509683 26.3032735,5.81509683 26.2381044,5.78301556 L26.2381044,5.75091925 L26.8877807,5.75091925 L26.8877807,5.78301556 C26.8556974,5.81509683 26.8226316,5.81509683 26.7905283,5.84817268 L26.7905283,5.94542511 L26.7905283,7.53756973 L26.7905283,7.63482216 C26.8226316,7.63482216 26.8556974,7.66690343 26.8877807,7.66690343 L26.8877807,7.7320756 L26.1729352,7.7320756 L26.1729352,7.66690343 C26.2060211,7.66690343 26.2060211,7.63482216 26.2381044,7.63482216 L26.2701876,7.60173227 C26.2701876,7.569651 26.2701876,7.569651 26.2381044,7.569651 L26.2381044,7.53756973 L25.06907,6.40061662 L25.06907,7.53756973 C25.06907,7.569651 25.1011432,7.60173227 25.1011432,7.63482216 C25.1332265,7.63482216 25.1663224,7.66690343 25.1984057,7.66690343 L25.1984057,7.7320756 L24.5487194,7.7320756 L24.5487194,7.66690343 C24.6138885,7.66690343 24.6138885,7.63482216 24.6459718,7.63482216 C24.6459718,7.60173227 24.6790577,7.569651 24.6790577,7.53756973 L24.6790577,5.94542511 C24.6790577,5.88026799 24.6459718,5.84817268 24.6459718,5.84817268 C24.6138885,5.81509683 24.6138885,5.81509683 24.5487194,5.78301556 L24.5487194,5.75091925 L25.328744,5.75091925 L25.328744,5.78301556 C25.2956581,5.81509683 25.2635749,5.81509683 25.2635749,5.81509683 C25.2635749,5.84817268 25.2314916,5.84817268 25.2314916,5.84817268 C25.2314916,5.88026799 25.2314916,5.88026799 25.2635749,5.88026799 L25.2635749,5.91334384 L26.3674401,7.01720706 Z" id="path1910"></path>
                <path d="M28.2192467,7.34205525 L28.6744382,7.34205525 L28.8047665,7.34205525 L28.8047665,7.7320756 L28.6423349,7.7320756 L27.6347295,7.7320756 L27.6347295,7.66690343 C27.6678053,7.66690343 27.6999087,7.63482216 27.7329745,7.63482216 L27.7329745,7.53756973 L27.7329745,5.94542511 L27.7329745,5.84817268 C27.6999087,5.81509683 27.6678053,5.81509683 27.6347295,5.78301556 L27.6347295,5.75091925 L28.6423349,5.75091925 L28.8047665,5.75091925 L28.8047665,6.10784871 L28.6744382,6.10784871 L28.2192467,6.10784871 L28.2192467,7.34205525 Z M28.8047665,7.34205525 C28.9992713,7.34205525 29.1296096,7.27688409 29.1937762,7.17963065 C29.3241145,7.08237822 29.3892837,6.91995463 29.3892837,6.72544977 C29.3892837,6.52994932 29.3241145,6.36752573 29.1937762,6.2702733 C29.1296096,6.20510114 28.9992713,6.13992998 28.8047665,6.10784871 L28.8047665,5.75091925 C29.1616929,5.78301556 29.4213669,5.84817268 29.5837885,5.97752142 C29.779296,6.13992998 29.8765484,6.40061662 29.8765484,6.72544977 C29.8765484,7.08237822 29.779296,7.30997398 29.5837885,7.47239857 C29.4213669,7.63482216 29.1616929,7.69997929 28.8047665,7.7320756 L28.8047665,7.34205525 Z" id="path1912"></path>
                <path d="M31.9549331,7.7320756 L31.9549331,7.66690343 C32.0201123,7.66690343 32.0531982,7.63482216 32.0531982,7.63482216 C32.0852815,7.60173227 32.0852815,7.569651 32.0852815,7.53756973 L32.0852815,5.49024865 C32.0852815,5.45816737 32.0852815,5.42507648 32.0531982,5.42507648 C32.0531982,5.39299621 32.0201123,5.36091494 31.9549331,5.36091494 L31.9549331,5.29574378 L33.2874017,5.29574378 L33.2874017,5.7178444 L32.6046295,5.7178444 L32.6046295,6.33544446 L33.2874017,6.33544446 L33.2874017,6.72544977 L32.6046295,6.72544977 L32.6046295,7.53756973 C32.6046295,7.569651 32.6046295,7.60173227 32.6377054,7.63482216 C32.6377054,7.63482216 32.6698087,7.66690343 32.7349578,7.66690343 L32.7349578,7.7320756 L31.9549331,7.7320756 Z M33.2874017,5.29574378 L33.4498333,5.29574378 C33.7746665,5.29574378 34.0022572,5.36091494 34.1967621,5.49024865 C34.3591837,5.62059197 34.4564361,5.78301556 34.4564361,6.01059627 C34.4564361,6.23819203 34.3591837,6.40061662 34.1967621,6.52994932 C34.0343405,6.66029264 33.8067397,6.72544977 33.5149824,6.72544977 L33.2874017,6.72544977 L33.2874017,6.33544446 L33.319485,6.33544446 C33.5470858,6.33544446 33.6774141,6.30235357 33.7746665,6.23819203 C33.9039922,6.20510114 33.9370881,6.10784871 33.9370881,6.01059627 C33.9370881,5.91334384 33.9039922,5.81509683 33.8067397,5.78301556 C33.7094873,5.7178444 33.5470858,5.7178444 33.319485,5.7178444 L33.2874017,5.7178444 L33.2874017,5.29574378 Z" id="path1914"></path>
                <path d="M35.5612939,7.53756973 C35.5612939,7.569651 35.5933972,7.60173227 35.5933972,7.63482216 C35.6264731,7.63482216 35.6264731,7.66690343 35.6906497,7.66690343 L35.6906497,7.7320756 L34.9767867,7.7320756 L34.9767867,7.66690343 C35.0409533,7.66690343 35.0409533,7.63482216 35.0740392,7.63482216 C35.0740392,7.60173227 35.1061224,7.569651 35.1061224,7.53756973 L35.1061224,5.94542511 C35.1061224,5.88026799 35.0740392,5.84817268 35.0740392,5.84817268 C35.0409533,5.81509683 35.0409533,5.81509683 34.9767867,5.78301556 L34.9767867,5.75091925 L36.1137378,5.75091925 L36.1137378,6.10784871 L35.5612939,6.10784871 L35.5612939,6.56304021 L36.1137378,6.56304021 L36.1137378,6.98512579 L36.080652,6.91995463 L35.5612939,6.91995463 L35.5612939,7.53756973 Z M36.1137378,5.75091925 L36.3082527,5.75091925 C36.5679267,5.75091925 36.7634242,5.78301556 36.9258458,5.88026799 C37.0551815,5.97752142 37.1524339,6.13992998 37.1524339,6.30235357 C37.1524339,6.46477816 37.0882674,6.59512148 36.9910149,6.69237392 C36.8927599,6.78962635 36.7634242,6.85479851 36.6010026,6.88787336 L36.9579291,7.43930768 C36.9910149,7.47239857 37.0551815,7.50447984 37.0882674,7.53756973 C37.1203506,7.569651 37.1855298,7.63482216 37.250699,7.66690343 L37.250699,7.7320756 L36.438571,7.7320756 L36.438571,7.66690343 C36.4706743,7.66690343 36.4706743,7.63482216 36.5037502,7.63482216 C36.5037502,7.63482216 36.5358234,7.60173227 36.5358234,7.569651 L36.5037502,7.53756973 C36.5037502,7.50447984 36.4706743,7.50447984 36.4706743,7.47239857 L36.1137378,6.98512579 L36.1137378,6.56304021 L36.1458211,6.56304021 C36.3082527,6.56304021 36.438571,6.52994932 36.5358234,6.49786905 C36.6010026,6.46477816 36.6651792,6.40061662 36.6651792,6.30235357 C36.6651792,6.23819203 36.6010026,6.17302087 36.5358234,6.13992998 C36.438571,6.10784871 36.3082527,6.10784871 36.1137378,6.10784871 L36.1137378,5.75091925 Z" id="path1916"></path>
                <path d="M39.6870127,5.75091925 C39.7511793,5.75091925 39.7842652,5.7178444 39.7842652,5.7178444 C39.7842652,5.7178444 39.8163484,5.68576313 39.8163484,5.62059197 L39.8815176,5.62059197 L39.8815176,6.23819203 L39.8163484,6.23819203 C39.8163484,6.20510114 39.7842652,6.17302087 39.7842652,6.17302087 C39.7511793,6.13992998 39.719096,6.13992998 39.6870127,6.13992998 L38.4848925,6.13992998 L38.4848925,6.52994932 L39.2318313,6.52994932 C39.2649071,6.52994932 39.2970104,6.52994932 39.2970104,6.49786905 C39.3290837,6.49786905 39.3290837,6.46477816 39.3621696,6.43269689 L39.4273387,6.43269689 L39.4273387,6.98512579 L39.3621696,6.98512579 C39.3290837,6.95205094 39.3290837,6.91995463 39.2970104,6.88787336 L39.2318313,6.88787336 L38.4848925,6.88787336 L38.4848925,7.30997398 L39.7511793,7.30997398 L39.8163484,7.30997398 C39.8494343,7.27688409 39.8494343,7.27688409 39.8815176,7.21171192 L39.9466868,7.21171192 L39.9466868,7.82932803 L39.8815176,7.82932803 C39.8494343,7.79723172 39.8494343,7.76415586 39.8163484,7.7320756 L39.7511793,7.7320756 L37.8672894,7.7320756 L37.8672894,7.66690343 C37.9324586,7.66690343 37.9645418,7.63482216 37.9645418,7.63482216 C37.9976277,7.60173227 37.9976277,7.569651 37.9976277,7.53756973 L37.9976277,5.94542511 C37.9976277,5.88026799 37.9976277,5.84817268 37.9645418,5.84817268 C37.9645418,5.81509683 37.9324586,5.81509683 37.8672894,5.78301556 L37.8672894,5.75091925 L39.6870127,5.75091925 Z" id="path1918"></path>
                <path d="M40.5963731,6.04267755 L40.5963731,6.04267755 C40.5311939,5.88026799 40.4660248,5.81509683 40.4008757,5.78301556 L40.4008757,5.75091925 L41.1809003,5.75091925 L41.1809003,5.78301556 C41.148817,5.81509683 41.1157211,5.81509683 41.1157211,5.84817268 C41.0836379,5.84817268 41.0836379,5.88026799 41.0836379,5.91334384 L41.0836379,5.94542511 L41.0836379,5.97752142 L41.6360718,7.08237822 L42.1233466,5.97752142 L42.1233466,5.94542511 L42.1554298,5.91334384 C42.1554298,5.88026799 42.1233466,5.84817268 42.1233466,5.84817268 C42.0902507,5.81509683 42.0581774,5.81509683 42.0250815,5.78301556 L42.0250815,5.75091925 L42.8051061,5.75091925 L42.8051061,5.78301556 C42.7078537,5.81509683 42.6426846,5.88026799 42.5775054,6.01059627 L42.5775054,6.04267755 L41.8957458,7.47239857 L41.8957458,7.50447984 L41.8957458,7.53756973 C41.8957458,7.569651 41.8957458,7.60173227 41.9278291,7.60173227 C41.9278291,7.63482216 41.9609149,7.63482216 42.0250815,7.66690343 L42.0250815,7.7320756 L41.1809003,7.7320756 L41.1809003,7.66690343 C41.2460695,7.63482216 41.2781527,7.63482216 41.2781527,7.60173227 C41.3112186,7.60173227 41.3112186,7.569651 41.3112186,7.569651 L41.3112186,7.53756973 C41.3112186,7.50447984 41.2781527,7.50447984 41.2781527,7.47239857 L40.5963731,6.04267755 Z" id="path1920"></path>
                <path d="M45.0469151,5.75091925 C45.0790184,5.75091925 45.1110916,5.7178444 45.1441675,5.7178444 C45.1441675,5.7178444 45.1762708,5.68576313 45.1762708,5.62059197 L45.2414199,5.62059197 L45.2414199,6.23819203 L45.1762708,6.23819203 C45.1762708,6.20510114 45.1441675,6.17302087 45.1441675,6.17302087 C45.1110916,6.13992998 45.0790184,6.13992998 45.0469151,6.13992998 L43.8117189,6.13992998 L43.8117189,6.52994932 L44.5596603,6.52994932 C44.6238269,6.52994932 44.6569128,6.52994932 44.6569128,6.49786905 C44.688996,6.49786905 44.688996,6.46477816 44.7220819,6.43269689 L44.7541652,6.43269689 L44.7541652,6.98512579 L44.7220819,6.98512579 C44.688996,6.95205094 44.688996,6.91995463 44.6569128,6.88787336 L44.5596603,6.88787336 L43.8117189,6.88787336 L43.8117189,7.30997398 L45.0790184,7.30997398 L45.1762708,7.30997398 C45.2093366,7.27688409 45.2093366,7.27688409 45.2414199,7.21171192 L45.2735232,7.21171192 L45.2735232,7.82932803 L45.2414199,7.82932803 C45.2093366,7.79723172 45.2093366,7.76415586 45.1762708,7.7320756 L45.0790184,7.7320756 L43.2272018,7.7320756 L43.2272018,7.66690343 C43.2923609,7.66690343 43.3254568,7.63482216 43.3254568,7.63482216 C43.3575401,7.60173227 43.3575401,7.569651 43.3575401,7.53756973 L43.3575401,5.94542511 C43.3575401,5.88026799 43.3575401,5.84817268 43.3254568,5.84817268 C43.3254568,5.81509683 43.2923609,5.81509683 43.2272018,5.78301556 L43.2272018,5.75091925 L45.0469151,5.75091925 Z" id="path1922"></path>
                <path d="M47.8401753,7.01720706 L47.8401753,5.94542511 C47.8401753,5.88026799 47.8401753,5.84817268 47.8081021,5.84817268 C47.8081021,5.81509683 47.7750062,5.81509683 47.709837,5.78301556 L47.709837,5.75091925 L48.3595133,5.75091925 L48.3595133,5.78301556 C48.3274401,5.81509683 48.2953568,5.81509683 48.2622609,5.84817268 L48.2622609,5.94542511 L48.2622609,7.53756973 L48.2622609,7.63482216 C48.2953568,7.63482216 48.3274401,7.66690343 48.3595133,7.66690343 L48.3595133,7.7320756 L47.6456705,7.7320756 L47.6456705,7.66690343 C47.6777537,7.66690343 47.6777537,7.63482216 47.709837,7.63482216 L47.7429229,7.60173227 C47.7429229,7.569651 47.7429229,7.569651 47.709837,7.569651 L47.709837,7.53756973 L46.5408026,6.40061662 L46.5408026,7.53756973 C46.5408026,7.569651 46.5728859,7.60173227 46.5728859,7.63482216 C46.6059718,7.63482216 46.6380551,7.66690343 46.6711409,7.66690343 L46.6711409,7.7320756 L46.0214446,7.7320756 L46.0214446,7.66690343 C46.0856211,7.66690343 46.0856211,7.63482216 46.118697,7.63482216 C46.118697,7.60173227 46.1508003,7.569651 46.1508003,7.53756973 L46.1508003,5.94542511 C46.1508003,5.88026799 46.118697,5.84817268 46.118697,5.84817268 C46.0856211,5.81509683 46.0856211,5.81509683 46.0214446,5.78301556 L46.0214446,5.75091925 L46.8004766,5.75091925 L46.8004766,5.78301556 C46.7683934,5.81509683 46.7353075,5.81509683 46.7353075,5.81509683 C46.7353075,5.84817268 46.7032242,5.84817268 46.7032242,5.84817268 C46.7032242,5.88026799 46.7032242,5.88026799 46.7353075,5.88026799 L46.7353075,5.91334384 L47.8401753,7.01720706 Z" id="path1924"></path>
                <path d="M49.139538,6.13992998 L49.0743889,6.13992998 C49.0422855,6.17302087 49.0422855,6.20510114 49.0092097,6.23819203 L48.9450331,6.23819203 L48.9450331,5.62059197 L49.0092097,5.62059197 C49.0422855,5.68576313 49.0422855,5.7178444 49.0743889,5.7178444 C49.0743889,5.7178444 49.1074647,5.75091925 49.139538,5.75091925 L50.7958471,5.75091925 C50.828943,5.75091925 50.8610163,5.7178444 50.8940922,5.7178444 C50.8940922,5.68576313 50.9261955,5.68576313 50.9261955,5.62059197 L50.9913446,5.62059197 L50.9913446,6.23819203 L50.9261955,6.23819203 C50.9261955,6.20510114 50.8940922,6.17302087 50.8940922,6.13992998 L50.7958471,6.13992998 L50.2113199,6.13992998 L50.2113199,7.53756973 C50.2113199,7.569651 50.2113199,7.60173227 50.2444158,7.63482216 C50.2444158,7.63482216 50.2764991,7.66690343 50.3416683,7.66690343 L50.3416683,7.7320756 L49.6268128,7.7320756 L49.6268128,7.66690343 C49.658896,7.66690343 49.6919819,7.63482216 49.7240652,7.63482216 L49.7240652,7.53756973 L49.7240652,6.13992998 L49.139538,6.13992998 Z" id="path1926"></path>
                <path d="M52.160379,7.53756973 C52.160379,7.569651 52.1934749,7.60173227 52.1934749,7.63482216 C52.2255581,7.63482216 52.2255581,7.66690343 52.2907273,7.66690343 L52.2907273,7.7320756 L51.5758718,7.7320756 L51.5758718,7.66690343 C51.641041,7.66690343 51.641041,7.63482216 51.6731242,7.63482216 C51.6731242,7.60173227 51.7062201,7.569651 51.7062201,7.53756973 L51.7062201,5.94542511 C51.7062201,5.88026799 51.6731242,5.84817268 51.6731242,5.84817268 C51.641041,5.81509683 51.641041,5.81509683 51.5758718,5.78301556 L51.5758718,5.75091925 L52.2907273,5.75091925 L52.2907273,5.78301556 C52.2255581,5.81509683 52.2255581,5.81509683 52.1934749,5.84817268 C52.1934749,5.84817268 52.160379,5.88026799 52.160379,5.94542511 L52.160379,7.53756973 Z" id="path1928"></path>
                <path d="M54.0442889,7.76415586 C53.6873524,7.76415586 53.4276784,7.66690343 53.2000877,7.47239857 C52.9725069,7.27688409 52.8752545,7.01720706 52.8752545,6.72544977 C52.8752545,6.43269689 52.9725069,6.17302087 53.2000877,5.97752142 C53.4276784,5.78301556 53.6873524,5.68576313 54.0442889,5.68576313 L54.0442889,6.07576844 C53.8176807,6.07576844 53.6552792,6.13992998 53.5570141,6.2702733 C53.4276784,6.40061662 53.3625092,6.52994932 53.3625092,6.72544977 C53.3625092,6.91995463 53.4276784,7.08237822 53.5570141,7.17963065 C53.6552792,7.30997398 53.8176807,7.37514614 54.0442889,7.37514614 L54.0442889,7.76415586 Z M54.0442889,5.68576313 C54.369122,5.68576313 54.6618819,5.78301556 54.8894626,5.97752142 C55.1170634,6.17302087 55.2143158,6.43269689 55.2143158,6.72544977 C55.2143158,7.01720706 55.1170634,7.27688409 54.8894626,7.47239857 C54.6618819,7.66690343 54.369122,7.76415586 54.0442889,7.76415586 L54.0442889,7.37514614 C54.2397863,7.37514614 54.4022079,7.30997398 54.5315436,7.17963065 C54.6618819,7.08237822 54.7270611,6.91995463 54.7270611,6.72544977 C54.7270611,6.52994932 54.6618819,6.36752573 54.5315436,6.2702733 C54.4022079,6.13992998 54.2397863,6.07576844 54.0442889,6.07576844 L54.0442889,5.68576313 Z" id="path1930"></path>
                <path d="M57.5854805,7.01720706 L57.5854805,5.94542511 L57.5854805,5.84817268 C57.5533972,5.81509683 57.5203013,5.81509683 57.4882281,5.78301556 L57.4882281,5.75091925 L58.1048085,5.75091925 L58.1048085,5.78301556 C58.0727352,5.81509683 58.040652,5.81509683 58.040652,5.84817268 C58.0075561,5.84817268 58.0075561,5.88026799 58.0075561,5.94542511 L58.0075561,7.53756973 C58.0075561,7.569651 58.0075561,7.60173227 58.040652,7.63482216 C58.040652,7.63482216 58.0727352,7.66690343 58.1048085,7.66690343 L58.1048085,7.7320756 L57.3909656,7.7320756 L57.3909656,7.66690343 C57.4230489,7.66690343 57.4551322,7.63482216 57.4551322,7.63482216 C57.4882281,7.63482216 57.4882281,7.60173227 57.4882281,7.60173227 L57.4882281,7.569651 L57.4551322,7.53756973 L56.3181811,6.40061662 L56.3181811,7.53756973 L56.3181811,7.63482216 C56.3512669,7.63482216 56.3833502,7.66690343 56.4164361,7.66690343 L56.4164361,7.7320756 L55.7988431,7.7320756 L55.7988431,7.66690343 C55.8309263,7.66690343 55.8639922,7.63482216 55.8639922,7.63482216 C55.8960955,7.60173227 55.8960955,7.569651 55.8960955,7.53756973 L55.8960955,5.94542511 C55.8960955,5.88026799 55.8960955,5.84817268 55.8639922,5.84817268 C55.8639922,5.81509683 55.8309263,5.81509683 55.7988431,5.78301556 L55.7988431,5.75091925 L56.5457718,5.75091925 L56.5457718,5.78301556 C56.5136885,5.81509683 56.5136885,5.81509683 56.4806027,5.81509683 L56.4806027,5.84817268 L56.4806027,5.88026799 C56.4806027,5.88026799 56.4806027,5.91334384 56.5136885,5.91334384 L57.5854805,7.01720706 Z" id="path1932"></path>
                <path d="M2.91456513,2.2749018 L2.94663838,2.24181091 L3.30458748,2.76217458 L3.2394083,2.79425585 C3.20733505,2.79425585 3.20733505,2.79425585 3.20733505,2.76217458 L3.17423915,2.76217458 C3.14215587,2.76217458 3.10906999,2.79425585 3.01181756,2.82734574 C2.65489111,3.05393187 2.29696206,3.1511843 1.97210886,3.1511843 C1.55003331,3.1511843 1.22518011,3.05393187 0.965506095,2.79425585 C0.705822052,2.5666601 0.543420518,2.2749018 0.543420518,1.91697876 C0.543420518,1.52695842 0.705822052,1.23520112 0.965506095,1.00762041 C1.22518011,0.780024654 1.58309914,0.650690952 2.00520477,0.650690952 C2.23179291,0.650690952 2.45938365,0.682772223 2.68696436,0.747943383 C2.91456513,0.845195814 3.04389081,0.877277085 3.04389081,0.877277085 L3.10906999,0.877277085 C3.10906999,0.845195814 3.14215587,0.845195814 3.17423915,0.845195814 L3.20733505,0.877277085 L2.88248185,1.42970599 L2.8173127,1.39762471 L2.8173127,1.36554445 C2.8173127,1.30037228 2.75214354,1.23520112 2.55663608,1.170044 C2.39421449,1.10487284 2.19970963,1.07279157 2.00520477,1.07279157 C1.74452815,1.07279157 1.51693741,1.13794869 1.32243254,1.30037228 C1.16001096,1.46279688 1.06275853,1.65730174 1.06275853,1.88489749 C1.06275853,2.14457452 1.16001096,2.33906434 1.32243254,2.50148793 C1.51693741,2.63183126 1.74452815,2.72908369 2.00520477,2.72908369 C2.23179291,2.72908369 2.4273104,2.66492215 2.62180523,2.59974998 C2.8173127,2.50148793 2.91456513,2.43732639 2.91456513,2.37215423 L2.91456513,2.33906434 L2.91456513,2.2749018 Z" id="path1934"></path>
                <path d="M5.96748939,1.13794869 C6.03265854,1.13794869 6.06474182,1.13794869 6.06474182,1.10487284 C6.09782769,1.10487284 6.09782769,1.07279157 6.13091357,1.04069526 L6.16299685,1.04069526 L6.16299685,1.65730174 L6.13091357,1.65730174 C6.09782769,1.59212958 6.09782769,1.56004931 6.06474182,1.56004931 C6.06474182,1.52695842 6.03265854,1.52695842 5.96748939,1.52695842 L4.76637173,1.52695842 L4.76637173,1.91697876 L5.51330048,1.91697876 L5.61055291,1.91697876 C5.61055291,1.88489749 5.64364882,1.85281622 5.64364882,1.81972533 L5.70780534,1.81972533 L5.70780534,2.37215423 L5.64364882,2.37215423 C5.64364882,2.33906434 5.61055291,2.30698307 5.61055291,2.30698307 C5.57846963,2.2749018 5.54540381,2.2749018 5.51330048,2.2749018 L4.76637173,2.2749018 L4.76637173,2.72908369 L6.03265854,2.72908369 C6.06474182,2.72908369 6.09782769,2.72908369 6.13091357,2.69700242 C6.13091357,2.69700242 6.16299685,2.66492215 6.16299685,2.59974998 L6.22817603,2.59974998 L6.22817603,3.24943132 L6.16299685,3.24943132 C6.16299685,3.18426016 6.13091357,3.1511843 6.13091357,3.1511843 C6.09782769,3.11908799 6.06474182,3.11908799 6.03265854,3.11908799 L4.18085194,3.11908799 L4.18085194,3.05393187 C4.21393782,3.05393187 4.24602109,3.0218516 4.279117,3.0218516 L4.279117,2.92459817 L4.279117,1.33245355 L4.279117,1.23520112 C4.24602109,1.20311985 4.21393782,1.20311985 4.18085194,1.20311985 L4.18085194,1.13794869 L5.96748939,1.13794869 Z" id="path1936"></path>
                <path d="M9.11866868,2.4042355 L9.11866868,1.33245355 C9.11866868,1.30037228 9.11866868,1.26729743 9.0865854,1.23520112 C9.0865854,1.20311985 9.05349952,1.20311985 8.98933297,1.20311985 L8.98933297,1.13794869 L9.63901931,1.13794869 L9.63901931,1.20311985 C9.60592341,1.20311985 9.57385016,1.20311985 9.5407743,1.23520112 L9.5407743,1.33245355 L9.5407743,2.92459817 L9.5407743,3.0218516 C9.57385016,3.0218516 9.60592341,3.05393187 9.63901931,3.05393187 L9.63901931,3.11908799 L8.92416381,3.11908799 L8.92416381,3.05393187 C8.95624709,3.05393187 8.98933297,3.05393187 8.98933297,3.0218516 C9.02141624,3.0218516 9.02141624,2.98975529 9.02141624,2.98975529 L9.02141624,2.95667944 C8.98933297,2.95667944 8.98933297,2.95667944 8.98933297,2.92459817 L7.81929599,1.78764506 L7.81929599,2.92459817 C7.81929599,2.95667944 7.85238187,2.98975529 7.85238187,3.0218516 C7.88446514,3.0218516 7.91654842,3.05393187 7.9496343,3.05393187 L7.9496343,3.11908799 L7.29995798,3.11908799 L7.29995798,3.05393187 C7.36510708,3.05393187 7.39721041,3.0218516 7.39721041,3.0218516 C7.42928366,2.98975529 7.42928366,2.95667944 7.42928366,2.92459817 L7.42928366,1.33245355 C7.42928366,1.26729743 7.42928366,1.23520112 7.39721041,1.23520112 C7.39721041,1.20311985 7.36510708,1.20311985 7.29995798,1.20311985 L7.29995798,1.13794869 L8.07998263,1.13794869 L8.07998263,1.20311985 C8.04688673,1.20311985 8.01480345,1.20311985 8.01480345,1.23520112 C8.01480345,1.23520112 7.98171757,1.23520112 7.98171757,1.26729743 L8.01480345,1.26729743 C8.01480345,1.30037228 8.01480345,1.30037228 8.04688673,1.33245355 L9.11866868,2.4042355 Z" id="path1938"></path>
                <path d="M10.7759704,1.52695842 C10.7428845,1.52695842 10.7108013,1.52695842 10.6777054,1.56004931 C10.6777054,1.56004931 10.6456321,1.59212958 10.6456321,1.62522047 L10.5804529,1.62522047 L10.5804529,1.04069526 L10.6456321,1.04069526 C10.6456321,1.07279157 10.6777054,1.10487284 10.6777054,1.10487284 C10.7108013,1.13794869 10.7428845,1.13794869 10.7759704,1.13794869 L12.4322595,1.13794869 C12.4653554,1.13794869 12.4974387,1.13794869 12.529512,1.10487284 C12.529512,1.10487284 12.529512,1.07279157 12.5616153,1.04069526 L12.627777,1.04069526 L12.627777,1.62522047 L12.5616153,1.62522047 C12.5616153,1.59212958 12.529512,1.56004931 12.529512,1.56004931 C12.4974387,1.52695842 12.4653554,1.52695842 12.4322595,1.52695842 L11.8477524,1.52695842 L11.8477524,2.92459817 C11.8477524,2.95667944 11.8477524,2.98975529 11.8798356,3.0218516 C11.8798356,3.0218516 11.9129215,3.05393187 11.9450048,3.05393187 L11.9450048,3.11908799 L11.2632251,3.11908799 L11.2632251,3.05393187 C11.2953285,3.05393187 11.3284043,3.0218516 11.3284043,3.0218516 C11.3604776,2.98975529 11.3604776,2.95667944 11.3604776,2.92459817 L11.3604776,1.52695842 L10.7759704,1.52695842 Z" id="path1940"></path>
                <path d="M15.3558481,1.13794869 C15.4210273,1.13794869 15.4531005,1.13794869 15.4531005,1.10487284 C15.4861964,1.10487284 15.4861964,1.07279157 15.4861964,1.04069526 L15.550363,1.04069526 L15.550363,1.65730174 L15.4861964,1.65730174 C15.4861964,1.59212958 15.4861964,1.56004931 15.4531005,1.56004931 C15.4531005,1.52695842 15.4210273,1.52695842 15.3558481,1.52695842 L14.1537378,1.52695842 L14.1537378,1.91697876 L14.9016892,1.91697876 L14.9989417,1.91697876 C14.9989417,1.88489749 15.0310149,1.85281622 15.0310149,1.81972533 L15.0961941,1.81972533 L15.0961941,2.37215423 L15.0310149,2.37215423 C15.0310149,2.33906434 14.9989417,2.30698307 14.9989417,2.30698307 C14.9658458,2.2749018 14.9337625,2.2749018 14.9016892,2.2749018 L14.1537378,2.2749018 L14.1537378,2.72908369 L15.4210273,2.72908369 C15.4531005,2.72908369 15.4861964,2.72908369 15.5182797,2.69700242 C15.5182797,2.69700242 15.550363,2.66492215 15.550363,2.59974998 L15.6155321,2.59974998 L15.6155321,3.24943132 L15.550363,3.24943132 C15.550363,3.18426016 15.5182797,3.1511843 15.5182797,3.1511843 C15.4861964,3.11908799 15.4531005,3.11908799 15.4210273,3.11908799 L13.5692207,3.11908799 L13.5692207,3.05393187 C13.6012939,3.05393187 13.6343898,3.0218516 13.6343898,3.0218516 C13.6664731,2.98975529 13.6664731,2.95667944 13.6664731,2.92459817 L13.6664731,1.33245355 C13.6664731,1.30037228 13.6664731,1.26729743 13.6343898,1.23520112 C13.6343898,1.20311985 13.6012939,1.20311985 13.5692207,1.20311985 L13.5692207,1.13794869 L15.3558481,1.13794869 Z" id="path1942"></path>
                <path d="M17.2728339,2.92459817 C17.2728339,2.95667944 17.3049171,2.98975529 17.3049171,3.0218516 C17.3370104,3.0218516 17.3700863,3.05393187 17.4021595,3.05393187 L17.4021595,3.11908799 L16.6883167,3.11908799 L16.6883167,3.05393187 C16.7524832,3.05393187 16.7855691,3.0218516 16.7855691,3.0218516 C16.7855691,2.98975529 16.8176524,2.95667944 16.8176524,2.92459817 L16.8176524,1.33245355 C16.8176524,1.26729743 16.7855691,1.23520112 16.7855691,1.23520112 C16.7855691,1.20311985 16.7524832,1.20311985 16.6883167,1.20311985 L16.6883167,1.13794869 L17.8252778,1.13794869 L17.8252778,1.49487715 L17.2728339,1.49487715 L17.2728339,1.95006865 L17.8252778,1.95006865 L17.8252778,2.37215423 L17.7921819,2.30698307 L17.2728339,2.30698307 L17.2728339,2.92459817 Z M17.8252778,1.13794869 L18.0197827,1.13794869 C18.2794366,1.13794869 18.4749541,1.170044 18.6363731,1.30037228 C18.7667114,1.39762471 18.8639638,1.52695842 18.8639638,1.7224729 C18.8639638,1.85281622 18.7987947,1.98214992 18.7015423,2.07940236 C18.6042898,2.17764937 18.4749541,2.24181091 18.31154,2.2749018 L18.7015423,2.82734574 C18.7346382,2.85942701 18.7667114,2.92459817 18.7987947,2.95667944 C18.8318906,2.98975529 18.8970597,3.0218516 18.9622088,3.05393187 L18.9622088,3.11908799 L18.1491083,3.11908799 L18.1491083,3.05393187 C18.1821942,3.05393187 18.1821942,3.05393187 18.2142875,3.0218516 C18.2473634,3.0218516 18.2473634,2.98975529 18.2473634,2.98975529 C18.2473634,2.98975529 18.2473634,2.95667944 18.2142875,2.92459817 C18.2142875,2.92459817 18.1821942,2.89150828 18.1821942,2.85942701 L17.8252778,2.37215423 L17.8252778,1.95006865 L17.8573611,1.95006865 C18.0197827,1.95006865 18.1491083,1.91697876 18.2473634,1.88489749 C18.3446158,1.85281622 18.3766891,1.78764506 18.3766891,1.7224729 C18.3766891,1.62522047 18.3446158,1.59212958 18.2473634,1.56004931 C18.1821942,1.52695842 18.0197827,1.49487715 17.8252778,1.49487715 L17.8252778,1.13794869 Z" id="path1944"></path>
                <path d="M19.8384934,2.95667944 L20.0660941,2.46940666 L20.1312432,2.50148793 L20.1312432,2.53457882 C20.1312432,2.59974998 20.1964224,2.66492215 20.358844,2.69700242 C20.5212656,2.76217458 20.6836872,2.79425585 20.8461188,2.79425585 C21.0406036,2.79425585 21.1709519,2.76217458 21.2682044,2.72908369 C21.3654568,2.66492215 21.4306259,2.63183126 21.4306259,2.53457882 C21.4306259,2.43732639 21.2351085,2.37215423 20.9102753,2.33906434 L20.5854321,2.33906434 C20.358844,2.30698307 20.1964224,2.24181091 20.0660941,2.14457452 C19.9688417,2.07940236 19.9036625,1.95006865 19.9036625,1.75455417 C19.9036625,1.56004931 19.9688417,1.39762471 20.1633265,1.26729743 C20.3257581,1.170044 20.5533489,1.10487284 20.8461188,1.10487284 C21.0406036,1.10487284 21.2351085,1.13794869 21.4306259,1.20311985 C21.4627092,1.23520112 21.4627092,1.23520112 21.4957951,1.23520112 C21.4957951,1.23520112 21.5278784,1.23520112 21.5930475,1.26729743 C21.6582167,1.30037228 21.6903,1.33245355 21.7223832,1.33245355 C21.7554791,1.33245355 21.7554791,1.30037228 21.7554791,1.30037228 C21.7875524,1.30037228 21.7875524,1.30037228 21.7875524,1.26729743 L21.8527316,1.30037228 L21.5930475,1.78764506 L21.5278784,1.75455417 C21.5278784,1.69039263 21.4627092,1.62522047 21.3002876,1.56004931 C21.1709519,1.49487715 21.0085203,1.46279688 20.8461188,1.46279688 C20.6836872,1.46279688 20.5854321,1.46279688 20.4881797,1.52695842 C20.3909273,1.56004931 20.358844,1.62522047 20.358844,1.69039263 C20.358844,1.78764506 20.4881797,1.81972533 20.7488663,1.85281622 C20.9433712,1.85281622 21.1057727,1.88489749 21.2351085,1.88489749 C21.4627092,1.95006865 21.6251308,2.01522578 21.7223832,2.11247821 C21.8206483,2.20973064 21.8857974,2.33906434 21.8857974,2.50148793 C21.8857974,2.69700242 21.7875524,2.85942701 21.5930475,2.98975529 C21.3985427,3.08700772 21.1709519,3.1511843 20.8782021,3.1511843 C20.5854321,3.1511843 20.3257581,3.11908799 20.0660941,2.98975529 C20.000925,2.95667944 19.9688417,2.95667944 19.9688417,2.95667944 L19.9357458,2.95667944 C19.9357458,2.95667944 19.9357458,2.98975529 19.9036625,2.98975529 L19.8384934,2.95667944 Z" id="path1946"></path>
                <path d="M27.8944135,1.13794869 C27.9274894,1.13794869 27.9595626,1.13794869 27.9926585,1.10487284 C27.9926585,1.10487284 28.0247418,1.07279157 28.0247418,1.04069526 L28.089911,1.04069526 L28.089911,1.65730174 L28.0247418,1.65730174 C28.0247418,1.59212958 27.9926585,1.56004931 27.9926585,1.56004931 C27.9595626,1.52695842 27.9274894,1.52695842 27.8944135,1.52695842 L26.6602,1.52695842 L26.6602,1.91697876 L27.4071387,1.91697876 L27.5054038,1.91697876 C27.5374771,1.88489749 27.5374771,1.85281622 27.5695603,1.81972533 L27.6026562,1.81972533 L27.6026562,2.37215423 L27.5695603,2.37215423 C27.5374771,2.33906434 27.5374771,2.30698307 27.5054038,2.30698307 C27.5054038,2.2749018 27.4723079,2.2749018 27.4071387,2.2749018 L26.6602,2.2749018 L26.6602,2.92459817 C26.6602,2.95667944 26.6932758,2.98975529 26.6932758,3.0218516 C26.7253792,3.0218516 26.7253792,3.05393187 26.7905283,3.05393187 L26.7905283,3.11908799 L26.0756828,3.11908799 L26.0756828,3.05393187 C26.1408519,3.05393187 26.1729352,3.0218516 26.1729352,3.0218516 C26.1729352,2.98975529 26.2060211,2.95667944 26.2060211,2.92459817 L26.2060211,1.33245355 C26.2060211,1.30037228 26.1729352,1.26729743 26.1729352,1.23520112 C26.1729352,1.20311985 26.1408519,1.20311985 26.0756828,1.20311985 L26.0756828,1.13794869 L27.8944135,1.13794869 Z" id="path1948"></path>
                <path d="M30.1041392,3.1511843 C29.779296,3.1511843 29.4865361,3.05393187 29.2589453,2.85942701 C29.0313446,2.66492215 28.9340922,2.43732639 28.9340922,2.11247821 C28.9340922,1.81972533 29.0313446,1.59212958 29.2589453,1.39762471 C29.4865361,1.20311985 29.779296,1.07279157 30.1041392,1.07279157 L30.1041392,1.49487715 C29.9086217,1.49487715 29.7462201,1.56004931 29.6168644,1.65730174 C29.4865361,1.78764506 29.4213669,1.95006865 29.4213669,2.11247821 C29.4213669,2.30698307 29.4865361,2.46940666 29.6168644,2.59974998 C29.7462201,2.69700242 29.9086217,2.76217458 30.1041392,2.76217458 L30.1041392,3.1511843 Z M30.1041392,1.07279157 C30.4610656,1.07279157 30.7207497,1.20311985 30.9483304,1.39762471 C31.1759211,1.59212958 31.2731735,1.81972533 31.2731735,2.11247821 C31.2731735,2.43732639 31.1759211,2.66492215 30.9483304,2.85942701 C30.7207497,3.05393187 30.4289924,3.1511843 30.1041392,3.1511843 L30.1041392,2.76217458 C30.298644,2.76217458 30.4610656,2.69700242 30.5913939,2.59974998 C30.7207497,2.46940666 30.7858988,2.30698307 30.7858988,2.11247821 C30.7858988,1.95006865 30.7207497,1.78764506 30.5913939,1.65730174 C30.4610656,1.56004931 30.298644,1.49487715 30.1041392,1.49487715 L30.1041392,1.07279157 Z" id="path1950"></path>
                <path d="M32.800137,2.92459817 C32.800137,2.95667944 32.800137,2.98975529 32.8322102,3.0218516 C32.8322102,3.0218516 32.8653061,3.05393187 32.8973894,3.05393187 L32.8973894,3.11908799 L32.2156198,3.11908799 L32.2156198,3.05393187 C32.2477031,3.05393187 32.2797863,3.0218516 32.2797863,3.0218516 C32.3128722,2.98975529 32.3128722,2.95667944 32.3128722,2.92459817 L32.3128722,1.33245355 C32.3128722,1.26729743 32.3128722,1.23520112 32.2797863,1.23520112 C32.2797863,1.20311985 32.2477031,1.20311985 32.2156198,1.20311985 L32.2156198,1.13794869 L33.3525809,1.13794869 L33.3525809,1.49487715 L32.800137,1.49487715 L32.800137,1.95006865 L33.3525809,1.95006865 L33.3525809,2.37215423 L33.2874017,2.30698307 L32.800137,2.30698307 L32.800137,2.92459817 Z M33.3525809,1.13794869 L33.5149824,1.13794869 C33.7746665,1.13794869 34.0022572,1.170044 34.1315929,1.30037228 C34.2940145,1.39762471 34.3591837,1.52695842 34.3591837,1.7224729 C34.3591837,1.85281622 34.3271104,1.98214992 34.2288454,2.07940236 C34.1315929,2.17764937 34.0022572,2.24181091 33.8067397,2.2749018 L34.1967621,2.82734574 C34.2288454,2.85942701 34.2619312,2.92459817 34.2940145,2.95667944 C34.3271104,2.98975529 34.3912669,3.0218516 34.489512,3.05393187 L34.489512,3.11908799 L33.6443382,3.11908799 L33.6443382,3.05393187 C33.6774141,3.05393187 33.7094873,3.05393187 33.7094873,3.0218516 C33.7415906,3.0218516 33.7415906,2.98975529 33.7415906,2.98975529 L33.7415906,2.92459817 C33.7094873,2.92459817 33.7094873,2.89150828 33.6774141,2.85942701 L33.3525809,2.37215423 L33.3525809,1.95006865 C33.5470858,1.95006865 33.6774141,1.91697876 33.7415906,1.88489749 C33.8398356,1.85281622 33.8719189,1.78764506 33.8719189,1.7224729 C33.8719189,1.62522047 33.8398356,1.59212958 33.7415906,1.56004931 C33.6774141,1.52695842 33.5470858,1.49487715 33.3525809,1.49487715 L33.3525809,1.13794869 Z" id="path1952"></path>
                <path d="M39.3290837,1.10487284 L39.3290837,2.72908369 L39.9466868,2.72908369 L40.0760225,2.72908369 L40.0760225,3.11908799 L39.8494343,3.11908799 L38.6793873,3.11908799 L38.6793873,3.05393187 C38.7124832,3.05393187 38.7445665,3.0218516 38.7776524,3.0218516 L38.7776524,2.92459817 L38.7776524,0.910367977 L38.7776524,0.813115546 C38.7445665,0.780024654 38.7124832,0.780024654 38.6793873,0.747943383 L38.6793873,0.715863115 L39.8494343,0.715863115 L40.0760225,0.715863115 L40.0760225,1.10487284 L39.9466868,1.10487284 L39.3290837,1.10487284 Z M40.0760225,2.72908369 C40.3036232,2.69700242 40.4660248,2.63183126 40.5963731,2.50148793 C40.7257088,2.37215423 40.790878,2.17764937 40.790878,1.91697876 C40.790878,1.62522047 40.7257088,1.42970599 40.5963731,1.30037228 C40.4660248,1.20311985 40.3036232,1.13794869 40.0760225,1.10487284 L40.0760225,0.715863115 C40.27154,0.715863115 40.4339415,0.747943383 40.5311939,0.780024654 C40.6936255,0.813115546 40.8239638,0.877277085 40.9532995,0.975539137 C41.0836379,1.07279157 41.1809003,1.20311985 41.2460695,1.36554445 C41.3112186,1.52695842 41.3433018,1.7224729 41.3433018,1.91697876 C41.3433018,2.11247821 41.3112186,2.2749018 41.2460695,2.43732639 C41.1809003,2.59974998 41.0836379,2.72908369 40.9532995,2.85942701 C40.8239638,2.95667944 40.6936255,3.0218516 40.5311939,3.05393187 C40.4339415,3.08700772 40.27154,3.11908799 40.0760225,3.11908799 L40.0760225,2.72908369 Z" id="path1954"></path>
                <path d="M42.8702753,2.92459817 C42.8702753,2.95667944 42.9023586,2.98975529 42.9023586,3.0218516 C42.9354545,3.0218516 42.9675277,3.05393187 42.999611,3.05393187 L42.999611,3.11908799 L42.2857481,3.11908799 L42.2857481,3.05393187 C42.3499247,3.05393187 42.3499247,3.0218516 42.3830105,3.0218516 C42.3830105,2.98975529 42.4150838,2.95667944 42.4150838,2.92459817 L42.4150838,1.33245355 C42.4150838,1.26729743 42.3830105,1.23520112 42.3830105,1.23520112 C42.3499247,1.20311985 42.3499247,1.20311985 42.2857481,1.20311985 L42.2857481,1.13794869 L42.999611,1.13794869 L42.999611,1.20311985 C42.9675277,1.20311985 42.9354545,1.20311985 42.9023586,1.23520112 C42.9023586,1.26729743 42.8702753,1.30037228 42.8702753,1.33245355 L42.8702753,2.92459817 Z" id="path1956"></path>
                <path d="M43.9741405,2.95667944 L44.2017413,2.46940666 L44.2668904,2.50148793 L44.2668904,2.53457882 C44.2668904,2.59974998 44.3320596,2.66492215 44.4944912,2.69700242 C44.6569128,2.76217458 44.8193343,2.79425585 45.0138392,2.79425585 C45.1762708,2.79425585 45.3065891,2.76217458 45.4038415,2.72908369 C45.501104,2.66492215 45.5662731,2.63183126 45.5662731,2.53457882 C45.5662731,2.43732639 45.4038415,2.37215423 45.0469151,2.33906434 L44.7220819,2.33906434 C44.4944912,2.30698307 44.3320596,2.24181091 44.2017413,2.14457452 C44.1044788,2.07940236 44.0393097,1.95006865 44.0393097,1.75455417 C44.0393097,1.56004931 44.1044788,1.39762471 44.2989937,1.26729743 C44.4613953,1.170044 44.688996,1.10487284 44.9817559,1.10487284 C45.1762708,1.10487284 45.3717683,1.13794869 45.5662731,1.20311985 C45.5983564,1.23520112 45.6314423,1.23520112 45.6314423,1.23520112 C45.6314423,1.23520112 45.6635255,1.23520112 45.7286947,1.26729743 C45.7938639,1.30037228 45.8259471,1.33245355 45.859033,1.33245355 C45.8911163,1.33245355 45.8911163,1.30037228 45.8911163,1.30037228 C45.9231996,1.30037228 45.9231996,1.30037228 45.9231996,1.26729743 L45.9883687,1.30037228 L45.7286947,1.78764506 L45.6635255,1.75455417 L45.6966114,1.75455417 C45.6966114,1.69039263 45.5983564,1.62522047 45.4690207,1.56004931 C45.3065891,1.49487715 45.1441675,1.46279688 44.9817559,1.46279688 C44.8193343,1.46279688 44.7220819,1.46279688 44.6238269,1.52695842 C44.5265644,1.56004931 44.4944912,1.62522047 44.4944912,1.69039263 C44.4944912,1.78764506 44.6238269,1.81972533 44.8845135,1.85281622 C45.0790184,1.85281622 45.2414199,1.88489749 45.3717683,1.88489749 C45.5983564,1.95006865 45.760778,2.01522578 45.859033,2.11247821 C45.9562955,2.20973064 46.0214446,2.33906434 46.0214446,2.50148793 C46.0214446,2.69700242 45.9231996,2.85942701 45.7286947,2.98975529 C45.5341898,3.08700772 45.3065891,3.1511843 45.0138392,3.1511843 C44.7220819,3.1511843 44.4613953,3.11908799 44.2017413,2.98975529 C44.1365621,2.95667944 44.1044788,2.95667944 44.1044788,2.95667944 L44.0723855,2.95667944 C44.0723855,2.95667944 44.0723855,2.98975529 44.0393097,2.98975529 L43.9741405,2.95667944 Z" id="path1958"></path>
                <path d="M48.8467881,1.13794869 C48.879884,1.13794869 48.9119573,1.13794869 48.9450331,1.10487284 C48.9450331,1.10487284 48.9771364,1.07279157 48.9771364,1.04069526 L49.0422855,1.04069526 L49.0422855,1.65730174 L48.9771364,1.65730174 C48.9771364,1.59212958 48.9450331,1.56004931 48.9450331,1.56004931 C48.9119573,1.52695842 48.879884,1.52695842 48.8467881,1.52695842 L47.6456705,1.52695842 L47.6456705,1.91697876 L48.3595133,1.91697876 L48.4577784,1.91697876 C48.4898617,1.88489749 48.4898617,1.85281622 48.5219449,1.81972533 L48.5550308,1.81972533 L48.5550308,2.37215423 L48.5219449,2.37215423 C48.4898617,2.33906434 48.4898617,2.30698307 48.4577784,2.30698307 C48.4577784,2.2749018 48.4246925,2.2749018 48.3595133,2.2749018 L47.6456705,2.2749018 L47.6456705,2.72908369 L48.879884,2.72908369 C48.9450331,2.72908369 48.9771364,2.72908369 48.9771364,2.69700242 C49.0092097,2.69700242 49.0092097,2.66492215 49.0422855,2.59974998 L49.0743889,2.59974998 L49.0743889,3.24943132 L49.0422855,3.24943132 C49.0092097,3.18426016 49.0092097,3.1511843 48.9771364,3.1511843 C48.9771364,3.11908799 48.9450331,3.11908799 48.879884,3.11908799 L47.0280774,3.11908799 L47.0280774,3.05393187 C47.0932265,3.05393187 47.1253298,3.0218516 47.1253298,3.0218516 C47.1583957,2.98975529 47.1583957,2.95667944 47.1583957,2.92459817 L47.1583957,1.33245355 C47.1583957,1.30037228 47.1583957,1.26729743 47.1253298,1.23520112 C47.1253298,1.20311985 47.0932265,1.20311985 47.0280774,1.20311985 L47.0280774,1.13794869 L48.8467881,1.13794869 Z" id="path1960"></path>
                <path d="M51.0565238,1.69039263 L50.7316906,2.33906434 L51.0565238,2.33906434 L51.0565238,2.63183126 L50.6013423,2.63183126 L50.471004,2.85942701 L50.471004,2.92459817 L50.471004,2.95667944 L50.471004,3.0218516 C50.5040899,3.0218516 50.5361731,3.05393187 50.569259,3.05393187 L50.569259,3.11908799 L49.8864868,3.11908799 L49.8864868,3.05393187 C49.951666,3.0218516 50.0168151,2.95667944 50.0819942,2.85942701 L50.0819942,2.82734574 L50.7958471,1.39762471 C50.7958471,1.36554445 50.7958471,1.36554445 50.828943,1.36554445 L50.828943,1.30037228 C50.828943,1.30037228 50.7958471,1.26729743 50.7958471,1.23520112 C50.7637639,1.23520112 50.7316906,1.20311985 50.6985947,1.20311985 L50.6985947,1.13794869 L51.0565238,1.13794869 L51.0565238,1.69039263 Z M51.0565238,2.33906434 L51.3813669,2.33906434 L51.0565238,1.69039263 L51.0565238,1.13794869 L51.4455335,1.13794869 L51.4455335,1.20311985 C51.4134502,1.20311985 51.3813669,1.23520112 51.3813669,1.23520112 C51.3482811,1.26729743 51.3482811,1.26729743 51.3482811,1.30037228 L51.3482811,1.33245355 L51.3482811,1.39762471 L52.0952299,2.82734574 C52.1283057,2.92459817 52.160379,2.95667944 52.1934749,2.98975529 C52.2255581,3.0218516 52.2576314,3.05393187 52.3228106,3.05393187 L52.3228106,3.11908799 L51.5437885,3.11908799 L51.5437885,3.05393187 C51.5758718,3.05393187 51.6079551,3.0218516 51.641041,3.0218516 C51.641041,2.98975529 51.6731242,2.98975529 51.6731242,2.95667944 C51.6731242,2.95667944 51.6731242,2.92459817 51.641041,2.92459817 L51.641041,2.85942701 L51.5107026,2.63183126 L51.0565238,2.63183126 L51.0565238,2.33906434 Z" id="path1962"></path>
                <path d="M53.0055828,2.95667944 L53.2321609,2.46940666 L53.2973401,2.50148793 L53.2973401,2.53457882 C53.2973401,2.59974998 53.3625092,2.66492215 53.5249308,2.69700242 C53.6873524,2.76217458 53.849784,2.79425585 54.0121856,2.79425585 C54.2066904,2.79425585 54.3370388,2.76217458 54.4342912,2.72908369 C54.5315436,2.66492215 54.5967128,2.63183126 54.5967128,2.53457882 C54.5967128,2.43732639 54.4022079,2.37215423 54.0773647,2.33906434 L53.7525316,2.33906434 C53.5249308,2.30698307 53.3625092,2.24181091 53.2321609,2.14457452 C53.1028352,2.07940236 53.0697594,1.95006865 53.0697594,1.75455417 C53.0697594,1.56004931 53.1349085,1.39762471 53.330426,1.26729743 C53.4928476,1.170044 53.7194357,1.10487284 54.0121856,1.10487284 C54.2066904,1.10487284 54.4022079,1.13794869 54.5967128,1.20311985 C54.6298087,1.23520112 54.6298087,1.23520112 54.6618819,1.23520112 C54.6618819,1.23520112 54.6939652,1.23520112 54.7591344,1.26729743 C54.8243135,1.30037228 54.8563968,1.33245355 54.8894626,1.33245355 L54.921566,1.30037228 C54.9546418,1.30037228 54.9546418,1.30037228 54.9546418,1.26729743 L55.0188184,1.30037228 L54.7591344,1.78764506 L54.6939652,1.75455417 C54.6939652,1.69039263 54.6298087,1.62522047 54.4673771,1.56004931 C54.3370388,1.49487715 54.1746172,1.46279688 54.0121856,1.46279688 C53.849784,1.46279688 53.7194357,1.46279688 53.6552792,1.52695842 C53.5570141,1.56004931 53.4928476,1.62522047 53.4928476,1.69039263 C53.4928476,1.78764506 53.6221833,1.81972533 53.9149331,1.85281622 C54.109438,1.85281622 54.2718696,1.88489749 54.4022079,1.88489749 C54.5967128,1.95006865 54.7591344,2.01522578 54.8894626,2.11247821 C54.9867151,2.20973064 55.0518943,2.33906434 55.0518943,2.50148793 C55.0518943,2.69700242 54.9546418,2.85942701 54.7591344,2.98975529 C54.5646295,3.08700772 54.3370388,3.1511843 54.0442889,3.1511843 C53.7525316,3.1511843 53.4928476,3.11908799 53.2321609,2.98975529 C53.1680044,2.95667944 53.1349085,2.95667944 53.1349085,2.95667944 L53.1028352,2.95667944 L53.0697594,2.98975529 L53.0055828,2.95667944 Z" id="path1964"></path>
                <path d="M57.8782304,1.13794869 C57.9103137,1.13794869 57.942407,1.13794869 57.9754828,1.10487284 C57.9754828,1.10487284 58.0075561,1.07279157 58.0075561,1.04069526 L58.0727352,1.04069526 L58.0727352,1.65730174 L58.0075561,1.65730174 C58.0075561,1.59212958 57.9754828,1.56004931 57.9754828,1.56004931 C57.942407,1.52695842 57.9103137,1.52695842 57.8782304,1.52695842 L56.6430242,1.52695842 L56.6430242,1.91697876 L57.3909656,1.91697876 L57.4882281,1.91697876 C57.5203013,1.88489749 57.5203013,1.85281622 57.5203013,1.81972533 L57.5854805,1.81972533 L57.5854805,2.37215423 L57.5203013,2.37215423 C57.5203013,2.33906434 57.5203013,2.30698307 57.4882281,2.30698307 C57.4882281,2.2749018 57.4551322,2.2749018 57.3909656,2.2749018 L56.6430242,2.2749018 L56.6430242,2.72908369 L57.9103137,2.72908369 C57.9754828,2.72908369 58.0075561,2.72908369 58.0075561,2.69700242 C58.040652,2.69700242 58.040652,2.66492215 58.040652,2.59974998 L58.1048085,2.59974998 L58.1048085,3.24943132 L58.040652,3.24943132 C58.040652,3.18426016 58.040652,3.1511843 58.0075561,3.1511843 C58.0075561,3.11908799 57.9754828,3.11908799 57.9103137,3.11908799 L56.058497,3.11908799 L56.058497,3.05393187 C56.0915929,3.05393187 56.1236762,3.0218516 56.1557595,3.0218516 C56.1557595,2.98975529 56.1888454,2.95667944 56.1888454,2.92459817 L56.1888454,1.33245355 C56.1888454,1.30037228 56.1557595,1.26729743 56.1557595,1.23520112 C56.1236762,1.20311985 56.0915929,1.20311985 56.058497,1.20311985 L56.058497,1.13794869 L57.8782304,1.13794869 Z" id="path1966"></path>
            </g>
        </g>
    </g>
</svg>