<svg width="32" height="31" viewBox="0 0 32 31" fill="none" xmlns="http://www.w3.org/2000/svg">
<rect x="9" y="13" width="14" height="12" fill="#E6BB6E"/>
<path d="M16 20C17.1 20 17 20.1 17 19C17 17.9 17.1 17 16 17C14.9 17 15 17.9 15 19C15 20.1 14.9 20 16 20ZM22 12H21V10C21 7.24 18.76 5 16 5C13.24 5 11 7.24 11 10H12.9C12.9 8.29 14.29 6.9 16 6.9C17.71 6.9 19.1 8.29 19.1 10V12H10C8.9 12 8 12.9 8 14V24C8 25.1 8.9 26 10 26H22C23.1 26 24 25.1 24 24V14C24 12.9 23.1 12 22 12ZM22.5 24.5H9.5V13.5H22.5V24.5Z" fill="#122D3C"/>
<rect x="20.5" y="13.5" width="2" height="11" fill="#E1AB4D" fill-opacity="0.5"/>
<rect x="9.5" y="13.5" width="2" height="11" fill="#FED48A"/>
<path d="M4 1H28V-1H4V1ZM31 4V27H33V4H31ZM28 30H4V32H28V30ZM1 27V4H-1V27H1ZM4 30C2.34315 30 1 28.6569 1 27H-1C-1 29.7614 1.23858 32 4 32V30ZM31 27C31 28.6569 29.6569 30 28 30V32C30.7614 32 33 29.7614 33 27H31ZM28 1C29.6569 1 31 2.34315 31 4H33C33 1.23858 30.7614 -1 28 -1V1ZM4 -1C1.23858 -1 -1 1.23858 -1 4H1C1 2.34315 2.34315 1 4 1V-1Z" fill="#0C364C"/>
</svg>
