<?xml version="1.0" encoding="UTF-8"?>
<svg width="141px" height="97px" viewBox="0 0 141 97" version="1.1" xmlns="http://www.w3.org/2000/svg" xmlns:xlink="http://www.w3.org/1999/xlink">
    <title>UploaderReview</title>
    <g id="Not-a-Case" stroke="none" stroke-width="1" fill="none" fill-rule="evenodd">
        <g id="not-a-case/-finder/-add-batch-step-2-error" transform="translate(-839.000000, -298.000000)">
            <g id="UploaderReview" transform="translate(839.569149, 299.117647)">
                <path d="M68.7074472,82.5560102 C68.7074472,85.3542199 70.3943621,87.6529412 72.4680855,87.6529412 C74.5418089,87.6529412 76.2287238,85.3542199 76.2287238,82.5560102 L76.2287238,78.1304348 L68.7074472,78.1304348 L68.7074472,82.5560102 Z" id="Path" fill-rule="nonzero"></path>
                <polyline id="Path" stroke="#1C3E58" stroke-width="1.25" points="42.6808515 92.7544757 42.6808515 88.0441482 93.1808515 88.0441482 93.1808515 92.7544757"></polyline>
                <path d="M55.0372345,80.091535 L55.0372345,83.1856117 C54.9700795,84.9091934 53.990623,86.5899951 52.2060111,88.0441482" id="Path" stroke="#1C3E58" stroke-width="1.5"></path>
                <path d="M81.3617026,80.0441482 L81.3617026,83.1856117 C81.4288575,84.9091934 82.4083141,86.5899951 84.192926,88.0441482" id="Path" stroke="#1C3E58" stroke-width="1.5"></path>
                <path d="M106.930851,8.31235294 L120.500639,8.30946292 C121.524547,8.2731175 122.387314,9.01732241 122.430851,9.97442455 L122.430851,75.7189258 C122.38419,76.7968687 121.412388,77.635726 120.259362,77.5933504 L16.3610643,77.5933504 C15.3371555,77.6296958 14.4743886,76.8854909 14.4308515,75.9283887 L14.4308515,9.97442455 C14.4743886,9.01732241 15.3371555,8.2731175 16.3610643,8.30946292 L31.0691494,8.30946292" id="Path" stroke="#1C3E58" stroke-width="1.5"></path>
                <polyline id="Path" stroke="#1C3E58" stroke-width="1.0741688" points="111.929165 15.8286445 115.984043 15.8286445 115.984043 69 20.984043 69 20.984043 15.8286445 31.0708515 15.8286445"></polyline>
                <polyline id="Path" stroke="#1C3E58" stroke-width="1.0741688" points="114.886482 15.8286445 118.984043 15.8286445 118.984043 69 22.984043 69 22.984043 15.8286445 31.1559758 15.8286445"></polyline>
                <path d="M106.351344,15.8823529 C107.717198,15.8823529 110.261431,15.8644501 113.984043,15.8286445 L113.984043,69 L17.984043,69 L17.984043,15.8286445 L24.1349232,15.8286445" id="Path" stroke="#1C3E58" stroke-width="1.0741688"></path>
                <line x1="0" y1="92.6138107" x2="140" y2="92.6138107" id="Path" stroke="#1C3E58" stroke-width="1.0741688"></line>
                <line x1="-9.9475983e-14" y1="94.6138107" x2="140" y2="94.6138107" id="Path" stroke="#1C3E58" stroke-width="1.0741688"></line>
                <polyline id="Path" stroke="#1C3E58" stroke-width="1.5" points="31.4308515 69 31.4308515 0 105.569149 0 105.569149 69"></polyline>
                <g id="Group-15" transform="translate(41.789788, 10.813043)">
                    <rect id="Rectangle" fill="#367F6A" x="12.9049411" y="1.77444068" width="38.4316426" height="3.53877058" rx="1"></rect>
                    <rect id="Rectangle" fill="#367F6A" x="12.9049411" y="15.4408356" width="38.4316426" height="3.53877058" rx="1"></rect>
                    <rect id="Rectangle" stroke="#367F6A" stroke-width="0.805626598" x="12.9049411" y="29.1072306" width="38.4316426" height="3.53877058" rx="1"></rect>
                    <ellipse id="Oval" fill="#367F6A" fill-rule="nonzero" cx="3.53975656" cy="17.2051655" rx="3.53975656" ry="3.53877058"></ellipse>
                    <ellipse id="Oval" stroke="#367F6A" stroke-width="0.805626598" fill-rule="nonzero" cx="3.53975656" cy="30.8715605" rx="3.53975656" ry="3.53877058"></ellipse>
                    <ellipse id="Oval" fill="#367F6A" fill-rule="nonzero" cx="3.53975656" cy="3.53877058" rx="3.53975656" ry="3.53877058"></ellipse>
                    <ellipse id="Oval" stroke="#367F6A" stroke-width="0.805626598" fill-rule="nonzero" cx="3.53975656" cy="44.5379554" rx="3.53975656" ry="3.53877058"></ellipse>
                    <rect id="Rectangle" stroke="#367F6A" stroke-width="0.805626598" x="12.9049411" y="42.7736255" width="38.4316426" height="3.53877058" rx="1"></rect>
                </g>
            </g>
        </g>
    </g>
</svg>